<svg xmlns="http://www.w3.org/2000/svg" width="58.619" height="83.179" viewBox="0 0 58.619 83.179">
  <g id="brush" transform="translate(-79.386)">
    <g id="Group_221" data-name="Group 221" transform="translate(100.197 37.624)">
      <g id="Group_220" data-name="Group 220" transform="translate(0)">
        <path id="Path_150" data-name="Path 150" d="M211.532,242.156a2.549,2.549,0,1,1,2.354-3.525A2.567,2.567,0,0,1,211.532,242.156Z" transform="translate(-208.975 -237.07)" fill="#d1d1d1"/>
      </g>
    </g>
    <g id="Group_223" data-name="Group 223" transform="translate(79.386)">
      <g id="Group_222" data-name="Group 222" transform="translate(0)">
        <path id="Path_151" data-name="Path 151" d="M136.345,38.5h-.68V6.158A6.232,6.232,0,0,0,129.375,0H88.016a6.232,6.232,0,0,0-6.29,6.158V38.5h-.68a1.642,1.642,0,0,0-1.66,1.625V46.35a5.082,5.082,0,0,0,5.129,5.021h14.9c.651.4,1.873,3,2.243,5.856h0a5.742,5.742,0,0,1,.051,1.544,48.513,48.513,0,0,1-2.019,7.845,20.322,20.322,0,0,0-1.376,6.4,10.384,10.384,0,0,0,20.764,0,20.327,20.327,0,0,0-1.375-6.391,48.591,48.591,0,0,1-2.019-7.851,5.747,5.747,0,0,1,.051-1.546h0c.37-2.852,1.592-5.46,2.243-5.855h14.9A5.082,5.082,0,0,0,138,46.35V40.129a1.642,1.642,0,0,0-1.66-1.624ZM85.044,6.158a2.944,2.944,0,0,1,2.971-2.909h26.126v21.5a2.393,2.393,0,0,1-4.785,0V13.39a1.66,1.66,0,0,0-3.319,0v7.8a2.393,2.393,0,0,1-4.785,0V11.93a1.66,1.66,0,0,0-3.319,0,2.393,2.393,0,0,1-4.785,0,1.66,1.66,0,0,0-3.319,0v3.7a2.393,2.393,0,0,1-4.785,0V6.158Zm30.714,66.857a7.064,7.064,0,0,1-14.126,0,17.809,17.809,0,0,1,1.218-5.406,51.963,51.963,0,0,0,2.135-8.324,5.505,5.505,0,0,0,.063-.637h7.293a5.5,5.5,0,0,0,.063.637,51.984,51.984,0,0,0,2.136,8.328A17.82,17.82,0,0,1,115.758,73.015ZM112.7,55.4h-8.014a18.968,18.968,0,0,0-1.321-4.027h10.657A18.948,18.948,0,0,0,112.7,55.4Zm21.983-9.048a1.793,1.793,0,0,1-1.81,1.772H84.515a1.793,1.793,0,0,1-1.81-1.772v-4.6H94.369a1.625,1.625,0,1,0,0-3.249H85.044v-17.8a5.782,5.782,0,0,0,2.393.515,5.7,5.7,0,0,0,5.556-4.29,5.818,5.818,0,0,0,4.941.074v4.182a5.659,5.659,0,0,0,5.711,5.591,5.777,5.777,0,0,0,2.582-.6,5.727,5.727,0,0,0,11.234-1.43V3.249h11.915a2.944,2.944,0,0,1,2.971,2.909V38.5H110.41a1.625,1.625,0,1,0,0,3.249h24.276Z" transform="translate(-79.386)" fill="#d1d1d1"/>
      </g>
    </g>
    <g id="Group_224" data-name="Group 224" transform="translate(106.145 62.69)">
      <path id="Path_152" data-name="Path 152" d="M248.551,440.849A2.55,2.55,0,0,1,246,438.3v-4.081a2.55,2.55,0,1,1,5.1,0V438.3A2.551,2.551,0,0,1,248.551,440.849Z" transform="translate(-246 -431.667)" fill="#d1d1d1"/>
    </g>
  </g>
</svg>
