<svg xmlns="http://www.w3.org/2000/svg" width="96.668" height="96.358" viewBox="0 0 96.668 96.358">
  <g id="sketch" transform="translate(0 -0.82)">
    <g id="Group_231" data-name="Group 231" transform="translate(68.067 68.776)">
      <g id="Group_230" data-name="Group 230">
        <path id="Path_194" data-name="Path 194" d="M377.985,360.857a1.419,1.419,0,0,0-1.546.307L360.933,376.67a1.419,1.419,0,0,0,1,2.422h15.506a1.419,1.419,0,0,0,1.419-1.419V362.168A1.419,1.419,0,0,0,377.985,360.857Zm-12.624,15.4,10.662-10.662v10.662Z" transform="translate(-360.517 -360.749)" fill="#d1d1d1"/>
      </g>
    </g>
    <g id="Group_233" data-name="Group 233" transform="translate(0 0.82)">
      <g id="Group_232" data-name="Group 232">
        <path id="Path_195" data-name="Path 195" d="M95.792,46.142a1.419,1.419,0,0,0-1.546.307L90,50.7V21.806a1.419,1.419,0,0,0-1.419-1.419h-10.9l3.957-3.957,0,0,3.813-3.813a4.327,4.327,0,0,0,0-6.118L81.038,2.087a4.327,4.327,0,0,0-6.118,0L71.1,5.9l-4.61,4.61L56.62,20.387H12.578V6.35a1.419,1.419,0,0,0-1.419-1.419A11.172,11.172,0,0,0,0,16.091V76.354a1.422,1.422,0,0,0,.034.3A10.747,10.747,0,0,0,10.748,86.59H54.1l-8.166,8.166a1.419,1.419,0,0,0,1,2.422H95.249a1.419,1.419,0,0,0,1.419-1.419V47.453A1.419,1.419,0,0,0,95.792,46.142ZM76.927,4.094a1.49,1.49,0,0,1,2.1,0l4.41,4.41a1.49,1.49,0,0,1,0,2.105L80.63,13.42,74.115,6.905ZM72.108,8.912l6.515,6.514-2.6,2.6-6.514-6.514ZM93.83,63.4H91.213a1.419,1.419,0,1,0,0,2.838H93.83v4.276H91.213a1.419,1.419,0,1,0,0,2.838H93.83v4.275H91.213a1.419,1.419,0,1,0,0,2.838H93.83v4.276H91.213a1.419,1.419,0,1,0,0,2.838H93.83v6.767H50.368L64.7,80.009A1.419,1.419,0,0,0,62.693,78l-5.75,5.75H10.748a7.866,7.866,0,0,1-7.9-7.655q.012-.4.063-.8v0q.024-.188.057-.375l.008-.042q.03-.166.066-.331c.007-.031.014-.061.021-.092q.032-.139.07-.277c.014-.05.028-.1.042-.149.021-.072.042-.144.065-.215s.047-.142.072-.212c.017-.049.034-.1.053-.147.035-.093.071-.185.109-.276L3.5,73.1c.049-.113.1-.225.152-.336l.007-.014a8.353,8.353,0,0,1,5.806-4.54l.022,0c.117-.024.236-.045.355-.064l.06-.01c.108-.016.217-.029.326-.042l.092-.011c.105-.011.211-.018.317-.024l.1-.007q.208-.01.42-.011a1.419,1.419,0,0,0,1.419-1.419V56.326a1.419,1.419,0,1,0-2.838,0v8.958a11.082,11.082,0,0,0-6.373,3.084c-.184.18-.359.367-.53.558V16.091a8.336,8.336,0,0,1,6.9-8.2V50.651h0a1.419,1.419,0,1,0,2.838,0h0V23.225h41.2l-7.844,7.844a1.419,1.419,0,0,0,2.006,2.007L58.211,22.809h0L67.5,13.522l6.514,6.515-.764.764,0,0L44.637,49.412,38.123,42.9l5.639-5.639a1.419,1.419,0,0,0-2.006-2.007l-6.643,6.643a1.425,1.425,0,0,0-.1.112c-.01.013-.02.027-.029.04s-.04.053-.058.081-.02.033-.03.05-.031.053-.045.081-.017.036-.025.054-.024.056-.035.084c0,.01-.009.019-.012.029l-2.764,7.831L30.13,55.6a1.435,1.435,0,0,0-.056.216H25.355a1.419,1.419,0,0,0,0,2.838H64.648a1.419,1.419,0,0,0,0-2.838H36.457l8.653-3.054.021-.009c.034-.012.067-.026.1-.041l.039-.018c.034-.017.067-.036.1-.056l.032-.019c.034-.022.067-.046.1-.071l.025-.018a1.424,1.424,0,0,0,.115-.1l29.2-29.2h12.32V53.537l-20.3,20.3a1.419,1.419,0,0,0,0,2.007,1.449,1.449,0,0,0,.108.1,1.418,1.418,0,0,0,1.9-.1h0L93.83,50.878ZM42.042,50.83l-4.064,1.435L35.27,49.557l1.435-4.064Z" transform="translate(0 -0.82)" fill="#d1d1d1"/>
      </g>
    </g>
  </g>
</svg>
