<svg xmlns="http://www.w3.org/2000/svg" width="101.187" height="99.747" viewBox="0 0 101.187 99.747">
  <g id="_3d" data-name="3d" transform="translate(0 -3.628)">
    <path id="Path_169" data-name="Path 169" d="M76.338,271.875a1.488,1.488,0,0,0,1.488-1.488V260.128a1.488,1.488,0,0,0-2.977,0v10.258A1.488,1.488,0,0,0,76.338,271.875Z" transform="translate(-59.995 -204.403)" fill="#d1d1d1"/>
    <path id="Path_170" data-name="Path 170" d="M76.338,179.533a1.488,1.488,0,0,0,1.488-1.488v-4.121l3.528-2.13a1.488,1.488,0,0,0-1.538-2.549l-4.248,2.564a1.489,1.489,0,0,0-.719,1.274v4.961A1.489,1.489,0,0,0,76.338,179.533Z" transform="translate(-59.995 -132.577)" fill="#d1d1d1"/>
    <path id="Path_171" data-name="Path 171" d="M141.03,124.935a1.482,1.482,0,0,0,.768-.214l8.591-5.186a1.488,1.488,0,0,0-1.538-2.549l-8.591,5.186a1.489,1.489,0,0,0,.771,2.763Z" transform="translate(-111.847 -90.69)" fill="#d1d1d1"/>
    <path id="Path_172" data-name="Path 172" d="M312.519,119.587l8.519,5.182a1.488,1.488,0,0,0,1.547-2.543l-8.519-5.182a1.488,1.488,0,0,0-1.547,2.543Z" transform="translate(-249.924 -90.734)" fill="#d1d1d1"/>
    <path id="Path_173" data-name="Path 173" d="M398.374,171.813l3.524,2.144v4.125a1.488,1.488,0,1,0,2.977,0V173.12a1.488,1.488,0,0,0-.715-1.272l-4.239-2.578a1.488,1.488,0,1,0-1.547,2.543Z" transform="translate(-318.741 -132.595)" fill="#d1d1d1"/>
    <path id="Path_174" data-name="Path 174" d="M420.507,258.67a1.488,1.488,0,0,0-1.488,1.488V270.4a1.488,1.488,0,1,0,2.977,0V260.158A1.488,1.488,0,0,0,420.507,258.67Z" transform="translate(-335.862 -204.427)" fill="#d1d1d1"/>
    <path id="Path_175" data-name="Path 175" d="M321.038,426.24l-8.519,5.182a1.488,1.488,0,1,0,1.547,2.543l8.519-5.182a1.488,1.488,0,0,0-1.547-2.543Z" transform="translate(-249.924 -338.568)" fill="#d1d1d1"/>
    <path id="Path_176" data-name="Path 176" d="M235.314,478.465l-3.468,2.11-3.475-2.1a1.488,1.488,0,1,0-1.538,2.549l4.248,2.564a1.488,1.488,0,0,0,1.543,0l4.239-2.578a1.488,1.488,0,0,0-1.547-2.543Z" transform="translate(-181.239 -380.428)" fill="#d1d1d1"/>
    <path id="Path_177" data-name="Path 177" d="M150.387,431.461l-8.591-5.186a1.488,1.488,0,0,0-1.538,2.549l8.591,5.185a1.488,1.488,0,0,0,1.538-2.549Z" transform="translate(-111.846 -338.598)" fill="#d1d1d1"/>
    <path id="Path_178" data-name="Path 178" d="M248.923,184.07a1.488,1.488,0,0,0,1.488-1.488v-1.143a1.488,1.488,0,0,0-2.977,0v1.143A1.488,1.488,0,0,0,248.923,184.07Z" transform="translate(-198.33 -141.33)" fill="#d1d1d1"/>
    <path id="Path_179" data-name="Path 179" d="M248.923,227.078a1.488,1.488,0,0,0,1.488-1.488v-1.143a1.488,1.488,0,0,0-2.977,0v1.143A1.488,1.488,0,0,0,248.923,227.078Z" transform="translate(-198.33 -175.802)" fill="#d1d1d1"/>
    <path id="Path_180" data-name="Path 180" d="M94.959,81.631a6.2,6.2,0,0,0-4.144,1.584l-4.68-2.674V76.222a1.488,1.488,0,1,0-2.977,0V78.84L77.8,75.777c0-.034,0-.068,0-.1V46.033a2.969,2.969,0,0,0-1.418-2.522L52.125,28.756l-.043-.024V22.459l1.994,1.213a1.488,1.488,0,0,0,1.547-2.543l-3.54-2.154V15.9a6.229,6.229,0,1,0-2.977,0v3.087l-3.512,2.12a1.488,1.488,0,1,0,1.538,2.549l1.973-1.191v6.261l-.04.022L24.616,43.51a2.968,2.968,0,0,0-1.426,2.527V55.2a1.488,1.488,0,1,0,2.977,0V47.848L49.1,61.694V89.5L26.461,75.836c-.013-.025-.024-.051-.039-.076a1.492,1.492,0,0,0-.256-.329V61.542a1.488,1.488,0,1,0-2.977,0v14.13c0,.072,0,.144.009.216l-5.367,3.066V76.241a1.488,1.488,0,1,0-2.977,0v4.414l-4.482,2.561a6.217,6.217,0,1,0,1.689,2.464l4.529-2.588,3.23,1.95a1.488,1.488,0,0,0,1.538-2.549L19.551,81.4l5.327-3.044,24.188,14.6a2.978,2.978,0,0,0,.468.227,1.486,1.486,0,0,0,2.125,0,2.955,2.955,0,0,0,.467-.229l9.581-5.828a1.488,1.488,0,0,0-1.547-2.543l-8.076,4.913v-27.8l22.74-13.833v27.8l-9.186,5.588a1.489,1.489,0,1,0,1.547,2.543L76.211,78.3l5.316,3.038L79.633,82.49a1.488,1.488,0,1,0,1.547,2.543l3.3-2.008,4.643,2.653a6.228,6.228,0,1,0,5.834-4.047ZM6.229,91.112A3.252,3.252,0,1,1,9.481,87.86a3.256,3.256,0,0,1-3.252,3.252ZM47.342,9.857a3.252,3.252,0,1,1,3.252,3.252A3.256,3.256,0,0,1,47.342,9.857ZM49.105,32.2v1.566a1.488,1.488,0,1,0,2.977,0V32.215l21.365,13-21.365,13V56.463a1.488,1.488,0,0,0-2.977,0v1.754L27.559,45.211ZM94.959,91.112a3.252,3.252,0,1,1,3.252-3.252A3.256,3.256,0,0,1,94.959,91.112Z" fill="#d1d1d1"/>
  </g>
</svg>
