<svg xmlns="http://www.w3.org/2000/svg" width="70" height="70" viewBox="0 0 70 70">
  <g id="photo-gallery" transform="translate(-2 -2)">
    <path id="Path_153" data-name="Path 153" d="M60.375,9.312H13.625a1,1,0,0,1,0-2h46.75a1,1,0,0,1,0,2Z" fill="#d1d1d1"/>
    <path id="Path_154" data-name="Path 154" d="M44.19,66.69H41.22a1,1,0,0,1,0-2h2.97a1,1,0,1,1,0,2Z" fill="#d1d1d1"/>
    <path id="Path_155" data-name="Path 155" d="M24.32,66.69H13.63a1,1,0,1,1,0-2H24.32a1,1,0,0,1,0,2Z" fill="#d1d1d1"/>
    <path id="Path_156" data-name="Path 156" d="M34.22,66.69h-2.9a1,1,0,0,1,0-2h2.9a1,1,0,0,1,0,2Z" fill="#d1d1d1"/>
    <path id="Path_157" data-name="Path 157" d="M60.38,66.69H51.19a1,1,0,0,1,0-2h9.19a1,1,0,1,1,0,2Z" fill="#d1d1d1"/>
    <path id="Path_158" data-name="Path 158" d="M8.312,61.375a1,1,0,0,1-1-1V13.625a1,1,0,0,1,2,0v46.75A1,1,0,0,1,8.312,61.375Z" fill="#d1d1d1"/>
    <path id="Path_159" data-name="Path 159" d="M65.688,61.375a1,1,0,0,1-1-1V13.625a1,1,0,0,1,2,0v46.75A1,1,0,0,1,65.688,61.375Z" fill="#d1d1d1"/>
    <path id="Path_160" data-name="Path 160" d="M71,14.625H60.375a1,1,0,0,1-1-1V3a1,1,0,0,1,1-1H71a1,1,0,0,1,1,1V13.625A1,1,0,0,1,71,14.625Zm-9.625-2H70V4H61.375Z" fill="#d1d1d1"/>
    <path id="Path_161" data-name="Path 161" d="M13.625,14.625H3a1,1,0,0,1-1-1V3A1,1,0,0,1,3,2H13.625a1,1,0,0,1,1,1V13.625A1,1,0,0,1,13.625,14.625ZM4,12.625h8.625V4H4Z" fill="#d1d1d1"/>
    <path id="Path_162" data-name="Path 162" d="M71,72H60.375a1,1,0,0,1-1-1V60.375a1,1,0,0,1,1-1H71a1,1,0,0,1,1,1V71A1,1,0,0,1,71,72Zm-9.625-2H70V61.375H61.375Z" fill="#d1d1d1"/>
    <path id="Path_163" data-name="Path 163" d="M13.625,72H3a1,1,0,0,1-1-1V60.375a1,1,0,0,1,1-1H13.625a1,1,0,0,1,1,1V71A1,1,0,0,1,13.625,72ZM4,70h8.625V61.375H4Z" fill="#d1d1d1"/>
    <path id="Path_164" data-name="Path 164" d="M24.7,52.363a1,1,0,0,1-.739-1.673L44.457,28.15a1,1,0,0,1,1.364-.108L66.312,44.435A1,1,0,0,1,65.063,46L45.3,30.19,25.445,52.036a1,1,0,0,1-.74.327Z" fill="#d1d1d1"/>
    <path id="Path_165" data-name="Path 165" d="M8.312,43.634a1,1,0,0,1-.691-1.723l12.3-11.762a1,1,0,0,1,1.376,0L33.536,41.67a1,1,0,1,1-1.371,1.456L20.612,32.25,9,43.356a1,1,0,0,1-.688.278Z" fill="#d1d1d1"/>
    <path id="Path_166" data-name="Path 166" d="M29.766,30.239a5.088,5.088,0,1,1,5.087-5.088,5.088,5.088,0,0,1-5.087,5.088Zm0-8.175a3.088,3.088,0,1,0,3.087,3.087,3.088,3.088,0,0,0-3.087-3.087Z" fill="#d1d1d1"/>
  </g>
</svg>
