<svg xmlns="http://www.w3.org/2000/svg" width="70" height="70" viewBox="0 0 70 70">
  <g id="computer_coding" data-name="computer coding" transform="translate(-2 -2)">
    <path id="Path_199" data-name="Path 199" d="M68.5,16H60.333V5.5a3.51,3.51,0,0,0-3.5-3.5H17.167a3.51,3.51,0,0,0-3.5,3.5V16H5.5A3.51,3.51,0,0,0,2,19.5V56.833a3.51,3.51,0,0,0,3.5,3.5H28.623L27.842,65H24.167a1.183,1.183,0,0,0-.933.467l-3.5,4.667a1.167,1.167,0,0,0-.1,1.225A1.14,1.14,0,0,0,20.667,72H53.333a1.14,1.14,0,0,0,1.038-.642,1.167,1.167,0,0,0-.1-1.225l-3.5-4.667A1.183,1.183,0,0,0,49.833,65H46.158l-.782-4.667H68.5a3.51,3.51,0,0,0,3.5-3.5V19.5A3.511,3.511,0,0,0,68.5,16ZM16,5.5a1.167,1.167,0,0,1,1.167-1.167H56.833A1.167,1.167,0,0,1,58,5.5v5.833H16Zm0,8.167H58V40.5a1.167,1.167,0,0,1-1.167,1.167H17.167A1.167,1.167,0,0,1,16,40.5ZM49.25,67.333,51,69.667H23l1.75-2.333ZM30.21,65l.782-4.667H43.008L43.79,65Zm39.457-8.167A1.167,1.167,0,0,1,68.5,58H5.5a1.167,1.167,0,0,1-1.167-1.167v-3.5H69.667Zm0-5.833H4.333V19.5A1.167,1.167,0,0,1,5.5,18.333h8.167V40.5a3.51,3.51,0,0,0,3.5,3.5h4.667v2.333H13.667v2.333H23A1.167,1.167,0,0,0,24.167,47.5V44h7v4.667H33.5V44h7v4.667h2.333V44h7v3.5A1.167,1.167,0,0,0,51,48.667h9.333V46.333H52.167V44h4.667a3.51,3.51,0,0,0,3.5-3.5V18.333H68.5A1.167,1.167,0,0,1,69.667,19.5Z" transform="translate(0 0)" fill="#d1d1d1"/>
    <path id="Path_200" data-name="Path 200" d="M46,6h2.333V8.333H46Z" transform="translate(7.333 0.667)" fill="#d1d1d1"/>
    <path id="Path_201" data-name="Path 201" d="M42,6h2.333V8.333H42Z" transform="translate(6.667 0.667)" fill="#d1d1d1"/>
    <path id="Path_202" data-name="Path 202" d="M38,6h2.333V8.333H38Z" transform="translate(6 0.667)" fill="#d1d1d1"/>
    <path id="Path_203" data-name="Path 203" d="M27.342,17.293l-7,7a1.167,1.167,0,0,0,0,1.65l7,7,1.65-1.65-6.175-6.175,6.175-6.175Z" transform="translate(3 2.549)" fill="#d1d1d1"/>
    <path id="Path_204" data-name="Path 204" d="M37.943,17.293l-1.65,1.65,6.175,6.175-6.175,6.175,1.65,1.65,7-7a1.167,1.167,0,0,0,0-1.65Z" transform="translate(5.715 2.549)" fill="#d1d1d1"/>
    <path id="Path_205" data-name="Path 205" d="M0,0H22.136V2.333H0Z" transform="matrix(0.316, -0.949, 0.949, 0.316, 32.392, 37.777)" fill="#d1d1d1"/>
  </g>
</svg>
