<svg xmlns="http://www.w3.org/2000/svg" width="78.271" height="78.27" viewBox="0 0 78.271 78.27">
  <g id="pencil-and-ruler" transform="translate(0.001 -0.005)">
    <g id="Group_226" data-name="Group 226" transform="translate(-0.001 0.005)">
      <g id="Group_225" data-name="Group 225" transform="translate(0 0)">
        <path id="Path_181" data-name="Path 181" d="M61.979,2.612a8.9,8.9,0,0,0-12.586,0L4.471,47.533a7.3,7.3,0,0,0-1.983,3.653L.033,62.744a1.529,1.529,0,0,0,1.813,1.813L13.4,62.1a7.3,7.3,0,0,0,3.653-1.983L61.979,15.2a8.91,8.91,0,0,0,0-12.586ZM45.568,10.76l8.262,8.262-1.65,1.65L43.918,12.41Zm-7.624,7.624,3.05,3.05L12.537,49.891A3.859,3.859,0,0,1,8.88,47.448ZM4.236,57.674l2.68,2.68-3.4.723Zm8.533,1.437-2.287.486L4.993,54.108l.486-2.286a4.248,4.248,0,0,1,1.135-2.106,6.938,6.938,0,0,0,.967,1.21,6.85,6.85,0,0,0,4.1,1.983,6.849,6.849,0,0,0,1.983,4.1,6.938,6.938,0,0,0,1.21.967A4.249,4.249,0,0,1,12.769,59.111Zm4.373-3.4A3.859,3.859,0,0,1,14.7,52.053L43.156,23.6l3.05,3.05ZM48.368,24.484l-8.262-8.262,1.65-1.65,8.262,8.262ZM59.817,13.036,55.992,16.86,47.73,8.6l3.825-3.825a5.842,5.842,0,0,1,8.262,8.262Z" transform="translate(0.001 -0.005)" fill="#d1d1d1"/>
      </g>
    </g>
    <g id="Group_228" data-name="Group 228" transform="translate(11.115 11.121)">
      <g id="Group_227" data-name="Group 227">
        <path id="Path_182" data-name="Path 182" d="M138.34,112.306a1.529,1.529,0,0,0-1.529,1.529v22.122a.861.861,0,0,1-.859.86H76.634a.859.859,0,0,1-.608-1.467l5.409-5.409,2.182,2.182a1.529,1.529,0,1,0,2.162-2.162L83.6,127.778l7.105-7.105,2.181,2.181a1.529,1.529,0,1,0,2.162-2.162l-2.181-2.181,7.105-7.105,2.181,2.181a1.529,1.529,0,0,0,2.162-2.162l-2.181-2.181,7.105-7.105,2.181,2.181a1.529,1.529,0,1,0,2.162-2.162L111.4,99.976l7.105-7.105,2.181,2.181a1.529,1.529,0,0,0,2.162-2.162l-2.182-2.181,7.105-7.105,2.181,2.181a1.529,1.529,0,0,0,2.162-2.162l-2.181-2.182,5.409-5.409a.859.859,0,0,1,1.467.608v20.38a1.529,1.529,0,0,0,3.057,0V76.639a3.917,3.917,0,0,0-6.687-2.77L73.864,133.187a3.917,3.917,0,0,0,2.77,6.687h59.318a3.921,3.921,0,0,0,3.917-3.917V113.835a1.529,1.529,0,0,0-1.529-1.529Z" transform="translate(-72.715 -72.72)" fill="#d1d1d1"/>
        <path id="Path_183" data-name="Path 183" d="M493.534,277.005h0a1.529,1.529,0,1,0,1.53,1.529A1.528,1.528,0,0,0,493.533,277.005Z" transform="translate(-427.908 -245.776)" fill="#d1d1d1"/>
        <path id="Path_184" data-name="Path 184" d="M251.013,220.082l-30.937,30.937a1.529,1.529,0,0,0,1.081,2.61h30.937a1.529,1.529,0,0,0,1.529-1.529V221.163a1.529,1.529,0,0,0-2.61-1.081Zm-.448,30.489H224.848l25.717-25.717Z" transform="translate(-197.17 -197.175)" fill="#d1d1d1"/>
      </g>
    </g>
  </g>
</svg>
