<svg xmlns="http://www.w3.org/2000/svg" width="69.61" height="69.612" viewBox="0 0 69.61 69.612">
  <g id="data-analytics" transform="translate(-1 -1)">
    <path id="Path_227" data-name="Path 227" d="M18.877,34.616a4.49,4.49,0,1,0-8.8,1.81l1.266,5.065L1,61.038v2.524A3.372,3.372,0,0,0,4.368,66.93H21.209V64.685a4.5,4.5,0,0,0-4.491-4.491h-7.1l4.375-8.125.567,2.268a4.5,4.5,0,0,0,4.4,3.612,4.341,4.341,0,0,0,.882-.088,4.507,4.507,0,0,0,3.51-5.336ZM16.718,62.439a2.248,2.248,0,0,1,2.245,2.245H4.368a1.123,1.123,0,0,1-1.123-1.123V62.439ZM7.065,60.194H3.988l8.175-15.442,1.021,4.081ZM19.4,55.66a2.171,2.171,0,0,1-.436.043,2.272,2.272,0,0,1-2.214-1.858l-4.477-17.91a2.249,2.249,0,0,1,1.768-2.643,2.214,2.214,0,0,1,.442-.045,2.266,2.266,0,0,1,2.206,1.862l4.477,17.909A2.25,2.25,0,0,1,19.4,55.66Z" transform="translate(0 3.682)" fill="#d1d1d1"/>
    <path id="Path_228" data-name="Path 228" d="M41,36.123a5.614,5.614,0,1,0,11.227,0V35H41Zm8.79,1.123a3.369,3.369,0,0,1-6.352,0Z" transform="translate(4.91 4.173)" fill="#d1d1d1"/>
    <path id="Path_229" data-name="Path 229" d="M44.736,29.368a3.368,3.368,0,1,0-3.368,3.368A3.372,3.372,0,0,0,44.736,29.368Zm-4.491,0a1.123,1.123,0,1,1,1.123,1.123A1.124,1.124,0,0,1,40.245,29.368Z" transform="translate(4.541 3.069)" fill="#d1d1d1"/>
    <path id="Path_230" data-name="Path 230" d="M51.368,26a3.368,3.368,0,1,0,3.368,3.368A3.372,3.372,0,0,0,51.368,26Zm0,4.491a1.123,1.123,0,1,1,1.123-1.123A1.124,1.124,0,0,1,51.368,30.491Z" transform="translate(5.769 3.069)" fill="#d1d1d1"/>
    <path id="Path_231" data-name="Path 231" d="M70.61,27.025A12.568,12.568,0,0,0,58.057,14.473H55.166l-.468-1.29A13.438,13.438,0,0,0,36.757,6.8,15.7,15.7,0,0,0,9.485,12.366,10.1,10.1,0,0,0,11.1,32.437H33.061a4.445,4.445,0,0,0-.624,2.245,4.5,4.5,0,0,0,4.491,4.491h.057a12.373,12.373,0,0,0,8.752,10.7,9.246,9.246,0,0,0-5.368,7.444,3.359,3.359,0,0,0-2.112,2.061H34.682a3.372,3.372,0,0,0-3.368,3.368v1.123H27.946a4.5,4.5,0,0,0-4.491,4.491V70.61H39.173V67.489a3.341,3.341,0,0,0,2.245.876H50.4A7.869,7.869,0,0,0,58.26,60.5V53.767a5.562,5.562,0,0,0-1.469-3.756,12.364,12.364,0,0,0,9.272-10.838h.056a4.5,4.5,0,0,0,4.491-4.491,4.445,4.445,0,0,0-1-2.795A12.581,12.581,0,0,0,70.61,27.025ZM36.928,68.365H25.7a2.248,2.248,0,0,1,2.245-2.245h8.982Zm1.123-4.491H33.56V62.751a1.123,1.123,0,0,1,1.123-1.123h3.368ZM11.1,30.191a7.856,7.856,0,0,1-.635-15.686l.817-.065.186-.8A13.451,13.451,0,0,1,35.527,8.89l.588.822.879-.5a11.2,11.2,0,0,1,15.633,4.836l.154.427H44.989a12.49,12.49,0,0,0-7.92,2.825,4.417,4.417,0,0,0-5.546-1.191L28.3,12.485a4.495,4.495,0,1,0-7.486-.062l-6.494,7.085a4.43,4.43,0,0,0-2.1-.543,4.512,4.512,0,1,0,3.76,2.05l6.494-7.085a4.313,4.313,0,0,0,4.132.033l3.219,3.622A4.486,4.486,0,0,0,32.7,24.49a12.3,12.3,0,0,0,.164,5.7ZM26.823,9.982a2.245,2.245,0,1,1-2.245-2.245A2.248,2.248,0,0,1,26.823,9.982ZM14.473,23.455a2.245,2.245,0,1,1-2.245-2.245A2.248,2.248,0,0,1,14.473,23.455Zm18.89-1.143a2.239,2.239,0,1,1,2.08-3.417,12.559,12.559,0,0,0-2.08,3.417Zm3.565,14.616a2.245,2.245,0,0,1,0-4.491Zm10.141,14.8.413-.155a5.572,5.572,0,0,0-.449,2.2v3.369h-4.4a7.016,7.016,0,0,1,4.43-5.41ZM56.014,60.5A5.62,5.62,0,0,1,50.4,66.118H41.419A1.123,1.123,0,0,1,40.3,65V60.505a1.123,1.123,0,0,1,1.123-1.123h6.137l1.911,2.869,1.868-1.245-2.056-3.085V53.768A3.371,3.371,0,0,1,52.635,50.4h.025a3.366,3.366,0,0,1,3.355,3.366Zm7.859-22.454a10.116,10.116,0,0,1-10.1,10.1H49.278a10.116,10.116,0,0,1-10.1-10.1V30.191A4.5,4.5,0,0,1,43.515,25.7l.991.283A50.91,50.91,0,0,0,58.5,27.946h2a3.372,3.372,0,0,1,3.368,3.368Zm2.245-1.123V32.437a2.245,2.245,0,0,1,0,4.491Zm1.637-6.416a4.461,4.461,0,0,0-1.637-.32h-.113a5.623,5.623,0,0,0-5.5-4.491h-2a48.72,48.72,0,0,1-13.379-1.874l-1.15-.328-.309-.044a6.743,6.743,0,0,0-6.736,6.736,4.464,4.464,0,0,0-1.637.319,10.3,10.3,0,0,1,9.7-13.792H58.058a10.3,10.3,0,0,1,9.7,13.793Z" fill="#d1d1d1"/>
  </g>
</svg>
