<svg xmlns="http://www.w3.org/2000/svg" width="78.474" height="79.058" viewBox="0 0 78.474 79.058">
  <g id="artist" transform="translate(-1.891 -0.001)">
    <path id="Path_185" data-name="Path 185" d="M178.539,68.9a6.239,6.239,0,1,0-6.239-6.239A6.246,6.246,0,0,0,178.539,68.9Zm0-10.161a3.923,3.923,0,1,1-3.923,3.923A3.927,3.927,0,0,1,178.539,58.738Z" transform="translate(-144.096 -47.709)" fill="#d1d1d1"/>
    <path id="Path_186" data-name="Path 186" d="M158.741,358.806a7.14,7.14,0,1,0-7.14-7.14A7.148,7.148,0,0,0,158.741,358.806Zm0-11.963a4.824,4.824,0,1,1-4.824,4.824A4.829,4.829,0,0,1,158.741,346.843Z" transform="translate(-126.594 -291.328)" fill="#d1d1d1"/>
    <path id="Path_187" data-name="Path 187" d="M90.165,131.633a7.569,7.569,0,1,0,7.569,7.569A7.578,7.578,0,0,0,90.165,131.633Zm0,12.823a5.253,5.253,0,1,1,5.253-5.253A5.259,5.259,0,0,1,90.165,144.456Z" transform="translate(-68.244 -111.307)" fill="#d1d1d1"/>
    <path id="Path_188" data-name="Path 188" d="M76.125,265.82a7.569,7.569,0,1,0-7.569-7.569A7.578,7.578,0,0,0,76.125,265.82Zm0-12.823a5.253,5.253,0,1,1-5.253,5.253A5.259,5.259,0,0,1,76.125,253Z" transform="translate(-56.371 -211.973)" fill="#d1d1d1"/>
    <path id="Path_189" data-name="Path 189" d="M27.3,75.731a1.158,1.158,0,0,0,.416-2.278,20.442,20.442,0,0,1-11.483-6.368C7.279,57.311,3.293,46.769,4.384,35.752,6.847,10.889,33.066-1.487,57.246,3.349a5.642,5.642,0,0,1,4.636,5.4,5.568,5.568,0,0,1-4.06,5.728,22.3,22.3,0,0,0-9.563,5.274,15,15,0,0,0-.687,20.014,20.381,20.381,0,0,1,4.562,10.319c-2.622,5.961-5.3,12.711-7.38,18.959a20.963,20.963,0,0,1-11.918,4.708,1.158,1.158,0,0,0,.074,2.314l.077,0A23.377,23.377,0,0,0,43.59,72.7a4.991,4.991,0,0,0,9.147,3.823c2.23-3.946,4.646-8.734,6.987-13.849a1.158,1.158,0,1,0-2.106-.964c-2.314,5.056-4.7,9.784-6.9,13.673a2.684,2.684,0,0,1-3.49,1.1,2.657,2.657,0,0,1-1.4-3.181A224.005,224.005,0,0,1,58.37,42.153l6.225,2.664c-1.451,3.955-3.1,8.073-4.791,11.978a1.158,1.158,0,0,0,2.127.917,191.046,191.046,0,0,0,8.793-24.332,2.628,2.628,0,0,0,1.549-1.455l1-2.341a2.645,2.645,0,0,0,.168-1.533,15.584,15.584,0,0,0,6.024-6.692c1.727-4.035.579-10.87-.258-14.586a2.282,2.282,0,0,0-3.4-1.455c-3.267,1.959-9,5.847-10.732,9.881a15.584,15.584,0,0,0-.684,8.975,2.641,2.641,0,0,0-.993,1.182l-1,2.341a2.627,2.627,0,0,0,.017,2.125,168.4,168.4,0,0,0-8.681,16.7,22.626,22.626,0,0,0-4.387-8.244,12.269,12.269,0,0,1-2.928-8.081c0-6.566,4.059-11.108,12.066-13.5A7.81,7.81,0,0,0,64.2,8.64a7.992,7.992,0,0,0-6.5-7.561C32.21-4.02,4.684,9.227,2.079,35.524.921,47.224,5.107,58.369,14.524,68.649A22.74,22.74,0,0,0,27.3,75.731ZM64.191,31.361l4.194,1.8c-.757,2.784-1.783,6.02-3,9.479l-5.974-2.557c1.66-3.272,3.293-6.248,4.785-8.717Zm6.954-2.687-1,2.341a.345.345,0,0,1-.452.181l-4.983-2.133a.344.344,0,0,1-.181-.451l1-2.342a.344.344,0,0,1,.452-.181l4.983,2.133a.348.348,0,0,1,.181.452ZM67.206,16.112c.507-1.185,2.473-4.409,9.753-8.782,1.862,8.287.885,11.934.378,13.118a13.367,13.367,0,0,1-5.272,5.735c-.062-.033-.125-.063-.19-.09l-4.983-2.133h0q-.1-.041-.2-.075a13.372,13.372,0,0,1,.51-7.773Z" transform="translate(0 0)" fill="#d1d1d1"/>
  </g>
</svg>
