<svg xmlns="http://www.w3.org/2000/svg" width="87.261" height="99.208" viewBox="0 0 87.261 99.208">
  <g id="idea" transform="translate(-17.776)">
    <g id="Group_235" data-name="Group 235" transform="translate(17.776)">
      <g id="Group_234" data-name="Group 234" transform="translate(0)">
        <path id="Path_196" data-name="Path 196" d="M105.037.03l-9.3,6.962L86.381,28.8H78.859l-2.954-6.4h1.93a6.381,6.381,0,0,0,6.4-6.37V9.6h3.2V0h-9.6V9.6h3.2v6.431a3.178,3.178,0,0,1-3.2,3.17H74.429l-4.09-8.849,4.9-2.442L59.2,1.04l-3.772,13.2A14.4,14.4,0,1,0,33.032,26.391V28.8H29.156l-.25,1.312a36.012,36.012,0,0,0-.214,12.315L17.776,61.887,29.831,64.64V84.807h16v14.4h38.4V76.91a41.7,41.7,0,0,0,17.589-34.256l0-5.837a37.166,37.166,0,0,0-.613-6.689l-.237-1.327H97.837l7.2-17.251V.03Zm-24,6.4v-3.2h3.2v3.2ZM75.334,28.8H69.265l-2.909-6.4h6.025ZM61.272,5.416l6.361,2.725-1.5.736L70.9,19.2h-6L61,10.643l-1.432.723ZM65.749,28.8H58.634v-3.17a3.23,3.23,0,0,1,3.2-3.231H62.84ZM59.466,15l1.941,4.271a6.387,6.387,0,0,0-5.973,6.357V28.8h-6.4V26.391a14.459,14.459,0,0,0,6.108-9.225Zm-29.634-.573a11.2,11.2,0,1,1,16.8,9.69l-.8.461V28.8h-3.2V18.936a4.8,4.8,0,1,0-3.2,0V28.8h-3.2v-4.22l-.8-.462A11.241,11.241,0,0,1,29.832,14.432Zm11.2,1.6a1.6,1.6,0,1,1,1.6-1.6A1.6,1.6,0,0,1,41.032,16.032ZM98.285,32a33.615,33.615,0,0,1,.349,4.8l0,5.849a38.962,38.962,0,0,1-16.9,32.108l-.7.48V96.008h-32v-14.4h-16V62.088l-10.37-2.367,9.367-16.7-.091-.571A33.011,33.011,0,0,1,31.825,32H98.285Zm-3.915-3.2H89.862l7.977-18.6,3.547,1.766Zm7.468-20.162-1.77-.885,1.77-1.325Z" transform="translate(-17.776)" fill="#d1d1d1"/>
        <path id="Path_197" data-name="Path 197" d="M80.7,114.324a4.487,4.487,0,0,1-4.8-4.8H72.7a8,8,0,0,0,16,0H85.5A4.487,4.487,0,0,1,80.7,114.324Z" transform="translate(-54.244 -72.721)" fill="#d1d1d1"/>
      </g>
    </g>
  </g>
</svg>
