<svg xmlns="http://www.w3.org/2000/svg" width="98.996" height="87.603" viewBox="0 0 98.996 87.603">
  <g id="vector" transform="translate(0 -29.327)">
    <path id="Path_190" data-name="Path 190" d="M234.362,441.933a1.457,1.457,0,0,1-1.457-1.457V436.6A1.007,1.007,0,0,0,231.9,435.6h-3.911a1.007,1.007,0,0,0-1.006,1.006v3.874a1.457,1.457,0,1,1-2.914,0V436.6a3.924,3.924,0,0,1,3.92-3.92H231.9a3.924,3.924,0,0,1,3.92,3.92v3.874A1.457,1.457,0,0,1,234.362,441.933Z" transform="translate(-180.543 -325.003)" fill="#d1d1d1"/>
    <g id="Group_229" data-name="Group 229" transform="translate(0 29.327)">
      <path id="Path_191" data-name="Path 191" d="M175.506,141.538a1.457,1.457,0,0,0-2.342,1.734l7.234,9.771a3.066,3.066,0,0,1-.132,3.727l-7.794,8.895H150.526l-7.794-8.895a3.066,3.066,0,0,1-.132-3.727l14.363-19.4V144.7a7.424,7.424,0,1,0,9.268.158V133.906l3.2,4.321a1.457,1.457,0,1,0,2.342-1.734l-6.249-8.44a4.916,4.916,0,0,0-8.046,0l-17.219,23.256a5.994,5.994,0,0,0,.283,7.381l6.5,7.418a4.758,4.758,0,0,0-2.751,4.309v6.95a4.761,4.761,0,0,0,3.337,4.537l.4,11.483a1.457,1.457,0,0,0,1.455,1.407h.051a1.457,1.457,0,0,0,1.406-1.506l-.387-11.167h22.094l-.387,11.167a1.457,1.457,0,0,0,1.406,1.506h.051a1.457,1.457,0,0,0,1.455-1.407l.4-11.549a4.76,4.76,0,0,0,3.141-4.47v-6.95a4.758,4.758,0,0,0-2.751-4.309l6.5-7.418a5.994,5.994,0,0,0,.283-7.381ZM161.5,128.876a2.084,2.084,0,0,1,1.681.911l.136.184v15.617a1.457,1.457,0,0,0,.656,1.217,4.507,4.507,0,1,1-4.8-.094,1.457,1.457,0,0,0,.7-1.247V129.716A2.063,2.063,0,0,1,161.5,128.876Zm14.3,48.491a1.841,1.841,0,0,1-1.838,1.838H149.041a1.84,1.84,0,0,1-1.838-1.838v-6.95a1.841,1.841,0,0,1,1.838-1.838h24.916a1.84,1.84,0,0,1,1.838,1.838Z" transform="translate(-112.098 -107.191)" fill="#d1d1d1"/>
      <path id="Path_192" data-name="Path 192" d="M74.8,144.917a29.1,29.1,0,0,1,3.747-13.14,1.457,1.457,0,0,0-2.534-1.438A32.02,32.02,0,0,0,71.885,144.9a5.811,5.811,0,1,0,2.916.014Zm-1.485,8.515a2.9,2.9,0,1,1,2.9-2.9A2.9,2.9,0,0,1,73.317,153.432Z" transform="translate(-54.393 -110.123)" fill="#d1d1d1"/>
      <path id="Path_193" data-name="Path 193" d="M95.911,29.327H91.229a3.088,3.088,0,0,0-3.085,3.085V33.3H54.924v-.884a3.088,3.088,0,0,0-3.085-3.085H47.157a3.088,3.088,0,0,0-3.085,3.085V33.3H10.851v-.884a3.088,3.088,0,0,0-3.085-3.085H3.085A3.088,3.088,0,0,0,0,32.412v4.682a3.088,3.088,0,0,0,3.085,3.085H7.766a3.088,3.088,0,0,0,3.085-3.085v-.884H36.142a32.092,32.092,0,0,0-10.694,7.962A1.457,1.457,0,0,0,27.635,46.1a29.09,29.09,0,0,1,16.437-9.38v.377a3.088,3.088,0,0,0,3.085,3.085h4.682a3.088,3.088,0,0,0,3.085-3.085v-.377a29.181,29.181,0,0,1,23.666,27.4,5.81,5.81,0,1,0,2.915-.014,32.14,32.14,0,0,0-18.649-27.9h25.29v.884a3.088,3.088,0,0,0,3.085,3.085h4.682A3.088,3.088,0,0,0,99,37.094V32.412a3.088,3.088,0,0,0-3.085-3.085ZM7.937,37.093a.171.171,0,0,1-.171.171H3.085a.171.171,0,0,1-.171-.171V32.412a.171.171,0,0,1,.171-.171H7.766a.171.171,0,0,1,.171.171ZM82.969,69.738a2.9,2.9,0,1,1-2.9-2.9A2.9,2.9,0,0,1,82.969,69.738ZM52.01,37.093a.171.171,0,0,1-.171.171H47.157a.171.171,0,0,1-.171-.171V32.412a.171.171,0,0,1,.171-.171h4.682a.171.171,0,0,1,.171.171Zm44.072,0a.171.171,0,0,1-.171.171H91.229a.171.171,0,0,1-.171-.171V32.412a.171.171,0,0,1,.171-.171h4.682a.171.171,0,0,1,.171.171Z" transform="translate(0 -29.327)" fill="#d1d1d1"/>
    </g>
  </g>
</svg>
