<svg xmlns="http://www.w3.org/2000/svg" width="79.196" height="79.196" viewBox="0 0 79.196 79.196">
  <g id="Design_Tools" data-name="Design Tools" transform="translate(-2 -2)">
    <path id="Path_167" data-name="Path 167" d="M79.876,2H64.037a1.32,1.32,0,0,0-1.32,1.32v59.4H48.2V35.289a3.931,3.931,0,0,0,.164-5.723L53.383,17.01a1.32,1.32,0,0,0-.2-1.32L42.629,2.491a1.367,1.367,0,0,0-2.062,0L30.008,15.69a1.32,1.32,0,0,0-.2,1.32l5.022,12.555A3.931,3.931,0,0,0,35,35.289V62.717H23.119V15.2a1.32,1.32,0,0,0-.166-.642l-6.6-11.879a1.373,1.373,0,0,0-2.307,0l-6.6,11.879a1.32,1.32,0,0,0-.166.641V62.717H3.32A1.32,1.32,0,0,0,2,64.037V79.876A1.32,1.32,0,0,0,3.32,81.2H71.956A9.25,9.25,0,0,0,81.2,71.956V3.32A1.32,1.32,0,0,0,79.876,2ZM37.638,70.636h7.92v2.64h-7.92Zm-1.32-38.278a1.32,1.32,0,0,1,1.32-1.32h7.92a1.32,1.32,0,1,1,0,2.64h-7.92A1.32,1.32,0,0,1,36.318,32.358ZM41.6,13.879a2.64,2.64,0,1,1-2.64,2.64A2.64,2.64,0,0,1,41.6,13.879Zm-1.32-6.8v4.344a5.28,5.28,0,1,0,2.64,0V7.083l7.728,9.659-4.679,11.7a3.9,3.9,0,0,0-.409-.041h-7.92c-.14,0-.273.028-.409.041l-4.679-11.7Zm5.28,29.235V68h-7.92V46.877H41.6v-2.64h-3.96V41.6H41.6v-2.64h-3.96v-2.64ZM35,65.356V77.236a3.915,3.915,0,0,0,.243,1.32H21.765a6.531,6.531,0,0,0,1.354-3.96V65.356ZM13.879,16.519V60.077H9.92V16.519Zm6.6,43.558h-3.96V16.519h3.96Zm0,2.64v2.64H9.92v-2.64ZM15.2,6.038l4.356,7.842H10.844ZM4.64,65.356H7.28V74.6a6.531,6.531,0,0,0,1.354,3.96H4.64Zm9.239,13.2A3.96,3.96,0,0,1,9.92,74.6V68H20.479v6.6a3.96,3.96,0,0,1-3.96,3.96Zm25.079,0a1.32,1.32,0,0,1-1.32-1.32v-1.32h7.92v1.32a1.32,1.32,0,0,1-1.32,1.32Zm33,0h-24a3.915,3.915,0,0,0,.243-1.32V65.356H71.956a6.6,6.6,0,0,1,0,13.2Zm0-15.839h-6.6v-2.64h6.6v-2.64h-6.6v-5.28h6.6v-2.64h-6.6v-5.28h6.6V41.6h-6.6v-5.28h6.6v-2.64h-6.6V28.4h6.6v-2.64h-6.6v-5.28h6.6v-2.64h-6.6v-5.28h6.6V9.92h-6.6V4.64h13.2V65.5A9.209,9.209,0,0,0,71.956,62.717Z" fill="#d1d1d1"/>
    <path id="Path_168" data-name="Path 168" d="M55.96,52a3.96,3.96,0,1,0,3.96,3.96A3.96,3.96,0,0,0,55.96,52Zm0,5.28a1.32,1.32,0,1,1,1.32-1.32A1.32,1.32,0,0,1,55.96,57.28Z" transform="translate(15.996 15.996)" fill="#d1d1d1"/>
  </g>
</svg>
