<svg xmlns="http://www.w3.org/2000/svg" width="65.613" height="65.613" viewBox="0 0 65.613 65.613">
  <g id="files" transform="translate(0 0)">
    <g id="Group_237" data-name="Group 237" transform="translate(0 0)">
      <g id="Group_236" data-name="Group 236" transform="translate(0 0)">
        <path id="Path_232" data-name="Path 232" d="M104.2,260.1a4.1,4.1,0,0,1,4.1,4.1h4.1a8.2,8.2,0,0,0-16.4,0v4.1a8.2,8.2,0,0,0,16.4,0h-4.1a4.1,4.1,0,1,1-8.2,0v-4.1A4.1,4.1,0,0,1,104.2,260.1Z" transform="translate(-83.698 -223.194)" fill="#d1d1d1"/>
        <path id="Path_233" data-name="Path 233" d="M4.1,59.461V6.151A2.05,2.05,0,0,1,6.151,4.1H36.907v8.2a4.1,4.1,0,0,0,4.1,4.1h8.2v6.151h4.1v-8.2a2.05,2.05,0,0,0-.595-1.456L40.413.594A2.051,2.051,0,0,0,38.957,0H6.151A6.151,6.151,0,0,0,0,6.151v53.31a6.151,6.151,0,0,0,6.151,6.151H20.5v-4.1H6.151A2.05,2.05,0,0,1,4.1,59.461Z" transform="translate(0 0)" fill="#d1d1d1"/>
        <path id="Path_234" data-name="Path 234" d="M394.252,264.2h-4.1a2.05,2.05,0,1,1,0-4.1h4.1a2.05,2.05,0,0,1,2.05,2.05h4.1A6.151,6.151,0,0,0,394.252,256h-4.1a6.151,6.151,0,1,0,0,12.3h4.1a2.05,2.05,0,1,1,0,4.1h-4.1a2.05,2.05,0,0,1-2.05-2.05H384a6.151,6.151,0,0,0,6.151,6.151h4.1a6.151,6.151,0,1,0,0-12.3Z" transform="translate(-334.791 -223.194)" fill="#d1d1d1"/>
        <path id="Path_235" data-name="Path 235" d="M246.151,260.1h4.1a2.05,2.05,0,0,1,2.05,2.05h4.1A6.151,6.151,0,0,0,250.252,256h-4.1a6.151,6.151,0,1,0,0,12.3h4.1a2.05,2.05,0,0,1,0,4.1h-4.1a2.05,2.05,0,0,1-2.05-2.05H240a6.151,6.151,0,0,0,6.151,6.151h4.1a6.151,6.151,0,1,0,0-12.3h-4.1a2.05,2.05,0,1,1,0-4.1Z" transform="translate(-209.244 -223.194)" fill="#d1d1d1"/>
      </g>
    </g>
  </g>
</svg>
