<svg xmlns="http://www.w3.org/2000/svg" xmlns:xlink="http://www.w3.org/1999/xlink" width="1159" height="214" viewBox="0 0 1159 214">
  <defs>
    <radialGradient id="radial-gradient" cx="0.5" cy="0.5" r="0.5" gradientUnits="objectBoundingBox">
      <stop offset="0" stop-color="#df366d"/>
      <stop offset="1" stop-color="#9c2b50"/>
    </radialGradient>
  </defs>
  <g id="Group_4482" data-name="Group 4482" transform="translate(-41 -1720)">
    <g id="Rectangle_84" data-name="Rectangle 84" transform="translate(41 1720)">
      <path id="Path_1" data-name="Path 1" d="M30,0H1159V214H0V0H30Z" fill="url(#radial-gradient)"/>
      <path id="Path_2" data-name="Path 2" d="M30,.5H1158a.5.5,0,0,1,.5.5V184a29.5,29.5,0,0,1-29.5,29.5H30A29.5,29.5,0,0,1,.5,184V30A29.5,29.5,0,0,1,30,.5Z" fill="none"/>
    </g>
    <text id="فروشگاه_همواره_تخفیف_" data-name="فروشگاه همواره تخفیف " transform="translate(495.917 1795)" fill="#fff" font-size="32" font-family="IRANSansWebFaNum, 'IRANSansWeb\(FaNum\)'"><tspan x="0" y="0">فروشگاه همواره تخفیف</tspan></text>
    <text id="تم_شاپ" data-name="تم شاپ" transform="translate(592.647 1838)" fill="#fff" font-size="32" font-family="IRANSansWebFaNum, 'IRANSansWeb\(FaNum\)'"><tspan x="0" y="0">تم شاپ</tspan></text>
    <path id="Background" d="M213.339,367.316Z" transform="translate(790.298 1543.799)" fill="#c13160"/>
    <g id="Wallet" transform="translate(935.487 1787.38)">
      <path id="Shape" d="M9.038,0h182.3c4.992,0,9.038,4.7,9.038,10.5V76.4c0,5.8-4.046,10.5-9.038,10.5H9.038C4.046,86.906,0,82.2,0,76.4V10.5C0,4.7,4.046,0,9.038,0Z" transform="translate(0 26.374)" fill="#725e4f"/>
      <g id="Dollar" transform="translate(12.866)">
        <path id="Shape-2" data-name="Shape" d="M442.618,527.955c.21-1.548-9.106-56.7-9.106-56.7s-125.666,26.737-157.571,9.435c-1.2-.652-3.451,71.772-3.451,71.772S438.819,556.009,442.618,527.955Z" transform="translate(-272.49 -454.962)" fill="#80cbc4"/>
        <path id="Shape-3" data-name="Shape" d="M325.272,563.275c-14.565,0-24.349-.284-24.535-.29l-.985-.03.055-1.144c.007-.146.709-14.756,1.539-29.275.487-8.532.923-15.364,1.294-20.309.741-9.859,1.007-10.048,1.536-10.424a.877.877,0,0,1,.925-.071c14.709,7.6,52.786,3.82,82.14-.692,31.909-4.9,60.669-11.721,60.956-11.789l.92-.219.2,1.066c.024.126,2.456,12.758,4.76,25.394,1.353,7.426,2.4,13.4,3.106,17.762,1.4,8.65,1.2,9.006.907,9.5-3.408,5.82-13.556,10.3-31.026,13.689-13.605,2.641-31.527,4.551-53.268,5.676C356.09,563.035,338.66,563.275,325.272,563.275Zm-23.5-2.487c6.007.151,38.466.841,71.954-.893,60.8-3.147,78.562-11.594,82.672-18.2.029-3.2-5.222-31.74-8.739-50.046-5.177,1.2-31.389,7.175-60.157,11.6-18.793,2.889-34.988,4.563-48.135,4.974-15.764.492-27.215-.846-34.069-3.979-.867,5.936-2.524,35.828-3.525,56.545ZM456.515,541.5Z" transform="translate(-294.535 -468.785)" fill="#6da196"/>
        <g id="Shape-4" data-name="Shape" transform="translate(71.503 44.985)">
          <g id="Group_4138" data-name="Group 4138" transform="translate(0 2.128)">
            <path id="Path_2101" data-name="Path 2101" d="M650.469,634.749a29.441,29.441,0,0,0,10.189.844c5.579-.536,8.4-2.755,7.768-5.512-.587-2.554-3.178-3.8-9.209-4.669-7.258-.919-12.052-2.82-12.936-6.672-.978-4.257,3.75-7.944,11.961-8.733a29.542,29.542,0,0,1,9.647.441l-.843,3.023a25.77,25.77,0,0,0-8.322-.527c-5.767.554-7.449,3-7.021,4.86.587,2.554,3.445,3.564,9.61,4.464,7.556,1.1,11.7,2.978,12.625,6.992.968,4.217-3.02,8.33-12.987,9.287a33.469,33.469,0,0,1-11.182-.708Z" transform="translate(-646.153 -609.824)" fill="#6da196"/>
          </g>
          <path id="Path_2102" data-name="Path 2102" d="M691.1,604.615l-4.547.437-1-4.357,4.547-.437Z" transform="translate(-678.017 -600.258)" fill="#6da196"/>
          <path id="Path_2103" data-name="Path 2103" d="M724.777,730.766l-4.547.437-1-4.357,4.547-.437Z" transform="translate(-705.246 -698.352)" fill="#6da196"/>
        </g>
        <path id="Shape-5" data-name="Shape" d="M1046.86,499.564c-1.173,1.723-4.283,2.5-6.945,1.743s-3.869-2.773-2.7-4.5a18.991,18.991,0,0,1,5.53.758,10.937,10.937,0,0,1,4.115,2Z" transform="translate(-890.52 -474.809)" fill="#6da196"/>
        <path id="Shape-6" data-name="Shape" d="M1078.14,720.206c-3.447-.639-5.466-2.911-4.51-5.075s4.526-3.4,7.973-2.762c.224.042.452,2.357-.445,4.369a8.21,8.21,0,0,1-3.018,3.468Z" transform="translate(-920.133 -642.32)" fill="#6da196"/>
        <path id="Shape-7" data-name="Shape" d="M321.669,556.124c1.574,1.584.868,3.693-1.579,4.712s-5.706.56-7.28-1.023a6.138,6.138,0,0,1,3.316-3.392,10.939,10.939,0,0,1,5.543-.3Z" transform="translate(-305.089 -520.779)" fill="#6da196"/>
        <path id="Shape-8" data-name="Shape" d="M300.774,792.48a7.442,7.442,0,0,1,7.447-.12c2.108,1.3,2.192,3.456.187,4.82a13.013,13.013,0,0,1-5.877-1.285,3.676,3.676,0,0,1-1.757-3.415Z" transform="translate(-295.328 -703.921)" fill="#6da196"/>
        <ellipse id="Shape-9" data-name="Shape" cx="15.213" cy="9.84" rx="15.213" ry="9.84" transform="translate(22.809 54.282)" fill="#6da196"/>
        <ellipse id="Shape-10" data-name="Shape" cx="15.213" cy="9.84" rx="15.213" ry="9.84" transform="translate(117.299 45.403)" fill="#6da196"/>
        <path id="Shape-11" data-name="Shape" d="M465.157,469.94c.38-1.5-3.268-61.968-3.268-61.968S334.855,419.955,305.145,398c-1.12-.828-11.414,70.649-11.414,70.649S458.266,497.185,465.157,469.94Z" transform="translate(-289.666 -397.993)" fill="#b2dfdb"/>
        <path id="Shape-12" data-name="Shape" d="M440.506,507.206c-12.279,0-27.123-.858-44.283-2.563-36.886-3.666-72.2-10.067-72.547-10.131l-.974-.177.182-1.126c.023-.144,2.347-14.526,4.786-28.8,1.433-8.386,2.626-15.1,3.545-19.943,1.832-9.665,2.117-9.812,2.684-10.105a.877.877,0,0,1,.926.069c13.739,9.753,51.923,11.723,81.536,11.67,32.186-.065,61.454-2.5,61.745-2.521l.937-.079.085,1.088c.01.129,1.015,13.02,1.892,25.9.515,7.567.886,13.65,1.1,18.08.429,8.788.183,9.11-.158,9.555h0c-4.027,5.258-14.589,8.172-32.29,8.907Q445.363,507.206,440.506,507.206ZM324.947,492.489c5.94,1.054,38.049,6.62,71.448,9.939,60.635,6.024,79.192.322,84-5.614.383-3.168-1.644-32.26-3.093-50.94-5.267.414-31.924,2.393-60.942,2.451-18.952.036-35.2-.739-48.284-2.309-15.686-1.882-26.892-4.932-33.339-9.071C333.218,442.7,328.247,472.1,324.947,492.489ZM480.377,496.958ZM480.535,496.641Z" transform="translate(-313.094 -426.195)" fill="#6da196"/>
        <g id="Shape-13" data-name="Shape" transform="translate(79.677 30.905)">
          <g id="Group_4140" data-name="Group 4140" transform="translate(0 2.497)">
            <path id="Path_2110" data-name="Path 2110" d="M691.276,571.59a30,30,0,0,0,10.009,2.37c5.591.308,8.637-1.468,8.316-4.3-.3-2.621-2.729-4.243-8.611-6.014-7.095-2-11.636-4.61-12.085-8.562-.5-4.368,4.6-7.313,12.833-6.86a29.992,29.992,0,0,1,9.517,1.888l-1.173,2.871a26.212,26.212,0,0,0-8.193-1.774c-5.781-.318-7.72,1.849-7.5,3.763.3,2.621,3.019,4.053,9.032,5.872,7.37,2.225,11.273,4.714,11.74,8.833.491,4.327-3.923,7.8-13.912,7.255a34.023,34.023,0,0,1-11.009-2.384Z" transform="translate(-688.872 -548.181)" fill="#6da196"/>
          </g>
          <path id="Path_2111" data-name="Path 2111" d="M738.7,541.673l-4.557-.251-.507-4.471,4.557.251Z" transform="translate(-725.067 -536.951)" fill="#6da196"/>
          <path id="Path_2112" data-name="Path 2112" d="M755.757,671.121l-4.557-.251-.507-4.471,4.557.251Z" transform="translate(-738.863 -637.609)" fill="#6da196"/>
        </g>
        <path id="Shape-14" data-name="Shape" d="M1103.22,482.549c-1.355,1.532-3.237,1.732-5.792.578s-3.528-3.331-2.172-4.863a19.4,19.4,0,0,1,5.4,1.584C1102.9,480.864,1103.31,482.455,1103.22,482.549Z" transform="translate(-937.323 -460.403)" fill="#6da196"/>
        <path id="Shape-15" data-name="Shape" d="M1105.82,707.8c-3.347-1.152-5.1-3.709-3.906-5.711s4.867-2.691,8.214-1.539c.217.075.185,2.405-.928,4.266a7.753,7.753,0,0,1-3.38,2.984Z" transform="translate(-942.9 -632.83)" fill="#6da196"/>
        <path id="Shape-16" data-name="Shape" d="M379.7,447.293c1.385,1.807.449,3.793-2.09,4.435a6.165,6.165,0,0,1-6.448-2.011,4.047,4.047,0,0,1,3.009-2.964,11,11,0,0,1,5.529.54Z" transform="translate(-352.278 -435.776)" fill="#6da196"/>
        <path id="Shape-17" data-name="Shape" d="M326.793,677.515a7.488,7.488,0,0,1,7.4,1c1.946,1.6,1.789,3.757-.351,4.808a13.4,13.4,0,0,1-5.685-2.158,3.8,3.8,0,0,1-1.364-3.65Z" transform="translate(-316.332 -614.906)" fill="#6da196"/>
        <path id="Shape-18" data-name="Shape" d="M10.139,0c5.422-.1,9.675,6.653,9.5,15.078S14.927,30.413,9.506,30.51-.17,23.857,0,15.432,4.717.1,10.139,0Z" transform="translate(29.085 51.042) rotate(-82.563)" fill="#6da196"/>
        <path id="Shape-19" data-name="Shape" d="M10.139,0c5.422-.1,9.675,6.653,9.5,15.078S14.927,30.413,9.506,30.51-.17,23.857,0,15.432,4.717.1,10.139,0Z" transform="translate(123.77 56.452) rotate(-82.563)" fill="#6da196"/>
      </g>
      <path id="Shape-20" data-name="Shape" d="M414.333,646.423H241.249c-4.25,0-7.727-4.036-7.727-8.97v-59.89H422.06v59.89C422.06,642.386,418.582,646.423,414.333,646.423Z" transform="translate(-228.113 -537.626)" fill="#8b7561"/>
      <path id="Shape-21" data-name="Shape" d="M5.423,0H75.288c3,0,5.423,2.822,5.423,6.3V38.8c0,3.481-2.428,6.3-5.423,6.3H5.423C2.428,45.107,0,42.285,0,38.8V6.3C0,2.822,2.428,0,5.423,0Z" transform="translate(9.888 34.026)" fill="#adadea"/>
      <path id="Shape-22" data-name="Shape" d="M323.919,652.489H243.283c-5.125,0-9.318-4.874-9.318-10.83V610.874c0-5.956.042-10.83.042-10.83h89.912Z" transform="translate(-228.471 -555.107)" fill="#a08c7a"/>
      <path id="Shape-23" data-name="Shape" d="M5.423,0H75.288c3,0,5.423,2.822,5.423,6.3V38.8c0,3.481-2.428,6.3-5.423,6.3H5.423C2.428,45.107,0,42.285,0,38.8V6.3C0,2.822,2.428,0,5.423,0Z" transform="translate(9.888 43.982)" fill="#8765db"/>
      <path id="Shape-24" data-name="Shape" d="M323.919,697.252H243.283c-5.125,0-9.318-4.874-9.318-10.83V655.637c0-5.956.042-10.83.042-10.83h89.912Z" transform="translate(-228.471 -589.914)" fill="#8b7561"/>
      <ellipse id="Shape-25" data-name="Shape" cx="14.762" cy="17.157" rx="14.762" ry="17.157" transform="translate(35.391 49.195)" fill="#e5e8f5"/>
      <path id="Shape-26" data-name="Shape" d="M5.423,0H75.288c3,0,5.423,2.822,5.423,6.3V38.8c0,3.481-2.428,6.3-5.423,6.3H5.423C2.428,45.107,0,42.285,0,38.8V6.3C0,2.822,2.428,0,5.423,0Z" transform="translate(9.888 53.551)" fill="#56557e"/>
      <path id="Shape-27" data-name="Shape" d="M322.077,732.15h-81.14c-4.4,0-8.01-4.227-8.01-9.393V698.663c0-5.957.042-10.83.042-10.83h89.108Z" transform="translate(-227.632 -623.371)" fill="#a08c7a"/>
      <path id="Shape-28" data-name="Shape" d="M0,0A1.857,1.857,0,0,1,1.7,1.979V66.847A1.856,1.856,0,0,1,0,68.826Z" transform="translate(94.445 39.945)" fill="#725e4f"/>
      <path id="Shape-29" data-name="Shape" d="M0,0A1.857,1.857,0,0,1,1.7,1.98V66.847A1.857,1.857,0,0,1,0,68.826Z" transform="translate(111.105 108.771) rotate(180)" fill="#725e4f"/>
      <g id="Shape-30" data-name="Shape" transform="translate(117.97 50.062)">
        <path id="Path_4951" data-name="Path 4951" d="M3.615,0H64a3.942,3.942,0,0,1,3.615,4.2V43.586A3.942,3.942,0,0,1,64,47.787H3.615A3.942,3.942,0,0,1,0,43.586V4.2A3.942,3.942,0,0,1,3.615,0Z" transform="translate(0.287 0.334)" fill="#c1b5a9"/>
        <path id="Path_2123" data-name="Path 2123" d="M885.889,671.544H825.8c-2.235,0-4.053-2.113-4.053-4.71V627.8c0-2.6,1.818-4.71,4.053-4.71h60.083c2.234,0,4.052,2.113,4.052,4.71v39.034C889.941,669.431,888.123,671.544,885.889,671.544Zm-60.083-47.787a3.8,3.8,0,0,0-3.479,4.043v39.034a3.8,3.8,0,0,0,3.479,4.043h60.083a3.8,3.8,0,0,0,3.478-4.043V627.8a3.8,3.8,0,0,0-3.478-4.043Z" transform="translate(-821.753 -623.089)" fill="#c1b5a9"/>
      </g>
    </g>
    <g id="Dollars" transform="translate(950.455 1731.006)">
      <g id="Dollar-2" data-name="Dollar" transform="translate(35.276 28.55)">
        <path id="Shape-31" data-name="Shape" d="M482.143,293.344c.2-.168,6.061-7.651,6.061-7.651s-11.59-7.891-11.7-12.8c0-.185-8.679,8.36-8.679,8.36S478.585,296.395,482.143,293.344Z" transform="translate(-467.827 -272.887)" fill="#b2dfdb"/>
        <path id="Shape-32" data-name="Shape" d="M483.73,297.877c-4.149,0-11.931-11.184-12.281-11.691l-.118-.171.145-.14c.018-.017,1.8-1.732,3.57-3.418,3.675-3.5,3.7-3.483,3.852-3.4l.108.055.007.14c.176,4.183,10.9,10.962,11.014,11.03l.212.133-.16.21c-3.526,4.637-5.4,7.027-5.572,7.1h0a1.915,1.915,0,0,1-.777.157Zm-11.864-11.8c1.075,1.521,9.1,12.666,12.487,11.237.316-.3,3.259-4.122,5.281-6.78-1.526-.98-10.29-6.768-10.964-10.895-.928.811-4.381,4.1-6.8,6.438Z" transform="translate(-470.66 -277.665)" fill="#6da196"/>
        <g id="Shape-33" data-name="Shape" transform="translate(7.588 9.413)">
          <g id="Group_4475" data-name="Group 4475">
            <path id="Path_2216" data-name="Path 2216" d="M507.94,317.285a2.539,2.539,0,0,0,.373,1.132c.342.534.785.635,1.135.332.325-.282.372-.658.2-1.36-.222-.834-.189-1.5.3-1.921.542-.469,1.279-.3,1.782.49a2.49,2.49,0,0,1,.4,1.041l-.458.173a2.206,2.206,0,0,0-.327-.911c-.354-.552-.772-.516-1.01-.31-.325.282-.327.666-.155,1.384.211.88.151,1.474-.36,1.916-.537.465-1.3.4-1.908-.548a2.85,2.85,0,0,1-.44-1.224Z" transform="translate(-507.479 -315.209)" fill="#6da196"/>
          </g>
          <path id="Path_4954" data-name="Path 4954" d="M0,0,.515.036.569.768.054.732Z" transform="matrix(0.598, 0.802, -0.802, 0.598, 4.297, 0.113)" fill="#6da196"/>
          <path id="Path_4955" data-name="Path 4955" d="M0,0,.515.036.569.768.054.732Z" transform="matrix(0.598, 0.802, -0.802, 0.598, 0.727, 3.206)" fill="#6da196"/>
        </g>
        <path id="Shape-34" data-name="Shape" d="M564.52,329.052a.524.524,0,0,1-.672-.4.647.647,0,0,1,.348-.781,1.567,1.567,0,0,1,.282.581,1.427,1.427,0,0,1,.042.6Z" transform="translate(-545.454 -315.639)" fill="#6da196"/>
        <path id="Shape-35" data-name="Shape" d="M535.093,358.917a.816.816,0,0,1,.294-1.012.615.615,0,0,1,.861.372,1.58,1.58,0,0,1-.544.488A1.091,1.091,0,0,1,535.093,358.917Z" transform="translate(-522.168 -338.942)" fill="#6da196"/>
        <path id="Shape-36" data-name="Shape" d="M507.443,281.671a.53.53,0,0,1-.661.429.64.64,0,0,1-.369-.768.83.83,0,0,1,.622-.116A.812.812,0,0,1,507.443,281.671Z" transform="translate(-499.013 -279.345)" fill="#6da196"/>
        <path id="Shape-37" data-name="Shape" d="M474.037,307.8a.591.591,0,0,1,.515.645.576.576,0,0,1-.555.6,1.174,1.174,0,0,1-.244-.675.884.884,0,0,1,.284-.57Z" transform="translate(-472.619 -300.036)" fill="#6da196"/>
        <ellipse id="Shape-38" data-name="Shape" cx="1.545" cy="1.795" rx="1.545" ry="1.795" transform="translate(4.939 5.902)" fill="#6da196"/>
        <ellipse id="Shape-39" data-name="Shape" cx="1.545" cy="1.795" rx="1.545" ry="1.795" transform="translate(12.333 13.19)" fill="#6da196"/>
      </g>
      <g id="Dollar-3" data-name="Dollar">
        <path id="Shape-40" data-name="Shape" d="M300.791,154.871c.024-.282-.832-10.356-.832-10.356s-12.8,4.723-16.014,1.528c-.121-.12-.467,13.09-.467,13.09S300.359,159.984,300.791,154.871Z" transform="translate(-283.477 -144.515)" fill="#b2dfdb"/>
        <path id="Shape-41" data-name="Shape" d="M289.276,160.916c-1.817,0-3.136-.083-3.31-.094l-.188-.012.008-.219c0-.027.1-2.712.206-5.371.225-5.513.252-5.527.4-5.606l.108-.056.094.087c1.141,1.083,3.986,1.064,8.228-.053a55.339,55.339,0,0,0,6.2-2.072l.227-.094.027.278c.6,6.149.875,9.367.809,9.565C301.02,160.431,293.682,160.916,289.276,160.916Zm-3.1-.527a58.016,58.016,0,0,0,7.2-.079c4.867-.394,7.749-1.493,8.338-3.178.022-.471-.453-5.573-.8-9.1-1.648.662-11.214,4.353-14.3,2.172C286.514,151.548,286.307,156.735,286.176,160.389Z" transform="translate(-285.338 -146.779)" fill="#6da196"/>
        <g id="Shape-42" data-name="Shape" transform="translate(7.202 5.136)">
          <g id="Group_4478" data-name="Group 4478" transform="translate(0 0.45)">
            <path id="Path_2223" data-name="Path 2223" d="M321.3,173.806a1.834,1.834,0,0,0,.973.436.8.8,0,0,0,.972-.758c.038-.469-.171-.762-.733-1.086a1.576,1.576,0,0,1-1.026-1.546,1.285,1.285,0,0,1,1.506-1.211,1.793,1.793,0,0,1,.935.349l-.2.512a1.59,1.59,0,0,0-.8-.327.722.722,0,0,0-.874.664c-.038.469.206.728.781,1.061a1.573,1.573,0,0,1,.984,1.594,1.349,1.349,0,0,1-1.628,1.281,2.054,2.054,0,0,1-1.076-.44Z" transform="translate(-321.113 -169.63)" fill="#6da196"/>
          </g>
          <path id="Path_4952" data-name="Path 4952" d="M0,0,.467.007l.01.8L.01.8Z" transform="translate(1.498) rotate(5.332)" fill="#6da196"/>
          <path id="Path_4953" data-name="Path 4953" d="M0,0,.467.007l.01.8L.01.8Z" transform="translate(1.084 5.153) rotate(5.332)" fill="#6da196"/>
        </g>
        <path id="Shape-43" data-name="Shape" d="M362.732,149.613a.507.507,0,0,1-.708.309.667.667,0,0,1-.266-.823,1.137,1.137,0,0,1,.56.145A1.111,1.111,0,0,1,362.732,149.613Z" transform="translate(-346.739 -148.075)" fill="#6da196"/>
        <path id="Shape-44" data-name="Shape" d="M365.472,189.924a.779.779,0,0,1-.449-.931.637.637,0,0,1,.814-.494,2.038,2.038,0,0,1-.052.8,1.5,1.5,0,0,1-.313.625Z" transform="translate(-349.397 -178.691)" fill="#6da196"/>
        <path id="Shape-45" data-name="Shape" d="M288.975,159.19a.685.685,0,0,1-.168.858.493.493,0,0,1-.738-.2,1.133,1.133,0,0,1,.342-.615.643.643,0,0,1,.564-.043Z" transform="translate(-287.19 -155.892)" fill="#6da196"/>
        <path id="Shape-46" data-name="Shape" d="M286.423,202.277a.484.484,0,0,1,.756-.013.7.7,0,0,1,.011.88.85.85,0,0,1-.6-.242.96.96,0,0,1-.172-.625Z" transform="translate(-285.855 -189.284)" fill="#6da196"/>
        <ellipse id="Shape-47" data-name="Shape" cx="1.545" cy="1.795" rx="1.545" ry="1.795" transform="translate(2.37 6.779)" fill="#6da196"/>
        <ellipse id="Shape-48" data-name="Shape" cx="1.545" cy="1.795" rx="1.545" ry="1.795" transform="translate(11.979 5.275)" fill="#6da196"/>
      </g>
      <g id="Dollar-4" data-name="Dollar" transform="translate(180.417 4.895)">
        <path id="Shape-49" data-name="Shape" d="M1226.36,177.275c.059.275,3.766,9.435,3.766,9.435s10.7-9.432,14.651-7.669c.149.066-3.329-12.517-3.329-12.517S1225.3,172.288,1226.36,177.275Z" transform="translate(-1226.31 -166.523)" fill="#b2dfdb"/>
        <path id="Shape-50" data-name="Shape" d="M1232.8,188.411l-.106-.252c-2.339-5.559-3.522-8.486-3.517-8.7h0c.128-4.79,13.59-9.421,14.163-9.616l.181-.062.056.209c.007.026.69,2.594,1.353,5.141,1.376,5.282,1.354,5.306,1.235,5.439l-.085.1-.114-.046c-1.388-.577-4.063.548-7.738,3.25a63.05,63.05,0,0,0-5.241,4.362Zm-3.239-8.961c.115.452,2.032,5.075,3.372,8.263,1.362-1.265,9.315-8.463,12.853-7.611-.29-1.306-1.589-6.274-2.518-9.768a61.564,61.564,0,0,0-6.766,2.877c-4.472,2.265-6.872,4.422-6.942,6.239Z" transform="translate(-1228.625 -169.058)" fill="#6da196"/>
        <g id="Shape-51" data-name="Shape" transform="translate(7.252 6.524)">
          <g id="Group_4481" data-name="Group 4481" transform="translate(0 0.273)">
            <path id="Path_2230" data-name="Path 2230" d="M1266.53,197.736a1.718,1.718,0,0,0-1.042-.032.9.9,0,0,0-.7,1.093c.1.457.381.652,1,.738.748.081,1.262.369,1.412,1.058a1.448,1.448,0,0,1-1.071,1.727,1.706,1.706,0,0,1-.982.034l.037-.559a1.493,1.493,0,0,0,.849,0,.812.812,0,0,0,.632-.966c-.1-.457-.4-.606-1.041-.7-.781-.109-1.229-.4-1.386-1.119a1.516,1.516,0,0,1,1.165-1.84,1.939,1.939,0,0,1,1.141,0Z" transform="translate(-1264.207 -197.083)" fill="#6da196"/>
          </g>
          <path id="Path_4963" data-name="Path 4963" d="M.027.018.5,0,.471.8,0,.815Z" transform="translate(2.449 5.807) rotate(165.777)" fill="#6da196"/>
          <path id="Path_4962" data-name="Path 4962" d="M.027.018.5,0,.471.8,0,.815Z" transform="translate(1.355 0.79) rotate(165.777)" fill="#6da196"/>
        </g>
        <path id="Shape-52" data-name="Shape" d="M1246.35,247.924a.565.565,0,0,1,.578-.567.6.6,0,0,1,.488.673,1.133,1.133,0,0,1-.57.081.973.973,0,0,1-.5-.187Z" transform="translate(-1242.515 -229.377)" fill="#6da196"/>
        <path id="Shape-53" data-name="Shape" d="M1230.87,208.976a.693.693,0,0,1,.692.7.718.718,0,0,1-.625.782,1.97,1.97,0,0,1-.18-.771A1.638,1.638,0,0,1,1230.87,208.976Z" transform="translate(-1229.904 -199.534)" fill="#6da196"/>
        <path id="Shape-54" data-name="Shape" d="M1312.8,213.724a.693.693,0,0,1-.089-.874.486.486,0,0,1,.751-.1,1.235,1.235,0,0,1-.145.713A.685.685,0,0,1,1312.8,213.724Z" transform="translate(-1296.089 -202.363)" fill="#6da196"/>
        <path id="Shape-55" data-name="Shape" d="M1300.75,172.353a.507.507,0,0,1-.709.306.668.668,0,0,1-.264-.825.816.816,0,0,1,.63,0,.867.867,0,0,1,.343.519Z" transform="translate(-1285.682 -170.601)" fill="#6da196"/>
        <ellipse id="Shape-56" data-name="Shape" cx="1.545" cy="1.795" rx="1.545" ry="1.795" transform="translate(11.645 5.422)" fill="#6da196"/>
        <ellipse id="Shape-57" data-name="Shape" cx="1.545" cy="1.795" rx="1.545" ry="1.795" transform="translate(3.023 10.577)" fill="#6da196"/>
      </g>
    </g>
    <g id="Person" transform="translate(1093.168 1751.152)">
      <path id="Shape-58" data-name="Shape" d="M1169.26,279.218c.952-3.2-1.614-7.14-5.73-8.792s-8.225-.394-9.177,2.81S1168.31,282.421,1169.26,279.218Z" transform="translate(-1130.387 -262.003)" fill="#e2555b"/>
      <path id="Shape-59" data-name="Shape" d="M1152.96,642.177h5.493s2.457-39.627,2.481-39.748c1.443-7.389,6.229-20.176,6.229-20.176l6.883,29.443,23.745-10.091s-1.526-6.234-1.772-6.178c-14.707,3.3-16.479,2.471-16.479,2.471s.382-25.377-1.991-32.468c-.179-.535-24.712,4.775-24.712,4.775l-2.18,33.253Z" transform="translate(-1127.43 -491.934)" fill="#9499ea"/>
      <g id="Dollar-5" data-name="Dollar" transform="translate(46.965 72.649)">
        <path id="Path_2142" data-name="Path 2142" d="M1284.4,566.872c-.024-.148-1.734-5.123-1.734-5.123s-5.911,4.591-7.949,3.516c-.077-.04,1.42,6.735,1.42,6.735S1284.82,569.545,1284.4,566.872Z" transform="translate(-1274.71 -561.749)" fill="#94d3cc"/>
        <path id="Path_2143" data-name="Path 2143" d="M1277.71,572.678l-.045-.213c-1.191-5.651-1.173-5.67-1.051-5.789l.09-.089.11.054c1.417.7,5.516-2.314,6.976-3.536l.2-.164.093.258a40.059,40.059,0,0,1,1.629,4.774h0c-.088,1.117-1.444,2.243-4.03,3.344a32.1,32.1,0,0,1-3.784,1.311Zm-.734-5.525c.157.864.66,3.3,1.016,4.992,2.147-.595,7.135-2.352,7.332-4.181-.08-.321-.923-2.709-1.506-4.337-.938.773-4.948,3.9-6.838,3.527ZM1285.33,567.934Z" transform="translate(-1276.21 -562.677)" fill="#6da196"/>
        <g id="Group_4458" data-name="Group 4458" transform="translate(4.272 3.888)">
          <g id="Group_4457" data-name="Group 4457" transform="translate(0 0.195)">
            <path id="Path_2144" data-name="Path 2144" d="M1297.33,582.543a.915.915,0,0,0,.55.055.466.466,0,0,0,.4-.552c-.04-.245-.184-.358-.51-.427-.393-.07-.657-.241-.718-.611a.751.751,0,0,1,.613-.873.9.9,0,0,1,.52.018l-.035.294a.792.792,0,0,0-.449-.029.421.421,0,0,0-.36.487c.04.245.2.335.531.406.409.086.639.257.7.642a.787.787,0,0,1-.666.93,1.027,1.027,0,0,1-.6-.04Z" transform="translate(-1297.036 -580.107)" fill="#6da196"/>
          </g>
          <path id="Path_4974" data-name="Path 4974" d="M.011.007.259,0,.248.423,0,.431Z" transform="matrix(0.982, -0.188, 0.188, 0.982, 0.361, 0.049)" fill="#6da196"/>
          <path id="Path_4975" data-name="Path 4975" d="M.011.007.259,0,.248.423,0,.431Z" transform="matrix(0.982, -0.188, 0.188, 0.982, 0.803, 2.739)" fill="#6da196"/>
        </g>
        <path id="Path_2145" data-name="Path 2145" d="M1313.6,565.2a.293.293,0,0,1-.321.278.325.325,0,0,1-.24-.373.6.6,0,0,1,.3-.022A.525.525,0,0,1,1313.6,565.2Z" transform="translate(-1305.703 -564.337)" fill="#6da196"/>
        <path id="Path_2146" data-name="Path 2146" d="M1321.15,584.99a.4.4,0,0,1,0-.787,1.046,1.046,0,0,1,.074.414A.862.862,0,0,1,1321.15,584.99Z" transform="translate(-1311.983 -579.209)" fill="#6da196"/>
        <path id="Path_2147" data-name="Path 2147" d="M1277.8,580.583a.367.367,0,0,1,.023.465.256.256,0,0,1-.4.027.649.649,0,0,1,.1-.371A.357.357,0,0,1,1277.8,580.583Z" transform="translate(-1276.898 -576.393)" fill="#6da196"/>
        <path id="Path_2148" data-name="Path 2148" d="M1282.57,603.079a.264.264,0,0,1,.383-.136.357.357,0,0,1,.117.445.431.431,0,0,1-.333-.021A.47.47,0,0,1,1282.57,603.079Z" transform="translate(-1281.07 -593.751)" fill="#6da196"/>
        <ellipse id="Ellipse_331" data-name="Ellipse 331" cx="0.818" cy="0.95" rx="0.818" ry="0.95" transform="translate(1.83 5.559)" fill="#6da196"/>
        <ellipse id="Ellipse_332" data-name="Ellipse 332" cx="0.818" cy="0.95" rx="0.818" ry="0.95" transform="translate(6.525 3.151)" fill="#6da196"/>
      </g>
      <g id="Dollar-6" data-name="Dollar" transform="translate(48.019 72.962)">
        <path id="Path_2149" data-name="Path 2149" d="M1289.74,568.441c-.012-.149-1.33-5.283-1.33-5.283s-6.243,3.954-8.189,2.669c-.074-.048.892,6.857.892,6.857S1289.96,571.149,1289.74,568.441Z" transform="translate(-1280.217 -563.158)" fill="#b2dfdb"/>
        <path id="Path_2150" data-name="Path 2150" d="M1282.49,573.306l-.028-.217c-.749-5.753-.729-5.769-.6-5.876l.1-.079.1.065c1.359.848,5.673-1.727,7.222-2.791l.207-.143.073.267a40.718,40.718,0,0,1,1.252,4.925h0c-.173,1.1-1.611,2.082-4.273,2.908a31.4,31.4,0,0,1-3.87.909Zm-.3-5.579c.089.877.4,3.354.625,5.078,2.184-.367,7.288-1.6,7.626-3.4-.055-.328-.709-2.794-1.164-4.477-1.007.672-5.237,3.367-7.087,2.8Z" transform="translate(-1281.491 -564.019)" fill="#6da196"/>
        <g id="Group_4461" data-name="Group 4461" transform="translate(4.15 3.552)">
          <g id="Group_4460" data-name="Group 4460" transform="translate(0 0.215)">
            <path id="Path_2151" data-name="Path 2151" d="M1302.07,582.465a.924.924,0,0,0,.544.112.452.452,0,0,0,.439-.508c-.021-.248-.155-.376-.475-.479-.385-.111-.635-.309-.667-.683a.728.728,0,0,1,.678-.806.908.908,0,0,1,.516.072l-.058.289a.8.8,0,0,0-.445-.076.408.408,0,0,0-.4.447c.021.248.17.354.5.46.4.129.616.323.649.713a.763.763,0,0,1-.735.856,1.037,1.037,0,0,1-.6-.1Z" transform="translate(-1301.905 -580.094)" fill="#6da196"/>
          </g>
          <path id="Path_4964" data-name="Path 4964" d="M.006,0H.253L.247.425,0,.429Z" transform="translate(0.438 0.025) rotate(-5.643)" fill="#6da196"/>
          <path id="Path_4965" data-name="Path 4965" d="M.006,0H.253L.247.425,0,.429Z" transform="translate(0.67 2.751) rotate(-5.643)" fill="#6da196"/>
        </g>
        <path id="Path_2152" data-name="Path 2152" d="M1320.04,566.424a.284.284,0,0,1-.341.244.335.335,0,0,1-.21-.4.591.591,0,0,1,.3.01A.544.544,0,0,1,1320.04,566.424Z" transform="translate(-1311.966 -565.567)" fill="#6da196"/>
        <path id="Path_2153" data-name="Path 2153" d="M1325.68,586.871a.387.387,0,0,1-.314-.431.36.36,0,0,1,.38-.352,1.074,1.074,0,0,1,.042.42.841.841,0,0,1-.108.363Z" transform="translate(-1316.724 -580.986)" fill="#6da196"/>
        <path id="Path_2154" data-name="Path 2154" d="M1282.87,578.586a.368.368,0,0,1-.013.465.256.256,0,0,1-.4-.015.637.637,0,0,1,.125-.36.348.348,0,0,1,.288-.09Z" transform="translate(-1282.025 -575.151)" fill="#6da196"/>
        <path id="Path_2155" data-name="Path 2155" d="M1285.7,601.374a.26.26,0,0,1,.392-.1.363.363,0,0,1,.082.456.435.435,0,0,1-.33-.056.483.483,0,0,1-.144-.3Z" transform="translate(-1284.652 -592.759)" fill="#6da196"/>
        <ellipse id="Ellipse_333" data-name="Ellipse 333" cx="0.818" cy="0.95" rx="0.818" ry="0.95" transform="translate(1.589 4.977)" fill="#6da196"/>
        <ellipse id="Ellipse_334" data-name="Ellipse 334" cx="0.818" cy="0.95" rx="0.818" ry="0.95" transform="translate(6.451 3.07)" fill="#6da196"/>
      </g>
      <g id="Shape-60" data-name="Shape" transform="translate(44.698 74.001)">
        <path id="Path_2156" data-name="Path 2156" d="M1269.49,574.876c.221.982.417,5.639.417,5.639A45.307,45.307,0,0,1,1265.58,576c-1.579-2.282-2.715-6.866-2.715-6.866l5.285-1.307S1268.99,572.683,1269.49,574.876Z" transform="translate(-1262.863 -567.828)" fill="#7a7fd1"/>
      </g>
      <path id="Shape-61" data-name="Shape" d="M7.2,0c3.569-.176,6.151,5.36,5.767,12.365s-3.589,12.825-7.158,13S-.346,20.009.038,13,3.627.18,7.2,0Z" transform="translate(14.914 18.229) rotate(-68.141)" fill="#ff6369"/>
      <path id="Shape-62" data-name="Shape" d="M1145.92,301.12c.709.824-.445,9.233-2.137,10.555-3.231,2.526-3.294-2.308-5.837-3.759-5.943-3.391-9.06.558-11.163-4.737-1.872-4.712.762-10.853,5.139-5.767C1132.09,297.618,1140.42,294.737,1145.92,301.12Z" transform="translate(-1107.626 -282.065)" fill="#694a52"/>
      <path id="Shape-63" data-name="Shape" d="M1180.39,383.494l-7.159,1.383-1.266-10.96,7.189-1.389Z" transform="translate(-1144.662 -341.964)" fill="#f6b89f"/>
      <path id="Shape-64" data-name="Shape" d="M.342,2.883a4.749,4.749,0,0,0,.75,4.809c3.032,1.971,8.245-3.134,8.42-5.051.042-.954-2.253-.92-1.995-1.872.511-2.1-4.085.7-5.516,1.293S1.153.918.342,2.883Z" transform="translate(25.445 33.681) rotate(-47)" fill="#efa88f"/>
      <path id="Shape-65" data-name="Shape" d="M1060.95,346.222l-6.617-3.181-7.266-13.057-2.762-.254s3.386,13.578,5.306,17.566c1.024,2.127,5.5,5.156,9.27,6.907C1059.54,351.445,1060.2,348.886,1060.95,346.222Z" transform="translate(-1041.431 -308.684)" fill="#f6b89f"/>
      <path id="Shape-66" data-name="Shape" d="M1275.01,267.642l-2.175-.894-7.8,20.489c-.517.237-2.514,2.993-3.55,3.71,1,3.624,2.022,5.3,3.782,8.567,2.04-2.774,4.367-6.291,5.168-9.468C1271.56,285.6,1275.01,267.642,1275.01,267.642Z" transform="translate(-1217.051 -259.709)" fill="#f6b89f"/>
      <path id="Shape-67" data-name="Shape" d="M1080.91,310.815s-1.289,4.659-3.47,5.055c-2.913.53-3.6-2.656-3.6-2.656l-9.84-1.669-5.251-2.382-6.556-11.327-2.481,2.265c.184.168,2.126,9.062,4.253,14.21,1.687,4.085,14.125,11.177,14.125,11.177l2.766,29.547,26.085-5.257-6.41-29.962c-.06-.42,1.588-2.358,3.485-4.938-.216-.4,2.864-2.115,5.311-9.011,2.165-6.1,3.544-17.712,3.544-17.712a33.3,33.3,0,0,0-3.189-1.648c-.213-.082-6.025,15.652-6.025,15.652s-3.392,4.243-3.419,4.143A43.477,43.477,0,0,1,1080.91,310.815Z" transform="translate(-1045.81 -275.075)" fill="#37474f"/>
      <path id="Shape-68" data-name="Shape" d="M1182.73,396.07s-1.263,3.9-3.336,4.577c-2.73.893-3.707-2.227-3.707-2.227l4.135,40.41,9.593-1.933S1182.94,396.03,1182.73,396.07Z" transform="translate(-1147.673 -360.269)" fill="#fff"/>
      <path id="Shape-69" data-name="Shape" d="M1319.92,260.816c-.528-1.7-.555-3.678-2.961-2.478-1.5.748-1.469,2.89-1.469,4.95,0,1.811.768,1.878,2.3,1.236S1320.44,262.521,1319.92,260.816Z" transform="translate(-1260.718 -252.883)" fill="#f6b89f"/>
      <path id="Shape-70" data-name="Shape" d="M1159.88,311.763c.143,1.866-1.323,2.766-1.374,4.461-.134,4.54-2.8,9.6-5.884,10.2-2.614.505-7.25-4.52-8.18-11.021a35.192,35.192,0,0,1-.394-4.7c-.011-2.757,6.957,2.369,11.01-4.656.948-1.642,1.15,5.671,2.639,5.384C1157.76,311.412,1159.61,308.223,1159.88,311.763Z" transform="translate(-1122.087 -290.076)" fill="#f6b89f"/>
      <path id="Shape-71" data-name="Shape" d="M1125.02,907.771h-5.556a31.2,31.2,0,0,1-5.118,4.054c-1.977,1.189-4.258.213-5.118,2.6a4.573,4.573,0,0,0,0,1.168h16.3v-1.168Z" transform="translate(-1093.896 -758.165)" fill="#8f97b9"/>
      <path id="Shape-72" data-name="Shape" d="M1125.38,907.771h-5.99a25.784,25.784,0,0,1-4.832,3.912c-1.977,1.189-5.185.31-5.142,2.744.005.292,16.3,0,16.3,0Z" transform="translate(-1094.076 -758.165)" fill="#fff"/>
      <path id="Shape-73" data-name="Shape" d="M1385.83,691.567l1.392,6.12a21.786,21.786,0,0,1,4.739,4.284c1.51,1.9,1.294,5.115,3.5,5.446a3.036,3.036,0,0,0,.969-.309l-4.314-18.274-.969.309Z" transform="translate(-1317.601 -587.921)" fill="#8f97b9"/>
      <rect id="Shape-74" data-name="Shape" width="1.227" height="6.384" rx="0.613" transform="translate(56.036)" fill="#f6b89f"/>
      <path id="Shape-75" data-name="Shape" d="M.6,0a.779.779,0,0,1,.682.731l.3,4.785a.57.57,0,0,1-.6.645h0A.779.779,0,0,1,.3,5.431L0,.647A.57.57,0,0,1,.6,0Z" transform="matrix(0.866, 0.5, -0.5, 0.866, 59.278, 0.746)" fill="#f6b89f"/>
      <path id="Shape-76" data-name="Shape" d="M1385.24,692.366l1.585,6.714a26.452,26.452,0,0,1,4.524,4.381c1.51,1.9,1.629,5.73,3.637,5.037.241-.083-4.315-18.274-4.315-18.274Z" transform="translate(-1317.126 -589.002)" fill="#fff"/>
      <path id="Shape-77" data-name="Shape" d="M1036.29,312.673c.528-1.7.555-3.678,2.961-2.478,1.5.748,1.469,2.89,1.469,4.95,0,1.811-.768,1.878-2.3,1.236S1035.76,314.378,1036.29,312.673Z" transform="translate(-1034.838 -293.207)" fill="#f6b89f"/>
      <rect id="Shape-78" data-name="Shape" width="1.227" height="6.384" rx="0.613" transform="translate(4.611 17.918) rotate(180)" fill="#f6b89f"/>
      <path id="Shape-79" data-name="Shape" d="M.983,0a.57.57,0,0,1,.6.645l-.3,4.785A.779.779,0,0,1,.6,6.163h0A.57.57,0,0,1,0,5.518L.3.733A.779.779,0,0,1,.983,0Z" transform="translate(4.45 17.617) rotate(150)" fill="#f6b89f"/>
      <path id="Shape-80" data-name="Shape" d="M1173.19,409.1a32.158,32.158,0,0,1,.145,4.047c-.775-.124-1.406-2.348-1.353-3.71.056-1.443.549-3.062.723-2.861a14.01,14.01,0,0,1,.485,2.524Z" transform="translate(-1144.669 -368.425)" fill="#37474f"/>
      <path id="Shape-81" data-name="Shape" d="M1212.94,398.359c.262,1.412.851,3.961.905,3.929.7-.411.764-2.8.331-4.069-.458-1.342-1.38-2.686-1.487-2.43a14.22,14.22,0,0,0,.251,2.57Z" transform="translate(-1177.592 -360.026)" fill="#37474f"/>
    </g>
    <g id="Person-2" data-name="Person" transform="translate(1026.252 1739.308)">
      <path id="Shape-82" data-name="Shape" d="M.2.249,8.225,0l-.2,7.537L0,7.786Z" transform="translate(60.321 100.616) rotate(-11.338)" fill="#ffdfae"/>
      <path id="Shape-83" data-name="Shape" d="M854.818,577.106l-2.481-7.826-23.39,4.119,3.9-21.831-17.9.618,4.43,34.188Z" transform="translate(-789.046 -469.34)" fill="#37474f"/>
      <path id="Shape-84" data-name="Shape" d="M1042.86,611.53l6.165,18.354a2.775,2.775,0,0,1-1.866.4l-6.115-17.413Z" transform="translate(-971.879 -515.966)" fill="#694a52"/>
      <path id="Shape-85" data-name="Shape" d="M1033.79,632.277c-1.962-.421-2.856-4.207-5.659-5.708-2.212-1.184-1.9-1.873-1.9-1.873s1.308-3.349.259-5.621c-.505-1.1-1.192-.512-1.733-1.02a.906.906,0,0,1-.206-.884l4.17-3.076,6.33,18.08a1.952,1.952,0,0,1-1.261.1Z" transform="translate(-958.502 -517.959)" fill="#f9b25f"/>
      <path id="Shape-86" data-name="Shape" d="M.2.249,8.225,0l-.2,7.537L0,7.786Z" transform="translate(66.878 95.674) rotate(-11.338)" fill="#ffdfae"/>
      <path id="Shape-87" data-name="Shape" d="M889.08,554.612l-2.481-7.826-23.39,4.119s5.316-19.771,4.075-21.419c-.911-1.211-18.074.206-18.074.206l4.43,34.187Z" transform="translate(-816.752 -451.788)" fill="#4d5b62"/>
      <path id="Shape-88" data-name="Shape" d="M1077.12,589.306l6.165,18.354a2.775,2.775,0,0,1-1.865.4l-6.115-17.413Z" transform="translate(-999.584 -498.684)" fill="#694a52"/>
      <path id="Shape-89" data-name="Shape" d="M1068.05,610.053c-1.962-.421-2.856-4.207-5.659-5.708-2.212-1.184-1.9-1.873-1.9-1.873s1.308-3.349.259-5.622c-.506-1.1-1.192-.512-1.733-1.02a.906.906,0,0,1-.206-.883l4.169-3.077,6.33,18.08a1.954,1.954,0,0,1-1.26.1Z" transform="translate(-986.208 -500.678)" fill="#f9b25f"/>
      <path id="Shape-90" data-name="Shape" d="M810.963,242.361c.354-3.089,4.076-6.591,7.265-2.883.292.339,1.755-.654,3.9-1.236,1.654-.449,4.434,1.45,5.493,3.3,2.481,4.325,3.721.824,4.607,6.591.544,3.538-1.949,4.325-1.772,6.384.463,5.379-1.953,9.145-4.784,9.268-4.48.194-3.66-7.947-7.442-9.885C813.089,251.261,810.433,246.983,810.963,242.361Z" transform="translate(-785.769 -225.418)" fill="#37474f"/>
      <path id="Shape-91" data-name="Shape" d="M864.988,357.366h-7.257l.3-11.052h7.288Z" transform="translate(-823.642 -309.734)" fill="#f7d9b0"/>
      <path id="Shape-92" data-name="Shape" d="M1028.02,559.086c-.268.726,1.043,4.382,1.364,5.078,1.345,1.248,5.953-2.621,5.661-5.078-.028-1.033-1.349,1.24-1.177.226.327-2.239-2.917-2.029-4.2-1.5S1028.63,557.016,1028.02,559.086Z" transform="translate(-993.39 -521.199)" fill="#f4ca92"/>
      <path id="Shape-93" data-name="Shape" d="M755.49,296.438l-6.078-4.4-5.325-14.265L741.4,277s1.424,14.039,2.756,18.339c.71,2.293,4.7,6.134,8.17,8.581C753.357,301.32,754.372,298.922,755.49,296.438Z" transform="translate(-729.57 -255.834)" fill="#ffdfae"/>
      <path id="Shape-94" data-name="Shape" d="M810.618,359.791s-1.929,4.35-4.136,4.325c-2.948-.033-3.172-3.3-3.172-3.3l-10.432-3.88c-.233.645-2.63,8.075-2.63,8.075,2.694,3.43,5.66,6.818,5.66,6.818s-3.915,26.734-1.44,29.674c7.241,8.607,26.473-.213,26.473-.213l-2.1-30.778c0-.426,1.9-2.023,4.135-4.206a36.549,36.549,0,0,1-2.517-9.18,41.484,41.484,0,0,1-9.841,2.67Z" transform="translate(-769.071 -317.991)" fill="#f9b25f"/>
      <path id="Shape-95" data-name="Shape" d="M955.144,232.819l-2.817.951-.182,23.866c-.544.135-2.9,2.473-4.026,2.983.471,3.765,1.247,5.614,2.522,9.172,2.4-2.348,5.2-5.373,6.435-8.355C958.811,257.259,955.144,232.819,955.144,232.819Z" transform="translate(-896.734 -221.482)" fill="#ffdfae"/>
      <path id="Shape-96" data-name="Shape" d="M854.412,290.22c-.122,1.868-1.7,2.476-1.984,4.139-.773,4.453-4.116,8.936-7.243,8.936-2.65,0-6.514-5.841-6.514-12.431a46.464,46.464,0,0,1,.274-4.713c.148-1.465,3.692,4.3,10.844-1.438,1.084-.87,1.234,5.428,1.884,6.975.19.451.33-1.665.633-2.218C852.56,289.01,854.644,286.676,854.412,290.22Z" transform="translate(-808.229 -261.77)" fill="#ffdfae"/>
      <g id="Dollar-7" data-name="Dollar" transform="translate(0 6.637)">
        <path id="Path_2184" data-name="Path 2184" d="M697.417,219.055c-.136-.235-6.312-7.372-6.312-7.372s-7.289,13.113-11.516,13.024c-.159,0,6.807,10.443,6.807,10.443S699.884,223.319,697.417,219.055Z" transform="translate(-679.586 -211.683)" fill="#94d3cc"/>
        <path id="Path_2185" data-name="Path 2185" d="M691.286,237.6l-.114-.174c-.014-.021-1.41-2.164-2.782-4.295-2.845-4.419-2.832-4.45-2.759-4.622l.052-.123h.121c3.6-.022,9.9-12.184,9.962-12.307l.124-.24.173.2c3.832,4.3,5.8,6.578,5.861,6.78,1.287,4.553-10.005,14.249-10.486,14.66Zm-5.16-8.8c.656,1.112,3.337,5.266,5.237,8.181,1.355-1.182,11.286-10.017,10.2-14.008-.241-.379-3.4-3.964-5.6-6.428-.9,1.729-6.263,11.655-9.837,12.255Z" transform="translate(-684.458 -214.912)" fill="#6da196"/>
        <g id="Group_4464" data-name="Group 4464" transform="translate(8.179 9.371)">
          <g id="Group_4463" data-name="Group 4463">
            <path id="Path_2186" data-name="Path 2186" d="M724,258.7a1.8,1.8,0,0,0,.99-.383.982.982,0,0,0,.335-1.3c-.228-.39-.55-.461-1.161-.3-.727.221-1.294.154-1.638-.433a1.582,1.582,0,0,1,.5-2.048,1.816,1.816,0,0,1,.912-.422l.129.54a1.579,1.579,0,0,0-.8.34.887.887,0,0,0-.311,1.159c.228.39.558.409,1.183.241.766-.207,1.273-.11,1.632.5a1.654,1.654,0,0,1-.555,2.192,2.053,2.053,0,0,1-1.071.457Z" transform="translate(-722.328 -253.816)" fill="#6da196"/>
          </g>
          <path id="Path_4958" data-name="Path 4958" d="M.052.035.543,0,.491.768,0,.8Z" transform="matrix(0.827, -0.562, 0.562, 0.827, 0.086, 0.347)" fill="#6da196"/>
          <path id="Path_4959" data-name="Path 4959" d="M.052.035.543,0,.491.768,0,.8Z" transform="matrix(0.827, -0.562, 0.562, 0.827, 2.589, 4.628)" fill="#6da196"/>
        </g>
        <path id="Path_2187" data-name="Path 2187" d="M737.845,218.553a.638.638,0,0,1-.377.762.532.532,0,0,1-.656-.438,1.251,1.251,0,0,1,.511-.3.921.921,0,0,1,.522-.024Z" transform="translate(-725.861 -217.004)" fill="#6da196"/>
        <path id="Path_2188" data-name="Path 2188" d="M766.454,247.209a.619.619,0,0,1-.857-.386.8.8,0,0,1,.357-.983,1.763,1.763,0,0,1,.4.653,1.659,1.659,0,0,1,.1.716Z" transform="translate(-749.099 -238.243)" fill="#6da196"/>
        <path id="Path_2189" data-name="Path 2189" d="M688.131,272a.649.649,0,0,1,.34.786.522.522,0,0,1-.676.4,1.243,1.243,0,0,1-.073-.727.786.786,0,0,1,.409-.454Z" transform="translate(-686.143 -258.585)" fill="#6da196"/>
        <path id="Path_2190" data-name="Path 2190" d="M712.811,307.676a.566.566,0,0,1,.576-.569.6.6,0,0,1,.49.67.872.872,0,0,1-.591.253.747.747,0,0,1-.475-.354Z" transform="translate(-706.453 -285.882)" fill="#6da196"/>
        <ellipse id="Ellipse_336" data-name="Ellipse 336" cx="1.545" cy="1.795" rx="1.545" ry="1.795" transform="translate(4.976 14.114)" fill="#6da196"/>
        <ellipse id="Ellipse_337" data-name="Ellipse 337" cx="1.545" cy="1.795" rx="1.545" ry="1.795" transform="translate(11.564 5.847)" fill="#6da196"/>
      </g>
      <g id="Dollar-8" data-name="Dollar" transform="translate(46.896)">
        <path id="Path_2191" data-name="Path 2191" d="M942.32,193.412c.059-.275.466-10.387.466-10.387s-13.256,2.521-16.036-1.182c-.1-.139-2.092,12.874-2.092,12.874S941.257,198.4,942.32,193.412Z" transform="translate(-924.658 -181.843)" fill="#94d3cc"/>
        <path id="Path_2192" data-name="Path 2192" d="M937.646,200.315A51.234,51.234,0,0,1,927.5,199l-.185-.044.035-.215c0-.026.434-2.668.872-5.279.909-5.417.938-5.426,1.1-5.479l.114-.038.082.1c.994,1.263,3.811,1.723,8.148,1.331a53.6,53.6,0,0,0,6.388-1.008l.236-.055-.008.28c-.168,6.186-.3,9.415-.391,9.6C943.1,199.813,940.525,200.315,937.646,200.315Zm-9.882-1.713a58.564,58.564,0,0,0,7.138,1.133c4.865.429,7.853-.174,8.646-1.743.08-.462.245-5.591.343-9.137-1.713.377-11.639,2.422-14.424-.256-.267,1.312-1.118,6.41-1.7,10Z" transform="translate(-926.809 -186.584)" fill="#6da196"/>
        <g id="Group_4467" data-name="Group 4467" transform="translate(7.665 4.956)">
          <g id="Group_4466" data-name="Group 4466" transform="translate(0 0.455)">
            <path id="Path_2193" data-name="Path 2193" d="M964.963,210.073a1.935,1.935,0,0,0,.909.6.764.764,0,0,0,1.056-.587c.1-.458-.075-.783-.59-1.2a1.655,1.655,0,0,1-.823-1.7,1.227,1.227,0,0,1,1.641-.945,1.888,1.888,0,0,1,.882.5l-.258.474a1.674,1.674,0,0,0-.752-.459.69.69,0,0,0-.948.51c-.1.458.114.756.64,1.181a1.648,1.648,0,0,1,.775,1.743,1.288,1.288,0,0,1-1.77.993,2.162,2.162,0,0,1-1.01-.616Z" transform="translate(-964.715 -206.171)" fill="#6da196"/>
          </g>
          <path id="Path_4976" data-name="Path 4976" d="M0,0,.471.017.5.815.026.8Z" transform="translate(2.124) rotate(13.652)" fill="#6da196"/>
          <path id="Path_4977" data-name="Path 4977" d="M0,0,.471.017.5.815.026.8Z" transform="translate(1.073 5.029) rotate(13.652)" fill="#6da196"/>
        </g>
        <path id="Path_2194" data-name="Path 2194" d="M1011.7,191.273a.492.492,0,0,1-.739.187.685.685,0,0,1-.161-.86A1.275,1.275,0,0,1,1011.7,191.273Z" transform="translate(-994.248 -188.65)" fill="#6da196"/>
        <path id="Path_2195" data-name="Path 2195" d="M1008.35,231.856a.809.809,0,0,1-.329-1,.612.612,0,0,1,.867-.352,2,2,0,0,1-.151.779,1.411,1.411,0,0,1-.387.573Z" transform="translate(-992.019 -219.627)" fill="#6da196"/>
        <path id="Path_2196" data-name="Path 2196" d="M937.116,190.39a.665.665,0,0,1-.273.82.508.508,0,0,1-.706-.318,1.071,1.071,0,0,1,.415-.551.648.648,0,0,1,.564.049Z" transform="translate(-933.941 -188.415)" fill="#6da196"/>
        <path id="Path_2197" data-name="Path 2197" d="M928.57,232.483a.487.487,0,0,1,.75.115.692.692,0,0,1-.1.872.892.892,0,0,1-.558-.339.98.98,0,0,1-.092-.648Z" transform="translate(-927.806 -221.121)" fill="#6da196"/>
        <ellipse id="Ellipse_338" data-name="Ellipse 338" cx="1.545" cy="1.795" rx="1.545" ry="1.795" transform="translate(3.082 5.758)" fill="#6da196"/>
        <ellipse id="Ellipse_339" data-name="Ellipse 339" cx="1.545" cy="1.795" rx="1.545" ry="1.795" transform="translate(12.776 5.886)" fill="#6da196"/>
      </g>
      <g id="Dollar-9" data-name="Dollar" transform="translate(48.08 0.043)">
        <path id="Path_2198" data-name="Path 2198" d="M948.536,195.187c.08-.268,1.269-10.3,1.269-10.3s-13.4,1.123-15.879-2.855c-.093-.15-3.081,12.6-3.081,12.6S947.091,200.042,948.536,195.187Z" transform="translate(-930.845 -182.035)" fill="#b2dfdb"/>
        <path id="Path_2199" data-name="Path 2199" d="M945.888,201.658c-4.806,0-11.6-2.349-12.008-2.49l-.181-.063.052-.211c.006-.026.638-2.611,1.277-5.167,1.325-5.3,1.354-5.306,1.516-5.342l.116-.026.074.111c.892,1.362,3.664,2.116,8.014,2.178a53.3,53.3,0,0,0,6.437-.335l.24-.03-.029.278c-.647,6.143-1.028,9.346-1.133,9.52h0C949.568,201.245,947.9,201.658,945.888,201.658ZM934.171,198.8a59.58,59.58,0,0,0,7.021,1.875c4.812.936,7.835.649,8.746-.831.116-.452.678-5.542,1.05-9.064-1.735.2-11.779,1.193-14.345-1.764C936.272,190.3,935.031,195.286,934.171,198.8ZM949.95,199.825Z" transform="translate(-933.153 -186.953)" fill="#6da196"/>
        <g id="Group_4470" data-name="Group 4470" transform="translate(7.872 5.741)">
          <g id="Group_4469" data-name="Group 4469" transform="translate(0 0.432)">
            <path id="Path_2200" data-name="Path 2200" d="M972.267,213.5a2.012,2.012,0,0,0,.859.688.746.746,0,0,0,1.1-.474c.131-.446-.014-.788-.5-1.255a1.7,1.7,0,0,1-.688-1.781,1.2,1.2,0,0,1,1.708-.77,1.955,1.955,0,0,1,.839.593l-.293.445a1.735,1.735,0,0,0-.713-.535.672.672,0,0,0-.983.409c-.131.446.055.764.546,1.243a1.687,1.687,0,0,1,.636,1.817,1.256,1.256,0,0,1-1.84.8,2.246,2.246,0,0,1-.958-.719Z" transform="translate(-971.982 -209.794)" fill="#6da196"/>
          </g>
          <path id="Path_4960" data-name="Path 4960" d="M0,0,.475.023.509.815.034.792Z" transform="translate(2.491) rotate(18.818)" fill="#6da196"/>
          <path id="Path_4961" data-name="Path 4961" d="M0,0,.475.023.509.815.034.792Z" transform="translate(1.054 4.899) rotate(18.818)" fill="#6da196"/>
        </g>
        <path id="Path_2201" data-name="Path 2201" d="M1021.79,198.329a.487.487,0,0,1-.751.109.693.693,0,0,1-.094-.873,1.324,1.324,0,0,1,.844.764Z" transform="translate(-1003.61 -194.11)" fill="#6da196"/>
        <path id="Path_2202" data-name="Path 2202" d="M1014.67,238.626a.824.824,0,0,1-.25-1.028.6.6,0,0,1,.891-.26,1.976,1.976,0,0,1-.211.761A1.359,1.359,0,0,1,1014.67,238.626Z" transform="translate(-998.359 -224.957)" fill="#6da196"/>
        <path id="Path_2203" data-name="Path 2203" d="M947.5,190.918a.65.65,0,0,1-.335.788.521.521,0,0,1-.678-.39,1.031,1.031,0,0,1,.456-.5.654.654,0,0,1,.557.107Z" transform="translate(-943.495 -188.838)" fill="#6da196"/>
        <path id="Path_2204" data-name="Path 2204" d="M935.276,231.956a.493.493,0,0,1,.738.193.685.685,0,0,1-.166.858.925.925,0,0,1-.53-.4.986.986,0,0,1-.042-.651Z" transform="translate(-934.398 -220.778)" fill="#6da196"/>
        <ellipse id="Ellipse_340" data-name="Ellipse 340" cx="1.545" cy="1.795" rx="1.545" ry="1.795" transform="translate(3.475 5.993)" fill="#6da196"/>
        <ellipse id="Ellipse_341" data-name="Ellipse 341" cx="1.545" cy="1.795" rx="1.545" ry="1.795" transform="translate(13.12 7.135)" fill="#6da196"/>
      </g>
      <path id="Shape-97" data-name="Shape" d="M965.828,231.883c-.28-1.782-.7-2.925-3.242-2.2-1.586.452-2.852,1.654-2.572,3.436a2.7,2.7,0,0,0,3.44,2.216,2.911,2.911,0,0,0,2.374-3.452Z" transform="translate(-906.321 -218.871)" fill="#ffdfae"/>
      <g id="Dollar-10" data-name="Dollar" transform="translate(2.615 7.89)">
        <path id="Path_2206" data-name="Path 2206" d="M705.545,217.055c-.117-.249-5.715-8-5.715-8s-8.276,12.3-12.478,11.765c-.158-.02,5.97,11.113,5.97,11.113S707.671,221.56,705.545,217.055Z" transform="translate(-687.348 -209.052)" fill="#b2dfdb"/>
        <path id="Path_2207" data-name="Path 2207" d="M698.039,234.341l-.1-.186c-.012-.023-1.237-2.3-2.438-4.568-2.491-4.7-2.476-4.728-2.389-4.892l.062-.117.12.01c3.585.353,10.8-11.1,10.875-11.214l.142-.227.158.212c3.484,4.68,5.271,7.158,5.312,7.366h0c.929,4.669-11.068,13.144-11.58,13.5Zm-4.457-9.3c.567,1.177,2.916,5.593,4.581,8.7,1.441-1.036,12.016-8.795,11.248-12.884-.211-.4-3.08-4.3-5.076-6.988-1.035,1.619-7.144,10.942-10.753,11.167Z" transform="translate(-691.987 -212.236)" fill="#6da196"/>
        <g id="Group_4473" data-name="Group 4473" transform="translate(8.289 9.081)">
          <g id="Group_4472" data-name="Group 4472" transform="translate(0 0.07)">
            <path id="Path_2208" data-name="Path 2208" d="M732.09,255.071a1.762,1.762,0,0,0,1.015-.278.965.965,0,0,0,.434-1.264c-.2-.412-.512-.517-1.133-.415-.741.144-1.3.018-1.6-.6a1.555,1.555,0,0,1,.655-1.988,1.769,1.769,0,0,1,.941-.325l.087.551a1.541,1.541,0,0,0-.82.255.872.872,0,0,0-.4,1.121c.2.412.524.466,1.16.364.779-.126,1.277.023,1.586.671a1.626,1.626,0,0,1-.722,2.125,2,2,0,0,1-1.1.343Z" transform="translate(-730.666 -250.198)" fill="#6da196"/>
          </g>
          <path id="Path_4957" data-name="Path 4957" d="M.048.032.532,0,.485.777,0,.809Z" transform="translate(0.205 0.258) rotate(-29.025)" fill="#6da196"/>
          <path id="Path_4956" data-name="Path 4956" d="M.048.032.532,0,.485.777,0,.809Z" transform="translate(2.365 4.783) rotate(-29.025)" fill="#6da196"/>
        </g>
        <path id="Path_2209" data-name="Path 2209" d="M749.912,216.02a.619.619,0,0,1-.434.72.548.548,0,0,1-.62-.5,1.207,1.207,0,0,1,.533-.248.922.922,0,0,1,.521.033Z" transform="translate(-737.088 -214.429)" fill="#6da196"/>
        <path id="Path_2210" data-name="Path 2210" d="M775.717,247a.634.634,0,0,1-.823-.474.782.782,0,0,1,.432-.942,1.822,1.822,0,0,1,.344.692,1.667,1.667,0,0,1,.047.724Z" transform="translate(-758.117 -237.458)" fill="#6da196"/>
        <path id="Path_2211" data-name="Path 2211" d="M695.466,264.638a.664.664,0,0,1,.278.818.509.509,0,0,1-.7.322,1.255,1.255,0,0,1-.016-.732.756.756,0,0,1,.438-.408Z" transform="translate(-693.516 -252.275)" fill="#6da196"/>
        <path id="Path_2212" data-name="Path 2212" d="M716.889,302.412a.548.548,0,0,1,.618-.507.62.62,0,0,1,.436.719.849.849,0,0,1-.608.191.778.778,0,0,1-.446-.4Z" transform="translate(-711.236 -281.247)" fill="#6da196"/>
        <ellipse id="Ellipse_342" data-name="Ellipse 342" cx="1.545" cy="1.795" rx="1.545" ry="1.795" transform="translate(4.726 13.526)" fill="#6da196"/>
        <ellipse id="Ellipse_343" data-name="Ellipse 343" cx="1.545" cy="1.795" rx="1.545" ry="1.795" transform="translate(11.928 5.982)" fill="#6da196"/>
      </g>
      <path id="Shape-98" data-name="Shape" d="M738.944,268.731a2.942,2.942,0,0,0-3.684,2.668c-.215,1.829.663,2.974,2.772,3.308s3.694-.4,3.909-2.225a3.308,3.308,0,0,0-3-3.751Z" transform="translate(-724.582 -249.363)" fill="#ffdfae"/>
    </g>
    <g id="Person-3" data-name="Person" transform="translate(927.722 1767.352)">
      <path id="Shape-99" data-name="Shape" d="M389.226,614.872l-16.5-.248a38.33,38.33,0,0,0,1.75,7.666c1.757,4.941,12.214,28.9,12.214,28.9-.533,2.3,1.8,25.142,1.8,25.142l4.081-.186s2.345-24.568,2.1-27.792C394.023,639.708,389.226,614.872,389.226,614.872Z" transform="translate(-332.916 -546.415)" fill="#ffdfae"/>
      <path id="Shape-100" data-name="Shape" d="M461.389,911.811c-.146-1.328-2.824-.526-4.389-1.6a57.077,57.077,0,0,1-6.879-5.861h-.638V913h2.141v-4.323s3.354,4.181,4.963,4.624C458.048,913.7,461.571,913.457,461.389,911.811Z" transform="translate(-394.985 -771.706)" fill="#adadad"/>
      <path id="Shape-101" data-name="Shape" d="M450.313,886.612h4.644l1.554,8.106s1.7,1.871,3,1.975c1.449.116,2.13,1.223,1.88,1.548-.758.985-3.561.937-4.629.485-2.283-.966-5.644-5.078-7.025-7.285C448.93,890.153,450.313,886.612,450.313,886.612Z" transform="translate(-394.984 -757.912)" fill="#bfbfbf"/>
      <path id="Shape-102" data-name="Shape" d="M262.242,614.624H246.508s-4.558,1.716-4.666,7.99c-.092,5.345-.365,21.245-.365,21.245-.14.072-20.445-8.036-20.445-8.036l-2.04,4.042,26.147,16.012Z" transform="translate(-208.599 -546.415)" fill="#ffdfae"/>
      <path id="Shape-103" data-name="Shape" d="M165.666,700.343c1.082,0,.785-3.153,1.846-4.8a61.145,61.145,0,0,1,5.581-7.119l.082-.726-6.925-1.059-.276,2.439,3.463.529s-3.781,3.309-4.344,5.088C164.582,696.3,164.324,700.348,165.666,700.343Z" transform="translate(-164.679 -602.411)" fill="#adadad"/>
      <path id="Shape-104" data-name="Shape" d="M179.408,695.532l-2.242,4.367-5.951-1a7.747,7.747,0,0,0-2.075,3.2c-.288,1.655-1.322,2.3-1.566,1.965-.741-1-.335-4.225.19-5.4,1.122-2.505,5.068-5.841,7.13-7.145C176.1,690.759,179.408,695.532,179.408,695.532Z" transform="translate(-166.692 -606.145)" fill="#bfbfbf"/>
      <path id="Shape-105" data-name="Shape" d="M225.553,338.536c5.614.459,4.078-7.089,5.083-9.573,3.6-8.895.857-10.561.158-12.065a3.5,3.5,0,0,0-2.887-2.007c-1.472-3.661-8.273-2.311-9.351,2.8-.446,2.116-5.957-5.578-11.846-3.346-4.205,1.594-11.379,13.282-9.95-5.579,0,0-6.987-3.852-11.477,5.062C177.792,328.7,190.016,337.3,201.04,338.3c3.835.349,5.183,7.708,13.448,7.967C220.66,346.463,220.83,338.15,225.553,338.536Z" transform="translate(-179.476 -307.936)" fill="#694a52"/>
      <rect id="Shape-106" data-name="Shape" width="9.295" height="3.753" transform="translate(49.519 33.664) rotate(180)" fill="#be353b"/>
      <path id="Shape-107" data-name="Shape" d="M379.453,424.387l9.911-.15-5.148-17.112-4.441-.233Z" transform="translate(-338.355 -384.883)" fill="#ffdfae"/>
      <path id="Shape-108" data-name="Shape" d="M1028.36,558.452c-.268.726.3,4.767,1.257,5.712,3.548,2.078,5.953-2.621,5.661-5.078-.028-1.033-1.35,1.24-1.177.226.327-2.239-2.917-2.029-4.2-1.5S1028.98,556.382,1028.36,558.452Z" transform="translate(-986.896 -535.168)" fill="#f4ca92"/>
      <path id="Shape-109" data-name="Shape" d="M465.488,459.152l2.3,2.085s-13.749,16.6-14.383,16.6c-3.354-.046-9.371-7.7-11.948-10.986-1.571-2,.669-7.476.669-7.476l10.946,10.6Z" transform="translate(-388.041 -425.521)" fill="#ffdfae"/>
      <path id="Shape-110" data-name="Shape" d="M227.563,428.409l11.01,14.684,8.509-5.108-.057,6.032s-5.417,6.536-9.985,7.376c-1.744.32-11.384-20.517-11.384-20.517Z" transform="translate(-213.989 -401.615)" fill="#ffdfae"/>
      <path id="Shape-111" data-name="Shape" d="M315.932,480.889s-6.874,14.745-6.985,15.131c-.613,2.138.587,3.44,2.836,4.169.586.19,3.819-7.853,4.533-7.736s-1.088,8.394-.271,8.447c9.562.623,25.184-2.8,25.184-2.8l-3.594-18.423s-4.9-21.221-2.842-24.49c.143-.227,1.758-8.839.5-9.428-1.85-.865-3.445-1.414-3.445-1.414l-1.114-1.919a12.05,12.05,0,0,1-2.582,2c-.132.058-.38-.03-.5.1-1.114,1.275-1.477,5.623-1.477,5.623s-1.347-5.62-2.007-5.813a8.925,8.925,0,0,1-2.729-1.912l-.964,2.212a26.632,26.632,0,0,0-5.734,2.646c-2,1.15-1.069,9.41-1.069,9.41Z" transform="translate(-281.211 -412.509)" fill="#ff6369"/>
      <path id="Shape-112" data-name="Shape" d="M367.323,365.323c-.041,2.234,1.624,1.707,2.533,3.824,1.415,3.293,2.442,5.132,4.585,4.545,2.963-.81,4.438-5.341,4.391-12.046-.022-3.141-.013-4.5-1.561-5.575-.645-.447.21,1.714-3.584,3.372-1.913.836-3.882.161-4.028,2.438C369.494,364.444,367.358,363.394,367.323,365.323Z" transform="translate(-328.545 -345.32)" fill="#ffdfae"/>
      <path id="Shape-113" data-name="Shape" d="M217.888,402.638c.205-1.171.812-.576,1.2-1.561.288-.723-1.513-2.953-1.173-3.431.482-.677,2.2,2.859,2.574,3.285,0,0,.729.856.788,3.654l-1.967,2.348C218.756,406.188,217.318,405.888,217.888,402.638Z" transform="translate(-207.6 -377.627)" fill="#ffdfae"/>
      <path id="Shape-114" data-name="Shape" d="M572.877,433.272c-.205-1.171-.812-.576-1.2-1.561-.288-.724,1.513-2.953,1.173-3.431-.482-.677-2.2,2.859-2.574,3.285,0,0-.729.856-.788,3.654l1.967,2.348C572.009,436.823,573.447,436.523,572.877,433.272Z" transform="translate(-492.021 -401.448)" fill="#ffdfae"/>
      <path id="Shape-115" data-name="Shape" d="M373.88,374.011a1.075,1.075,0,0,1-.865-.459l.141-.15a.882.882,0,0,0,.8.383c1.481-.118,3.5-3.5,3.516-3.53l.158.126c-.085.143-2.088,3.5-3.661,3.626C373.94,374.009,373.91,374.011,373.88,374.011Z" transform="translate(-333.149 -356.395)" fill="#694a52"/>
      <path id="Shape-116" data-name="Shape" d="M370.6,372.651a4.77,4.77,0,0,1-1.191-.155l.041-.217c4.373,1.127,6.69-4.475,6.713-4.532l.173.094C376.311,367.894,374.345,372.651,370.6,372.651Z" transform="translate(-330.229 -354.445)" fill="#694a52"/>
      <ellipse id="Shape-117" data-name="Shape" cx="0.615" cy="0.715" rx="0.615" ry="0.715" transform="translate(41.219 29.138)" fill="#fff"/>
      <ellipse id="Shape-118" data-name="Shape" cx="0.615" cy="0.715" rx="0.615" ry="0.715" transform="translate(42.375 29.547)" fill="#fff"/>
      <ellipse id="Shape-119" data-name="Shape" cx="0.615" cy="0.715" rx="0.615" ry="0.715" transform="translate(43.549 29.869)" fill="#fff"/>
      <ellipse id="Shape-120" data-name="Shape" cx="0.615" cy="0.715" rx="0.615" ry="0.715" transform="translate(44.747 29.771)" fill="#fff"/>
      <ellipse id="Shape-121" data-name="Shape" cx="0.615" cy="0.715" rx="0.615" ry="0.715" transform="translate(45.921 29.45)" fill="#fff"/>
      <ellipse id="Shape-122" data-name="Shape" cx="0.615" cy="0.715" rx="0.615" ry="0.715" transform="translate(46.943 28.739)" fill="#fff"/>
      <ellipse id="Shape-123" data-name="Shape" cx="0.347" cy="0.404" rx="0.347" ry="0.404" transform="translate(76.905 33.64)" fill="#fff"/>
      <ellipse id="Shape-124" data-name="Shape" cx="0.347" cy="0.404" rx="0.347" ry="0.404" transform="translate(77.33 34.159)" fill="#fff"/>
      <ellipse id="Shape-125" data-name="Shape" cx="0.347" cy="0.404" rx="0.347" ry="0.404" transform="translate(77.681 34.766)" fill="#fff"/>
      <ellipse id="Shape-126" data-name="Shape" cx="0.347" cy="0.404" rx="0.347" ry="0.404" transform="translate(78.149 35.282)" fill="#fff"/>
      <ellipse id="Shape-127" data-name="Shape" cx="0.347" cy="0.404" rx="0.347" ry="0.404" transform="translate(78.65 35.712)" fill="#fff"/>
    </g>
    <path id="Path_2865" data-name="Path 2865" d="M832.7,594.431c0,9.516,6.826,22.664,14.158,22.664s9.746-10.166,14.915-17.837c2.2-3.263,3.161-11.3-1.438-12.236a17.019,17.019,0,0,0-4.648-.19C847.2,579.014,832.7,584.915,832.7,594.431Z" transform="translate(-689.625 1210.493)" fill="#455a64"/>
    <rect id="Rectangle_6631" data-name="Rectangle 6631" width="12.23" height="15.937" transform="translate(152.531 1823.877)" fill="#ffdfae"/>
    <rect id="Rectangle_6632" data-name="Rectangle 6632" width="6.382" height="6.872" transform="translate(120.762 1786.628)" fill="#ffdfae"/>
    <path id="Path_2866" data-name="Path 2866" d="M909.534,570.782c2.219.739,2.658,3.636,1.552,6.96s-.931,8.487-3.151,7.748c-.555-.185-3.916-.975-4.246-1.441-.483-.684.908-1.973,1-3.594.1-1.7-1.077-3.738-.653-5.012C905.144,572.12,907.315,570.045,909.534,570.782Z" transform="translate(-705.679 1213.341)" fill="#ffdfae"/>
    <path id="Shape-128" data-name="Shape" d="M1027.22,559.563c-.548,1.277,1.12,7.738,3.624,9.7,2.751,2.2,12.179-4.614,11.582-8.939-.057-1.819-2.761,2.182-2.408.4.668-3.941-5.968-3.571-8.592-2.634S1028.47,555.919,1027.22,559.563Z" transform="translate(-874.636 1263.866)" fill="#f4ca92"/>
    <path id="Path_2867" data-name="Path 2867" d="M858.354,679.242c-4.028,2.707-12.32-4.507-18.043-7.155-7.04-3.257-15.843-3.348-22.406-3.085-3.38.135,3.487-33.186,3.487-33.186,0-1.276-13.726-9.829-17.737-18.138-2.911-6.031-.927-37.027-.927-37.027l7.579.849,4.165,30.745c3.853.825,19.474,8.1,20.726,8.1,0,0,3.237,6.28,6.941,6.246a5.225,5.225,0,0,0,5.324-4.773l25.9-17.8,7.6-20.536,5.952,3.663s-1.226,21.3-5.914,25.948c-4.584,4.541-21.122,24.63-21.122,24.63S866.977,673.449,858.354,679.242Z" transform="translate(-682.688 1211.073)" fill="#8765db"/>
    <path id="Path_2868" data-name="Path 2868" d="M836.545,604.625c.2,2.7,2.846,3.576,3.33,5.976,1.3,6.43,6.907,12.9,12.154,12.9,4.447,0,10.932-8.434,10.932-17.95a43.955,43.955,0,0,0-.46-6.8c-.636-3.93-9.827,6.813-18.2-2.076-1.958-2.078-1.692,6.871-4.225,6.871C839.967,603.543,836.156,599.509,836.545,604.625Z" transform="translate(-690.489 1207.515)" fill="#ffdfae"/>
    <ellipse id="Ellipse_405" data-name="Ellipse 405" cx="2.233" cy="4.191" rx="2.233" ry="4.191" transform="matrix(0.093, -0.996, 0.996, 0.093, 197.581, 1789.941)" fill="#ffdfae"/>
    <path id="Path_2869" data-name="Path 2869" d="M802.976,572.2c.379-2.072,1.021-3.387,5.3-2.39,2.67.622,4.845,2.1,4.466,4.177s-2.936,2.89-5.633,2.4S802.6,574.269,802.976,572.2Z" transform="translate(-682.882 1213.606)" fill="#ffdfae"/>
    <path id="Path_4973" data-name="Path 4973" d="M7.976,0h162.2a7.976,7.976,0,0,1,7.976,7.976V36.152a7.976,7.976,0,0,1-7.976,7.976H7.976A7.976,7.976,0,0,1,0,36.151V7.976A7.976,7.976,0,0,1,7.976,0Z" transform="translate(78.881 1741.976) rotate(1.144)" fill="#f9b25f"/>
    <path id="Path_2878" data-name="Path 2878" d="M946.848,589.468l-2.9-5.386-.7-1.307,5.716-3.081-17.316-10.678-.6,20.335,5.716-3.081.7,1.307,2.9,5.386Z" transform="translate(-711.896 1213.708)" fill="#fff"/>
    <text id="تخفیف_های_روزانه" data-name="تخفیف های روزانه" transform="translate(90.088 1767.503)" fill="#fff" font-size="19" font-family="IRANSansWebFaNum, 'IRANSansWeb\(FaNum\)'"><tspan x="0" y="0">تخفیف های روزانه</tspan></text>
    <path id="Shape-129" data-name="Shape" d="M717.132,451.126c1.852,12.459,17.155,27.562,26.711,25.867s10.352-15.5,15.315-26.7c.588-1.327,3.838-5.3,3.942-7.194.269-4.9-10.273-4.33-13.178-7.741-6.13-7.2-20.271,4.779-20.433,4.67C723.067,435.752,716.062,443.925,717.132,451.126Z" transform="translate(-388.914 1386.416)" fill="#455a64"/>
    <rect id="Shape-130" data-name="Shape" width="16.188" height="21.095" transform="translate(345.879 1857.626)" fill="#ffdfae"/>
    <path id="Shape-131" data-name="Shape" d="M473.192,422.042l-17.572-8.086s.927,7.432,3.141,10.388c2.386,3.187,6.978,6.91,10.429,6.058C471.981,429.712,473.192,422.042,473.192,422.042Z" transform="translate(-110.968 1440.333)" fill="#f4ca92"/>
    <rect id="Shape-132" data-name="Shape" width="8.447" height="9.095" transform="translate(303.829 1808.323)" fill="#ffdfae"/>
    <path id="Shape-133" data-name="Shape" d="M807.049,496.453c-1.151.94-2.86.185-4.274-1.546s-3.024-4.528-1.874-5.468,3.842.9,5.256,2.628S808.2,495.512,807.049,496.453Z" transform="translate(-419.621 1365.773)" fill="#ffdfae"/>
    <path id="Shape-134" data-name="Shape" d="M745.147,509.957l-45.741.062,1.9-10.915c0-1.69-18.168-13.01-23.477-24.008-3.853-7.982-1.227-49.011-1.227-49.011l10.032,1.125,5.512,40.694c5.1,1.092,25.776,10.721,27.433,10.721,0,0,4.285,8.313,9.188,8.267,6.549-.063,7.047-6.318,7.047-6.318l22.929,5.792-2-14.223,3.6-3.851s13.906,22.7,8.842,26.864C762.585,500.58,744,496.3,744,496.3Z" transform="translate(-373.724 1388.981)" fill="#ff6369"/>
    <path id="Shape-135" data-name="Shape" d="M729.194,467.049c.891,3.468,4.535,4,5.721,7.018,3.177,8.079,11.986,15.219,18.824,14,5.8-1.028,12.3-13.519,10.1-25.921a58.1,58.1,0,0,0-2.173-8.763c-1.737-4.975-11.231,11.152-24.2,1.5-3.032-2.256-.616,9.345-3.918,9.93C733.4,464.847,727.5,460.471,729.194,467.049Z" transform="translate(-393.279 1379.298)" fill="#ffdfae"/>
    <g id="Shape-136" data-name="Shape" transform="translate(369.555 1830.084)">
      <g id="Group_2612" data-name="Group 2612" transform="translate(0 0.838)">
        <ellipse id="Ellipse_65" data-name="Ellipse 65" cx="2.285" cy="4.085" rx="2.285" ry="4.085" transform="translate(0 16.63) rotate(-37.343)" fill="#ff6369"/>
        <path id="Path_837" data-name="Path 837" d="M803.539,489.981l-1.755,1.34a.68.68,0,0,1-.937-.183l-4.711-6.175a.68.68,0,0,1,.07-.953l1.756-1.339a.68.68,0,0,1,.937.183l3.229,5.553,1.482.621A.679.679,0,0,1,803.539,489.981Z" transform="translate(-787.508 -462.71)" fill="#37474f"/>
        <circle id="Ellipse_66" data-name="Ellipse 66" cx="3.729" cy="3.729" r="3.729" transform="translate(16.846 3.403)" fill="#ff6369"/>
        <path id="Path_838" data-name="Path 838" d="M809.872,464.959c-6.211-.334-15.563,6.27-15.563,6.27l-4.832-6.333s10.339-7.11,9.872-13.731C799.343,451.089,809.923,464.962,809.872,464.959Z" transform="translate(-785.118 -451.165)" fill="#92aed9"/>
        <path id="Path_4921" data-name="Path 4921" d="M1.378,0H4.891A1.378,1.378,0,0,1,6.269,1.378V9.445a1.378,1.378,0,0,1-1.378,1.378H1.378A1.378,1.378,0,0,1,0,9.445V1.378A1.378,1.378,0,0,1,1.378,0Z" transform="translate(0.933 14.25) rotate(-37.343)" fill="#92aed9"/>
      </g>
      <path id="Path_4922" data-name="Path 4922" d="M.71,0a.71.71,0,0,1,.71.71V17.484a.711.711,0,1,1-1.421,0V.71A.71.71,0,0,1,.71,0Z" transform="translate(13.503 0.862) rotate(-37.343)" fill="#37474f"/>
    </g>
    <ellipse id="Shape-137" data-name="Shape" cx="1.392" cy="3.144" rx="1.392" ry="3.144" transform="matrix(0.757, -0.653, 0.653, 0.757, 380.068, 1852.722)" fill="#ffdfae"/>
    <path id="Shape-138" data-name="Shape" d="M677.181,411.586c.5-2.743,1.352-4.484,7.018-3.164,3.534.823,6.412,2.786,5.911,5.529s-3.885,3.826-7.455,3.173S676.679,414.329,677.181,411.586Z" transform="translate(-374.235 1395.643)" fill="#ffdfae"/>
    <path id="Path_4978" data-name="Path 4978" d="M16.5,0S.435,11.33,5.484,18.241,0,32,0,32" transform="translate(391 1798.5)" fill="none" stroke="#fff" stroke-width="1"/>
    <line id="Line_2" data-name="Line 2" x1="26" y2="24" transform="translate(394.5 1809.5)" fill="none" stroke="#fff" stroke-width="1"/>
    <path id="Path_4979" data-name="Path 4979" d="M0,0S16.065,11.33,11.016,18.241,16.5,32,16.5,32" transform="translate(430.787 1822.232) rotate(94.012)" fill="none" stroke="#fff" stroke-width="1"/>
  </g>
</svg>
