<svg xmlns="http://www.w3.org/2000/svg" xmlns:xlink="http://www.w3.org/1999/xlink" width="1159" height="287" viewBox="0 0 1159 287">
  <defs>
    <radialGradient id="radial-gradient" cx="0.5" cy="0.5" r="0.5" gradientUnits="objectBoundingBox">
      <stop offset="0" stop-color="#df366d"/>
      <stop offset="1" stop-color="#9c2b50"/>
    </radialGradient>
  </defs>
  <g id="Group_4482" data-name="Group 4482" transform="translate(-41 -1720)">
    <g id="Rectangle_84" data-name="Rectangle 84" transform="translate(41 1720)" stroke="#707070" stroke-width="1" fill="url(#radial-gradient)">
      <rect width="1159" height="287" stroke="none"/>
      <rect x="0.5" y="0.5" width="1158" height="286" fill="none"/>
    </g>
    <text id="فروشگاه_همواره_تخفیف_" data-name="فروشگاه همواره تخفیف " transform="translate(683 1807)" fill="#fff" font-size="32" font-family="IRANSansMobile-Medium, IRANSansMobile" font-weight="500"><tspan x="-152.083" y="0">فروشگاه همواره تخفیف</tspan><tspan y="0"> </tspan></text>
    <text id="تم_شاپ" data-name="تم شاپ" transform="translate(692 1859)" fill="#fff" font-size="32" font-family="IRANYekan-Bold, IRANYekan" font-weight="700"><tspan x="-55.353" y="0">تم شاپ</tspan></text>
    <g id="Financial_freedom" data-name="Financial freedom" transform="translate(747.41 1591.996)">
      <path id="Background" d="M225.489,367.574Z" transform="translate(0 -14.028)" fill="#c13160"/>
      <g id="Wallet" transform="translate(133.562 209.942)">
        <path id="Shape" d="M12.191,0H258.1a12.191,12.191,0,0,1,12.191,12.191V88.669A12.191,12.191,0,0,1,258.1,100.86H12.191A12.191,12.191,0,0,1,0,88.669V12.191A12.191,12.191,0,0,1,12.191,0Z" transform="translate(0 30.609)" fill="#725e4f"/>
        <g id="Dollar" transform="translate(17.354 0)">
          <path id="Shape-2" data-name="Shape" d="M501.973,537.06c.283-1.8-12.283-65.8-12.283-65.8s-169.509,31.03-212.545,10.95c-1.622-.757-4.654,83.3-4.654,83.3S496.848,569.618,501.973,537.06Z" transform="translate(-272.49 -452.346)" fill="#80cbc4"/>
          <path id="Shape-3" data-name="Shape" d="M334.175,575.2c-19.647,0-32.844-.33-33.094-.336l-1.329-.034.074-1.328c.009-.169.957-17.125,2.076-33.976.657-9.9,1.245-17.831,1.746-23.57,1-11.442,1.358-11.661,2.072-12.1a1.344,1.344,0,0,1,1.248-.083c19.84,8.824,71.2,4.434,110.8-.8,43.041-5.693,81.835-13.6,82.222-13.682l1.241-.254.277,1.237c.033.146,3.313,14.807,6.42,29.472,1.826,8.619,3.235,15.554,4.19,20.614,1.894,10.039,1.613,10.452,1.224,11.023-4.6,6.754-18.286,11.951-41.851,15.887-18.352,3.065-42.527,5.282-71.852,6.588C375.745,574.918,352.235,575.2,334.175,575.2Zm-31.7-2.886c8.1.175,51.886.976,97.058-1.036,82.006-3.652,105.971-13.455,111.515-21.126.039-3.709-7.043-36.837-11.788-58.082-6.983,1.4-42.341,8.327-81.145,13.461-25.349,3.353-47.194,5.3-64.929,5.773-21.264.571-36.71-.981-45.955-4.618C306.063,513.576,303.829,548.268,302.478,572.311Zm208.729-22.384,0,0,0,0Z" transform="translate(-292.715 -465.534)" fill="#6da196"/>
          <g id="Shape-4" data-name="Shape" transform="translate(96.449 52.208)">
            <g id="Group_4138" data-name="Group 4138" transform="translate(0 2.469)">
              <path id="Path_2101" data-name="Path 2101" d="M651.975,638.751a45.93,45.93,0,0,0,13.743.98c7.525-.622,11.332-3.2,10.477-6.4-.791-2.964-4.287-4.407-12.421-5.418-9.791-1.066-16.256-3.273-17.45-7.743-1.319-4.941,5.058-9.22,16.135-10.135a46.184,46.184,0,0,1,13.013.511l-1.138,3.509a40.244,40.244,0,0,0-11.225-.611c-7.779.643-10.047,3.476-9.47,5.64.791,2.964,4.647,4.137,12.963,5.181,10.192,1.273,15.787,3.456,17.03,8.115,1.306,4.894-4.074,9.667-17.518,10.779-5.5.454-11.738.057-15.083-.821Z" transform="translate(-646.153 -609.824)" fill="#6da196"/>
            </g>
            <path id="Path_2102" data-name="Path 2102" d="M693.041,605.314l-6.133.507-1.35-5.057,6.133-.507Z" transform="translate(-675.387 -600.258)" fill="#6da196"/>
            <path id="Path_2103" data-name="Path 2103" d="M726.712,731.466l-6.133.507-1.35-5.057,6.133-.507Z" transform="translate(-700.367 -693.847)" fill="#6da196"/>
          </g>
          <path id="Shape-5" data-name="Shape" d="M1050.379,500.011c-1.583,2-5.777,2.905-9.368,2.023s-5.219-3.218-3.636-5.218a29.565,29.565,0,0,1,7.458.88A15.718,15.718,0,0,1,1050.379,500.011Z" transform="translate(-839.497 -471.281)" fill="#6da196"/>
          <path id="Shape-6" data-name="Shape" d="M1079.793,721.492c-4.65-.742-7.373-3.378-6.083-5.89s6.105-3.946,10.755-3.205c.3.048.609,2.736-.6,5.071A10.253,10.253,0,0,1,1079.793,721.492Z" transform="translate(-866.664 -631.099)" fill="#6da196"/>
          <path id="Shape-7" data-name="Shape" d="M324.762,556.161c2.124,1.838,1.17,4.286-2.13,5.469s-7.7.65-9.82-1.188c-.138-.119,1.4-2.84,4.473-3.937A17.068,17.068,0,0,1,324.762,556.161Z" transform="translate(-302.398 -515.14)" fill="#6da196"/>
          <path id="Shape-8" data-name="Shape" d="M300.789,792.65a11.462,11.462,0,0,1,10.045-.139c2.844,1.506,2.957,4.011.252,5.594-.176.1-5.287-.086-7.928-1.491A4.051,4.051,0,0,1,300.789,792.65Z" transform="translate(-293.442 -689.871)" fill="#6da196"/>
          <ellipse id="Shape-9" data-name="Shape" cx="20.521" cy="11.42" rx="20.521" ry="11.42" transform="translate(30.766 62.998)" fill="#6da196"/>
          <ellipse id="Shape-10" data-name="Shape" cx="20.521" cy="11.42" rx="20.521" ry="11.42" transform="translate(158.223 52.693)" fill="#6da196"/>
          <path id="Shape-11" data-name="Shape" d="M524.965,481.493c.513-1.745-4.408-71.918-4.408-71.918S349.2,423.482,309.127,398c-1.51-.96-15.4,81.994-15.4,81.994S515.669,513.113,524.965,481.493Z" transform="translate(-288.248 -397.993)" fill="#b2dfdb"/>
          <path id="Shape-12" data-name="Shape" d="M481.606,518.919c-16.563,0-36.585-1-59.733-2.975-49.755-4.254-97.383-11.683-97.858-11.758l-1.314-.206.245-1.307c.031-.167,3.165-16.858,6.456-33.422,1.934-9.733,3.542-17.52,4.782-23.145,2.471-11.217,2.856-11.387,3.621-11.728a1.346,1.346,0,0,1,1.249.079c18.533,11.319,70.038,13.605,109.983,13.544,43.415-.075,82.894-2.9,83.287-2.925l1.264-.092.114,1.262c.014.149,1.369,15.111,2.552,30.055.695,8.782,1.2,15.842,1.487,20.983.579,10.2.247,10.573-.213,11.089h0c-5.432,6.1-19.679,9.484-43.555,10.337Q488.157,518.919,481.606,518.919ZM325.73,501.838c8.012,1.223,51.323,7.683,96.375,11.535,81.789,6.992,106.821.374,113.312-6.515.517-3.677-2.217-37.44-4.172-59.12-7.105.481-43.062,2.777-82.2,2.845-25.564.041-47.483-.857-65.13-2.68-21.158-2.185-36.274-5.724-44.971-10.527C336.887,444.061,330.182,478.173,325.73,501.838Zm209.657,5.187h0Zm.214-.368,0,0,0,0Z" transform="translate(-309.741 -424.9)" fill="#6da196"/>
          <g id="Shape-13" data-name="Shape" transform="translate(107.475 35.867)">
            <g id="Group_4140" data-name="Group 4140" transform="translate(0 2.899)">
              <path id="Path_2110" data-name="Path 2110" d="M692.115,575.349a45.942,45.942,0,0,0,13.5,2.751c7.542.357,11.65-1.7,11.217-4.987-.4-3.042-3.681-4.925-11.615-6.98-9.57-2.325-15.7-5.35-16.3-9.937-.668-5.07,6.208-8.487,17.311-7.962a46.188,46.188,0,0,1,12.837,2.191l-1.582,3.332a40.242,40.242,0,0,0-11.051-2.059c-7.8-.369-10.413,2.146-10.12,4.367.4,3.042,4.073,4.7,12.183,6.815,9.941,2.582,15.206,5.47,15.836,10.251.662,5.022-5.291,9.059-18.766,8.421-5.509-.261-11.646-1.463-14.85-2.767Z" transform="translate(-688.872 -548.181)" fill="#6da196"/>
            </g>
            <path id="Path_2111" data-name="Path 2111" d="M740.464,542.431l-6.147-.291-.684-5.189,6.147.291Z" transform="translate(-722.079 -536.951)" fill="#6da196"/>
            <path id="Path_2112" data-name="Path 2112" d="M757.524,671.879l-6.147-.291-.684-5.189,6.147.291Z" transform="translate(-734.736 -632.987)" fill="#6da196"/>
          </g>
          <path id="Shape-14" data-name="Shape" d="M1106.215,483.239c-1.828,1.778-4.366,2.01-7.812.671s-4.758-3.866-2.93-5.644a29.543,29.543,0,0,1,7.282,1.838C1105.781,481.284,1106.328,483.13,1106.215,483.239Z" transform="translate(-882.435 -457.537)" fill="#6da196"/>
          <path id="Shape-15" data-name="Shape" d="M1107.317,709.058c-4.514-1.337-6.874-4.3-5.269-6.627s6.565-3.123,11.079-1.786c.293.087.25,2.792-1.251,4.95A10.249,10.249,0,0,1,1107.317,709.058Z" transform="translate(-887.552 -622.045)" fill="#6da196"/>
          <path id="Shape-16" data-name="Shape" d="M382.686,447.407c1.868,2.1.606,4.4-2.819,5.147s-6.83-.236-8.7-2.334c-.121-.136.869-2.75,4.059-3.44A17.071,17.071,0,0,1,382.686,447.407Z" transform="translate(-345.691 -434.04)" fill="#6da196"/>
          <path id="Shape-17" data-name="Shape" d="M326.823,677.606a11.463,11.463,0,0,1,9.979,1.162c2.625,1.862,2.413,4.36-.474,5.58-.187.079-5.232-.77-7.668-2.5A4.051,4.051,0,0,1,326.823,677.606Z" transform="translate(-312.712 -604.944)" fill="#6da196"/>
          <ellipse id="Shape-18" data-name="Shape" cx="11.42" cy="20.521" rx="11.42" ry="20.521" transform="translate(39.526 58.894) rotate(-82.563)" fill="#6da196"/>
          <ellipse id="Shape-19" data-name="Shape" cx="11.42" cy="20.521" rx="11.42" ry="20.521" transform="translate(167.244 65.173) rotate(-82.563)" fill="#6da196"/>
        </g>
        <path id="Shape-20" data-name="Shape" d="M477.414,657.48H243.945a10.447,10.447,0,0,1-10.423-10.41V577.563H487.837v69.506A10.447,10.447,0,0,1,477.414,657.48Z" transform="translate(-226.226 -531.213)" fill="#8b7561"/>
        <path id="Shape-21" data-name="Shape" d="M7.315,0h94.24a7.315,7.315,0,0,1,7.315,7.315V45.035a7.315,7.315,0,0,1-7.315,7.315H7.315A7.315,7.315,0,0,1,0,45.035V7.315A7.315,7.315,0,0,1,7.315,0Z" transform="translate(13.337 39.49)" fill="#adadea"/>
        <path id="Shape-22" data-name="Shape" d="M355.3,660.91H246.534a12.606,12.606,0,0,1-12.569-12.569V612.613c0-6.913.057-12.569.057-12.569H355.3Z" transform="translate(-226.555 -547.891)" fill="#a08c7a"/>
        <path id="Shape-23" data-name="Shape" d="M7.315,0h94.24a7.315,7.315,0,0,1,7.315,7.315V45.035a7.315,7.315,0,0,1-7.315,7.315H7.315A7.315,7.315,0,0,1,0,45.035V7.315A7.315,7.315,0,0,1,7.315,0Z" transform="translate(13.337 51.044)" fill="#8765db"/>
        <path id="Shape-24" data-name="Shape" d="M355.3,705.673H246.534A12.606,12.606,0,0,1,233.965,693.1V657.376c0-6.913.057-12.569.057-12.569H355.3Z" transform="translate(-226.555 -581.1)" fill="#8b7561"/>
        <circle id="Shape-25" data-name="Shape" cx="19.912" cy="19.912" r="19.912" transform="translate(47.739 57.094)" fill="#e5e8f5"/>
        <path id="Shape-26" data-name="Shape" d="M7.315,0h94.24a7.315,7.315,0,0,1,7.315,7.315V45.035a7.315,7.315,0,0,1-7.315,7.315H7.315A7.315,7.315,0,0,1,0,45.035V7.315A7.315,7.315,0,0,1,7.315,0Z" transform="translate(13.337 62.15)" fill="#56557e"/>
        <path id="Shape-27" data-name="Shape" d="M353.18,739.266H243.731a10.885,10.885,0,0,1-10.8-10.9V700.4c0-6.913.056-12.569.056-12.569h120.2Z" transform="translate(-225.785 -613.02)" fill="#a08c7a"/>
        <path id="Shape-28" data-name="Shape" d="M0,0A2.3,2.3,0,0,1,2.3,2.3V77.581a2.3,2.3,0,0,1-2.3,2.3Z" transform="translate(127.396 46.359)" fill="#725e4f"/>
        <path id="Shape-29" data-name="Shape" d="M0,0A2.3,2.3,0,0,1,2.3,2.3V77.58a2.3,2.3,0,0,1-2.3,2.3Z" transform="translate(149.868 126.237) rotate(-180)" fill="#725e4f"/>
        <g id="Shape-30" data-name="Shape" transform="translate(159.128 58.101)">
          <path id="Path_4951" data-name="Path 4951" d="M4.876,0H86.327A4.876,4.876,0,0,1,91.2,4.876V50.584a4.876,4.876,0,0,1-4.876,4.876H4.876A4.876,4.876,0,0,1,0,50.584V4.876A4.876,4.876,0,0,1,4.876,0Z" transform="translate(0.387 0.387)" fill="#c1b5a9"/>
          <path id="Path_2123" data-name="Path 2123" d="M908.265,679.324H827.219a5.472,5.472,0,0,1-5.466-5.466v-45.3a5.472,5.472,0,0,1,5.466-5.466h81.046a5.472,5.472,0,0,1,5.466,5.466v45.3A5.472,5.472,0,0,1,908.265,679.324Zm-81.046-55.461a4.7,4.7,0,0,0-4.692,4.692v45.3a4.7,4.7,0,0,0,4.692,4.692h81.046a4.7,4.7,0,0,0,4.692-4.692v-45.3a4.7,4.7,0,0,0-4.692-4.692Z" transform="translate(-821.753 -623.089)" fill="#c1b5a9"/>
        </g>
      </g>
      <g id="Dollars" transform="translate(153.752 144.515)">
        <g id="Dollar-2" data-name="Dollar" transform="translate(47.584 33.135)">
          <path id="Shape-31" data-name="Shape" d="M487.137,296.629c.265-.2,8.176-8.88,8.176-8.88s-15.634-9.158-15.779-14.859c-.005-.215-11.707,9.7-11.707,9.7S482.339,300.169,487.137,296.629Z" transform="translate(-467.827 -272.887)" fill="#b2dfdb"/>
          <path id="Shape-32" data-name="Shape" d="M488.056,300.9c-5.6,0-16.093-12.98-16.566-13.569l-.159-.2.2-.162c.024-.02,2.426-2.01,4.815-3.967,4.957-4.059,4.993-4.042,5.2-3.952l.146.064.01.162c.237,4.854,14.71,12.722,14.856,12.8l.286.154-.215.244c-4.756,5.382-7.285,8.155-7.516,8.242h0A2.951,2.951,0,0,1,488.056,300.9Zm-16-13.695c1.45,1.766,12.278,14.7,16.843,13.041.426-.344,4.4-4.784,7.123-7.869-2.059-1.137-13.88-7.854-14.79-12.644C479.979,280.677,475.322,284.5,472.053,287.208Z" transform="translate(-470.427 -277.446)" fill="#6da196"/>
          <g id="Shape-33" data-name="Shape" transform="translate(10.235 10.924)">
            <g id="Group_4475" data-name="Group 4475">
              <path id="Path_2216" data-name="Path 2216" d="M508.1,317.618a2.674,2.674,0,0,0,.5,1.314c.461.619,1.059.737,1.532.385.439-.327.5-.764.274-1.579-.3-.968-.255-1.737.406-2.23a1.685,1.685,0,0,1,2.4.568,2.655,2.655,0,0,1,.543,1.208l-.618.2a2.334,2.334,0,0,0-.441-1.057c-.477-.64-1.041-.6-1.362-.36-.438.327-.441.773-.21,1.607.285,1.022.2,1.711-.486,2.224a1.765,1.765,0,0,1-2.574-.636,3.024,3.024,0,0,1-.593-1.42Z" transform="translate(-507.479 -315.209)" fill="#6da196"/>
            </g>
            <path id="Path_4954" data-name="Path 4954" d="M0,0H.63V.933H0Z" transform="matrix(0.598, 0.802, -0.802, 0.598, 5.796, 0.131)" fill="#6da196"/>
            <path id="Path_4955" data-name="Path 4955" d="M0,0H.63V.933H0Z" transform="matrix(0.598, 0.802, -0.802, 0.598, 0.98, 3.72)" fill="#6da196"/>
          </g>
          <path id="Shape-34" data-name="Shape" d="M564.763,329.242a.722.722,0,1,1-.437-1.376,1.746,1.746,0,0,1,.381.674A1.433,1.433,0,0,1,564.763,329.242Z" transform="translate(-539.045 -313.675)" fill="#6da196"/>
          <path id="Shape-35" data-name="Shape" d="M535.116,359.091a.863.863,0,1,1,1.558-.742,2.035,2.035,0,0,1-.734.567A1.673,1.673,0,0,1,535.116,359.091Z" transform="translate(-517.682 -335.908)" fill="#6da196"/>
          <path id="Shape-36" data-name="Shape" d="M507.809,281.748a.721.721,0,1,1-1.388-.393,1.265,1.265,0,0,1,.839-.135A.994.994,0,0,1,507.809,281.748Z" transform="translate(-496.438 -279.049)" fill="#6da196"/>
          <path id="Shape-37" data-name="Shape" d="M474.137,307.8a.722.722,0,0,1-.054,1.443,1.264,1.264,0,0,1-.329-.783A1,1,0,0,1,474.137,307.8Z" transform="translate(-472.223 -298.789)" fill="#6da196"/>
          <circle id="Shape-38" data-name="Shape" cx="2.084" cy="2.084" r="2.084" transform="translate(6.662 6.849)" fill="#6da196"/>
          <circle id="Shape-39" data-name="Shape" cx="2.084" cy="2.084" r="2.084" transform="translate(16.635 15.308)" fill="#6da196"/>
        </g>
        <g id="Dollar-3" data-name="Dollar">
          <path id="Shape-40" data-name="Shape" d="M306.831,156.533c.032-.328-1.122-12.018-1.122-12.018s-17.27,5.482-21.6,1.773c-.163-.14-.631,15.192-.631,15.192S306.249,162.468,306.831,156.533Z" transform="translate(-283.477 -144.515)" fill="#b2dfdb"/>
          <path id="Shape-41" data-name="Shape" d="M290.5,163.082c-2.451,0-4.229-.1-4.464-.109l-.254-.014.011-.254c0-.031.131-3.148.277-6.233.3-6.4.34-6.414.543-6.506l.145-.065.127.1c1.539,1.257,5.377,1.235,11.1-.061a83.214,83.214,0,0,0,8.357-2.4l.306-.109.037.323c.814,7.136,1.181,10.871,1.091,11.1C306.337,162.519,296.439,163.082,290.5,163.082Zm-4.181-.612a90.925,90.925,0,0,0,9.717-.092c6.565-.457,10.452-1.732,11.246-3.689.029-.547-.611-6.468-1.076-10.56-2.223.768-15.127,5.052-19.294,2.521C286.77,152.21,286.492,158.229,286.315,162.47Z" transform="translate(-285.184 -146.675)" fill="#6da196"/>
          <g id="Shape-42" data-name="Shape" transform="translate(9.714 5.961)">
            <g id="Group_4478" data-name="Group 4478" transform="translate(0 0.522)">
              <path id="Path_2223" data-name="Path 2223" d="M321.362,174.477a2.674,2.674,0,0,0,1.313.506c.769.072,1.256-.292,1.311-.88.051-.544-.231-.885-.989-1.26-.919-.426-1.461-.973-1.384-1.794a1.684,1.684,0,0,1,2.032-1.406,2.656,2.656,0,0,1,1.261.405l-.265.594a2.334,2.334,0,0,0-1.08-.38c-.8-.074-1.142.373-1.179.77-.051.544.279.845,1.053,1.231.95.472,1.406.994,1.327,1.85-.084.9-.822,1.615-2.2,1.486a3.023,3.023,0,0,1-1.452-.51Z" transform="translate(-321.113 -169.63)" fill="#6da196"/>
            </g>
            <path id="Path_4952" data-name="Path 4952" d="M0,0H.63V.933H0Z" transform="translate(2.021 0) rotate(5.332)" fill="#6da196"/>
            <path id="Path_4953" data-name="Path 4953" d="M0,0H.63V.933H0Z" transform="translate(1.462 5.98) rotate(5.332)" fill="#6da196"/>
          </g>
          <path id="Shape-43" data-name="Shape" d="M363.088,149.7a.722.722,0,1,1-1.314-.6,1.742,1.742,0,0,1,.756.168A1.431,1.431,0,0,1,363.088,149.7Z" transform="translate(-341.516 -147.912)" fill="#6da196"/>
          <path id="Shape-44" data-name="Shape" d="M365.638,190.158a.863.863,0,1,1,.492-1.654,2.043,2.043,0,0,1-.07.925A1.674,1.674,0,0,1,365.638,190.158Z" transform="translate(-343.955 -177.121)" fill="#6da196"/>
          <path id="Shape-45" data-name="Shape" d="M289.291,159.2a.722.722,0,1,1-1.222.768,1.266,1.266,0,0,1,.462-.713A.993.993,0,0,1,289.291,159.2Z" transform="translate(-286.884 -155.37)" fill="#6da196"/>
          <path id="Shape-46" data-name="Shape" d="M286.425,202.307a.722.722,0,0,1,1.035,1.006,1.263,1.263,0,0,1-.8-.28A1,1,0,0,1,286.425,202.307Z" transform="translate(-285.659 -187.228)" fill="#6da196"/>
          <circle id="Shape-47" data-name="Shape" cx="2.084" cy="2.084" r="2.084" transform="translate(3.197 7.868)" fill="#6da196"/>
          <circle id="Shape-48" data-name="Shape" cx="2.084" cy="2.084" r="2.084" transform="translate(16.158 6.123)" fill="#6da196"/>
        </g>
        <g id="Dollar-4" data-name="Dollar" transform="translate(243.361 5.681)">
          <path id="Shape-49" data-name="Shape" d="M1226.378,179c.079.319,5.08,10.95,5.08,10.95s14.439-10.946,19.762-8.9c.2.077-4.49-14.527-4.49-14.527S1224.94,173.214,1226.378,179Z" transform="translate(-1226.31 -166.523)" fill="#b2dfdb"/>
          <path id="Shape-50" data-name="Shape" d="M1234.059,191.4l-.143-.292c-3.156-6.452-4.751-9.848-4.744-10.1h0c.173-5.559,18.332-10.934,19.1-11.16l.244-.072.075.243c.009.03.931,3.01,1.825,5.966,1.856,6.131,1.827,6.158,1.666,6.312l-.115.11-.154-.053c-1.872-.669-5.48.635-10.437,3.772a83.186,83.186,0,0,0-7.07,5.062ZM1229.69,181c.155.525,2.741,5.89,4.548,9.59,1.838-1.468,12.565-9.822,17.337-8.834-.391-1.515-2.144-7.281-3.4-11.336a90.953,90.953,0,0,0-9.126,3.34C1233.02,176.391,1229.783,178.893,1229.69,181Z" transform="translate(-1228.434 -168.942)" fill="#6da196"/>
          <g id="Shape-51" data-name="Shape" transform="translate(9.782 7.571)">
            <g id="Group_4481" data-name="Group 4481" transform="translate(0 0.317)">
              <path id="Path_2230" data-name="Path 2230" d="M1267.342,197.841a2.675,2.675,0,0,0-1.406-.037c-.749.19-1.086.7-.941,1.268.134.53.514.756,1.354.857,1.009.094,1.7.428,1.905,1.227a1.685,1.685,0,0,1-1.444,2,2.659,2.659,0,0,1-1.324.04l.051-.649a2.328,2.328,0,0,0,1.145,0c.774-.2.951-.734.853-1.121-.134-.53-.545-.7-1.4-.808-1.053-.127-1.658-.466-1.87-1.3-.222-.875.234-1.8,1.572-2.136a3.023,3.023,0,0,1,1.539,0Z" transform="translate(-1264.208 -197.083)" fill="#6da196"/>
            </g>
            <path id="Path_4963" data-name="Path 4963" d="M0,0H.63V.933H0Z" transform="translate(3.263 6.726) rotate(165.777)" fill="#6da196"/>
            <path id="Path_4962" data-name="Path 4962" d="M0,0H.63V.933H0Z" transform="translate(1.787 0.904) rotate(165.777)" fill="#6da196"/>
          </g>
          <path id="Shape-52" data-name="Shape" d="M1246.35,248.016a.722.722,0,1,1,1.438.122,1.748,1.748,0,0,1-.768.094A1.432,1.432,0,0,1,1246.35,248.016Z" transform="translate(-1241.177 -226.491)" fill="#6da196"/>
          <path id="Shape-53" data-name="Shape" d="M1230.909,208.976a.863.863,0,1,1,.09,1.723,2.044,2.044,0,0,1-.243-.895A1.671,1.671,0,0,1,1230.909,208.976Z" transform="translate(-1229.607 -198.018)" fill="#6da196"/>
          <path id="Shape-54" data-name="Shape" d="M1312.876,213.9a.722.722,0,1,1,.894-1.133,1.264,1.264,0,0,1-.2.827A.994.994,0,0,1,1312.876,213.9Z" transform="translate(-1290.328 -200.717)" fill="#6da196"/>
          <path id="Shape-55" data-name="Shape" d="M1301.109,172.447a.722.722,0,0,1-1.312-.6,1.264,1.264,0,0,1,.85,0A1,1,0,0,1,1301.109,172.447Z" transform="translate(-1280.78 -170.414)" fill="#6da196"/>
          <circle id="Shape-56" data-name="Shape" cx="2.084" cy="2.084" r="2.084" transform="translate(15.707 6.293)" fill="#6da196"/>
          <circle id="Shape-57" data-name="Shape" cx="2.084" cy="2.084" r="2.084" transform="translate(4.078 12.275)" fill="#6da196"/>
        </g>
      </g>
      <g id="Person" transform="translate(346.688 167.896)">
        <path id="Shape-58" data-name="Shape" d="M1174.48,280.746c1.284-3.718-2.177-8.286-7.73-10.2s-11.094-.457-12.378,3.261S1173.2,284.464,1174.48,280.746Z" transform="translate(-1122.472 -260.768)" fill="#e2555b"/>
        <path id="Shape-59" data-name="Shape" d="M1153.764,654.506h7.41s3.314-45.99,3.346-46.13c1.947-8.575,8.4-23.415,8.4-23.415l9.285,34.171,32.028-11.712s-2.058-7.234-2.39-7.17c-19.839,3.824-22.229,2.868-22.229,2.868s.515-29.451-2.685-37.681c-.242-.621-33.333,5.542-33.333,5.542l-2.941,38.593Z" transform="translate(-1119.759 -480.138)" fill="#9499ea"/>
        <g id="Dollar-5" data-name="Dollar" transform="translate(62.918 84.314)">
          <path id="Path_2142" data-name="Path 2142" d="M1287.775,567.694c-.032-.171-2.339-5.945-2.339-5.945s-7.974,5.328-10.722,4.08c-.1-.047,1.915,7.817,1.915,7.817S1288.352,570.8,1287.775,567.694Z" transform="translate(-1274.71 -561.749)" fill="#94d3cc"/>
          <path id="Path_2143" data-name="Path 2143" d="M1278.116,574.242l-.06-.247c-1.607-6.559-1.582-6.58-1.418-6.719l.122-.1.148.063c1.911.814,7.441-2.686,9.41-4.1l.264-.19.125.3c2.217,5.315,2.2,5.462,2.2,5.541h0c-.118,1.3-1.947,2.6-5.436,3.881a48.328,48.328,0,0,1-5.1,1.521Zm-.99-6.412c.212,1,.89,3.828,1.371,5.794,2.9-.69,9.624-2.73,9.889-4.852-.108-.373-1.245-3.144-2.031-5.034C1285.078,564.629,1279.673,568.261,1277.126,567.83Zm11.264.907Z" transform="translate(-1276.086 -562.634)" fill="#6da196"/>
          <g id="Group_4458" data-name="Group 4458" transform="translate(5.763 4.513)">
            <g id="Group_4457" data-name="Group 4457" transform="translate(0 0.226)">
              <path id="Path_2144" data-name="Path 2144" d="M1297.428,582.934a1.419,1.419,0,0,0,.742.064c.4-.077.6-.333.537-.64-.054-.284-.248-.416-.688-.5-.53-.081-.886-.28-.968-.709a.892.892,0,0,1,.826-1.014,1.409,1.409,0,0,1,.7.021l-.047.341a1.233,1.233,0,0,0-.605-.034c-.415.079-.526.357-.486.565.054.284.266.389.717.471.552.1.861.3.947.745.09.47-.18.942-.9,1.079a1.6,1.6,0,0,1-.813-.046Z" transform="translate(-1297.036 -580.107)" fill="#6da196"/>
            </g>
            <rect id="Rectangle_5984" data-name="Rectangle 5984" width="0.333" height="0.494" transform="matrix(0.982, -0.188, 0.188, 0.982, 0.503, 0.062)" fill="#6da196"/>
            <rect id="Rectangle_5985" data-name="Rectangle 5985" width="0.333" height="0.494" transform="matrix(0.982, -0.188, 0.188, 0.982, 1.099, 3.185)" fill="#6da196"/>
          </g>
          <path id="Path_2145" data-name="Path 2145" d="M1313.8,565.223a.382.382,0,1,1-.756-.11.924.924,0,0,1,.409-.026A.757.757,0,0,1,1313.8,565.223Z" transform="translate(-1303.144 -564.218)" fill="#6da196"/>
          <path id="Path_2146" data-name="Path 2146" d="M1321.27,585.116a.457.457,0,1,1,.006-.913,1.075,1.075,0,0,1,.1.48A.885.885,0,0,1,1321.27,585.116Z" transform="translate(-1308.906 -578.407)" fill="#6da196"/>
          <path id="Path_2147" data-name="Path 2147" d="M1277.927,580.584a.382.382,0,1,1-.508.57.67.67,0,0,1,.13-.431A.527.527,0,0,1,1277.927,580.584Z" transform="translate(-1276.718 -575.72)" fill="#6da196"/>
          <path id="Path_2148" data-name="Path 2148" d="M1282.575,603.107a.382.382,0,0,1,.674.359.668.668,0,0,1-.449-.025A.528.528,0,0,1,1282.575,603.107Z" transform="translate(-1280.544 -592.282)" fill="#6da196"/>
          <circle id="Ellipse_331" data-name="Ellipse 331" cx="1.103" cy="1.103" r="1.103" transform="translate(2.469 6.451)" fill="#6da196"/>
          <circle id="Ellipse_332" data-name="Ellipse 332" cx="1.103" cy="1.103" r="1.103" transform="translate(8.801 3.657)" fill="#6da196"/>
        </g>
        <g id="Dollar-6" data-name="Dollar" transform="translate(64.34 84.678)">
          <path id="Path_2149" data-name="Path 2149" d="M1293.062,569.29c-.017-.173-1.794-6.132-1.794-6.132s-8.421,4.589-11.046,3.1c-.1-.056,1.2,7.957,1.2,7.957S1293.358,572.432,1293.062,569.29Z" transform="translate(-1280.217 -563.158)" fill="#b2dfdb"/>
          <path id="Path_2150" data-name="Path 2150" d="M1282.732,574.758l-.038-.251c-1.01-6.677-.983-6.7-.807-6.819l.13-.092.142.075c1.833.984,7.653-2,9.741-3.239l.28-.165.1.31c1.73,5.493,1.7,5.638,1.689,5.716h0c-.234,1.281-2.174,2.417-5.764,3.375a48.334,48.334,0,0,1-5.22,1.055Zm-.409-6.475c.12,1.018.542,3.893.843,5.894,2.946-.426,9.831-1.852,10.286-3.942-.074-.381-.957-3.243-1.57-5.2C1290.53,565.811,1284.826,568.941,1282.323,568.283Z" transform="translate(-1281.386 -563.98)" fill="#6da196"/>
          <g id="Group_4461" data-name="Group 4461" transform="translate(5.598 4.122)">
            <g id="Group_4460" data-name="Group 4460" transform="translate(0 0.249)">
              <path id="Path_2151" data-name="Path 2151" d="M1302.125,582.846a1.416,1.416,0,0,0,.733.131c.407-.04.623-.279.593-.589-.028-.288-.209-.436-.641-.555-.52-.129-.857-.359-.9-.793-.047-.48.315-.876.914-.935a1.4,1.4,0,0,1,.7.084l-.078.335a1.233,1.233,0,0,0-.6-.088c-.421.042-.556.309-.535.519.028.288.23.411.671.534.541.15.831.375.876.828.047.475-.265.922-.991.993a1.6,1.6,0,0,1-.806-.119Z" transform="translate(-1301.905 -580.094)" fill="#6da196"/>
            </g>
            <path id="Path_4964" data-name="Path 4964" d="M0,0H.333V.494H0Z" transform="translate(0.599 0.033) rotate(-5.643)" fill="#6da196"/>
            <path id="Path_4965" data-name="Path 4965" d="M0,0H.333V.494H0Z" transform="translate(0.912 3.196) rotate(-5.643)" fill="#6da196"/>
          </g>
          <path id="Path_2152" data-name="Path 2152" d="M1320.233,566.451a.382.382,0,1,1-.743-.178.922.922,0,0,1,.41.011A.758.758,0,0,1,1320.233,566.451Z" transform="translate(-1309.345 -565.456)" fill="#6da196"/>
          <path id="Path_2153" data-name="Path 2153" d="M1325.79,587a.457.457,0,1,1,.089-.909,1.081,1.081,0,0,1,.057.487A.884.884,0,0,1,1325.79,587Z" transform="translate(-1313.711 -580.168)" fill="#6da196"/>
          <path id="Path_2154" data-name="Path 2154" d="M1283.011,578.587a.382.382,0,1,1-.557.522.67.67,0,0,1,.168-.417A.525.525,0,0,1,1283.011,578.587Z" transform="translate(-1281.875 -574.601)" fill="#6da196"/>
          <path id="Path_2155" data-name="Path 2155" d="M1285.7,601.4a.382.382,0,0,1,.639.418.671.671,0,0,1-.445-.065A.526.526,0,0,1,1285.7,601.4Z" transform="translate(-1284.286 -591.399)" fill="#6da196"/>
          <circle id="Ellipse_333" data-name="Ellipse 333" cx="1.103" cy="1.103" r="1.103" transform="translate(2.143 5.776)" fill="#6da196"/>
          <circle id="Ellipse_334" data-name="Ellipse 334" cx="1.103" cy="1.103" r="1.103" transform="translate(8.701 3.563)" fill="#6da196"/>
        </g>
        <g id="Shape-60" data-name="Shape" transform="translate(59.86 85.883)">
          <path id="Path_2156" data-name="Path 2156" d="M1271.8,576.008c.3,1.14.563,6.545.563,6.545a57.229,57.229,0,0,1-5.837-5.239c-2.129-2.648-3.663-7.969-3.663-7.969l7.129-1.517S1271.134,573.462,1271.8,576.008Z" transform="translate(-1262.863 -567.828)" fill="#7a7fd1"/>
        </g>
        <ellipse id="Shape-61" data-name="Shape" cx="7.649" cy="16.731" rx="7.649" ry="16.731" transform="translate(20.456 20.506) rotate(-68.141)" fill="#ff6369"/>
        <path id="Shape-62" data-name="Shape" d="M1152.8,302.022c.956.956-.6,10.715-2.882,12.25-4.359,2.931-4.444-2.678-7.874-4.362-8.016-3.936-12.221.648-15.058-5.5-2.525-5.468,1.028-12.6,6.932-6.693C1134.161,297.959,1145.4,294.615,1152.8,302.022Z" transform="translate(-1101.59 -279.908)" fill="#694a52"/>
        <path id="Shape-63" data-name="Shape" d="M1183.331,385.255l-9.656,1.605-1.708-12.719,9.7-1.612Z" transform="translate(-1135.568 -337.056)" fill="#f6b89f"/>
        <path id="Shape-64" data-name="Shape" d="M.275,3.016A6.41,6.41,0,0,0,1.663,9.152c3.969,2.771,10-3.179,10.035-5.58C11.66,2.373,8.8,2.2,9.032,1.024c.441-2.6-5.033.495-6.763,1.112S1.1.614.275,3.016Z" transform="translate(34.655 39.225) rotate(-47)" fill="#efa88f"/>
        <path id="Shape-65" data-name="Shape" d="M1066.758,348.871l-8.925-3.692-9.8-15.153-3.725-.295s4.567,15.758,7.158,20.386c1.381,2.468,7.417,5.984,12.5,8.016C1064.85,354.932,1065.744,351.962,1066.758,348.871Z" transform="translate(-1040.859 -305.305)" fill="#f6b89f"/>
        <path id="Shape-66" data-name="Shape" d="M1279.726,267.786l-2.934-1.038-10.518,23.778c-.7.275-3.391,3.473-4.789,4.306,1.343,4.206,2.728,6.152,5.1,9.943,2.752-3.22,5.891-7.3,6.972-10.989C1275.071,288.621,1279.726,267.786,1279.726,267.786Z" transform="translate(-1201.98 -258.579)" fill="#f6b89f"/>
        <path id="Shape-67" data-name="Shape" d="M1091.8,314.718s-1.739,5.407-4.681,5.867a4.2,4.2,0,0,1-4.85-3.082l-13.271-1.937-7.083-2.764-8.844-13.146-3.346,2.629c.248.195,2.868,10.517,5.736,16.492,2.276,4.741,19.053,12.972,19.053,12.972l3.731,34.292,35.185-6.1-8.646-34.773c-.081-.488,2.143-2.737,4.7-5.73-.291-.465,3.863-2.454,7.164-10.458,2.921-7.083,4.78-20.556,4.78-20.556s-2.868-1.434-4.3-1.912c-.287-.1-8.126,18.165-8.126,18.165s-4.575,4.924-4.612,4.808A63.371,63.371,0,0,1,1091.8,314.718Z" transform="translate(-1044.877 -273.239)" fill="#37474f"/>
        <path id="Shape-68" data-name="Shape" d="M1185.19,396.07s-1.7,4.525-4.5,5.312c-3.683,1.036-5-2.585-5-2.585l5.577,46.9,12.939-2.244S1185.466,396.024,1185.19,396.07Z" transform="translate(-1138.33 -354.52)" fill="#fff"/>
        <path id="Shape-69" data-name="Shape" d="M1321.461,261.273c-.712-1.978-.749-4.268-3.994-2.876-2.024.868-1.982,3.354-1.982,5.745,0,2.1,1.036,2.18,3.107,1.434S1322.173,263.251,1321.461,261.273Z" transform="translate(-1242.042 -252.066)" fill="#f6b89f"/>
        <path id="Shape-70" data-name="Shape" d="M1165.4,312.72c.193,2.166-1.785,3.21-1.853,5.177-.181,5.269-3.776,11.141-7.936,11.833-3.526.586-9.78-5.246-11.034-12.791a35.274,35.274,0,0,1-.532-5.456c-.014-3.2,9.385,2.749,14.851-5.4,1.278-1.906,1.552,6.582,3.56,6.248C1162.548,312.313,1165.038,308.613,1165.4,312.72Z" transform="translate(-1114.857 -287.551)" fill="#f6b89f"/>
        <path id="Shape-71" data-name="Shape" d="M1130.547,907.771h-7.494a41.513,41.513,0,0,1-6.9,4.7c-2.667,1.38-5.744.247-6.9,3.019a4.567,4.567,0,0,0,0,1.356h21.992v-1.356Z" transform="translate(-1088.993 -734.143)" fill="#8f97b9"/>
        <path id="Shape-72" data-name="Shape" d="M1130.945,907.771h-8.08a34.131,34.131,0,0,1-6.518,4.54c-2.667,1.38-6.994.36-6.936,3.184.007.339,21.992,0,21.992,0Z" transform="translate(-1089.159 -734.143)" fill="#fff"/>
        <path id="Shape-73" data-name="Shape" d="M1385.83,692.006l1.877,7.1a28.566,28.566,0,0,1,6.393,4.972c2.036,2.207,1.746,5.936,4.725,6.321a4.573,4.573,0,0,0,1.307-.359l-5.82-21.208-1.307.359Z" transform="translate(-1294.23 -571.717)" fill="#8f97b9"/>
        <rect id="Shape-74" data-name="Shape" width="1.656" height="7.41" rx="0.828" transform="translate(75.153)" fill="#f6b89f"/>
        <rect id="Shape-75" data-name="Shape" width="1.656" height="7.41" rx="0.828" transform="matrix(0.866, 0.5, -0.5, 0.866, 79.507, 0.8)" fill="#f6b89f"/>
        <path id="Shape-76" data-name="Shape" d="M1385.242,692.71l2.138,7.792a34.129,34.129,0,0,1,6.1,5.085c2.036,2.207,2.2,6.65,4.906,5.846.325-.1-5.82-21.208-5.82-21.208Z" transform="translate(-1293.794 -572.748)" fill="#fff"/>
        <path id="Shape-77" data-name="Shape" d="M1036.333,313.13c.712-1.978.749-4.268,3.994-2.876,2.024.868,1.982,3.354,1.982,5.745,0,2.1-1.036,2.18-3.107,1.434S1035.62,315.108,1036.333,313.13Z" transform="translate(-1034.811 -290.538)" fill="#f6b89f"/>
        <rect id="Shape-78" data-name="Shape" width="1.656" height="7.41" rx="0.828" transform="translate(5.787 20.795) rotate(-180)" fill="#f6b89f"/>
        <rect id="Shape-79" data-name="Shape" width="1.656" height="7.41" rx="0.828" transform="translate(5.139 20.601) rotate(150)" fill="#f6b89f"/>
        <path id="Shape-80" data-name="Shape" d="M1173.609,409.507a32.16,32.16,0,0,1,.2,4.7c-1.046-.143-1.9-2.725-1.824-4.305.076-1.674.741-3.554.975-3.32A14.292,14.292,0,0,1,1173.609,409.507Z" transform="translate(-1135.575 -362.301)" fill="#37474f"/>
        <path id="Shape-81" data-name="Shape" d="M1213.029,398.776a42.2,42.2,0,0,0,1.221,4.56c.941-.477,1.03-3.251.447-4.722-.618-1.558-1.861-3.118-2.005-2.82A14.248,14.248,0,0,0,1213.029,398.776Z" transform="translate(-1165.78 -354.289)" fill="#37474f"/>
      </g>
      <g id="Person-2" data-name="Person" transform="translate(255.995 154.15)">
        <path id="Shape-82" data-name="Shape" d="M0,0H10.752V8.795H0Z" transform="translate(81.702 117.01) rotate(-11.338)" fill="#ffdfae"/>
        <path id="Shape-83" data-name="Shape" d="M868.727,581.207l-3.346-9.083-31.55,4.78,5.258-25.336-24.141.717,5.975,39.677Z" transform="translate(-780.009 -456.136)" fill="#37474f"/>
        <path id="Shape-84" data-name="Shape" d="M1043.495,611.53l8.316,21.3a4.215,4.215,0,0,1-2.516.463l-8.249-20.209Z" transform="translate(-947.747 -500.621)" fill="#694a52"/>
        <path id="Shape-85" data-name="Shape" d="M1037.023,635.2c-2.647-.488-3.853-4.883-7.634-6.624-2.984-1.374-2.567-2.174-2.567-2.174s1.764-3.886.35-6.524c-.682-1.272-1.608-.594-2.338-1.184a.94.94,0,0,1-.278-1.026l5.625-3.57,8.538,20.983A3.038,3.038,0,0,1,1037.023,635.2Z" transform="translate(-935.475 -502.523)" fill="#f9b25f"/>
        <path id="Shape-86" data-name="Shape" d="M0,0H10.752V8.795H0Z" transform="translate(90.546 111.273) rotate(-11.338)" fill="#ffdfae"/>
        <path id="Shape-87" data-name="Shape" d="M902.99,558.725l-3.346-9.083-31.55,4.781s7.171-22.946,5.5-24.858c-1.229-1.4-24.38.239-24.38.239l5.975,39.677Z" transform="translate(-805.428 -439.39)" fill="#4d5b62"/>
        <path id="Shape-88" data-name="Shape" d="M1077.757,589.306l8.316,21.3a4.214,4.214,0,0,1-2.516.463l-8.249-20.209Z" transform="translate(-973.166 -484.133)" fill="#694a52"/>
        <path id="Shape-89" data-name="Shape" d="M1071.285,612.972c-2.647-.488-3.853-4.883-7.634-6.624-2.984-1.374-2.567-2.174-2.567-2.174s1.765-3.886.35-6.524c-.682-1.271-1.608-.594-2.338-1.184a.94.94,0,0,1-.278-1.025l5.624-3.571,8.538,20.983A3.039,3.039,0,0,1,1071.285,612.972Z" transform="translate(-960.894 -486.035)" fill="#f9b25f"/>
        <path id="Shape-90" data-name="Shape" d="M810.986,243.081c.478-3.585,5.5-7.649,9.8-3.346.393.393,2.367-.759,5.258-1.434,2.231-.521,5.982,1.682,7.409,3.824,3.346,5.02,5.019.956,6.214,7.649.733,4.106-2.629,5.019-2.39,7.409.624,6.243-2.635,10.613-6.453,10.756-6.044.226-4.936-9.223-10.039-11.473C813.854,253.409,810.271,248.445,810.986,243.081Z" transform="translate(-777.003 -223.417)" fill="#37474f"/>
        <path id="Shape-91" data-name="Shape" d="M867.52,359.141h-9.789l.4-12.827h9.83Z" transform="translate(-811.749 -303.861)" fill="#f7d9b0"/>
        <path id="Shape-92" data-name="Shape" d="M1028.029,559.346c-.361.842,1.407,5.086,1.84,5.894,1.814,1.448,8.03-3.042,7.636-5.894-.038-1.2-1.82,1.438-1.588.262.441-2.6-3.935-2.354-5.665-1.737S1028.857,556.944,1028.029,559.346Z" transform="translate(-981.322 -515.376)" fill="#f4ca92"/>
        <path id="Shape-93" data-name="Shape" d="M760.406,299.559l-8.2-5.106L745.024,277.9,741.4,277s1.921,16.294,3.717,21.284c.958,2.661,6.335,7.119,11.02,9.958C757.529,305.226,758.9,302.443,760.406,299.559Z" transform="translate(-725.443 -252.436)" fill="#ffdfae"/>
        <path id="Shape-94" data-name="Shape" d="M817.725,360.25s-2.6,5.048-5.579,5.02a4.2,4.2,0,0,1-4.279-3.836l-14.072-4.5c-.314.749-3.548,9.371-3.548,9.371,3.633,3.981,7.634,7.913,7.634,7.913s-5.281,31.026-1.943,34.439c9.767,9.989,35.709-.248,35.709-.248l-2.826-35.721c0-.494,2.562-2.348,5.577-4.882-1.72-4.129-2.76-6.284-3.4-10.654A63.371,63.371,0,0,1,817.725,360.25Z" transform="translate(-761.683 -311.738)" fill="#f9b25f"/>
        <path id="Shape-95" data-name="Shape" d="M957.594,232.819l-3.8,1.1-.245,27.7c-.734.157-3.915,2.87-5.43,3.462.635,4.369,1.682,6.516,3.4,10.645,3.243-2.725,7.009-6.236,8.679-9.7C962.541,261.184,957.594,232.819,957.594,232.819Z" transform="translate(-878.807 -219.661)" fill="#ffdfae"/>
        <path id="Shape-96" data-name="Shape" d="M859.9,291.117c-.165,2.168-2.287,2.874-2.677,4.8-1.043,5.168-5.552,10.371-9.769,10.371-3.574,0-8.787-6.779-8.787-14.427a46.483,46.483,0,0,1,.37-5.47c.2-1.7,4.98,4.992,14.628-1.669,1.462-1.01,1.665,6.3,2.542,8.1.256.523.445-1.932.854-2.574C857.406,289.714,860.217,287.005,859.9,291.117Z" transform="translate(-797.608 -258.099)" fill="#ffdfae"/>
        <g id="Dollar-7" data-name="Dollar" transform="translate(0 7.702)">
          <path id="Path_2184" data-name="Path 2184" d="M703.637,220.239c-.183-.273-8.514-8.556-8.514-8.556S685.291,226.9,679.589,226.8c-.215,0,9.182,12.12,9.182,12.12S706.965,225.187,703.637,220.239Z" transform="translate(-679.586 -211.683)" fill="#94d3cc"/>
          <path id="Path_2185" data-name="Path 2185" d="M693.266,241.094l-.154-.2c-.019-.025-1.9-2.511-3.753-4.984-3.838-5.129-3.82-5.164-3.721-5.364l.071-.143.163,0c4.859-.025,13.352-14.14,13.438-14.283l.167-.279.234.226c5.169,4.986,7.829,7.634,7.906,7.869,1.736,5.284-13.5,16.537-14.145,17.014Zm-6.96-10.213c.885,1.291,4.5,6.111,7.064,9.495,1.827-1.372,15.223-11.625,13.765-16.258-.326-.44-4.588-4.6-7.55-7.46C698.357,218.665,691.13,230.182,686.305,230.881Z" transform="translate(-684.056 -214.764)" fill="#6da196"/>
          <g id="Group_4464" data-name="Group 4464" transform="translate(11.033 10.875)">
            <g id="Group_4463" data-name="Group 4463">
              <path id="Path_2186" data-name="Path 2186" d="M724.58,259.487a2.674,2.674,0,0,0,1.335-.445c.639-.434.783-1.025.451-1.513-.307-.452-.741-.535-1.565-.343-.98.257-1.746.179-2.21-.5a1.684,1.684,0,0,1,.673-2.377,2.657,2.657,0,0,1,1.231-.49l.174.627a2.332,2.332,0,0,0-1.075.394c-.661.449-.643,1.014-.419,1.345.307.452.753.475,1.6.28,1.033-.24,1.718-.128,2.2.583a1.765,1.765,0,0,1-.748,2.544,3.023,3.023,0,0,1-1.445.53Z" transform="translate(-722.328 -253.816)" fill="#6da196"/>
            </g>
            <path id="Path_4958" data-name="Path 4958" d="M0,0H.63V.933H0Z" transform="translate(0.202 0.403) rotate(-34.192)" fill="#6da196"/>
            <path id="Path_4959" data-name="Path 4959" d="M0,0H.63V.933H0Z" transform="translate(3.577 5.371) rotate(-34.192)" fill="#6da196"/>
          </g>
          <path id="Path_2187" data-name="Path 2187" d="M738.205,218.557a.722.722,0,1,1-1.393.376,1.746,1.746,0,0,1,.69-.351A1.435,1.435,0,0,1,738.205,218.557Z" transform="translate(-722.041 -216.76)" fill="#6da196"/>
          <path id="Path_2188" data-name="Path 2188" d="M766.771,247.429a.863.863,0,1,1-.674-1.589,2.042,2.042,0,0,1,.534.758A1.676,1.676,0,0,1,766.771,247.429Z" transform="translate(-743.36 -237.023)" fill="#6da196"/>
          <path id="Path_2189" data-name="Path 2189" d="M688.283,272a.722.722,0,1,1-.453,1.37,1.263,1.263,0,0,1-.1-.844A.994.994,0,0,1,688.283,272Z" transform="translate(-685.602 -256.431)" fill="#6da196"/>
          <path id="Path_2190" data-name="Path 2190" d="M712.811,307.767a.722.722,0,0,1,1.439.117,1.263,1.263,0,0,1-.8.294A.993.993,0,0,1,712.811,307.767Z" transform="translate(-704.235 -282.475)" fill="#6da196"/>
          <circle id="Ellipse_336" data-name="Ellipse 336" cx="2.084" cy="2.084" r="2.084" transform="translate(6.712 16.38)" fill="#6da196"/>
          <circle id="Ellipse_337" data-name="Ellipse 337" cx="2.084" cy="2.084" r="2.084" transform="translate(15.598 6.786)" fill="#6da196"/>
        </g>
        <g id="Dollar-8" data-name="Dollar" transform="translate(63.257)">
          <path id="Path_2191" data-name="Path 2191" d="M948.482,195.27c.079-.32.629-12.054.629-12.054s-17.881,2.925-21.63-1.371c-.141-.162-2.823,14.941-2.823,14.941S947.047,201.058,948.482,195.27Z" transform="translate(-924.658 -181.843)" fill="#94d3cc"/>
          <path id="Path_2192" data-name="Path 2192" d="M941.25,202.3a79.665,79.665,0,0,1-13.682-1.531l-.249-.051.047-.25c.006-.031.585-3.1,1.176-6.127,1.226-6.287,1.265-6.3,1.479-6.359l.153-.044.111.119c1.341,1.466,5.141,2,10.99,1.545a83.133,83.133,0,0,0,8.617-1.17l.319-.064-.01.325c-.227,7.179-.4,10.927-.527,11.142C948.6,201.719,945.133,202.3,941.25,202.3Zm-13.33-1.988a90.857,90.857,0,0,0,9.628,1.315c6.562.5,10.593-.2,11.662-2.023.108-.537.331-6.489.463-10.6-2.311.438-15.7,2.81-19.456-.3C929.855,190.228,928.708,196.144,927.92,200.314Z" transform="translate(-926.631 -186.366)" fill="#6da196"/>
          <g id="Group_4467" data-name="Group 4467" transform="translate(10.339 5.752)">
            <g id="Group_4466" data-name="Group 4466" transform="translate(0 0.528)">
              <path id="Path_2193" data-name="Path 2193" d="M965.05,210.7a2.675,2.675,0,0,0,1.225.691c.751.182,1.286-.108,1.425-.681.129-.531-.1-.909-.8-1.39-.848-.554-1.3-1.174-1.11-1.976a1.685,1.685,0,0,1,2.214-1.1,2.66,2.66,0,0,1,1.189.584l-.348.55a2.333,2.333,0,0,0-1.014-.532c-.776-.188-1.184.2-1.278.592-.129.531.153.877.864,1.371.871.6,1.248,1.188,1.045,2.023-.213.877-1.047,1.479-2.388,1.153a3.022,3.022,0,0,1-1.363-.715Z" transform="translate(-964.715 -206.171)" fill="#6da196"/>
            </g>
            <rect id="Rectangle_5996" data-name="Rectangle 5996" width="0.63" height="0.933" transform="translate(2.865 0) rotate(13.652)" fill="#6da196"/>
            <rect id="Rectangle_5997" data-name="Rectangle 5997" width="0.63" height="0.933" transform="translate(1.447 5.836) rotate(13.652)" fill="#6da196"/>
          </g>
          <path id="Path_2194" data-name="Path 2194" d="M1012.044,191.381a.722.722,0,1,1-1.214-.781,1.749,1.749,0,0,1,.723.276A1.432,1.432,0,0,1,1012.044,191.381Z" transform="translate(-988.503 -188.338)" fill="#6da196"/>
          <path id="Path_2195" data-name="Path 2195" d="M1008.481,232.085a.863.863,0,1,1,.726-1.566,2.038,2.038,0,0,1-.2.9A1.673,1.673,0,0,1,1008.481,232.085Z" transform="translate(-986.458 -217.892)" fill="#6da196"/>
          <path id="Path_2196" data-name="Path 2196" d="M937.458,190.4a.722.722,0,1,1-1.32.584,1.266,1.266,0,0,1,.56-.639A1,1,0,0,1,937.458,190.4Z" transform="translate(-933.174 -188.113)" fill="#6da196"/>
          <path id="Path_2197" data-name="Path 2197" d="M928.576,232.5a.722.722,0,0,1,.879,1.146,1.264,1.264,0,0,1-.753-.394A1,1,0,0,1,928.576,232.5Z" transform="translate(-927.546 -219.317)" fill="#6da196"/>
          <circle id="Ellipse_338" data-name="Ellipse 338" cx="2.084" cy="2.084" r="2.084" transform="translate(4.157 6.683)" fill="#6da196"/>
          <circle id="Ellipse_339" data-name="Ellipse 339" cx="2.084" cy="2.084" r="2.084" transform="translate(17.233 6.831)" fill="#6da196"/>
        </g>
        <g id="Dollar-9" data-name="Dollar" transform="translate(64.854 0.05)">
          <path id="Path_2198" data-name="Path 2198" d="M954.709,197.3c.108-.311,1.712-11.949,1.712-11.949s-18.072,1.3-21.419-3.313c-.126-.174-4.156,14.626-4.156,14.626S952.759,202.934,954.709,197.3Z" transform="translate(-930.845 -182.035)" fill="#b2dfdb"/>
          <path id="Path_2199" data-name="Path 2199" d="M950.14,203.793c-6.483,0-15.654-2.726-16.2-2.89l-.244-.073.07-.244c.009-.03.861-3.031,1.723-6,1.787-6.151,1.827-6.158,2.045-6.2l.157-.03.1.128c1.2,1.581,4.942,2.455,10.811,2.528a83.419,83.419,0,0,0,8.683-.389l.323-.035-.039.323c-.873,7.129-1.387,10.846-1.528,11.049h0C955.1,203.313,952.858,203.793,950.14,203.793Zm-15.805-3.313a90.877,90.877,0,0,0,9.471,2.176c6.491,1.087,10.569.753,11.8-.964.156-.525.914-6.432,1.416-10.519-2.341.228-15.888,1.385-19.35-2.048C937.17,190.61,935.5,196.4,934.335,200.481Zm21.284,1.19h0Z" transform="translate(-932.962 -186.727)" fill="#6da196"/>
          <g id="Group_4470" data-name="Group 4470" transform="translate(10.618 6.663)">
            <g id="Group_4469" data-name="Group 4469" transform="translate(0 0.502)">
              <path id="Path_2200" data-name="Path 2200" d="M972.367,214.1a2.677,2.677,0,0,0,1.158.8c.731.249,1.29.009,1.481-.55.176-.518-.019-.914-.668-1.457-.794-.629-1.194-1.287-.928-2.068a1.684,1.684,0,0,1,2.3-.893,2.657,2.657,0,0,1,1.132.688l-.4.516a2.327,2.327,0,0,0-.962-.621c-.756-.258-1.2.1-1.326.474-.177.518.074.887.737,1.443.813.681,1.136,1.295.858,2.108a1.765,1.765,0,0,1-2.482.933,3.024,3.024,0,0,1-1.293-.835Z" transform="translate(-971.982 -209.794)" fill="#6da196"/>
            </g>
            <path id="Path_4960" data-name="Path 4960" d="M0,0H.63V.933H0Z" transform="translate(3.36 0) rotate(18.818)" fill="#6da196"/>
            <path id="Path_4961" data-name="Path 4961" d="M0,0H.63V.933H0Z" transform="translate(1.422 5.685) rotate(18.818)" fill="#6da196"/>
          </g>
          <path id="Path_2201" data-name="Path 2201" d="M1022.12,198.452a.722.722,0,1,1-1.139-.887,1.746,1.746,0,0,1,.7.34A1.432,1.432,0,0,1,1022.12,198.452Z" transform="translate(-997.603 -193.555)" fill="#6da196"/>
          <path id="Path_2202" data-name="Path 2202" d="M1014.787,238.85a.863.863,0,1,1,.864-1.494,2.039,2.039,0,0,1-.284.883A1.674,1.674,0,0,1,1014.787,238.85Z" transform="translate(-992.786 -222.986)" fill="#6da196"/>
          <path id="Path_2203" data-name="Path 2203" d="M947.855,190.939a.722.722,0,1,1-1.367.462,1.266,1.266,0,0,1,.615-.586A.993.993,0,0,1,947.855,190.939Z" transform="translate(-942.45 -188.525)" fill="#6da196"/>
          <path id="Path_2204" data-name="Path 2204" d="M935.289,231.971a.722.722,0,0,1,.772,1.22,1.265,1.265,0,0,1-.714-.46A1,1,0,0,1,935.289,231.971Z" transform="translate(-934.104 -218.999)" fill="#6da196"/>
          <circle id="Ellipse_340" data-name="Ellipse 340" cx="2.084" cy="2.084" r="2.084" transform="translate(4.687 6.955)" fill="#6da196"/>
          <circle id="Ellipse_341" data-name="Ellipse 341" cx="2.084" cy="2.084" r="2.084" transform="translate(17.698 8.281)" fill="#6da196"/>
        </g>
        <path id="Shape-97" data-name="Shape" d="M967.87,232.272c-.378-2.068-.943-3.395-4.372-2.554-2.139.525-3.847,1.92-3.469,3.988s2.475,2.968,4.64,2.572S968.248,234.34,967.87,232.272Z" transform="translate(-887.602 -217.171)" fill="#ffdfae"/>
        <g id="Dollar-10" data-name="Dollar" transform="translate(3.527 9.157)">
          <path id="Path_2206" data-name="Path 2206" d="M711.893,218.34c-.159-.289-7.709-9.288-7.709-9.288s-11.163,14.272-16.832,13.655c-.214-.023,8.053,12.9,8.053,12.9S714.762,223.568,711.893,218.34Z" transform="translate(-687.348 -209.052)" fill="#b2dfdb"/>
          <path id="Path_2207" data-name="Path 2207" d="M699.767,237.744l-.134-.216c-.017-.026-1.669-2.672-3.289-5.3-3.36-5.453-3.339-5.487-3.223-5.677l.083-.136.162.012c4.836.41,14.572-12.88,14.669-13.015l.191-.263.213.246c4.7,5.432,7.11,8.308,7.166,8.549h0c1.253,5.419-14.93,15.255-15.62,15.671Zm-6.012-10.8c.765,1.366,3.933,6.492,6.18,10.092,1.944-1.2,16.208-10.207,15.173-14.952-.284-.468-4.155-4.995-6.848-8.11C706.858,215.864,698.623,226.683,693.755,226.945Z" transform="translate(-691.604 -212.09)" fill="#6da196"/>
          <g id="Group_4473" data-name="Group 4473" transform="translate(11.181 10.539)">
            <g id="Group_4472" data-name="Group 4472" transform="translate(0 0.081)">
              <path id="Path_2208" data-name="Path 2208" d="M732.586,255.854a2.678,2.678,0,0,0,1.369-.323c.675-.375.872-.95.586-1.467-.265-.478-.69-.6-1.528-.482-1,.167-1.755.021-2.156-.7a1.684,1.684,0,0,1,.884-2.307,2.658,2.658,0,0,1,1.27-.377l.117.64a2.331,2.331,0,0,0-1.106.3c-.7.387-.732.952-.538,1.3.265.478.707.541,1.564.422,1.051-.146,1.722.027,2.139.778a1.765,1.765,0,0,1-.974,2.466,3.02,3.02,0,0,1-1.487.4Z" transform="translate(-730.666 -250.198)" fill="#6da196"/>
            </g>
            <path id="Path_4957" data-name="Path 4957" d="M0,0H.63V.933H0Z" transform="translate(0.353 0.305) rotate(-29.025)" fill="#6da196"/>
            <path id="Path_4956" data-name="Path 4956" d="M0,0H.63V.933H0Z" transform="translate(3.267 5.557) rotate(-29.025)" fill="#6da196"/>
          </g>
          <path id="Path_2209" data-name="Path 2209" d="M750.279,216.028a.722.722,0,1,1-1.421.249,1.745,1.745,0,0,1,.719-.287A1.433,1.433,0,0,1,750.279,216.028Z" transform="translate(-732.981 -214.182)" fill="#6da196"/>
          <path id="Path_2210" data-name="Path 2210" d="M776.014,247.226a.863.863,0,1,1-.528-1.643,2.036,2.036,0,0,1,.464.8A1.673,1.673,0,0,1,776.014,247.226Z" transform="translate(-752.274 -236.153)" fill="#6da196"/>
          <path id="Path_2211" data-name="Path 2211" d="M695.637,264.638a.722.722,0,1,1-.575,1.324,1.265,1.265,0,0,1-.021-.85A.994.994,0,0,1,695.637,264.638Z" transform="translate(-693.007 -250.29)" fill="#6da196"/>
          <path id="Path_2212" data-name="Path 2212" d="M716.889,302.5a.722.722,0,0,1,1.422.246,1.264,1.264,0,0,1-.82.221A1,1,0,0,1,716.889,302.5Z" transform="translate(-709.264 -277.932)" fill="#6da196"/>
          <circle id="Ellipse_342" data-name="Ellipse 342" cx="2.084" cy="2.084" r="2.084" transform="translate(6.375 15.698)" fill="#6da196"/>
          <circle id="Ellipse_343" data-name="Ellipse 343" cx="2.084" cy="2.084" r="2.084" transform="translate(16.089 6.943)" fill="#6da196"/>
        </g>
        <path id="Shape-98" data-name="Shape" d="M740.24,268.74c-2.844-.388-4.679.973-4.969,3.1s.895,3.452,3.739,3.84,4.983-.46,5.273-2.583S743.085,269.128,740.24,268.74Z" transform="translate(-720.867 -246.262)" fill="#ffdfae"/>
      </g>
      <g id="Person-3" data-name="Person" transform="translate(123.089 186.697)">
        <path id="Shape-99" data-name="Shape" d="M394.983,614.912l-22.256-.288a39.19,39.19,0,0,0,2.36,8.9c2.37,5.734,16.475,33.541,16.475,33.541-.718,2.666,2.432,29.179,2.432,29.179l5.5-.216s3.163-28.513,2.835-32.254C401.452,643.736,394.983,614.912,394.983,614.912Z" transform="translate(-319.026 -535.463)" fill="#ffdfae"/>
        <path id="Shape-100" data-name="Shape" d="M465.543,913.009c-.2-1.541-3.81-.61-5.92-1.855a74.926,74.926,0,0,1-9.279-6.8h-.86v10.035h2.888V909.37s4.524,4.852,6.695,5.367C461.035,915.2,465.788,914.919,465.543,913.009Z" transform="translate(-375.971 -750.407)" fill="#adadad"/>
        <path id="Shape-101" data-name="Shape" d="M450.6,886.612h6.264l2.1,9.408s2.3,2.172,4.044,2.292c1.955.135,2.874,1.42,2.537,1.8-1.022,1.143-4.8,1.087-6.244.562-3.08-1.121-7.613-5.893-9.476-8.455C448.737,890.722,450.6,886.612,450.6,886.612Z" transform="translate(-375.971 -737.246)" fill="#bfbfbf"/>
        <path id="Shape-102" data-name="Shape" d="M277.331,614.624H256.108a9.8,9.8,0,0,0-6.293,9.273c-.124,6.2-.492,24.657-.492,24.657-.189.083-27.578-9.327-27.578-9.327l-2.752,4.691L254.261,662.5Z" transform="translate(-204.973 -535.463)" fill="#ffdfae"/>
        <path id="Shape-103" data-name="Shape" d="M166.01,702.544c1.46,0,1.059-3.659,2.49-5.576a73.971,73.971,0,0,1,7.528-8.262l.111-.843-9.342-1.229-.372,2.831,4.671.614s-5.1,3.841-5.859,5.9C164.548,697.858,164.2,702.55,166.01,702.544Z" transform="translate(-164.679 -588.886)" fill="#adadad"/>
        <path id="Shape-104" data-name="Shape" d="M183.678,696.19l-3.024,5.068-8.028-1.161s-2.453,2-2.8,3.711c-.389,1.92-1.783,2.664-2.112,2.281-1-1.163-.451-4.9.256-6.264,1.513-2.907,6.836-6.779,9.618-8.292C179.212,690.65,183.678,696.19,183.678,696.19Z" transform="translate(-166.526 -592.449)" fill="#bfbfbf"/>
        <path id="Shape-105" data-name="Shape" d="M240.406,343.449c7.572.532,5.5-8.227,6.857-11.11,4.858-10.323,1.157-12.257.213-14a4.867,4.867,0,0,0-3.894-2.329c-1.985-4.248-11.16-2.682-12.613,3.246-.6,2.455-8.036-6.474-15.978-3.884-5.672,1.849-15.349,15.414-13.422-6.474,0,0-9.425-4.47-15.481,5.874-10.106,17.263,6.383,27.245,21.253,28.408,5.172.4,6.991,8.946,18.139,9.246C233.806,352.649,234.036,343,240.406,343.449Z" transform="translate(-178.255 -307.936)" fill="#694a52"/>
        <rect id="Shape-106" data-name="Shape" width="12.538" height="4.356" transform="translate(66.795 39.069) rotate(-180)" fill="#be353b"/>
        <path id="Shape-107" data-name="Shape" d="M379.453,427.2l13.369-.174-6.944-19.86-5.99-.271Z" transform="translate(-324.016 -381.349)" fill="#ffdfae"/>
        <path id="Shape-108" data-name="Shape" d="M1028.387,558.61c-.361.842.406,5.533,1.7,6.63,4.786,2.412,8.03-3.042,7.636-5.894-.038-1.2-1.821,1.438-1.588.262.441-2.6-3.935-2.354-5.665-1.737S1029.215,556.208,1028.387,558.61Z" transform="translate(-972.451 -531.587)" fill="#f4ca92"/>
        <path id="Shape-109" data-name="Shape" d="M474.067,459.152l3.1,2.42s-18.545,19.27-19.4,19.26c-4.524-.054-12.64-8.932-16.116-12.75-2.119-2.327.9-8.676.9-8.676l14.765,12.3Z" transform="translate(-369.601 -420.121)" fill="#ffdfae"/>
        <path id="Shape-110" data-name="Shape" d="M228.228,428.409l14.852,17.042,11.478-5.928-.077,7s-7.307,7.586-13.468,8.561c-2.352.372-15.356-23.811-15.356-23.811Z" transform="translate(-209.918 -397.313)" fill="#ffdfae"/>
        <path id="Shape-111" data-name="Shape" d="M318.424,487.066s-9.273,17.112-9.422,17.56c-.827,2.481.791,3.992,3.825,4.839.79.22,5.151-9.114,6.115-8.979s-1.468,9.742-.366,9.8c12.9.723,33.97-3.255,33.97-3.255L347.7,485.654s-6.606-24.628-3.833-28.423c.193-.264,2.372-10.258.669-10.942-2.5-1-4.647-1.641-4.647-1.641l-1.5-2.228a16.117,16.117,0,0,1-3.482,2.319c-.178.067-.512-.035-.668.118-1.5,1.48-1.993,6.526-1.993,6.526s-1.817-6.522-2.707-6.746a12.145,12.145,0,0,1-3.681-2.219l-1.3,2.567a39.131,39.131,0,0,0-7.734,3.071c-2.694,1.335-1.442,10.921-1.442,10.921Z" transform="translate(-271.59 -407.707)" fill="#ff6369"/>
        <path id="Shape-112" data-name="Shape" d="M367.323,366.818c-.056,2.593,2.19,1.981,3.417,4.438,1.909,3.822,3.294,5.956,6.185,5.275,4-.94,5.986-6.2,5.923-13.98-.03-3.645-.017-5.225-2.106-6.47-.871-.519.283,1.99-4.835,3.914-2.58.97-5.236.187-5.433,2.829C370.252,365.8,367.371,364.579,367.323,366.818Z" transform="translate(-315.017 -343.603)" fill="#ffdfae"/>
        <path id="Shape-113" data-name="Shape" d="M217.934,403.453c.277-1.359,1.095-.668,1.625-1.812.389-.839-2.041-3.427-1.583-3.981.65-.786,2.971,3.319,3.473,3.813,0,0,.984.993,1.063,4.241l-2.653,2.725C219.1,407.573,217.165,407.225,217.934,403.453Z" transform="translate(-204.056 -374.426)" fill="#ffdfae"/>
        <path id="Shape-114" data-name="Shape" d="M574.061,434.088c-.277-1.359-1.095-.668-1.625-1.812-.389-.84,2.041-3.427,1.582-3.981-.65-.786-2.97,3.319-3.472,3.812,0,0-.984.993-1.063,4.241l2.653,2.725C572.89,438.208,574.83,437.86,574.061,434.088Z" transform="translate(-464.996 -397.154)" fill="#ffdfae"/>
        <path id="Shape-115" data-name="Shape" d="M374.182,374.614a1.531,1.531,0,0,1-1.167-.533l.19-.174a1.269,1.269,0,0,0,1.081.445c2-.137,4.716-4.057,4.743-4.1l.213.146c-.114.166-2.817,4.063-4.938,4.208C374.263,374.612,374.222,374.614,374.182,374.614Z" transform="translate(-319.24 -354.169)" fill="#694a52"/>
        <path id="Shape-116" data-name="Shape" d="M371.011,373.439a7.42,7.42,0,0,1-1.607-.18l.056-.252c5.9,1.308,9.024-5.194,9.055-5.26l.234.109C378.72,367.918,376.069,373.439,371.011,373.439Z" transform="translate(-316.562 -352.309)" fill="#694a52"/>
        <circle id="Shape-117" data-name="Shape" cx="0.829" cy="0.829" r="0.829" transform="translate(55.599 33.817)" fill="#fff"/>
        <circle id="Shape-118" data-name="Shape" cx="0.829" cy="0.829" r="0.829" transform="translate(57.159 34.292)" fill="#fff"/>
        <circle id="Shape-119" data-name="Shape" cx="0.829" cy="0.829" r="0.829" transform="translate(58.742 34.665)" fill="#fff"/>
        <circle id="Shape-120" data-name="Shape" cx="0.829" cy="0.829" r="0.829" transform="translate(60.359 34.552)" fill="#fff"/>
        <circle id="Shape-121" data-name="Shape" cx="0.829" cy="0.829" r="0.829" transform="translate(61.941 34.178)" fill="#fff"/>
        <circle id="Shape-122" data-name="Shape" cx="0.829" cy="0.829" r="0.829" transform="translate(63.321 33.353)" fill="#fff"/>
        <circle id="Shape-123" data-name="Shape" cx="0.468" cy="0.468" r="0.468" transform="translate(103.735 39.042)" fill="#fff"/>
        <circle id="Shape-124" data-name="Shape" cx="0.468" cy="0.468" r="0.468" transform="translate(104.31 39.644)" fill="#fff"/>
        <circle id="Shape-125" data-name="Shape" cx="0.468" cy="0.468" r="0.468" transform="translate(104.782 40.348)" fill="#fff"/>
        <circle id="Shape-126" data-name="Shape" cx="0.468" cy="0.468" r="0.468" transform="translate(105.414 40.947)" fill="#fff"/>
        <circle id="Shape-127" data-name="Shape" cx="0.468" cy="0.468" r="0.468" transform="translate(106.09 41.447)" fill="#fff"/>
      </g>
    </g>
    <g id="Person-4" data-name="Person" transform="translate(79.852 1767.5)">
      <path id="Path_2865" data-name="Path 2865" d="M832.7,600.2c0,14.407,10.334,34.312,21.434,34.312s14.756-15.391,22.581-27c3.328-4.94,4.786-17.113-2.177-18.525a25.768,25.768,0,0,0-7.037-.287C854.661,576.858,832.7,585.791,832.7,600.2Z" transform="translate(-734.179 -504.897)" fill="#455a64"/>
      <rect id="Rectangle_6631" data-name="Rectangle 6631" width="18.516" height="24.128" transform="translate(112.837 123.996)" fill="#ffdfae"/>
      <rect id="Rectangle_6632" data-name="Rectangle 6632" width="9.662" height="10.403" transform="translate(64.74 67.602)" fill="#ffdfae"/>
      <path id="Path_2866" data-name="Path 2866" d="M912.59,570.859c3.36,1.118,4.024,5.5,2.349,10.536s-1.41,12.849-4.77,11.731c-.84-.28-5.928-1.476-6.428-2.182-.732-1.035,1.374-2.987,1.517-5.441.15-2.567-1.63-5.659-.988-7.587C905.944,572.884,909.23,569.742,912.59,570.859Z" transform="translate(-722.05 -507.049)" fill="#ffdfae"/>
      <path id="Shape-128" data-name="Shape" d="M1027.272,560.641c-.83,1.933,1.7,11.715,5.487,14.678,4.166,3.325,18.438-6.985,17.534-13.534-.087-2.753-4.18,3.3-3.646.6,1.012-5.966-9.036-5.406-13.008-3.988S1029.173,555.124,1027.272,560.641Z" transform="translate(-914.357 -437.324)" fill="#f4ca92"/>
      <path id="Path_2867" data-name="Path 2867" d="M887.283,729.914c-6.1,4.1-18.652-6.824-27.317-10.833-10.658-4.931-23.985-5.068-33.922-4.67-5.118.2,5.279-50.242,5.279-50.242,0-1.932-20.78-14.88-26.853-27.46-4.407-9.13-1.4-56.058-1.4-56.058l11.474,1.286,6.305,46.547c5.833,1.249,29.483,12.262,31.378,12.262,0,0,4.9,9.508,10.508,9.456,7.491-.073,8.061-7.226,8.061-7.226l39.216-26.955,11.511-31.091,9.012,5.546s-1.856,32.253-8.953,39.285c-6.94,6.875-31.978,37.289-31.978,37.289S900.338,721.144,887.283,729.914Z" transform="translate(-739.42 -505.335)" fill="#8765db"/>
      <path id="Path_2868" data-name="Path 2868" d="M836.559,608.873c.31,4.084,4.309,5.414,5.042,9.048,1.963,9.734,10.457,19.534,18.4,19.534,6.733,0,16.551-12.769,16.551-27.176a66.516,66.516,0,0,0-.7-10.3c-.963-5.95-14.878,10.315-27.553-3.143-2.964-3.145-2.561,10.4-6.4,10.4C841.74,607.235,835.97,601.128,836.559,608.873Z" transform="translate(-733.525 -502.647)" fill="#ffdfae"/>
      <ellipse id="Ellipse_405" data-name="Ellipse 405" cx="3.381" cy="6.346" rx="3.381" ry="6.346" transform="matrix(0.093, -0.996, 0.996, 0.093, 181.041, 72.618)" fill="#ffdfae"/>
      <path id="Path_2869" data-name="Path 2869" d="M803,573.6c.574-3.137,1.546-5.128,8.027-3.619,4.043.942,7.334,3.187,6.761,6.324s-4.444,4.375-8.528,3.628S802.428,576.737,803,573.6Z" transform="translate(-739.273 -507.248)" fill="#ffdfae"/>
      <path id="Path_4973" data-name="Path 4973" d="M12.075,0H257.644a12.075,12.075,0,0,1,12.075,12.075V54.732a12.075,12.075,0,0,1-12.075,12.075H12.075A12.075,12.075,0,0,1,0,54.732V12.075A12.075,12.075,0,0,1,12.075,0Z" transform="translate(1.334 0) rotate(1.144)" fill="#f9b25f"/>
      <path id="Path_2878" data-name="Path 2878" d="M954.972,599.98l-4.4-8.155-1.067-1.979,8.653-4.665-26.216-16.166-.9,30.786,8.653-4.665,1.067,1.979,4.4,8.155Z" transform="translate(-717.353 -507.326)" fill="#fff"/>
      <text id="تخفیف_های_روزانه" data-name="تخفیف های روزانه" transform="translate(140.148 42.5)" fill="#fff" font-size="32" font-family="IRANYekan-Bold, IRANYekan" font-weight="700"><tspan x="-122.291" y="0">تخفیف های روزانه</tspan></text>
    </g>
  </g>
</svg>
