<svg xmlns="http://www.w3.org/2000/svg" xmlns:xlink="http://www.w3.org/1999/xlink" width="350" height="223" viewBox="0 0 350 223">
  <defs>
    <linearGradient id="linear-gradient" x1="-0.178" y1="0.459" x2="1.167" y2="0.459" gradientUnits="objectBoundingBox">
      <stop offset="0" stop-color="#f1821d"/>
      <stop offset="1" stop-color="#fff29c"/>
    </linearGradient>
  </defs>
  <g id="Group_4787" data-name="Group 4787" transform="translate(-403 -1969)">
    <g id="Group_4781" data-name="Group 4781" transform="translate(403 1969)">
      <path id="Rectangle_6636" data-name="Rectangle 6636" d="M25,0H350V198a25,25,0,0,1-25,25H25A25,25,0,0,1,0,198V25A25,25,0,0,1,25,0Z" fill="url(#linear-gradient)"/>
      <g id="Scissor" transform="translate(193.32 38)">
        <path id="Shape" d="M840.635,413.369l-6.483-.776L833.268,407l-7.463-6.059-5.42-63.171c-.65-3.79,1.535-7.318,4.88-7.88l2.63-.442Z" transform="translate(-760.087 -316.72)" fill="#bfbfbf"/>
        <path id="Shape-2" data-name="Shape" d="M874.045,554.922c-3.427,0-13.18-12.276-13.18-12.276l-7.087-.075s-.268,27.566-.268,32.678a20.536,20.536,0,1,0,20.535-20.328Zm0,34.475a13.684,13.684,0,1,1,13.823-13.684A13.684,13.684,0,0,1,874.045,589.4Z" transform="translate(-780.622 -449.209)" fill="#697fa0"/>
        <g id="Dollar">
          <path id="Shape-3" data-name="Shape" d="M829.321,325.9c2.741,5.88,5.87,11.573,9.094,17.207,1.28,2.236,2.446,4.555,2.263,7.192a31.414,31.414,0,0,1-1.828,7.409c-1.99,6.128-3.653,12.028-5.438,18.231-.9,3.121-.843,2.944-.5,10.352,31.581-2.63,62.286-9.647,63.881-25.739.175-1.764-6.107-64.742-6.107-64.742s-34.7,10.9-67.218,14.977c1.029,5.286,3.59,10.265,5.849,15.113" transform="translate(-762.065 -295.81)" fill="#b2dfdb"/>
          <path id="Shape-4" data-name="Shape" d="M727.186,389.585c3.784-4.864,2.629-11.984,4.494-17.837.95-2.983,1.924-6.121.834-9.2-1.059-2.986-3.292-5.656-4.544-8.558-1.588-3.678-4.664-7.023-3.853-10.285.563-2.266,5.079-3.909,4.037-6.19a49.847,49.847,0,0,1-3.9-11.017c-20.723,2.531-48.882,2.29-58.02-5.455-.888-.753-3.432,81.838-3.432,81.838a582.746,582.746,0,0,0,61.419-1.3C725.468,397.569,724.65,392.844,727.186,389.585Z" transform="translate(-662.806 -311.496)" fill="#b2dfdb"/>
          <path id="Shape-5" data-name="Shape" d="M806.935,353.668" transform="translate(-751.848 -331.777)" fill="none" stroke="#6da196" stroke-miterlimit="10" stroke-width="5"/>
          <path id="Shape-6" data-name="Shape" d="M710.191,413.012c-1.967,0-4.214-.057-6.844-.2-16.384-.877-29.7-.264-29.828-.259l-1.043.05.043-1.034c.007-.168.711-16.956,1.507-33.573.468-9.762.875-17.556,1.212-23.166.667-11.134.791-11.189,1.48-11.5l.539-.24.476.373c7.8,6.306,33.907,6,54.509,2.508l.322,1.865c-16.7,2.829-44.3,4.473-54.77-2.012-.736,7.145-2.327,41.157-3.321,64.794,3.462-.124,15.137-.44,28.979.3a96.877,96.877,0,0,0,16.87-.368,65.061,65.061,0,0,1,10.63-.387l-.092,1.89a62.647,62.647,0,0,0-10.349.38,95.166,95.166,0,0,1-10.32.579Z" transform="translate(-668.78 -325.206)" fill="#6da196"/>
          <path id="Shape-7" data-name="Shape" d="M835.9,390.089l-.155-1.885c23.453-1.887,52.482-6.876,57.739-19.927.233-2.458-3.351-35.247-5.918-57.586-5.815,1.986-32.971,11.011-58.758,15.464l-.328-1.864c28.774-4.969,59.275-15.666,59.58-15.773l1.134-.4.137,1.183c.016.144,1.677,14.567,3.241,28.994,3.19,29.411,2.9,30.152,2.723,30.594C890.851,380.143,870.867,387.276,835.9,390.089ZM893.478,368.324Z" transform="translate(-765.157 -303.461)" fill="#6da196"/>
          <g id="Shape-8" data-name="Shape" transform="translate(52.865 32.11)">
            <path id="Path_4683" data-name="Path 4683" d="M847.07,386.99a8.5,8.5,0,0,1,2.394-.1,12.757,12.757,0,0,1,5.879,2.046l1.441-3.2a14.315,14.315,0,0,0-6.475-2.142l.246-2.6-3.412-.315-.275,2.92a11.867,11.867,0,0,0-1.423.267Q846.244,385.434,847.07,386.99Z" transform="translate(-828.505 -380.679)" fill="#6da196"/>
            <path id="Path_4684" data-name="Path 4684" d="M863.624,437.359a31.43,31.43,0,0,1-1.828,7.409c-.44,1.356-.826,2.728-1.183,4.111a8.38,8.38,0,0,0,4.757-6.933,7.806,7.806,0,0,0-1.784-6.088,8.084,8.084,0,0,1,.038,1.5Z" transform="translate(-837.875 -414.98)" fill="#6da196"/>
            <path id="Path_4685" data-name="Path 4685" d="M818.231,406.144a19.371,19.371,0,0,0-4.478-2.886c-4.216-2.08-6.008-3.7-5.731-6.634a4.519,4.519,0,0,1,3.285-3.869q-.82-1.545-1.612-3.1a8.135,8.135,0,0,0-5.855,7.053c-.417,4.423,2.531,7.372,7.533,9.665,4.126,2.025,5.661,3.858,5.385,6.79-.3,3.166-2.95,5.128-7.136,4.741a14.648,14.648,0,0,1-7.143-2.726l-1.355,3.3a16.454,16.454,0,0,0,7.7,2.728l-.214,2.268,3.411.315.242-2.561a12.085,12.085,0,0,0,3.191-.736c.5-2.046,1.038-4.083,1.679-6.1C817.985,411.719,818.852,408.915,818.231,406.144Z" transform="translate(-801.122 -386.258)" fill="#6da196"/>
          </g>
          <path id="Shape-9" data-name="Shape" d="M976.9,316.184c.771,2.008-2.641,2.428-4.616,1.541s-3.1-2.039-2.2-4c.058-.127,3.639-1.852,5.475-1.022C977.293,313.49,976.424,314.942,976.9,316.184Z" transform="translate(-852.447 -306.174)" fill="#6da196"/>
          <path id="Shape-10" data-name="Shape" d="M985.883,466.449a4.718,4.718,0,0,1-3.3-5.823,4.775,4.775,0,0,1,5.976-3.089,10.879,10.879,0,0,1-.384,4.98A9,9,0,0,1,985.883,466.449Z" transform="translate(-860.245 -396.22)" fill="#6da196"/>
          <path id="Shape-11" data-name="Shape" d="M687.834,349.868c1.155,1.819,1.522,3.243-1.326,4.438-3.278,1.376-3.282.587-4.436-1.231-.075-.118-.533-3.66,1.176-4.72C684.862,347.354,687.763,349.757,687.834,349.868Z" transform="translate(-674.639 -328.323)" fill="#6da196"/>
          <path id="Shape-12" data-name="Shape" d="M673.651,508.575a3.952,3.952,0,0,1,5.551-.08,3.863,3.863,0,0,1,.082,5.5,6.924,6.924,0,0,1-4.365-1.51,5.32,5.32,0,0,1-1.268-3.91Z" transform="translate(-669.484 -427.342)" fill="#6da196"/>
          <ellipse id="Shape-13" data-name="Shape" cx="11.339" cy="11.224" rx="11.339" ry="11.224" transform="translate(17.399 42.384)" fill="#6da196"/>
          <ellipse id="Shape-14" data-name="Shape" cx="11.339" cy="11.224" rx="11.339" ry="11.224" transform="translate(95.572 32.982)" fill="#6da196"/>
        </g>
        <path id="Path_4690" data-name="Path 4690" d="M804.231,417.573l6.365,1.442,2.745-4.968,9.094-3.2,26.7-57.626c1.907-3.348,1.057-7.4-1.9-9.05l-2.323-1.3Z" transform="translate(-750.178 -325.067)" fill="#d8d6dd"/>
        <path id="Path_4691" data-name="Path 4691" d="M693.712,551.972a20.274,20.274,0,0,0,12.372,26.009,20.592,20.592,0,0,0,26.274-12.247c1.748-4.811,10.921-30.84,10.921-30.84l-6.694-2.3s-13.375,8.283-16.6,7.135a20.593,20.593,0,0,0-26.273,12.243Zm6.158,2.685a13.861,13.861,0,0,1,17.686-8.244,13.646,13.646,0,0,1,8.328,17.507,13.861,13.861,0,0,1-17.686,8.244,13.647,13.647,0,0,1-8.329-17.506Z" transform="translate(-681.147 -443.005)" fill="#92aed9"/>
        <ellipse id="Ellipse_494" data-name="Ellipse 494" cx="3.364" cy="3.33" rx="3.364" ry="3.33" transform="translate(63.858 77.927)" fill="#92aed9"/>
      </g>
      <path id="Path_4980" data-name="Path 4980" d="M6073.09-651.581l1.553,1.989.017.022.135.31.11.252.086.2,3.188,7.282-2.666,5.381-2.521-15.433" transform="translate(-5807.839 728.952)" fill="#bfbfbf" stroke="#bfbfbf" stroke-width="1"/>
    </g>
    <g id="Group_4484" data-name="Group 4484" transform="translate(431 2034)">
      <g id="Group_4779" data-name="Group 4779">
        <text id="هزینه_هاتو" data-name="هزینه هاتو" transform="translate(-0.173 28)" fill="#333" font-size="24" font-family="IRANSansWebFaNum, 'IRANSansWeb\(FaNum\)'"><tspan x="0" y="0">هزینه هاتو</tspan></text>
        <text id="نصف_کن" data-name="نصف کن" transform="translate(22.952 59)" fill="#fff" font-size="18" font-family="IRANSansWebFaNum, 'IRANSansWeb\(FaNum\)'"><tspan x="0" y="0">نصف کن</tspan></text>
      </g>
    </g>
  </g>
</svg>
