<svg xmlns="http://www.w3.org/2000/svg" xmlns:xlink="http://www.w3.org/1999/xlink" width="350" height="223" viewBox="0 0 350 223">
  <defs>
    <linearGradient id="linear-gradient" x1="1.034" y1="0.5" x2="-0.071" y2="0.5" gradientUnits="objectBoundingBox">
      <stop offset="0" stop-color="#9c2b50"/>
      <stop offset="1" stop-color="#e12360"/>
    </linearGradient>
    <linearGradient id="linear-gradient-2" x1="-3.726" y1="6.205" x2="-2.63" y2="6.205" gradientUnits="objectBoundingBox">
      <stop offset="0" stop-color="#f761a1"/>
      <stop offset="0.162" stop-color="#ed5aa1"/>
      <stop offset="0.429" stop-color="#d44aa4"/>
      <stop offset="0.766" stop-color="#ac30a7"/>
      <stop offset="1" stop-color="#8c1bab"/>
    </linearGradient>
  </defs>
  <g id="Group_4783" data-name="Group 4783" transform="translate(-641 -1970)">
    <rect id="Rectangle_6635" data-name="Rectangle 6635" width="350" height="223" rx="25" transform="translate(641 1970)" fill="url(#linear-gradient)"/>
    <g id="Web_design" data-name="Web design" transform="translate(668.583 2062.5)">
      <g id="Computer" transform="translate(128.679 15.584)">
        <path id="Shape" d="M949.056,863.069h22.6a2.133,2.133,0,0,0,2.223-2.014l-11.117-20.8h-22.6l6.114,20.8C946.833,863.4,947.834,863.069,949.056,863.069Z" transform="translate(-883.93 -766.595)" fill="#d8d6dd"/>
        <path id="Shape-2" data-name="Shape" d="M956.89,838.9H932.433l-7.041-22.818h20.567Z" transform="translate(-871.197 -745.444)" fill="#bfbfbf"/>
        <path id="Shape-3" data-name="Shape" d="M3.072,0H123.661a2.938,2.938,0,0,1,3.072,2.782V73.558a2.938,2.938,0,0,1-3.072,2.782H3.072A2.938,2.938,0,0,1,0,73.558V2.782A2.938,2.938,0,0,1,3.072,0Z" fill="#37474f"/>
        <path id="Shape-4" data-name="Shape" d="M0,0H118.581V57.885H0Z" transform="translate(4.076 5.369)" fill="#fff"/>
        <path id="Shape-5" data-name="Shape" d="M891.769,998.7H869.658c-1.1,0-2.007,1.38-2.007,3.068h26.125C893.776,1000.08,892.873,998.7,891.769,998.7Z" transform="translate(-821.423 -905.249)" fill="#d8d6dd"/>
      </g>
      <g id="Content" transform="translate(132.761 20.943)">
        <path id="Shape-6" data-name="Shape" d="M562.209,300.93l-.007-7.284H680.787v7.284Z" transform="translate(-562.202 -293.647)" fill="#f2f5f8"/>
        <path id="Shape-7" data-name="Shape" d="M622.368,308.477v-3.911h2.087c.262,0,.936-2.3,1.515-2.3h10.65c.577,0,1.257,2.315,1.52,2.315h1.528v3.9Z" transform="translate(-614.062 -301.188)" fill="#8f97b9" opacity="0.5"/>
        <path id="Shape-8" data-name="Shape" d="M820.569,308.477v-3.911h2.087c.262,0,.936-2.3,1.515-2.3h10.651c.576,0,1.257,2.315,1.519,2.315h1.528v3.9Z" transform="translate(-784.915 -301.188)" fill="#e0f5ff" opacity="0.5"/>
        <path id="Shape-9" data-name="Shape" d="M920.074,308.477v-3.911h2.087c.262,0,.936-2.3,1.515-2.3h10.65c.576,0,1.257,2.315,1.519,2.315h1.528v3.9Z" transform="translate(-870.691 -301.188)" fill="#e0f5ff" opacity="0.5"/>
        <path id="Shape-10" data-name="Shape" d="M562.226,308.477v-3.911h24.062c.262,0,.937-2.3,1.515-2.3h10.65c.577,0,1.257,2.315,1.52,2.315h80.838v3.9Z" transform="translate(-562.218 -301.188)" fill="#56557e"/>
        <g id="Shape-11" data-name="Shape" transform="translate(3.126 31.975)">
          <rect id="Rectangle_6010" data-name="Rectangle 6010" width="31.777" height="14.798" fill="#e5e8f5"/>
        </g>
        <path id="Shape-12" data-name="Shape" d="M.913,0H57.868a.873.873,0,0,1,.913.826.873.873,0,0,1-.913.826H.913A.873.873,0,0,1,0,.826.873.873,0,0,1,.913,0Z" transform="translate(13.896 21.483)" fill="#e5e8f5"/>
        <path id="Shape-13" data-name="Shape" d="M.913,0H69.271a.873.873,0,0,1,.913.826.873.873,0,0,1-.913.826H.913A.873.873,0,0,1,0,.826.873.873,0,0,1,.913,0Z" transform="translate(2.494 24.77)" fill="#e5e8f5"/>
        <path id="Shape-14" data-name="Shape" d="M.913,0H69.271a.873.873,0,0,1,.913.826.873.873,0,0,1-.913.826H.913A.873.873,0,0,1,0,.826.873.873,0,0,1,.913,0Z" transform="translate(2.494 18.151)" fill="#e5e8f5"/>
        <path id="Shape-15" data-name="Shape" d="M.913,0H55.772a.873.873,0,0,1,.913.826.873.873,0,0,1-.913.826H.913A.873.873,0,0,1,0,.826.873.873,0,0,1,.913,0Z" transform="translate(2.494 27.594)" fill="#e5e8f5"/>
        <path id="Shape-16" data-name="Shape" d="M.913,0H57.868a.873.873,0,0,1,.913.826.873.873,0,0,1-.913.826H.913A.873.873,0,0,1,0,.826.873.873,0,0,1,.913,0Z" transform="translate(13.896 48.994)" fill="#e5e8f5"/>
        <path id="Shape-17" data-name="Shape" d="M.913,0H69.271a.873.873,0,0,1,.913.826h0a.873.873,0,0,1-.913.826H.913A.873.873,0,0,1,0,.826.873.873,0,0,1,.913,0Z" transform="translate(2.494 52.281)" fill="#e5e8f5"/>
        <path id="Shape-18" data-name="Shape" d="M.913,0H55.772a.873.873,0,0,1,.913.826.873.873,0,0,1-.913.826H.913A.873.873,0,0,1,0,.826.873.873,0,0,1,.913,0Z" transform="translate(2.494 55.105)" fill="#e5e8f5"/>
        <rect id="Shape-19" data-name="Shape" width="76.53" height="4.574" transform="translate(0.011 7.295)" fill="#e5e8f5"/>
        <path id="Shape-20" data-name="Shape" d="M.913,0H24.952a.873.873,0,0,1,.913.826.873.873,0,0,1-.913.826H.913A.873.873,0,0,1,0,.826H0A.873.873,0,0,1,.913,0Z" transform="translate(46.642 32.011)" fill="#e5e8f5"/>
        <path id="Shape-21" data-name="Shape" d="M.913,0H24.952a.873.873,0,0,1,.913.826.873.873,0,0,1-.913.826H.913A.873.873,0,0,1,0,.826H0A.873.873,0,0,1,.913,0Z" transform="translate(46.824 14.801)" fill="#e5e8f5"/>
        <path id="Shape-22" data-name="Shape" d="M.913,0H34.149a.873.873,0,0,1,.913.826.873.873,0,0,1-.913.826H.913A.873.873,0,0,1,0,.826.873.873,0,0,1,.913,0Z" transform="translate(37.675 35.864)" fill="#e5e8f5"/>
        <path id="Shape-23" data-name="Shape" d="M.913,0H34.138a.873.873,0,0,1,.913.826.873.873,0,0,1-.913.826H.913A.873.873,0,0,1,0,.826.873.873,0,0,1,.913,0Z" transform="translate(37.675 39.152)" fill="#e5e8f5"/>
        <path id="Shape-24" data-name="Shape" d="M.913,0H34.138a.873.873,0,0,1,.913.826.873.873,0,0,1-.913.826H.913A.873.873,0,0,1,0,.826.873.873,0,0,1,.913,0Z" transform="translate(37.675 42.016)" fill="#e5e8f5"/>
        <path id="Shape-25" data-name="Shape" d="M.913,0H27.4a.873.873,0,0,1,.913.826.873.873,0,0,1-.913.826H.913A.873.873,0,0,1,0,.826H0A.873.873,0,0,1,.913,0Z" transform="translate(37.675 44.84)" fill="#e5e8f5"/>
        <g id="Shape-26" data-name="Shape" transform="translate(0.977 4.387)">
          <path id="Path_2245" data-name="Path 2245" d="M572.393,330.137h-2.02v.6l-1.089-.986,1.089-.986v.6h2.02Z" transform="translate(-569.285 -328.761)" fill="#8f97b9"/>
        </g>
        <g id="Shape-27" data-name="Shape" transform="translate(5.498 4.387)">
          <path id="Path_2246" data-name="Path 2246" d="M602.052,330.137h2.02v.6l1.089-.986-1.089-.986v.6h-2.02Z" transform="translate(-602.052 -328.761)" fill="#8f97b9"/>
        </g>
        <g id="Shape-28" data-name="Shape" transform="translate(10.448 4.439)">
          <path id="Path_4966" data-name="Path 4966" d="M1.185,0H91.453a1.133,1.133,0,0,1,1.185,1.073,1.133,1.133,0,0,1-1.185,1.073H1.185A1.133,1.133,0,0,1,0,1.073,1.133,1.133,0,0,1,1.185,0Z" fill="#8f97b9"/>
        </g>
        <g id="Shape-29" data-name="Shape" transform="translate(105.2 4.422)">
          <ellipse id="Ellipse_350" data-name="Ellipse 350" cx="1.219" cy="1.104" rx="1.219" ry="1.104" transform="translate(0 0)" fill="#8f97b9"/>
        </g>
        <g id="Shape-30" data-name="Shape" transform="translate(109.119 4.422)">
          <ellipse id="Ellipse_351" data-name="Ellipse 351" cx="1.219" cy="1.104" rx="1.219" ry="1.104" transform="translate(0 0)" fill="#8f97b9"/>
        </g>
        <g id="Shape-31" data-name="Shape" transform="translate(112.962 4.422)">
          <ellipse id="Ellipse_352" data-name="Ellipse 352" cx="1.219" cy="1.104" rx="1.219" ry="1.104" transform="translate(0 0)" fill="#8f97b9"/>
        </g>
        <ellipse id="Shape-32" data-name="Shape" cx="0.702" cy="0.635" rx="0.702" ry="0.635" transform="translate(1.367 0.975)" fill="#fa538d"/>
        <ellipse id="Shape-33" data-name="Shape" cx="0.702" cy="0.635" rx="0.702" ry="0.635" transform="translate(4.126 0.975)" fill="#fab353"/>
        <ellipse id="Shape-34" data-name="Shape" cx="0.702" cy="0.635" rx="0.702" ry="0.635" transform="translate(6.886 0.975)" fill="#9dc925"/>
        <g id="Shape-35" data-name="Shape" transform="translate(65.623 1.503)">
          <rect id="Rectangle_6024" data-name="Rectangle 6024" width="1.404" height="0.375" transform="translate(0 0.448)" fill="#e0f5ff"/>
          <rect id="Rectangle_6025" data-name="Rectangle 6025" width="0.414" height="1.271" transform="translate(0.495)" fill="#e0f5ff"/>
        </g>
        <path id="Shape-36" data-name="Shape" d="M.478.031.733.042,2.107,35.07l-.255-.011Z" transform="translate(2.737 32.413) rotate(-62.749)" fill="#fff"/>
        <path id="Shape-37" data-name="Shape" d="M.031.478,35.058,1.852l.011.255L.042.733Z" transform="translate(2.739 46.321) rotate(-27.257)" fill="#fff"/>
        <g id="Code" transform="translate(76.56 7.291)">
          <path id="Shape-38" data-name="Shape" d="M0,0H41.129V50.61H0Z" transform="translate(0.893)" fill="#56557e"/>
          <path id="Shape-39" data-name="Shape" d="M0,0H41.129V.97H0Z" transform="translate(0.893 15.709)" fill="#37474f"/>
          <path id="Shape-40" data-name="Shape" d="M0,0H1V50.61H0Z" fill="#37474f"/>
          <path id="Shape-41" data-name="Shape" d="M.629,0H11.171A.6.6,0,0,1,11.8.57a.6.6,0,0,1-.629.57H.629A.6.6,0,0,1,0,.57.6.6,0,0,1,.629,0Z" transform="translate(6.39 2.434)" fill="#8f97b9"/>
          <path id="Shape-42" data-name="Shape" d="M.629,0H9.547a.6.6,0,0,1,.629.57.6.6,0,0,1-.629.57H.629A.6.6,0,0,1,0,.57H0A.6.6,0,0,1,.629,0Z" transform="translate(2.317 4.62)" fill="#8f97b9"/>
          <path id="Shape-43" data-name="Shape" d="M.629,0H16.56a.6.6,0,0,1,.629.57.6.6,0,0,1-.629.57H.629A.6.6,0,0,1,0,.57H0A.6.6,0,0,1,.629,0Z" transform="translate(13.056 4.62)" fill="#8f97b9"/>
          <path id="Shape-44" data-name="Shape" d="M.629,0H5.993a.6.6,0,0,1,.629.57.6.6,0,0,1-.629.57H.629A.6.6,0,0,1,0,.57H0A.6.6,0,0,1,.629,0Z" transform="translate(2.145 7.163)" fill="#6fafd8"/>
          <path id="Shape-45" data-name="Shape" d="M.629,0H15.106a.6.6,0,0,1,.629.57.6.6,0,0,1-.629.57H.629A.6.6,0,0,1,0,.57.6.6,0,0,1,.629,0Z" transform="translate(15.342 9.52)" fill="#8f97b9"/>
          <path id="Shape-46" data-name="Shape" d="M.629,0h9.59a.6.6,0,0,1,.629.57.6.6,0,0,1-.629.57H.629A.6.6,0,0,1,0,.57.6.6,0,0,1,.629,0Z" transform="translate(3.398 9.52)" fill="#8f97b9"/>
          <path id="Shape-47" data-name="Shape" d="M.629,0h16.34A.6.6,0,0,1,17.6.57a.6.6,0,0,1-.629.57H.629A.6.6,0,0,1,0,.57H0A.6.6,0,0,1,.629,0Z" transform="translate(5.524 11.786)" fill="#8f97b9"/>
          <path id="Shape-48" data-name="Shape" d="M.629,0h9.437a.6.6,0,0,1,.629.57.6.6,0,0,1-.629.57H.629A.6.6,0,0,1,0,.57.6.6,0,0,1,.629,0Z" transform="translate(25.139 11.786)" fill="#8f97b9"/>
          <path id="Shape-49" data-name="Shape" d="M.629,0H20.82a.6.6,0,0,1,.629.57.6.6,0,0,1-.629.57H.629A.6.6,0,0,1,0,.57.6.6,0,0,1,.629,0Z" transform="translate(4.056 13.732)" fill="#8f97b9"/>
          <path id="Shape-50" data-name="Shape" d="M.629,0H5.993a.6.6,0,0,1,.629.57.6.6,0,0,1-.629.57H.629A.6.6,0,0,1,0,.57H0A.6.6,0,0,1,.629,0Z" transform="translate(2.145 18.633)" fill="#8f97b9"/>
          <path id="Shape-51" data-name="Shape" d="M.629,0H15.106a.6.6,0,0,1,.629.57.6.6,0,0,1-.629.57H.629A.6.6,0,0,1,0,.57.6.6,0,0,1,.629,0Z" transform="translate(15.342 20.99)" fill="#8f97b9"/>
          <path id="Shape-52" data-name="Shape" d="M.629,0h9.59a.6.6,0,0,1,.629.57.6.6,0,0,1-.629.57H.629A.6.6,0,0,1,0,.57.6.6,0,0,1,.629,0Z" transform="translate(3.398 20.99)" fill="#8f97b9"/>
          <path id="Shape-53" data-name="Shape" d="M.629,0h16.34A.6.6,0,0,1,17.6.57h0a.6.6,0,0,1-.629.57H.629A.6.6,0,0,1,0,.57.6.6,0,0,1,.629,0Z" transform="translate(5.524 23.256)" fill="#6fafd8"/>
          <path id="Shape-54" data-name="Shape" d="M.629,0h9.437a.6.6,0,0,1,.629.57h0a.6.6,0,0,1-.629.57H.629A.6.6,0,0,1,0,.57.6.6,0,0,1,.629,0Z" transform="translate(25.139 23.256)" fill="#8f97b9"/>
          <path id="Shape-55" data-name="Shape" d="M.629,0H20.82a.6.6,0,0,1,.629.57.6.6,0,0,1-.629.57H.629A.6.6,0,0,1,0,.57.6.6,0,0,1,.629,0Z" transform="translate(4.056 25.202)" fill="#8f97b9"/>
          <path id="Shape-56" data-name="Shape" d="M.629,0H3.4a.6.6,0,0,1,.629.57.6.6,0,0,1-.629.57H.629A.6.6,0,0,1,0,.57H0A.6.6,0,0,1,.629,0Z" transform="translate(26.848 25.202)" fill="#8f97b9"/>
          <path id="Shape-57" data-name="Shape" d="M.629,0H11.171A.6.6,0,0,1,11.8.57a.6.6,0,0,1-.629.57H.629A.6.6,0,0,1,0,.57H0A.6.6,0,0,1,.629,0Z" transform="translate(6.39 29.027)" fill="#8f97b9"/>
          <path id="Shape-58" data-name="Shape" d="M.629,0H9.547a.6.6,0,0,1,.629.57.6.6,0,0,1-.629.57H.629A.6.6,0,0,1,0,.57H0A.6.6,0,0,1,.629,0Z" transform="translate(2.317 30.713)" fill="#8f97b9"/>
          <path id="Shape-59" data-name="Shape" d="M.629,0H16.56a.6.6,0,0,1,.629.57.6.6,0,0,1-.629.57H.629A.6.6,0,0,1,0,.57.6.6,0,0,1,.629,0Z" transform="translate(13.056 30.713)" fill="#8f97b9"/>
          <path id="Shape-60" data-name="Shape" d="M.629,0H5.993a.6.6,0,0,1,.629.57.6.6,0,0,1-.629.57H.629A.6.6,0,0,1,0,.57H0A.6.6,0,0,1,.629,0Z" transform="translate(2.145 35.006)" fill="#8f97b9"/>
          <path id="Shape-61" data-name="Shape" d="M.629,0H15.106a.6.6,0,0,1,.629.57.6.6,0,0,1-.629.57H.629A.6.6,0,0,1,0,.57.6.6,0,0,1,.629,0Z" transform="translate(15.342 37.363)" fill="#8f97b9"/>
          <path id="Shape-62" data-name="Shape" d="M.629,0h9.59a.6.6,0,0,1,.629.57.6.6,0,0,1-.629.57H.629A.6.6,0,0,1,0,.57.6.6,0,0,1,.629,0Z" transform="translate(3.398 37.363)" fill="#6fafd8"/>
          <path id="Shape-63" data-name="Shape" d="M.629,0h16.34A.6.6,0,0,1,17.6.57a.6.6,0,0,1-.629.57H.629A.6.6,0,0,1,0,.57H0A.6.6,0,0,1,.629,0Z" transform="translate(5.524 39.628)" fill="#8f97b9"/>
          <path id="Shape-64" data-name="Shape" d="M.629,0h9.437a.6.6,0,0,1,.629.57h0a.6.6,0,0,1-.629.57H.629A.6.6,0,0,1,0,.57.6.6,0,0,1,.629,0Z" transform="translate(25.139 39.628)" fill="#8f97b9"/>
          <path id="Shape-65" data-name="Shape" d="M.629,0H20.82a.6.6,0,0,1,.629.57.6.6,0,0,1-.629.57H.629A.6.6,0,0,1,0,.57.6.6,0,0,1,.629,0Z" transform="translate(4.056 41.574)" fill="#8f97b9"/>
          <path id="Shape-66" data-name="Shape" d="M.629,0H3.4a.6.6,0,0,1,.629.57.6.6,0,0,1-.629.57H.629A.6.6,0,0,1,0,.57H0A.6.6,0,0,1,.629,0Z" transform="translate(26.848 41.574)" fill="#8f97b9"/>
          <path id="Shape-67" data-name="Shape" d="M.629,0H5.993a.6.6,0,0,1,.629.57.6.6,0,0,1-.629.57H.629A.6.6,0,0,1,0,.57.6.6,0,0,1,.629,0Z" transform="translate(2.145 45.226)" fill="#8f97b9"/>
          <path id="Shape-68" data-name="Shape" d="M.629,0H15.106a.6.6,0,0,1,.629.57.6.6,0,0,1-.629.57H.629A.6.6,0,0,1,0,.57.6.6,0,0,1,.629,0Z" transform="translate(15.342 47.583)" fill="#8f97b9"/>
          <path id="Shape-69" data-name="Shape" d="M.629,0h9.59a.6.6,0,0,1,.629.57.6.6,0,0,1-.629.57H.629A.6.6,0,0,1,0,.57.6.6,0,0,1,.629,0Z" transform="translate(3.398 47.583)" fill="#8f97b9"/>
        </g>
      </g>
      <g id="Person" transform="translate(41 34.011)">
        <path id="Shape-70" data-name="Shape" d="M331.051,491.725c.955-2.111-.79-1.892-1.35-1.635-.658.3-1.519,1.286-1.4,2.054,0,0-5.251,4.728-5.68,4.988a11.136,11.136,0,0,0-2.309,1.623l1.259,2.543c.232.061,1.744-.488,3.724-2.653a54.556,54.556,0,0,0,4.3-5.8C330.136,492.594,330.53,492.877,331.051,491.725Z" transform="translate(-289.24 -483.473)" fill="#ffdfae"/>
        <path id="Shape-71" data-name="Shape" d="M294.634,558.993a9.13,9.13,0,0,1-2.942,1.369c-1.711.686-3.674-.01-3.8-1.13-.091-.825,1.174-1.977,2.433-2.482,1.013-.406,1.913-1.221,2.855-1.017C293.32,555.763,295.045,558.6,294.634,558.993Z" transform="translate(-261.292 -541.025)" fill="url(#linear-gradient-2)"/>
        <path id="Shape-72" data-name="Shape" d="M.014.008l2.71.024.037,3.8L.051,3.806Z" transform="translate(29.23 67.588) rotate(-5.391)" fill="#ffdfae"/>
        <path id="Shape-73" data-name="Shape" d="M260.508,692.726c1.36-.969,6.9.513,6.9.513l1.993,17.193-.682,18.693-3.035.269-1.994-20.048S255.9,696.008,260.508,692.726Z" transform="translate(-236.432 -660.642)" fill="#37474f"/>
        <path id="Shape-74" data-name="Shape" d="M302.173,1015.48l9.593-.008a1.468,1.468,0,0,0-.2-.954l-9.157-.119Z" transform="translate(-273.605 -942.413)" fill="#676f91"/>
        <path id="Shape-75" data-name="Shape" d="M.051.038l2.5.093L2.7,4.26.2,4.167Z" transform="translate(9.28 41.697) rotate(113.104)" fill="#ffdfae"/>
        <path id="Shape-76" data-name="Shape" d="M158.8,695.907l5.795.7L156.446,711.6l-1.371,2.027a1.685,1.685,0,0,1-2.159.488l-13.107-6.988.9-2.816,11.365,3.791s1.93-8.668,3.255-10.668C156.918,695.035,158.8,695.907,158.8,695.907Z" transform="translate(-133.643 -663.578)" fill="#4d5b62"/>
        <path id="Shape-77" data-name="Shape" d="M98.822,748.945l-3.7,8.017a1.915,1.915,0,0,0,1.051.2l3.657-7.6Z" transform="translate(-95.126 -710.124)" fill="#676f91"/>
        <path id="Shape-78" data-name="Shape" d="M98.307,758.984c1.115-.162,1.664-1.82,3.266-2.449a2.157,2.157,0,0,0,1.44-1.432s-1.044-.862-.425-1.852c.3-.477.68-.211.992-.429a.334.334,0,0,0,.127-.387l-2.324-1.406-3.783,7.9a1.4,1.4,0,0,0,.707.06Z" transform="translate(-97.256 -711.949)" fill="#8f97b9"/>
        <path id="Shape-79" data-name="Shape" d="M312.181,998.152c-.6-.869-2.5-.687-3.755-1.783a2.49,2.49,0,0,0-2.015-.65,1.721,1.721,0,0,1-1.722,1.07c-.6-.065-.478-.487-.82-.663a.425.425,0,0,0-.443.044l-.535,2.484,9.5.114a1.089,1.089,0,0,0-.21-.616Z" transform="translate(-274.224 -926.044)" fill="#8f97b9"/>
        <path id="Shape-80" data-name="Shape" d="M273.4,527.9l-3.361-1.056,1.683-4.394,1.68.528Z" transform="translate(-245.905 -511.928)" fill="#ffdfae"/>
        <path id="Shape-81" data-name="Shape" d="M273.81,525.485l1.163-3.036,1.681.528v2.005Z" transform="translate(-249.155 -511.928)" fill="#f4ca92"/>
        <path id="Shape-82" data-name="Shape" d="M260.5,552.554c.793-.583,2.784-.467,4.016-.326l.61.07s2.819,2.158,3.269,4.434c.682,3.453,1.267,9.887-1.354,14.238-.192.319-8.517.04-8.146-.478C260.456,568.306,256.409,555.558,260.5,552.554Z" transform="translate(-236.046 -537.887)" fill="#92aed9"/>
        <path id="Shape-83" data-name="Shape" d="M262.151,480.231c.7,2.919-1.074,4.073-4.228,3.121-1.865-.563-2.534-2.148-1.635-4.591A3.542,3.542,0,0,1,261,476.41C262.87,476.973,261.653,478.152,262.151,480.231Z" transform="translate(-233.709 -471.454)" fill="#ffdfae"/>
        <path id="Shape-84" data-name="Shape" d="M.328.536l34.8,1.484.794,17.759L1.122,18.3Z" transform="translate(23.084 16.959) rotate(-30.854)" fill="#bbc0d6"/>
        <g id="Object" transform="translate(21.793)">
          <path id="Shape-85" data-name="Shape" d="M.329.558,36.552,2.1l.794,17.758L1.123,18.316Z" transform="translate(0 16.941) rotate(-30.854)" fill="#fff"/>
          <path id="Shape-86" data-name="Shape" d="M329.445,491.752l-4.285,10.306-8.437,1.1L313.091,514l2.071,3.155L347.055,499.9l-5.073-7.7Z" transform="translate(-304.808 -485.067)" fill="#e5e8f5"/>
          <ellipse id="Shape-87" data-name="Shape" cx="1.207" cy="1.093" rx="1.207" ry="1.093" transform="translate(12.616 12.694)" fill="#e5e8f5"/>
        </g>
        <path id="Shape-88" data-name="Shape" d="M268.2,610.367c1.271.473,2.588.1,2.675-.461.1-.625-.3-.425-.7-.172a3.75,3.75,0,0,1-1.841-1.114,1.883,1.883,0,0,0-.975-.849s-3.682-8.536-6.531-9.312c-.458-.125-1.565.824-1.565.824a2.652,2.652,0,0,0,.48,2.061l6.418,7.165a3.11,3.11,0,0,0,2.039,1.858Z" transform="translate(-236.55 -578.431)" fill="#ffdfae"/>
        <path id="Shape-89" data-name="Shape" d="M254.315,570.164a7.312,7.312,0,0,1-.687-2.93c-.281-1.675.974-3.208,2.2-3.022.9.137,1.8,1.545,2.006,2.777.167.992.8,1.991.335,2.762C258.1,569.864,254.625,570.626,254.315,570.164Z" transform="translate(-231.723 -548.46)" fill="#92aed9"/>
        <path id="Shape-90" data-name="Shape" d="M196.145,471.687c-.464.312.133-1.231-.644-1.094-.941.166,1.272,2.753.124,4.248-1.221,1.59,1.69,5.337-1.759,7.618-5,3.309-6.434.108-11.4.6-1.507.148-1.5-6.5,5.016-7.9,1.375-.294.653-1.727,2.325-2.819,1.024-.67.746-2.513,1.027-3.451,1.084-3.612,4.128-2.123,6.179-2.031,1.687.075,2.134,3.263-.765,3.373C196.056,470.236,196.3,471.584,196.145,471.687Z" transform="translate(-169.708 -462.948)" fill="#f9b25f"/>
        <path id="Shape-91" data-name="Shape" d="M385.93,491.111c.124.3-.24.715-.843.948s-1.2.187-1.34-.1.24-.715.843-.949S385.743,490.667,385.93,491.111Z" transform="translate(-343.899 -484.238)" fill="#ffdfae"/>
      </g>
      <g id="Bubbles" transform="translate(97.618)">
        <g id="Content-2" data-name="Content" transform="translate(129.071 83.823)">
          <ellipse id="Shape-92" data-name="Shape" cx="13.824" cy="12.519" rx="13.824" ry="12.519" transform="translate(0 0)" fill="#a25d91"/>
          <path id="Path_2335" data-name="Path 2335" d="M1266.41,880.151h-.985v-2.08h-2.464v2.08h-.986v-4.758h.986v2.047h2.464v-2.047h.985Z" transform="translate(-1258.068 -865.254)" fill="#fff"/>
          <path id="Path_2336" data-name="Path 2336" d="M1307.82,875.393v.727h-1.581v4.031h-.978V876.12h-1.588v-.727Z" transform="translate(-1294.716 -865.254)" fill="#fff"/>
          <path id="Path_2337" data-name="Path 2337" d="M1345.79,878.4c.035.076.07.152.1.229q.051-.118.1-.234c.036-.077.075-.15.116-.221l1.555-2.636a.365.365,0,0,1,.06-.079.188.188,0,0,1,.069-.043.341.341,0,0,1,.085-.016h.851v4.758h-.861v-3.074c0-.057,0-.119.005-.188s.009-.137.016-.207l-1.588,2.7a.382.382,0,0,1-.345.194h-.134a.4.4,0,0,1-.2-.051.386.386,0,0,1-.142-.143l-1.61-2.708c.009.072.016.143.02.212s.005.133.005.193v3.074h-.861V875.4h.851a.34.34,0,0,1,.085.016.2.2,0,0,1,.071.043.344.344,0,0,1,.062.079l1.569,2.642a2.379,2.379,0,0,1,.116.218Z" transform="translate(-1329.307 -865.254)" fill="#fff"/>
          <path id="Path_2338" data-name="Path 2338" d="M1399.81,879.421h2.1v.731h-3.082v-4.758h.978Z" transform="translate(-1378.347 -865.254)" fill="#fff"/>
        </g>
        <g id="Content-3" data-name="Content" transform="translate(55.179 88.788)">
          <ellipse id="Shape-93" data-name="Shape" cx="7.783" cy="7.048" rx="7.783" ry="7.048" transform="translate(0 0)" fill="#f9b25f"/>
          <path id="Path_2339" data-name="Path 2339" d="M726.731,878.4a.163.163,0,0,1,.116.047l.324.318a1.771,1.771,0,0,1-.661.462,2.491,2.491,0,0,1-.943.16,2.429,2.429,0,0,1-.885-.152,1.958,1.958,0,0,1-.671-.423,1.825,1.825,0,0,1-.426-.647,2.228,2.228,0,0,1-.148-.822,2.026,2.026,0,0,1,.165-.826,1.885,1.885,0,0,1,.464-.646,2.137,2.137,0,0,1,.717-.422,2.691,2.691,0,0,1,.921-.151,2.376,2.376,0,0,1,.86.143,2.039,2.039,0,0,1,.631.378l-.275.346a.236.236,0,0,1-.063.058.19.19,0,0,1-.1.025.255.255,0,0,1-.144-.05,1.794,1.794,0,0,0-.186-.108,1.734,1.734,0,0,0-1.3-.06,1.29,1.29,0,0,0-.449.281,1.274,1.274,0,0,0-.293.444,1.56,1.56,0,0,0-.105.588,1.6,1.6,0,0,0,.1.6,1.3,1.3,0,0,0,.286.443,1.222,1.222,0,0,0,.425.275,1.432,1.432,0,0,0,.526.1,2.526,2.526,0,0,0,.3-.017,1.387,1.387,0,0,0,.251-.053,1.155,1.155,0,0,0,.217-.093,1.319,1.319,0,0,0,.2-.14.3.3,0,0,1,.064-.04A.173.173,0,0,1,726.731,878.4Z" transform="translate(-720.86 -869.796)" fill="#fff"/>
          <path id="Path_2340" data-name="Path 2340" d="M757.7,876.073a.188.188,0,0,1-.183.111.287.287,0,0,1-.138-.043l-.18-.1a1.548,1.548,0,0,0-.243-.1,1.112,1.112,0,0,0-.328-.043,1.061,1.061,0,0,0-.3.037.649.649,0,0,0-.214.1.421.421,0,0,0-.13.159.482.482,0,0,0-.043.2.333.333,0,0,0,.087.235.719.719,0,0,0,.231.161,2.279,2.279,0,0,0,.327.119q.183.053.374.112a3.873,3.873,0,0,1,.374.138,1.308,1.308,0,0,1,.327.2.9.9,0,0,1,.231.295.936.936,0,0,1,.087.423,1.262,1.262,0,0,1-.1.508,1.172,1.172,0,0,1-.3.412,1.435,1.435,0,0,1-.481.276,1.937,1.937,0,0,1-.651.1,2.307,2.307,0,0,1-.416-.037,2.342,2.342,0,0,1-.393-.107,2.135,2.135,0,0,1-.351-.166,1.705,1.705,0,0,1-.292-.216l.239-.357a.3.3,0,0,1,.081-.065.212.212,0,0,1,.1-.026.311.311,0,0,1,.165.057c.059.038.129.08.209.126a1.692,1.692,0,0,0,.284.126,1.2,1.2,0,0,0,.392.057.863.863,0,0,0,.544-.151.518.518,0,0,0,.193-.433.376.376,0,0,0-.087-.257.7.7,0,0,0-.231-.167,1.808,1.808,0,0,0-.327-.115q-.183-.047-.373-.1a3.324,3.324,0,0,1-.373-.133,1.223,1.223,0,0,1-.327-.2.926.926,0,0,1-.231-.311,1.09,1.09,0,0,1-.087-.461,1.007,1.007,0,0,1,.1-.426,1.1,1.1,0,0,1,.281-.368A1.418,1.418,0,0,1,756,875.4a1.806,1.806,0,0,1,.614-.1,2.254,2.254,0,0,1,.721.111,1.665,1.665,0,0,1,.562.31Z" transform="translate(-748.401 -869.796)" fill="#fff"/>
          <path id="Path_2341" data-name="Path 2341" d="M783.453,876.073a.189.189,0,0,1-.183.111.287.287,0,0,1-.138-.043l-.18-.1a1.548,1.548,0,0,0-.243-.1,1.114,1.114,0,0,0-.328-.043,1.061,1.061,0,0,0-.3.037.655.655,0,0,0-.214.1.424.424,0,0,0-.13.159.477.477,0,0,0-.043.2.332.332,0,0,0,.087.235.72.72,0,0,0,.231.161,2.253,2.253,0,0,0,.327.119q.183.053.374.112a3.819,3.819,0,0,1,.374.138,1.308,1.308,0,0,1,.327.2.909.909,0,0,1,.231.295.937.937,0,0,1,.087.423,1.264,1.264,0,0,1-.1.508,1.168,1.168,0,0,1-.3.412,1.439,1.439,0,0,1-.482.276,1.935,1.935,0,0,1-.651.1,2.3,2.3,0,0,1-.416-.037,2.347,2.347,0,0,1-.393-.107,2.128,2.128,0,0,1-.352-.166,1.718,1.718,0,0,1-.292-.216l.238-.357a.3.3,0,0,1,.081-.065.214.214,0,0,1,.106-.026.31.31,0,0,1,.165.057c.059.038.129.08.209.126a1.7,1.7,0,0,0,.284.126,1.2,1.2,0,0,0,.393.057.864.864,0,0,0,.544-.151.518.518,0,0,0,.193-.433.376.376,0,0,0-.087-.257.7.7,0,0,0-.231-.167,1.82,1.82,0,0,0-.327-.115q-.184-.047-.373-.1a3.3,3.3,0,0,1-.373-.133,1.221,1.221,0,0,1-.327-.2.924.924,0,0,1-.231-.311,1.09,1.09,0,0,1-.087-.461,1,1,0,0,1,.1-.426,1.092,1.092,0,0,1,.282-.368,1.416,1.416,0,0,1,.453-.257,1.807,1.807,0,0,1,.614-.1,2.252,2.252,0,0,1,.721.111,1.665,1.665,0,0,1,.563.31Z" transform="translate(-770.874 -869.796)" fill="#fff"/>
        </g>
        <g id="Content-4" data-name="Content" transform="translate(15.424 82.497)">
          <ellipse id="Shape-94" data-name="Shape" cx="16.532" cy="14.97" rx="16.532" ry="14.97" transform="translate(0 0)" fill="#8fba73"/>
          <path id="Path_2342" data-name="Path 2342" d="M436.869,873.6l-2.65-3.653h1.54a.516.516,0,0,1,.233.039.371.371,0,0,1,.129.127l1.891,2.764c.019-.045.04-.089.063-.133a1.454,1.454,0,0,1,.08-.133l1.73-2.472a.379.379,0,0,1,.328-.193H441.7l-2.678,3.6,2.753,3.93h-1.546a.4.4,0,0,1-.25-.073.721.721,0,0,1-.158-.167l-1.925-2.883a.967.967,0,0,1-.052.117c-.019.036-.038.07-.057.1l-1.845,2.665a.869.869,0,0,1-.155.164.352.352,0,0,1-.23.075H434.1Z" transform="translate(-429.684 -858.15)" fill="#fff"/>
          <path id="Path_2343" data-name="Path 2343" d="M513.056,874.7q.083.179.164.361.081-.187.167-.37t.184-.348l2.46-4.169a.574.574,0,0,1,.095-.125.293.293,0,0,1,.109-.068.53.53,0,0,1,.135-.026c.05,0,.109,0,.178,0h1.167v7.526h-1.362v-4.861q0-.135.009-.3t.026-.328l-2.512,4.268a.6.6,0,0,1-.546.307h-.213a.6.6,0,0,1-.546-.307l-2.546-4.283q.023.172.032.336c.006.109.009.211.009.3v4.861H508.7v-7.526h1.167q.1,0,.178.005a.53.53,0,0,1,.135.026.32.32,0,0,1,.112.068.53.53,0,0,1,.1.125l2.483,4.179C512.94,874.46,513,874.575,513.056,874.7Z" transform="translate(-495.707 -858.15)" fill="#fff"/>
          <path id="Path_2344" data-name="Path 2344" d="M603.247,876.316h3.328v1.155H601.7v-7.526h1.546Z" transform="translate(-578.016 -858.15)" fill="#fff"/>
        </g>
        <g id="Content-5" data-name="Content" transform="translate(80.481)">
          <ellipse id="Shape-95" data-name="Shape" cx="10.487" cy="9.496" rx="10.487" ry="9.496" transform="translate(0 0)" fill="#ff6369"/>
          <path id="Path_2345" data-name="Path 2345" d="M426.142,216.682v1.754h-1.024v-4.983h1.792a3.45,3.45,0,0,1,.955.117,1.9,1.9,0,0,1,.666.327,1.289,1.289,0,0,1,.388.5,1.708,1.708,0,0,1-.008,1.3,1.387,1.387,0,0,1-.4.519,1.926,1.926,0,0,1-.666.338,3.252,3.252,0,0,1-.936.12Zm0-.724h.769a1.688,1.688,0,0,0,.491-.064.936.936,0,0,0,.346-.183.746.746,0,0,0,.206-.289,1.014,1.014,0,0,0,.068-.381.921.921,0,0,0-.068-.362.718.718,0,0,0-.206-.276.948.948,0,0,0-.346-.174,1.788,1.788,0,0,0-.491-.06h-.769Z" transform="translate(-421.935 -206.395)" fill="#fff"/>
          <path id="Path_2346" data-name="Path 2346" d="M466.991,218.436H465.96v-2.178h-2.58v2.178h-1.031v-4.983h1.031V215.6h2.58v-2.143h1.031Z" transform="translate(-454.443 -206.395)" fill="#fff"/>
          <path id="Path_2347" data-name="Path 2347" d="M509,216.682v1.754h-1.024v-4.983h1.792a3.447,3.447,0,0,1,.955.117,1.9,1.9,0,0,1,.666.327,1.288,1.288,0,0,1,.388.5,1.71,1.71,0,0,1-.007,1.3,1.391,1.391,0,0,1-.4.519,1.926,1.926,0,0,1-.666.338,3.254,3.254,0,0,1-.936.12Zm0-.724h.769a1.688,1.688,0,0,0,.491-.064.937.937,0,0,0,.346-.183.749.749,0,0,0,.206-.289,1.016,1.016,0,0,0,.068-.381.923.923,0,0,0-.068-.362.721.721,0,0,0-.206-.276.949.949,0,0,0-.346-.174,1.787,1.787,0,0,0-.491-.06H509Z" transform="translate(-494.284 -206.395)" fill="#fff"/>
        </g>
        <g id="Content-6" data-name="Content" transform="translate(0 6.54)">
          <ellipse id="Shape-96" data-name="Shape" cx="13.758" cy="12.459" rx="13.758" ry="12.459" transform="translate(0 0)" fill="#8765db"/>
          <path id="Path_2348" data-name="Path 2348" d="M296.147,335.66a2.713,2.713,0,0,1-.131.872,1.766,1.766,0,0,1-.392.662,1.717,1.717,0,0,1-.65.42,2.568,2.568,0,0,1-.906.147,4.121,4.121,0,0,1-.464-.026,4.571,4.571,0,0,1-.477-.081l.061-.634a.2.2,0,0,1,.072-.141.282.282,0,0,1,.186-.054.909.909,0,0,1,.2.028,1.391,1.391,0,0,0,.3.028,1.374,1.374,0,0,0,.442-.066.751.751,0,0,0,.322-.208.924.924,0,0,0,.2-.371,2.016,2.016,0,0,0,.066-.553v-3.718h1.177Z" transform="translate(-289.628 -322.437)" fill="#fff"/>
          <path id="Path_2349" data-name="Path 2349" d="M326.954,337.7h-.91a.426.426,0,0,1-.252-.069.4.4,0,0,1-.142-.172l-.473-1.169h-2.622l-.473,1.169a.382.382,0,0,1-.138.166.415.415,0,0,1-.252.075h-.915l2.486-5.732h1.2Zm-4.1-2.164h2.018l-.77-1.907q-.053-.127-.116-.3t-.125-.375q-.061.2-.12.377t-.116.3Z" transform="translate(-313.82 -322.437)" fill="#fff"/>
          <path id="Path_2350" data-name="Path 2350" d="M364.492,331.966h.95a.428.428,0,0,1,.25.067.422.422,0,0,1,.144.175l1.488,3.5q.075.17.142.375t.129.43a4.564,4.564,0,0,1,.25-.8l1.484-3.5a.42.42,0,0,1,.14-.167.4.4,0,0,1,.25-.075h.95l-2.556,5.732h-1.064Z" transform="translate(-352.068 -322.437)" fill="#fff"/>
          <path id="Path_2351" data-name="Path 2351" d="M414.524,337.7h-.911a.427.427,0,0,1-.252-.069.4.4,0,0,1-.142-.172l-.473-1.169h-2.622l-.473,1.169a.383.383,0,0,1-.138.166.415.415,0,0,1-.252.075h-.915l2.487-5.732h1.2Zm-4.1-2.164h2.018l-.77-1.907q-.052-.127-.116-.3t-.125-.375q-.061.2-.12.377t-.116.3Z" transform="translate(-390.437 -322.437)" fill="#fff"/>
        </g>
      </g>
    </g>
    <text id="طراحی_سایت" data-name="طراحی سایت" transform="translate(757.494 2006)" fill="#333" font-size="22" font-family="IRANSansWebFaNum, 'IRANSansWeb\(FaNum\)'"><tspan x="0" y="0">طراحی سایت</tspan></text>
    <text id="را_به_ما_بسپار" data-name="را به ما بسپار" transform="translate(770.569 2041)" fill="#fff" font-size="18" font-family="IRANSansWebFaNum, 'IRANSansWeb\(FaNum\)'"><tspan x="0" y="0">را به ما بسپار</tspan></text>
  </g>
</svg>
