<svg xmlns="http://www.w3.org/2000/svg" xmlns:xlink="http://www.w3.org/1999/xlink" width="350" height="223" viewBox="0 0 350 223">
  <defs>
    <linearGradient id="linear-gradient" x1="-0.375" y1="0.56" x2="1.114" y2="0.555" gradientUnits="objectBoundingBox">
      <stop offset="0" stop-color="#89c444"/>
      <stop offset="1" stop-color="#bbeb19"/>
    </linearGradient>
    <linearGradient id="linear-gradient-2" y1="0.5" x2="1" y2="0.5" gradientUnits="objectBoundingBox">
      <stop offset="0" stop-color="#f8bbd0"/>
      <stop offset="0.102" stop-color="#f8b0c4"/>
      <stop offset="0.286" stop-color="#f994a5"/>
      <stop offset="0.529" stop-color="#fb6772"/>
      <stop offset="0.82" stop-color="#fd292e"/>
      <stop offset="1" stop-color="red"/>
    </linearGradient>
    <linearGradient id="linear-gradient-3" y1="0.5" x2="1" y2="0.5" gradientUnits="objectBoundingBox">
      <stop offset="0" stop-color="#f8bbd0"/>
      <stop offset="0.133" stop-color="#f8bac4"/>
      <stop offset="0.372" stop-color="#f8b7a5"/>
      <stop offset="0.686" stop-color="#f9b473"/>
      <stop offset="1" stop-color="#fbb03b"/>
    </linearGradient>
    <linearGradient id="linear-gradient-4" y1="0.5" x2="1" y2="0.5" gradientUnits="objectBoundingBox">
      <stop offset="0" stop-color="#cce0f4"/>
      <stop offset="0.12" stop-color="#b7d9d4"/>
      <stop offset="0.262" stop-color="#a3d2b7"/>
      <stop offset="0.413" stop-color="#94cda0"/>
      <stop offset="0.576" stop-color="#89c990"/>
      <stop offset="0.758" stop-color="#83c787"/>
      <stop offset="1" stop-color="#81c784"/>
    </linearGradient>
    <linearGradient id="linear-gradient-5" x1="1.029" y1="0.541" x2="-0.25" y2="0.541" gradientUnits="objectBoundingBox">
      <stop offset="0" stop-color="#fff"/>
      <stop offset="0.271" stop-color="#fdf8e3" stop-opacity="0.267"/>
      <stop offset="0.483" stop-color="#fbebac" stop-opacity="0.102"/>
      <stop offset="0.712" stop-color="#fdf5d7" stop-opacity="0.047"/>
      <stop offset="1" stop-color="#fff" stop-opacity="0"/>
    </linearGradient>
  </defs>
  <g id="Group_4788" data-name="Group 4788" transform="translate(-41 -2229)">
    <g id="Group_4786" data-name="Group 4786" transform="translate(41 2229)">
      <rect id="Rectangle_6633" data-name="Rectangle 6633" width="350" height="223" rx="25" fill="url(#linear-gradient)"/>
    </g>
    <g id="Responsive_web_design" data-name="Responsive web design" transform="translate(48.209 2271)">
      <g id="Computer" transform="translate(19.112)">
        <ellipse id="Shape" cx="1.032" cy="1.156" rx="1.032" ry="1.156" transform="translate(46.047 13.904)" fill="url(#linear-gradient-2)"/>
        <ellipse id="Shape-2" data-name="Shape" cx="1.032" cy="1.156" rx="1.032" ry="1.156" transform="translate(50.106 13.904)" fill="url(#linear-gradient-3)"/>
        <ellipse id="Shape-3" data-name="Shape" cx="1.032" cy="1.156" rx="1.032" ry="1.156" transform="translate(54.164 13.904)" fill="url(#linear-gradient-4)"/>
        <path id="Shape-4" data-name="Shape" d="M0,0H24.108V29.017H0Z" transform="translate(68.178 108.391)" fill="#bfbfbf"/>
        <path id="Shape-5" data-name="Shape" d="M730.093,899.085v-3.147c0-2.387,2.815-4.341,6.256-4.341H773.91c3.441,0,6.256,1.953,6.256,4.341v3.147Z" transform="translate(-674.898 -761.678)" fill="#d8d6dd"/>
        <path id="Shape-6" data-name="Shape" d="M2.639,0H157.824a2.811,2.811,0,0,1,2.639,2.956V111.238a2.811,2.811,0,0,1-2.639,2.956H2.639A2.811,2.811,0,0,1,0,111.238V2.956A2.811,2.811,0,0,1,2.639,0Z" fill="#37474f"/>
        <path id="Shape-7" data-name="Shape" d="M0,0H151.024V85.926H0Z" transform="translate(4.72 5.803)" fill="#fff"/>
        <rect id="Shape-8" data-name="Shape" width="110.075" height="85.926" transform="translate(21.869 5.803)" fill="#fff" opacity="0.8"/>
        <g id="Content" transform="translate(4.718 5.793)">
          <path id="Shape-9" data-name="Shape" d="M449.581,287.143l-.009-11.477H600.647v11.477Z" transform="translate(-449.571 -275.667)" fill="#f2f5f8"/>
          <path id="Shape-10" data-name="Shape" d="M508.35,293.873l-.006-6.162H511c.334,0,1.193-3.623,1.93-3.623H526.5c.734,0,1.6,3.648,1.936,3.647h1.947v6.145Z" transform="translate(-497.768 -282.388)" fill="#56557e" opacity="0.5"/>
          <path id="Shape-11" data-name="Shape" d="M701.977,293.873l-.006-6.162h2.659c.334,0,1.193-3.623,1.93-3.623h13.568c.735,0,1.6,3.648,1.936,3.647h1.947v6.145Z" transform="translate(-656.554 -282.388)" fill="#56557e" opacity="0.5"/>
          <path id="Shape-12" data-name="Shape" d="M799.185,293.873l-.006-6.162h2.659c.334,0,1.193-3.623,1.93-3.623h13.568c.734,0,1.6,3.648,1.936,3.647h1.947v6.145Z" transform="translate(-736.271 -282.388)" fill="#56557e" opacity="0.5"/>
          <path id="Shape-13" data-name="Shape" d="M449.6,293.873l-.006-6.162H480.25c.334,0,1.193-3.623,1.93-3.623h13.568c.735,0,1.6,3.648,1.936,3.647H600.67v6.145Z" transform="translate(-449.586 -282.388)" fill="#56557e"/>
          <g id="Shape-14" data-name="Shape" transform="translate(28.953 39.468)">
            <path id="Path_4969" data-name="Path 4969" d="M0,0H40.483V23.316H0Z" fill="#e5e8f5"/>
          </g>
          <path id="Shape-15" data-name="Shape" d="M1.163,0h72.56a1.238,1.238,0,0,1,1.163,1.3,1.238,1.238,0,0,1-1.163,1.3H1.163A1.238,1.238,0,0,1,0,1.3H0A1.238,1.238,0,0,1,1.163,0Z" transform="translate(42.674 28.727)" fill="#e5e8f5"/>
          <path id="Shape-16" data-name="Shape" d="M1.406,0h50.16a1.5,1.5,0,0,1,1.406,1.575A1.5,1.5,0,0,1,51.566,3.15H1.406A1.5,1.5,0,0,1,0,1.575,1.5,1.5,0,0,1,1.406,0Z" transform="translate(53.007 21.892)" fill="#e5e8f5"/>
          <path id="Shape-17" data-name="Shape" d="M1.163,0H88.25a1.238,1.238,0,0,1,1.163,1.3A1.238,1.238,0,0,1,88.25,2.6H1.163A1.238,1.238,0,0,1,0,1.3,1.238,1.238,0,0,1,1.163,0Z" transform="translate(28.148 33.907)" fill="#e5e8f5"/>
          <path id="Shape-18" data-name="Shape" d="M0,0H151.083V7.207H0Z" transform="translate(0 11.495)" fill="#e5e8f5"/>
          <path id="Shape-19" data-name="Shape" d="M1.163,0H31.788a1.238,1.238,0,0,1,1.163,1.3,1.238,1.238,0,0,1-1.163,1.3H1.163A1.238,1.238,0,0,1,0,1.3,1.238,1.238,0,0,1,1.163,0Z" transform="translate(85.555 39.526)" fill="#e5e8f5"/>
          <path id="Shape-20" data-name="Shape" d="M1.163,0H43.5a1.238,1.238,0,0,1,1.163,1.3A1.238,1.238,0,0,1,43.5,2.6H1.163A1.238,1.238,0,0,1,0,1.3,1.238,1.238,0,0,1,1.163,0Z" transform="translate(74.132 45.596)" fill="#e5e8f5"/>
          <path id="Shape-21" data-name="Shape" d="M1.163,0H43.492a1.238,1.238,0,0,1,1.163,1.3h0a1.238,1.238,0,0,1-1.163,1.3H1.163A1.238,1.238,0,0,1,0,1.3,1.238,1.238,0,0,1,1.163,0Z" transform="translate(74.132 50.777)" fill="#e5e8f5"/>
          <path id="Shape-22" data-name="Shape" d="M1.163,0H43.492a1.238,1.238,0,0,1,1.163,1.3h0a1.238,1.238,0,0,1-1.163,1.3H1.163A1.238,1.238,0,0,1,0,1.3,1.238,1.238,0,0,1,1.163,0Z" transform="translate(74.132 55.29)" fill="#e5e8f5"/>
          <path id="Shape-23" data-name="Shape" d="M1.163,0H34.9a1.238,1.238,0,0,1,1.163,1.3A1.238,1.238,0,0,1,34.9,2.6H1.163A1.238,1.238,0,0,1,0,1.3H0A1.238,1.238,0,0,1,1.163,0Z" transform="translate(74.132 59.74)" fill="#e5e8f5"/>
          <g id="Shape-24" data-name="Shape" transform="translate(1.246 6.913)">
            <path id="Path_2410" data-name="Path 2410" d="M460.451,312.139h-2.573v.939l-1.387-1.554,1.387-1.554v.939h2.573Z" transform="translate(-456.491 -309.97)" fill="#fff"/>
          </g>
          <g id="Shape-25" data-name="Shape" transform="translate(7.006 6.913)">
            <path id="Path_2411" data-name="Path 2411" d="M488.5,312.139h2.573v.939l1.387-1.554-1.387-1.554v.939H488.5Z" transform="translate(-488.502 -309.97)" fill="#fff"/>
          </g>
          <g id="Shape-26" data-name="Shape" transform="translate(13.311 7.487)">
            <rect id="Rectangle_6578" data-name="Rectangle 6578" width="118.019" height="2.641" rx="1.32" fill="#e5e8f5"/>
          </g>
          <g id="Shape-27" data-name="Shape" transform="translate(134.023 6.968)">
            <ellipse id="Ellipse_388" data-name="Ellipse 388" cx="1.553" cy="1.739" rx="1.553" ry="1.739" transform="translate(0 0)" fill="#e5e8f5"/>
          </g>
          <g id="Shape-28" data-name="Shape" transform="translate(139.016 6.968)">
            <ellipse id="Ellipse_389" data-name="Ellipse 389" cx="1.553" cy="1.739" rx="1.553" ry="1.739" transform="translate(0 0)" fill="#e5e8f5"/>
          </g>
          <g id="Shape-29" data-name="Shape" transform="translate(143.912 6.968)">
            <ellipse id="Ellipse_390" data-name="Ellipse 390" cx="1.553" cy="1.739" rx="1.553" ry="1.739" transform="translate(0 0)" fill="#e5e8f5"/>
          </g>
          <ellipse id="Shape-30" data-name="Shape" cx="0.894" cy="1.001" rx="0.894" ry="1.001" transform="translate(1.742 1.536)" fill="#fa538d"/>
          <ellipse id="Shape-31" data-name="Shape" cx="0.894" cy="1.001" rx="0.894" ry="1.001" transform="translate(5.258 1.536)" fill="#fab353"/>
          <ellipse id="Shape-32" data-name="Shape" cx="0.894" cy="1.001" rx="0.894" ry="1.001" transform="translate(8.774 1.536)" fill="#9dc926"/>
          <g id="Shape-33" data-name="Shape" transform="translate(83.603 2.368)">
            <rect id="Rectangle_6579" data-name="Rectangle 6579" width="1.788" height="0.605" transform="translate(0 0.699)" fill="#e0f5ff"/>
            <rect id="Rectangle_6580" data-name="Rectangle 6580" width="0.54" height="2.003" transform="translate(0.624)" fill="#e0f5ff"/>
          </g>
          <path id="Shape-34" data-name="Shape" d="M8.728,1.566l.394-.018-2.2,46.2-.394.018Z" transform="translate(23.557 46.661) rotate(-62.749)" fill="#fff"/>
          <path id="Shape-35" data-name="Shape" d="M1.566,8.729l46.2-2.2-.018.394-46.2,2.2Z" transform="translate(23.557 55.534) rotate(-27.257)" fill="#fff"/>
          <g id="Shape-36" data-name="Shape" transform="translate(3.776 14.424)">
            <g id="Group_4773" data-name="Group 4773">
              <path id="Path_2416" data-name="Path 2416" d="M470.84,348.78h.611v.262h-.894v-1.708h.284Z" transform="translate(-470.556 -347.315)" fill="#56557e"/>
              <path id="Path_2417" data-name="Path 2417" d="M477.23,348.113a1.047,1.047,0,0,1-.056.348.838.838,0,0,1-.157.277.714.714,0,0,1-.243.183.794.794,0,0,1-.632,0,.715.715,0,0,1-.244-.183.833.833,0,0,1-.158-.277,1.109,1.109,0,0,1,0-.7.833.833,0,0,1,.158-.277.714.714,0,0,1,.244-.183.751.751,0,0,1,.316-.066.739.739,0,0,1,.316.066.722.722,0,0,1,.243.183.832.832,0,0,1,.157.276,1.047,1.047,0,0,1,.056.353Zm-.291,0a.886.886,0,0,0-.033-.252.557.557,0,0,0-.1-.19.417.417,0,0,0-.151-.119.512.512,0,0,0-.4,0,.423.423,0,0,0-.152.119.558.558,0,0,0-.1.19.961.961,0,0,0,0,.5.551.551,0,0,0,.1.189.427.427,0,0,0,.152.119.511.511,0,0,0,.4,0,.418.418,0,0,0,.151-.119.551.551,0,0,0,.1-.189.885.885,0,0,0,.033-.248Z" transform="translate(-474.761 -347.24)" fill="#56557e"/>
              <path id="Path_2418" data-name="Path 2418" d="M485.817,348.733a.6.6,0,0,0,.3-.073v-.311h-.191a.057.057,0,0,1-.043-.017.059.059,0,0,1-.016-.042v-.18h.507v.691a.8.8,0,0,1-.121.082.745.745,0,0,1-.134.057.959.959,0,0,1-.152.034,1.275,1.275,0,0,1-.175.011.717.717,0,0,1-.549-.246.839.839,0,0,1-.16-.277,1.031,1.031,0,0,1-.057-.351,1.068,1.068,0,0,1,.056-.353.813.813,0,0,1,.159-.277.71.71,0,0,1,.25-.18.817.817,0,0,1,.329-.064.776.776,0,0,1,.323.062.741.741,0,0,1,.232.161l-.082.144a.072.072,0,0,1-.064.044.087.087,0,0,1-.052-.019l-.069-.045a.455.455,0,0,0-.078-.039.563.563,0,0,0-.1-.027.628.628,0,0,0-.123-.011.478.478,0,0,0-.2.043.432.432,0,0,0-.155.122.566.566,0,0,0-.1.19.831.831,0,0,0-.035.248.86.86,0,0,0,.037.263.565.565,0,0,0,.1.194.446.446,0,0,0,.158.121A.474.474,0,0,0,485.817,348.733Z" transform="translate(-482.424 -347.24)" fill="#56557e"/>
              <path id="Path_2419" data-name="Path 2419" d="M495.079,348.113a1.049,1.049,0,0,1-.056.348.842.842,0,0,1-.157.277.714.714,0,0,1-.244.183.793.793,0,0,1-.631,0,.716.716,0,0,1-.245-.183.835.835,0,0,1-.158-.277,1.108,1.108,0,0,1,0-.7.835.835,0,0,1,.158-.277.714.714,0,0,1,.245-.183.749.749,0,0,1,.316-.066.738.738,0,0,1,.315.066.722.722,0,0,1,.244.183.835.835,0,0,1,.157.276A1.051,1.051,0,0,1,495.079,348.113Zm-.291,0a.88.88,0,0,0-.033-.252.555.555,0,0,0-.1-.19.417.417,0,0,0-.151-.119.511.511,0,0,0-.4,0,.417.417,0,0,0-.152.119.553.553,0,0,0-.1.19.963.963,0,0,0,0,.5.546.546,0,0,0,.1.189.42.42,0,0,0,.152.119.51.51,0,0,0,.4,0,.42.42,0,0,0,.151-.119.549.549,0,0,0,.1-.189.878.878,0,0,0,.033-.248Z" transform="translate(-489.399 -347.24)" fill="#56557e"/>
            </g>
          </g>
          <g id="Shape-37" data-name="Shape" transform="translate(101.561 14.458)">
            <path id="Path_2420" data-name="Path 2420" d="M1016.24,349.1h-.206v-.77h-.814v.77h-.206v-1.69h.206v.755h.814v-.755h.206Z" transform="translate(-1014.828 -347.41)" fill="#56557e"/>
            <path id="Path_2421" data-name="Path 2421" d="M1023.79,349.778a.5.5,0,0,1,.212.044.447.447,0,0,1,.16.124.559.559,0,0,1,.1.194.924.924,0,0,1,0,.51.559.559,0,0,1-.1.194.441.441,0,0,1-.16.123.544.544,0,0,1-.423,0,.451.451,0,0,1-.161-.123.566.566,0,0,1-.1-.194.921.921,0,0,1,0-.51.564.564,0,0,1,.1-.194.459.459,0,0,1,.161-.124.5.5,0,0,1,.211-.044Zm0,1.068a.264.264,0,0,0,.237-.119.748.748,0,0,0,0-.665.263.263,0,0,0-.237-.119.3.3,0,0,0-.139.031.265.265,0,0,0-.1.089.414.414,0,0,0-.059.142.952.952,0,0,0,0,.381.41.41,0,0,0,.059.141.268.268,0,0,0,.1.088.3.3,0,0,0,.139.031Z" transform="translate(-1021.606 -349.301)" fill="#56557e"/>
            <path id="Path_2422" data-name="Path 2422" d="M1030.23,350.993v-1.2h.112a.049.049,0,0,1,.051.044l.014.123a.579.579,0,0,1,.132-.133.287.287,0,0,1,.171-.052.237.237,0,0,1,.176.067.393.393,0,0,1,.1.182.378.378,0,0,1,.058-.112.352.352,0,0,1,.082-.078.32.32,0,0,1,.1-.045.379.379,0,0,1,.1-.014.361.361,0,0,1,.15.03.3.3,0,0,1,.112.088.407.407,0,0,1,.07.142.706.706,0,0,1,.024.193v.762h-.188v-.762a.35.35,0,0,0-.055-.213.186.186,0,0,0-.159-.073.212.212,0,0,0-.088.018.2.2,0,0,0-.073.054.246.246,0,0,0-.05.089.381.381,0,0,0-.019.125v.762h-.188v-.762a.369.369,0,0,0-.051-.215.177.177,0,0,0-.151-.071.219.219,0,0,0-.129.042.44.44,0,0,0-.109.114v.892Z" transform="translate(-1027.307 -349.301)" fill="#56557e"/>
            <path id="Path_2423" data-name="Path 2423" d="M1039.93,349.778a.435.435,0,0,1,.177.036.4.4,0,0,1,.14.1.489.489,0,0,1,.093.168.737.737,0,0,1,.033.227.15.15,0,0,1-.01.066.038.038,0,0,1-.036.017h-.71a.743.743,0,0,0,.027.2.414.414,0,0,0,.07.14.279.279,0,0,0,.105.084.328.328,0,0,0,.137.028.367.367,0,0,0,.122-.018.569.569,0,0,0,.088-.04.607.607,0,0,0,.061-.04.078.078,0,0,1,.043-.018.041.041,0,0,1,.036.02l.052.077a.388.388,0,0,1-.083.082.5.5,0,0,1-.1.057.59.59,0,0,1-.115.034.625.625,0,0,1-.117.011.489.489,0,0,1-.2-.042.444.444,0,0,1-.161-.123.582.582,0,0,1-.106-.2.9.9,0,0,1-.038-.274.768.768,0,0,1,.034-.234.571.571,0,0,1,.1-.188.456.456,0,0,1,.157-.125.467.467,0,0,1,.2-.045Zm0,.155a.272.272,0,0,0-.214.088.439.439,0,0,0-.1.244h.582a.456.456,0,0,0-.018-.134.3.3,0,0,0-.052-.105.238.238,0,0,0-.085-.069.258.258,0,0,0-.113-.024Z" transform="translate(-1034.854 -349.301)" fill="#56557e"/>
            <path id="Path_2424" data-name="Path 2424" d="M1013.99,359.351v-.142h5.6v.142Z" transform="translate(-1013.992 -356.831)" fill="#56557e"/>
          </g>
          <g id="Shape-38" data-name="Shape" transform="translate(111.518 14.411)">
            <path id="Path_2425" data-name="Path 2425" d="M1070.66,348.47v.633h-.2V347.41h.447a.755.755,0,0,1,.249.037.469.469,0,0,1,.176.106.442.442,0,0,1,.1.165.656.656,0,0,1,.034.216.6.6,0,0,1-.037.216.462.462,0,0,1-.108.169.489.489,0,0,1-.177.11.686.686,0,0,1-.241.04Zm0-.182h.243a.418.418,0,0,0,.154-.026.316.316,0,0,0,.113-.073.3.3,0,0,0,.068-.111.422.422,0,0,0,.023-.143.347.347,0,0,0-.089-.253.362.362,0,0,0-.269-.091h-.243Z" transform="translate(-1070.255 -347.363)" fill="#56557e"/>
            <path id="Path_2426" data-name="Path 2426" d="M1077.34,350.984v-1.2h.107a.055.055,0,0,1,.042.013.084.084,0,0,1,.016.045l.013.187a.537.537,0,0,1,.136-.2.278.278,0,0,1,.189-.07.269.269,0,0,1,.08.011.26.26,0,0,1,.066.031l-.024.157a.032.032,0,0,1-.033.029.147.147,0,0,1-.046-.011.255.255,0,0,0-.085-.011.229.229,0,0,0-.164.064.484.484,0,0,0-.11.186v.762Z" transform="translate(-1075.899 -349.244)" fill="#56557e"/>
            <path id="Path_2427" data-name="Path 2427" d="M1082.14,349.778a.5.5,0,0,1,.212.044.457.457,0,0,1,.16.124.567.567,0,0,1,.1.194.933.933,0,0,1,0,.51.569.569,0,0,1-.1.194.45.45,0,0,1-.16.123.508.508,0,0,1-.212.043.5.5,0,0,1-.211-.043.447.447,0,0,1-.161-.123.569.569,0,0,1-.1-.194.909.909,0,0,1,0-.51.567.567,0,0,1,.1-.194.454.454,0,0,1,.161-.124.493.493,0,0,1,.211-.044Zm0,1.068a.264.264,0,0,0,.237-.119.748.748,0,0,0,0-.665.264.264,0,0,0-.237-.119.3.3,0,0,0-.139.031.269.269,0,0,0-.1.089.43.43,0,0,0-.06.142.889.889,0,0,0-.019.191.879.879,0,0,0,.019.19.428.428,0,0,0,.06.141.271.271,0,0,0,.1.088A.3.3,0,0,0,1082.14,350.846Z" transform="translate(-1079.417 -349.253)" fill="#56557e"/>
            <path id="Path_2428" data-name="Path 2428" d="M1088.98,348.915a.049.049,0,0,1-.051-.044l-.017-.145a.585.585,0,0,1-.156.149.367.367,0,0,1-.2.056.35.35,0,0,1-.167-.04.354.354,0,0,1-.128-.116.583.583,0,0,1-.081-.191,1.1,1.1,0,0,1-.029-.263.93.93,0,0,1,.032-.246.636.636,0,0,1,.091-.2.445.445,0,0,1,.146-.132.389.389,0,0,1,.194-.048.351.351,0,0,1,.168.037.414.414,0,0,1,.125.1v-.664h.187v1.74Zm-.364-.153a.278.278,0,0,0,.161-.047.5.5,0,0,0,.127-.134V348a.312.312,0,0,0-.114-.109.3.3,0,0,0-.136-.031.261.261,0,0,0-.23.119.611.611,0,0,0-.08.34.982.982,0,0,0,.018.2.41.41,0,0,0,.053.137.213.213,0,0,0,.085.079.263.263,0,0,0,.12.027Z" transform="translate(-1084.762 -347.175)" fill="#56557e"/>
            <path id="Path_2429" data-name="Path 2429" d="M1095.18,349.872v.763a.344.344,0,0,0,.056.21.2.2,0,0,0,.169.074.3.3,0,0,0,.155-.044.509.509,0,0,0,.134-.122v-.882h.188v1.2h-.112a.048.048,0,0,1-.05-.044l-.015-.129a.6.6,0,0,1-.156.139.375.375,0,0,1-.2.053.35.35,0,0,1-.154-.032.3.3,0,0,1-.112-.091.406.406,0,0,1-.068-.143.719.719,0,0,1-.023-.186v-.763Z" transform="translate(-1090.376 -349.328)" fill="#56557e"/>
            <path id="Path_2430" data-name="Path 2430" d="M1102.04,350.01a.069.069,0,0,1-.017.02.035.035,0,0,1-.024.007.057.057,0,0,1-.034-.015.469.469,0,0,0-.047-.032.344.344,0,0,0-.069-.033.33.33,0,0,0-.238.017.274.274,0,0,0-.1.09.43.43,0,0,0-.061.143.779.779,0,0,0-.021.188.74.74,0,0,0,.022.193.439.439,0,0,0,.062.142.265.265,0,0,0,.227.117.3.3,0,0,0,.113-.018.336.336,0,0,0,.074-.041.557.557,0,0,0,.048-.041.055.055,0,0,1,.038-.018.038.038,0,0,1,.035.02l.053.077a.412.412,0,0,1-.174.14.557.557,0,0,1-.22.044.425.425,0,0,1-.187-.041.432.432,0,0,1-.149-.12.6.6,0,0,1-.1-.193.855.855,0,0,1-.036-.261.889.889,0,0,1,.033-.247.573.573,0,0,1,.1-.2.446.446,0,0,1,.158-.128.485.485,0,0,1,.215-.046.46.46,0,0,1,.2.041.483.483,0,0,1,.153.115Z" transform="translate(-1095.491 -349.253)" fill="#56557e"/>
            <path id="Path_2431" data-name="Path 2431" d="M1106.96,349.547a.242.242,0,0,1-.2-.079.339.339,0,0,1-.068-.228v-.732h-.129a.04.04,0,0,1-.028-.011.046.046,0,0,1-.012-.035v-.084l.175-.025.043-.37a.05.05,0,0,1,.014-.029.042.042,0,0,1,.03-.011h.095v.412h.306v.152h-.306v.718a.165.165,0,0,0,.032.112.109.109,0,0,0,.084.037.13.13,0,0,0,.051-.009.2.2,0,0,0,.038-.019l.027-.019a.03.03,0,0,1,.019-.009c.01,0,.019.007.027.02l.055.1a.353.353,0,0,1-.118.08A.359.359,0,0,1,1106.96,349.547Z" transform="translate(-1099.836 -347.788)" fill="#56557e"/>
            <path id="Path_2432" data-name="Path 2432" d="M1069.32,359.351v-.142h7.436v.142Z" transform="translate(-1069.323 -356.784)" fill="#56557e"/>
          </g>
          <g id="Shape-39" data-name="Shape" transform="translate(123.508 14.411)">
            <path id="Path_2433" data-name="Path 2433" d="M1137.43,349.1h-.158a.064.064,0,0,1-.044-.015.1.1,0,0,1-.025-.039l-.141-.409h-.678l-.141.409a.094.094,0,0,1-.026.038.062.062,0,0,1-.044.017h-.158l.6-1.693h.208Zm-.99-.628H1137l-.237-.689a1.326,1.326,0,0,1-.046-.16c-.008.032-.015.062-.023.089s-.014.051-.021.071Z" transform="translate(-1136.006 -347.363)" fill="#56557e"/>
            <path id="Path_2434" data-name="Path 2434" d="M1144.82,348.915v-1.74h.188v.716a.565.565,0,0,1,.153-.139.371.371,0,0,1,.2-.052.361.361,0,0,1,.168.039.353.353,0,0,1,.127.117.6.6,0,0,1,.081.191,1.084,1.084,0,0,1,.029.263.91.91,0,0,1-.032.246.624.624,0,0,1-.091.2.446.446,0,0,1-.146.131.394.394,0,0,1-.194.048.327.327,0,0,1-.175-.045.422.422,0,0,1-.126-.125l-.009.108a.047.047,0,0,1-.049.045Zm.477-1.048a.277.277,0,0,0-.161.047.494.494,0,0,0-.127.133v.579a.312.312,0,0,0,.112.11.3.3,0,0,0,.138.032.26.26,0,0,0,.23-.119.6.6,0,0,0,.08-.34.957.957,0,0,0-.019-.2.416.416,0,0,0-.053-.138.211.211,0,0,0-.085-.078.257.257,0,0,0-.112-.026Z" transform="translate(-1143.226 -347.175)" fill="#56557e"/>
            <path id="Path_2435" data-name="Path 2435" d="M1151.42,349.778a.5.5,0,0,1,.211.044.447.447,0,0,1,.16.124.554.554,0,0,1,.1.194.936.936,0,0,1,0,.51.559.559,0,0,1-.1.194.439.439,0,0,1-.16.123.543.543,0,0,1-.423,0,.449.449,0,0,1-.161-.123.564.564,0,0,1-.1-.194.925.925,0,0,1,0-.51.566.566,0,0,1,.1-.194.457.457,0,0,1,.161-.124A.5.5,0,0,1,1151.42,349.778Zm0,1.068a.264.264,0,0,0,.236-.119.747.747,0,0,0,0-.665.263.263,0,0,0-.236-.119.3.3,0,0,0-.139.031.271.271,0,0,0-.1.089.414.414,0,0,0-.059.142.938.938,0,0,0,0,.381.4.4,0,0,0,.059.141.272.272,0,0,0,.1.088A.3.3,0,0,0,1151.42,350.846Z" transform="translate(-1148.215 -349.253)" fill="#56557e"/>
            <path id="Path_2436" data-name="Path 2436" d="M1157.9,349.872v.763a.344.344,0,0,0,.056.21.2.2,0,0,0,.169.074.3.3,0,0,0,.155-.044.5.5,0,0,0,.134-.122v-.882h.188v1.2h-.112a.049.049,0,0,1-.051-.044l-.015-.129a.6.6,0,0,1-.156.139.374.374,0,0,1-.2.053.358.358,0,0,1-.155-.032.33.33,0,0,1-.113-.091.407.407,0,0,1-.067-.143.714.714,0,0,1-.023-.186v-.763Z" transform="translate(-1153.801 -349.328)" fill="#56557e"/>
            <path id="Path_2437" data-name="Path 2437" d="M1164.21,349.547a.242.242,0,0,1-.194-.079.338.338,0,0,1-.068-.228v-.732h-.129a.038.038,0,0,1-.028-.011.045.045,0,0,1-.012-.035v-.084l.175-.025.043-.37a.046.046,0,0,1,.013-.029.042.042,0,0,1,.03-.011h.094v.412h.307v.152h-.307v.718a.167.167,0,0,0,.033.112.108.108,0,0,0,.084.037.13.13,0,0,0,.051-.009.186.186,0,0,0,.038-.019l.027-.019a.032.032,0,0,1,.019-.009.031.031,0,0,1,.026.02l.055.1a.35.35,0,0,1-.117.08.364.364,0,0,1-.14.029Z" transform="translate(-1158.771 -347.788)" fill="#56557e"/>
            <path id="Path_2438" data-name="Path 2438" d="M1135.96,359.351v-.142h5.746v.142Z" transform="translate(-1135.958 -356.784)" fill="#56557e"/>
          </g>
          <g id="Shape-40" data-name="Shape" transform="translate(133.464 14.439)">
            <path id="Path_2439" data-name="Path 2439" d="M1192.97,348.678a.04.04,0,0,1,.031.015l.08.1a.654.654,0,0,1-.225.188.7.7,0,0,1-.319.067.682.682,0,0,1-.3-.063.652.652,0,0,1-.227-.177.812.812,0,0,1-.146-.274,1.126,1.126,0,0,1-.052-.351,1.062,1.062,0,0,1,.055-.351.82.82,0,0,1,.156-.274.693.693,0,0,1,.24-.178.743.743,0,0,1,.309-.063.66.66,0,0,1,.287.058.722.722,0,0,1,.215.157l-.067.105a.074.074,0,0,1-.017.019.043.043,0,0,1-.028.008.049.049,0,0,1-.029-.011l-.036-.028-.05-.036a.41.41,0,0,0-.068-.036.523.523,0,0,0-.09-.028.558.558,0,0,0-.119-.011.526.526,0,0,0-.222.047.5.5,0,0,0-.173.133.619.619,0,0,0-.113.21.88.88,0,0,0-.041.278.9.9,0,0,0,.041.282.631.631,0,0,0,.111.21.471.471,0,0,0,.166.131.482.482,0,0,0,.207.045.73.73,0,0,0,.121-.009.462.462,0,0,0,.1-.028.4.4,0,0,0,.085-.048.659.659,0,0,0,.08-.069A.053.053,0,0,1,1192.97,348.678Z" transform="translate(-1191.722 -347.316)" fill="#56557e"/>
            <path id="Path_2440" data-name="Path 2440" d="M1200.25,349.778a.5.5,0,0,1,.212.044.454.454,0,0,1,.16.124.569.569,0,0,1,.1.194.926.926,0,0,1,0,.51.569.569,0,0,1-.1.194.447.447,0,0,1-.16.123.543.543,0,0,1-.423,0,.447.447,0,0,1-.161-.123.571.571,0,0,1-.1-.194.924.924,0,0,1,0-.51.567.567,0,0,1,.1-.194.453.453,0,0,1,.161-.124A.5.5,0,0,1,1200.25,349.778Zm0,1.068a.263.263,0,0,0,.236-.119.745.745,0,0,0,0-.665.262.262,0,0,0-.236-.119.3.3,0,0,0-.139.031.27.27,0,0,0-.1.089.416.416,0,0,0-.059.142.934.934,0,0,0,0,.381.42.42,0,0,0,.059.141.272.272,0,0,0,.1.088A.3.3,0,0,0,1200.25,350.846Z" transform="translate(-1198.221 -349.282)" fill="#56557e"/>
            <path id="Path_2441" data-name="Path 2441" d="M1206.69,350.993v-1.2h.112a.05.05,0,0,1,.051.044l.015.13a.6.6,0,0,1,.156-.14.37.37,0,0,1,.2-.053.346.346,0,0,1,.154.032.311.311,0,0,1,.112.092.436.436,0,0,1,.068.143.688.688,0,0,1,.023.186v.762h-.188v-.762a.344.344,0,0,0-.056-.211.2.2,0,0,0-.169-.075.289.289,0,0,0-.155.045.538.538,0,0,0-.133.122v.881Z" transform="translate(-1203.921 -349.282)" fill="#56557e"/>
            <path id="Path_2442" data-name="Path 2442" d="M1213.05,349.547a.243.243,0,0,1-.195-.079.342.342,0,0,1-.068-.228v-.732h-.128a.04.04,0,0,1-.029-.011.047.047,0,0,1-.012-.035v-.084l.175-.025.043-.37a.048.048,0,0,1,.014-.029.041.041,0,0,1,.03-.011h.095v.412h.306v.152h-.306v.718a.164.164,0,0,0,.033.112.108.108,0,0,0,.084.037.128.128,0,0,0,.051-.009.222.222,0,0,0,.038-.019l.027-.019a.032.032,0,0,1,.02-.009c.01,0,.019.007.026.02l.054.1a.342.342,0,0,1-.117.08.361.361,0,0,1-.141.029Z" transform="translate(-1208.777 -347.817)" fill="#56557e"/>
            <path id="Path_2443" data-name="Path 2443" d="M1218.11,350.984h-.083a.092.092,0,0,1-.045-.009.054.054,0,0,1-.022-.04l-.021-.111c-.028.028-.056.054-.082.076a.471.471,0,0,1-.084.057.413.413,0,0,1-.1.035.481.481,0,0,1-.111.012.338.338,0,0,1-.116-.02.256.256,0,0,1-.095-.059.28.28,0,0,1-.064-.1.388.388,0,0,1-.024-.142.288.288,0,0,1,.034-.137.33.33,0,0,1,.113-.117.688.688,0,0,1,.2-.083,1.225,1.225,0,0,1,.306-.033v-.094a.353.353,0,0,0-.053-.212.184.184,0,0,0-.158-.072.3.3,0,0,0-.115.02.406.406,0,0,0-.081.044l-.06.044a.081.081,0,0,1-.049.019.052.052,0,0,1-.033-.011.079.079,0,0,1-.023-.028l-.033-.067a.6.6,0,0,1,.191-.143.531.531,0,0,1,.227-.047.364.364,0,0,1,.159.033.329.329,0,0,1,.117.092.4.4,0,0,1,.072.143.669.669,0,0,1,.024.184Zm-.487-.129a.344.344,0,0,0,.09-.011.333.333,0,0,0,.078-.032.433.433,0,0,0,.07-.05.584.584,0,0,0,.064-.067v-.247a1.127,1.127,0,0,0-.22.019.566.566,0,0,0-.147.048.21.21,0,0,0-.083.07.165.165,0,0,0-.026.09.216.216,0,0,0,.014.082.157.157,0,0,0,.037.056.144.144,0,0,0,.055.032.227.227,0,0,0,.065.01Z" transform="translate(-1212.593 -349.272)" fill="#56557e"/>
            <path id="Path_2444" data-name="Path 2444" d="M1223.91,350.01a.081.081,0,0,1-.017.02.035.035,0,0,1-.024.007.059.059,0,0,1-.034-.015.459.459,0,0,0-.047-.032.358.358,0,0,0-.069-.033.331.331,0,0,0-.238.017.272.272,0,0,0-.1.09.425.425,0,0,0-.061.143.8.8,0,0,0-.021.188.779.779,0,0,0,.022.193.445.445,0,0,0,.062.142.278.278,0,0,0,.1.087.274.274,0,0,0,.13.03.3.3,0,0,0,.113-.018.335.335,0,0,0,.074-.041q.025-.019.049-.041a.056.056,0,0,1,.038-.018.039.039,0,0,1,.036.02l.053.077a.41.41,0,0,1-.174.14.562.562,0,0,1-.221.044.421.421,0,0,1-.186-.041.438.438,0,0,1-.15-.12.6.6,0,0,1-.1-.193.945.945,0,0,1,0-.508.587.587,0,0,1,.1-.2.453.453,0,0,1,.158-.128.482.482,0,0,1,.215-.046.46.46,0,0,1,.2.041.475.475,0,0,1,.152.115Z" transform="translate(-1217.38 -349.282)" fill="#56557e"/>
            <path id="Path_2445" data-name="Path 2445" d="M1228.84,349.547a.243.243,0,0,1-.2-.079.34.34,0,0,1-.068-.228v-.732h-.129a.039.039,0,0,1-.028-.011.047.047,0,0,1-.012-.035v-.084l.175-.025.043-.37a.043.043,0,0,1,.013-.029.041.041,0,0,1,.03-.011h.095v.412h.306v.152h-.306v.718a.165.165,0,0,0,.033.112.108.108,0,0,0,.084.037.13.13,0,0,0,.051-.009.2.2,0,0,0,.037-.019l.027-.019a.027.027,0,0,1,.046.011l.055.1a.349.349,0,0,1-.117.08A.362.362,0,0,1,1228.84,349.547Z" transform="translate(-1221.725 -347.817)" fill="#56557e"/>
            <path id="Path_2446" data-name="Path 2446" d="M1191.29,359.351v-.142h7.419v.142Z" transform="translate(-1191.289 -356.812)" fill="#56557e"/>
          </g>
          <path id="Shape-41" data-name="Shape" d="M.792,0h65.46a.843.843,0,0,1,.792.887V2.494a.843.843,0,0,1-.792.887H.792A.843.843,0,0,1,0,2.494V.887A.843.843,0,0,1,.792,0Z" transform="translate(19.21 13.775)" fill="#fff"/>
          <path id="Shape-42" data-name="Shape" d="M914.31,347.4H911.9v-3.381h2.415a.692.692,0,0,1,.648.725v1.93a.692.692,0,0,1-.653.726Z" transform="translate(-828.705 -330.244)" fill="#56557e"/>
          <g id="Shape-43" data-name="Shape" transform="translate(83.66 14.364)">
            <path id="Path_2448" data-name="Path 2448" d="M915.138,348.361a.714.714,0,1,1,.633-.709A.675.675,0,0,1,915.138,348.361Zm0-1.216a.511.511,0,1,0,.453.508.483.483,0,0,0-.453-.509Z" transform="translate(-914.505 -346.943)" fill="#fff"/>
            <path id="Path_4981" data-name="Path 4981" d="M.353.11.543.1.467,1.46l-.19.011Z" transform="translate(0.651 1.302) rotate(-42.833)" fill="#fff"/>
          </g>
          <path id="Shape-44" data-name="Shape" d="M1.76,0H15.683a1.874,1.874,0,0,1,1.76,1.971v12.5a1.874,1.874,0,0,1-1.76,1.971H1.76A1.874,1.874,0,0,1,0,14.469V1.971A1.874,1.874,0,0,1,1.76,0Z" transform="translate(28.293 67.035)" fill="#e5e8f5"/>
          <path id="Shape-45" data-name="Shape" d="M.74,0H12.332a.788.788,0,0,1,.74.829.788.788,0,0,1-.74.829H.74A.788.788,0,0,1,0,.829.788.788,0,0,1,.74,0Z" transform="translate(29.987 70.828)" fill="#fff"/>
          <path id="Shape-46" data-name="Shape" d="M.74,0H12.332a.788.788,0,0,1,.74.829.788.788,0,0,1-.74.829H.74A.788.788,0,0,1,0,.829.788.788,0,0,1,.74,0Z" transform="translate(29.987 74.428)" fill="#fff"/>
          <path id="Shape-47" data-name="Shape" d="M.74,0H7.1a.788.788,0,0,1,.74.829.788.788,0,0,1-.74.829H.74A.788.788,0,0,1,0,.829.788.788,0,0,1,.74,0Z" transform="translate(29.987 77.976)" fill="#fff"/>
          <path id="Shape-48" data-name="Shape" d="M1.76,0H15.683a1.874,1.874,0,0,1,1.76,1.971v12.5a1.874,1.874,0,0,1-1.76,1.971H1.76A1.874,1.874,0,0,1,0,14.469V1.971A1.874,1.874,0,0,1,1.76,0Z" transform="translate(52.514 67.035)" fill="#e5e8f5"/>
          <path id="Shape-49" data-name="Shape" d="M.74,0H12.332a.788.788,0,0,1,.74.829.788.788,0,0,1-.74.829H.74A.788.788,0,0,1,0,.829.788.788,0,0,1,.74,0Z" transform="translate(54.208 70.828)" fill="#fff"/>
          <path id="Shape-50" data-name="Shape" d="M.74,0H12.332a.788.788,0,0,1,.74.829.788.788,0,0,1-.74.829H.74A.788.788,0,0,1,0,.829.788.788,0,0,1,.74,0Z" transform="translate(54.208 74.428)" fill="#fff"/>
          <path id="Shape-51" data-name="Shape" d="M.74,0H7.1a.788.788,0,0,1,.74.829.788.788,0,0,1-.74.829H.74A.788.788,0,0,1,0,.829.788.788,0,0,1,.74,0Z" transform="translate(54.208 77.976)" fill="#fff"/>
          <path id="Shape-52" data-name="Shape" d="M1.76,0H15.683a1.874,1.874,0,0,1,1.76,1.971v12.5a1.874,1.874,0,0,1-1.76,1.971H1.76A1.874,1.874,0,0,1,0,14.469V1.971A1.874,1.874,0,0,1,1.76,0Z" transform="translate(76.756 67.035)" fill="#e5e8f5"/>
          <path id="Shape-53" data-name="Shape" d="M.74,0H12.332a.788.788,0,0,1,.74.829.788.788,0,0,1-.74.829H.74A.788.788,0,0,1,0,.829.788.788,0,0,1,.74,0Z" transform="translate(78.45 70.828)" fill="#fff"/>
          <path id="Shape-54" data-name="Shape" d="M.74,0H12.332a.788.788,0,0,1,.74.829.788.788,0,0,1-.74.829H.74A.788.788,0,0,1,0,.829.788.788,0,0,1,.74,0Z" transform="translate(78.45 74.428)" fill="#fff"/>
          <path id="Shape-55" data-name="Shape" d="M.74,0H7.1a.788.788,0,0,1,.74.829.788.788,0,0,1-.74.829H.74A.788.788,0,0,1,0,.829.788.788,0,0,1,.74,0Z" transform="translate(78.45 77.976)" fill="#fff"/>
          <path id="Shape-56" data-name="Shape" d="M1.76,0H15.683a1.874,1.874,0,0,1,1.76,1.971v12.5a1.874,1.874,0,0,1-1.76,1.971H1.76A1.874,1.874,0,0,1,0,14.469V1.971A1.874,1.874,0,0,1,1.76,0Z" transform="translate(100.977 67.035)" fill="#e5e8f5"/>
          <path id="Shape-57" data-name="Shape" d="M.74,0H12.332a.788.788,0,0,1,.74.829.788.788,0,0,1-.74.829H.74A.788.788,0,0,1,0,.829.788.788,0,0,1,.74,0Z" transform="translate(102.671 70.828)" fill="#fff"/>
          <path id="Shape-58" data-name="Shape" d="M.74,0H12.332a.788.788,0,0,1,.74.829.788.788,0,0,1-.74.829H.74A.788.788,0,0,1,0,.829.788.788,0,0,1,.74,0Z" transform="translate(102.671 74.428)" fill="#fff"/>
          <path id="Shape-59" data-name="Shape" d="M.74,0H7.1a.788.788,0,0,1,.74.829.788.788,0,0,1-.74.829H.74A.788.788,0,0,1,0,.829.788.788,0,0,1,.74,0Z" transform="translate(102.671 77.976)" fill="#fff"/>
        </g>
      </g>
      <g id="Phone" transform="translate(0 64.023)">
        <path id="Shape-60" data-name="Shape" d="M5.279,0H32.922C35.837,0,38.2,2.647,38.2,5.912V67.431c0,3.265-2.363,5.912-5.279,5.912H5.279C2.363,73.344,0,70.7,0,67.431V5.912C0,2.647,2.363,0,5.279,0Z" transform="translate(1.204)" fill="#56557e"/>
        <rect id="Shape-61" data-name="Shape" width="35.885" height="54.614" transform="translate(2.362 9.365)" fill="#fff"/>
        <path id="Shape-62" data-name="Shape" d="M.875,0H18.721A.932.932,0,0,1,19.6.98a.932.932,0,0,1-.875.98H.875A.932.932,0,0,1,0,.98.932.932,0,0,1,.875,0Z" transform="translate(13.432 4.393)" fill="#a1a8c5"/>
        <ellipse id="Shape-63" data-name="Shape" cx="0.86" cy="0.964" rx="0.86" ry="0.964" transform="translate(10.278 4.426)" fill="#a1a8c5"/>
        <g id="Shape-64" data-name="Shape" transform="translate(5.452 67.019)">
          <path id="Path_2449" data-name="Path 2449" d="M354.325,903.476H352.89v-.2h1.435a.628.628,0,0,0,0-1.247H350.75v-.2h3.575a.83.83,0,0,1,0,1.65Z" transform="translate(-350.153 -900.888)" fill="#a1a8c5"/>
          <path id="Path_4982" data-name="Path 4982" d="M.113.361l1.4-.079L1.5.472.1.551Z" transform="translate(0 0.871) rotate(-45)" fill="#a1a8c5"/>
          <path id="Path_4983" data-name="Path 4983" d="M.3.1.487.09.422,1.233l-.191.011Z" transform="translate(0.162 1.284) rotate(-45)" fill="#a1a8c5"/>
        </g>
        <path id="Shape-65" data-name="Shape" d="M421.828,899.85h-4.58v-1.611l2.29-.921,2.29.921Zm-4.4-.2h4.22v-1.267l-2.11-.848-2.11.848Z" transform="translate(-399.234 -830.269)" fill="#a1a8c5"/>
        <g id="Shape-66" data-name="Shape" transform="translate(30.729 66.948)">
          <rect id="Rectangle_6606" data-name="Rectangle 6606" width="4.567" height="0.202" transform="translate(0 2.378)" fill="#a1a8c5"/>
          <rect id="Rectangle_6607" data-name="Rectangle 6607" width="4.567" height="0.202" transform="translate(0 1.157)" fill="#a1a8c5"/>
          <rect id="Rectangle_6608" data-name="Rectangle 6608" width="4.567" height="0.202" fill="#a1a8c5"/>
        </g>
        <g id="Content-2" data-name="Content" transform="translate(0 9.361)">
          <g id="Shape-67" data-name="Shape" transform="translate(3.994 21.774)">
            <path id="Path_4968" data-name="Path 4968" d="M0,0H32.743V18.859H0Z" fill="#e5e8f5"/>
          </g>
          <path id="Shape-68" data-name="Shape" d="M6.986,1.27l.394-.018L5.619,38.222l-.394.018Z" transform="translate(0.002 27.767) rotate(-62.749)" fill="#fff"/>
          <path id="Shape-69" data-name="Shape" d="M1.271,6.989l36.97-1.762-.018.394L1.253,7.383Z" transform="translate(0 34.81) rotate(-27.257)" fill="#fff"/>
          <path id="Shape-70" data-name="Shape" d="M0,0H35.885V3.017H0Z" transform="translate(2.361)" fill="#bbc0d6"/>
          <path id="Shape-71" data-name="Shape" d="M0,0H35.885V4.789H0Z" transform="translate(2.361 3.025)" fill="#e5e8f5"/>
          <g id="Shape-72" data-name="Shape" transform="translate(32.188 0.871)">
            <path id="Path_2452" data-name="Path 2452" d="M496.269,615.68h0l-.217.131-.033-.144.272-.163h.144v1.4h-.163Z" transform="translate(-496.016 -615.48)" fill="#fff"/>
            <path id="Path_2453" data-name="Path 2453" d="M500.853,616.806v-.116l.132-.144c.318-.339.462-.52.464-.73,0-.142-.061-.273-.247-.273a.4.4,0,0,0-.265.118l-.054-.133a.514.514,0,0,1,.353-.142.373.373,0,0,1,.382.406c0,.258-.167.466-.43.75l-.1.1h.56v.157Z" transform="translate(-499.983 -615.386)" fill="#fff"/>
            <path id="Path_2454" data-name="Path 2454" d="M506.392,621.342a.121.121,0,0,1,.115-.135.137.137,0,1,1-.115.135Z" transform="translate(-504.525 -620.034)" fill="#fff"/>
            <path id="Path_2455" data-name="Path 2455" d="M509.241,615.663h-.476l-.048.359a.591.591,0,0,1,.1-.009.483.483,0,0,1,.269.075.409.409,0,0,1,.178.359.456.456,0,0,1-.464.477.561.561,0,0,1-.311-.086l.042-.144a.514.514,0,0,0,.267.077.29.29,0,0,0,.3-.3c0-.18-.109-.309-.359-.309a1.141,1.141,0,0,0-.173.015l.081-.67h.6Z" transform="translate(-506.246 -615.48)" fill="#fff"/>
            <path id="Path_2456" data-name="Path 2456" d="M513.988,616.806v-.116l.132-.144c.318-.339.462-.52.464-.73,0-.142-.061-.273-.247-.273a.4.4,0,0,0-.265.118l-.054-.133a.513.513,0,0,1,.353-.142.373.373,0,0,1,.382.406c0,.258-.167.466-.43.75l-.1.1h.56v.157Z" transform="translate(-510.754 -615.386)" fill="#fff"/>
          </g>
          <rect id="Shape-73" data-name="Shape" width="0.297" height="0.203" rx="0.101" transform="translate(30.144 0.582)" fill="#fff"/>
          <rect id="Shape-74" data-name="Shape" width="1.132" height="1.782" rx="0.467" transform="translate(29.73 0.722)" fill="#fff"/>
          <path id="Shape-75" data-name="Shape" d="M483.407,620.67h-.964a.089.089,0,0,1-.084-.094v-.618h1.132v.618a.089.089,0,0,1-.084.094Z" transform="translate(-452.629 -618.165)" fill="#eceff1"/>
          <path id="Shape-76" data-name="Shape" d="M468.521,613.971v1.913h-1.708Z" transform="translate(-439.88 -613.385)" fill="#eceff1"/>
          <g id="Shape-77" data-name="Shape" transform="translate(26.055 0.579)">
            <path id="Path_2459" data-name="Path 2459" d="M462.268,614.941v-.221h-.337v-.072l.324-.519h.106v.505h.1v.086h-.1v.221Zm0-.308v-.4h0c-.022.048-.04.083-.06.12l-.178.277h0Z" transform="translate(-461.931 -614.089)" fill="#eceff1"/>
            <path id="Path_2460" data-name="Path 2460" d="M465.868,614.75a.635.635,0,0,1-.231.046.362.362,0,0,1-.281-.111.463.463,0,0,1-.1-.314.4.4,0,0,1,.408-.435.42.42,0,0,1,.188.039l-.023.089a.352.352,0,0,0-.166-.036.3.3,0,0,0-.3.339c0,.214.115.341.29.341a.287.287,0,0,0,.13-.023v-.251h-.153v-.088h.248Z" transform="translate(-464.653 -613.935)" fill="#eceff1"/>
          </g>
          <g id="Shape-78" data-name="Shape" transform="translate(3.466 4)">
            <path id="Path_4967" data-name="Path 4967" d="M.6,0H29.967a.644.644,0,0,1,.6.677V2.163a.644.644,0,0,1-.6.677H.6A.644.644,0,0,1,0,2.163V.677A.644.644,0,0,1,.6,0Z" fill="#fff"/>
          </g>
          <g id="Shape-79" data-name="Shape" transform="translate(31.342 4.342)">
            <path id="Path_2475" data-name="Path 2475" d="M492.1,633.345h-.09v-.735h.714v.1H492.1Z" transform="translate(-491.882 -632.61)" fill="#8f97b9"/>
            <path id="Path_2476" data-name="Path 2476" d="M492.757,639.715H492v-.906h.09v.8h.662Z" transform="translate(-491.882 -637.559)" fill="#8f97b9"/>
            <path id="Path_2477" data-name="Path 2477" d="M499.232,633.336h-.09v-.625h-.671v-.1h.76Z" transform="translate(-497.184 -632.61)" fill="#8f97b9"/>
            <path id="Path_2478" data-name="Path 2478" d="M499.441,639.677h-.715v-.1h.625v-.814h.09Z" transform="translate(-497.393 -637.522)" fill="#8f97b9"/>
            <rect id="Rectangle_6617" data-name="Rectangle 6617" width="2.182" height="0.101" transform="translate(0 0.959)" fill="#8f97b9"/>
          </g>
          <g id="Shape-80" data-name="Shape" transform="translate(34.921 4.207)">
            <path id="Path_2479" data-name="Path 2479" d="M522.78,635.386l-.079-.049.363-.739.079.048Z" transform="translate(-520.632 -634.063)" fill="#8f97b9"/>
            <path id="Path_2480" data-name="Path 2480" d="M520.335,636.6l-.539-.331.043-.088.539.331Z" transform="translate(-518.25 -635.328)" fill="#8f97b9"/>
            <path id="Path_2481" data-name="Path 2481" d="M512.288,634.366a1.22,1.22,0,1,1,1.082-1.213h-.09a1,1,0,1,0-.993,1.112Z" transform="translate(-511.206 -631.941)" fill="#8f97b9"/>
          </g>
          <path id="Shape-81" data-name="Shape" d="M1.162,0H19.376a1.238,1.238,0,0,1,1.162,1.3,1.238,1.238,0,0,1-1.162,1.3H1.162A1.238,1.238,0,0,1,0,1.3,1.238,1.238,0,0,1,1.162,0Z" transform="translate(3.427 9.848)" fill="#e5e8f5"/>
          <path id="Shape-82" data-name="Shape" d="M.758,0H31.915a.807.807,0,0,1,.758.849.807.807,0,0,1-.758.849H.758A.807.807,0,0,1,0,.849.807.807,0,0,1,.758,0Z" transform="translate(3.427 14.584)" fill="#e5e8f5"/>
          <path id="Shape-83" data-name="Shape" d="M.758,0h27.6a.807.807,0,0,1,.758.849.807.807,0,0,1-.758.849H.758A.807.807,0,0,1,0,.849.807.807,0,0,1,.758,0Z" transform="translate(3.427 17.935)" fill="#e5e8f5"/>
          <path id="Shape-84" data-name="Shape" d="M.758,0H31.915a.807.807,0,0,1,.758.849.807.807,0,0,1-.758.849H.758A.807.807,0,0,1,0,.849.807.807,0,0,1,.758,0Z" transform="translate(3.427 43.381)" fill="#e5e8f5"/>
          <path id="Shape-85" data-name="Shape" d="M.758,0H31.915a.807.807,0,0,1,.758.849.807.807,0,0,1-.758.849H.758A.807.807,0,0,1,0,.849.807.807,0,0,1,.758,0Z" transform="translate(3.427 46.993)" fill="#e5e8f5"/>
          <path id="Shape-86" data-name="Shape" d="M.758,0h27.6a.807.807,0,0,1,.758.849.807.807,0,0,1-.758.849H.758A.807.807,0,0,1,0,.849.807.807,0,0,1,.758,0Z" transform="translate(3.427 50.741)" fill="#e5e8f5"/>
        </g>
      </g>
      <g id="Lamp" transform="translate(97.953 35.589)">
        <path id="Shape-87" data-name="Shape" d="M1239.52,554.709l-1.771-.359,9.985-61.857L1226.84,469.8l-8.391,1.044-.2-2,9.234-1.149,22.191,24.1Z" transform="translate(-1152.956 -458.792)" fill="#4d4d4d"/>
        <path id="Shape-88" data-name="Shape" d="M1266.04,874.934c0-7.412,5.365-13.421,11.984-13.421S1290,867.522,1290,874.934C1290,875.029,1266.04,875.148,1266.04,874.934Z" transform="translate(-1192.146 -773.246)" fill="#f9b25f"/>
        <path id="Shape-89" data-name="Shape" d="M899.775,595.92l18.459-78.744L908.6,510.94l-53.2,63.725Z" transform="translate(-855.391 -493.322)" opacity="0.998" fill="url(#linear-gradient-5)"/>
        <ellipse id="Shape-90" data-name="Shape" cx="5.813" cy="6.51" rx="5.813" ry="6.51" transform="translate(51.684 14.933)" fill="#e5e8f5"/>
        <ellipse id="Shape-91" data-name="Shape" cx="5.175" cy="5.796" rx="5.175" ry="5.796" transform="translate(52.916 15.98)" fill="#fff"/>
        <path id="Shape-92" data-name="Shape" d="M1235.74,433.984c-1.479-1.024-1.789-3.722-2.062-6.1-.182-1.579-.387-3.369-.933-3.541-.3-.093-1.084.16-3.054,2.9l-.561-.505c1.8-2.5,2.935-3.45,3.81-3.173,1,.317,1.2,2.037,1.451,4.214.253,2.2.539,4.7,1.727,5.519Z" transform="translate(-1161.884 -423.519)" fill="#4d4d4d"/>
        <path id="Shape-93" data-name="Shape" d="M2.752-.356A3.925,3.925,0,0,1,6.306,3.372l.482,9.739a3.073,3.073,0,0,1-3.2,3.376h0A3.925,3.925,0,0,1,.032,12.759L-.45,3.02a3.073,3.073,0,0,1,3.2-3.376Z" transform="translate(63.739 17.352) rotate(-148.201)" fill="#4d4d4d"/>
        <path id="Shape-94" data-name="Shape" d="M1107.88,462.534c3.6-7.6,12.019-10.5,18.808-6.471s9.376,13.46,5.778,21.064C1132.42,477.224,1107.78,462.754,1107.88,462.534Z" transform="translate(-1062.448 -448.054)" fill="#f9b25f"/>
        <path id="Shape-95" data-name="Shape" d="M1.349,1.023,4.532.843l-.27,4.776L1.078,5.8Z" transform="translate(87.991 29.28) rotate(-45)" fill="#4d4d4d"/>
        <path id="Shape-96" data-name="Shape" d="M0,0,3.018.071,3.125,5.1.107,5.024Z" transform="translate(93.948 36.213) rotate(11.642)" fill="#4d4d4d"/>
        <ellipse id="Shape-97" data-name="Shape" cx="4.338" cy="4.858" rx="4.338" ry="4.858" transform="translate(90.803 29.031)" fill="#4d4d4d"/>
        <ellipse id="Shape-98" data-name="Shape" cx="3.113" cy="3.487" rx="3.113" ry="3.487" transform="translate(92.027 30.403)" fill="#f9b25f"/>
      </g>
    </g>
    <g id="Group_4774" data-name="Group 4774" transform="translate(258 2292)">
      <text id="رسپانسیو" transform="translate(0.185 28)" font-size="24" font-family="IRANSansWebFaNum, 'IRANSansWeb\(FaNum\)'"><tspan x="0" y="0">رسپانسیو</tspan></text>
      <text id="در_هر_سایز" data-name="در هر سایز" transform="translate(10.713 65)" fill="#333" font-size="18" font-family="IRANSansWebFaNum, 'IRANSansWeb\(FaNum\)'"><tspan x="0" y="0">در هر سایز</tspan></text>
    </g>
  </g>
</svg>
