<svg xmlns="http://www.w3.org/2000/svg" width="80.098" height="64" viewBox="0 0 80.098 64">
    <defs>
        <style>
            .cls-2{fill:#ffc4bb}.cls-3{fill:#ff4d31}
        </style>
    </defs>
    <g id="fast_delivery" transform="translate(-1040 -581)">
        <path id="Rectangle_117" fill="none" d="M0 0H64V64H0z" transform="translate(1056 581)"/>
        <g id="_045-fast" transform="translate(1012.624 468.001)">
            <path id="Path_1348" d="M197.84 301.462a6.729 6.729 0 0 0-12.573-2.227 6.729 6.729 0 0 1 9.866 4.934h15.817v-2.707z" class="cls-2" transform="translate(-130.255 -144.135)"/>
            <path id="Path_1349" d="M138.355 164.727a2.363 2.363 0 0 1-2.4-2.322v-32.437h-.312a2.342 2.342 0 0 0-2.4 2.3v32.848a2.363 2.363 0 0 0 2.4 2.322h3.257a6.69 6.69 0 0 1 1.034-2.707z" class="cls-2" transform="translate(-87.345 -7.399)"/>
            <path id="Path_1350" d="M48.6 226.45h8.751a1.225 1.225 0 1 0 0-2.45H48.6a1.225 1.225 0 1 0 0 2.45z" class="cls-3" transform="translate(-16.499 -84.973)"/>
            <path id="Path_1351" d="M40.853 276.45a1.225 1.225 0 1 0 0-2.45H28.6a1.225 1.225 0 1 0 0 2.45z" class="cls-3" transform="translate(0 -126.222)"/>
            <path id="Path_1352" d="M68.6 176.45h5.251a1.225 1.225 0 0 0 0-2.45H68.6a1.225 1.225 0 1 0 0 2.45z" class="cls-3" transform="translate(-32.999 -43.725)"/>
            <path id="Path_1354" fill="#10928e" d="M184.64 141.7c0-.019 0-.037-.006-.055s-.006-.042-.01-.063l-.011-.057-.015-.059c-.005-.019-.011-.038-.018-.056l-.021-.057-.022-.054-.026-.055c-.008-.018-.018-.035-.028-.053s-.02-.035-.031-.051l-.035-.051-.034-.046-.042-.051-.019-.023-9.017-9.842a4.754 4.754 0 0 0-3.481-1.547h-12.843v-3.92a4.661 4.661 0 0 0-4.709-4.66h-28.613a4.621 4.621 0 0 0-4.659 4.66v31.81a4.621 4.621 0 0 0 4.66 4.661h4.376a1.225 1.225 0 1 0 0-2.45h-4.376a2.168 2.168 0 0 1-2.21-2.211v-31.81a2.168 2.168 0 0 1 2.21-2.211h28.613a2.208 2.208 0 0 1 2.258 2.211v34.02h-14.244a1.225 1.225 0 0 0 0 2.45h21a1.225 1.225 0 1 0 0-2.45h-4.31v-16.627h23.283v14.417a2.281 2.281 0 0 1-2.341 2.211h-4.376a1.225 1.225 0 1 0 0 2.45h4.376a4.733 4.733 0 0 0 4.792-4.661v-15.678c0-.01-.034-.02-.035-.03s-.035-.044-.036-.062zm-25.659-9.67h12.842a2.314 2.314 0 0 1 1.676.771l7.133 7.805h-21.651z" transform="translate(-77.236)"/>
            <path id="Path_1355" d="M165.624 314.721a7.351 7.351 0 1 0 7.351-7.351 7.351 7.351 0 0 0-7.351 7.351zm12.252 0a4.9 4.9 0 1 1-4.9-4.9 4.9 4.9 0 0 1 4.9 4.9z" class="cls-3" transform="translate(-114.051 -153.751)"/>
            <path id="Path_1356" d="M355.624 314.721a7.351 7.351 0 1 0 7.351-7.351 7.351 7.351 0 0 0-7.351 7.351zm12.252 0a4.9 4.9 0 1 1-4.9-4.9 4.9 4.9 0 0 1 4.9 4.9z" class="cls-3" transform="translate(-270.795 -153.751)"/>
        </g>
    </g>
</svg>
