<svg xmlns="http://www.w3.org/2000/svg" xmlns:xlink="http://www.w3.org/1999/xlink" width="44" height="44" viewBox="0 0 44 44">
  <defs>
    <linearGradient id="linear-gradient" x2="1" y2="1" gradientUnits="objectBoundingBox">
      <stop offset="0" stop-color="#fd6e6a"/>
      <stop offset="1" stop-color="#ffc600"/>
    </linearGradient>
  </defs>
  <g id="final" transform="translate(1 1)">
    <g id="Group_3" data-name="Group 3">
      <circle id="Oval_18" data-name="Oval 18" cx="21" cy="21" r="21" fill="#fff" stroke="#e6e6e6" stroke-miterlimit="10" stroke-width="2"/>
    </g>
    <g id="Group_4" data-name="Group 4" transform="translate(5 5)">
      <path id="Fill_1" data-name="Fill 1" d="M16,32a15.8,15.8,0,0,1-6.213-1.263,16.156,16.156,0,0,1-8.525-8.525,15.917,15.917,0,0,1,0-12.425A16.156,16.156,0,0,1,9.788,1.263a15.917,15.917,0,0,1,12.425,0,16.156,16.156,0,0,1,8.525,8.525,15.917,15.917,0,0,1,0,12.425,16.156,16.156,0,0,1-8.525,8.525A15.8,15.8,0,0,1,16,32ZM16,3.2A12.784,12.784,0,0,0,6.96,25.04,12.784,12.784,0,1,0,25.04,6.96,12.708,12.708,0,0,0,16,3.2Z" fill="url(#linear-gradient)"/>
      <path id="Fill_2" data-name="Fill 2" d="M9.519,19.038A9.507,9.507,0,0,1,2.8,2.8,9.508,9.508,0,1,1,16.242,16.242,9.451,9.451,0,0,1,9.519,19.038Zm0-15.864a6.346,6.346,0,1,0,6.346,6.346A6.353,6.353,0,0,0,9.519,3.173Z" transform="translate(6.481 6.481)" fill="url(#linear-gradient)"/>
      <path id="Fill_3" data-name="Fill 3" d="M2.3.145A1.615,1.615,0,0,0,0,1.611,1.638,1.638,0,0,0,1.639,3.241a1.486,1.486,0,0,0,1.475-.978A1.613,1.613,0,0,0,2.3.145Z" transform="translate(14.177 14.582)" fill="url(#linear-gradient)"/>
    </g>
  </g>
</svg>
