<?xml version="1.0"?>
<svg xmlns="http://www.w3.org/2000/svg" id="outline" viewBox="0 0 512 512" width="512" height="512"><path d="M248,144a8.00917,8.00917,0,0,1-8,8h-8v16h8a24.02718,24.02718,0,0,0,24-24V128H248Z"/><circle cx="224" cy="120" r="8"/><circle cx="272" cy="120" r="8"/><path d="M221.65674,170.34277l-11.31348,11.31446A35.08383,35.08383,0,0,0,235.31348,192H256V176H235.31348A19.18715,19.18715,0,0,1,221.65674,170.34277Z"/><path d="M488,320H404.81665l-37.30151-70.459A47.895,47.895,0,0,0,325.09326,224H280v-8.21509A67.86082,67.86082,0,0,0,304,164V78.9873A32.00193,32.00193,0,0,0,296,16H223.15137A55.214,55.214,0,0,0,168,71.15137V224H122.376a47.9463,47.9463,0,0,0-44.11914,29.0918L22.39551,383.43555A78.65151,78.65151,0,0,0,16,414.59277,81.49963,81.49963,0,0,0,97.40723,496H488a8.00008,8.00008,0,0,0,8-8V328A8.00008,8.00008,0,0,0,488,320ZM353.37451,257.02734,386.71277,320H295.99951a7.99955,7.99955,0,0,0-8,8l.00025,72.86133a56.02184,56.02184,0,0,0-25.25757-14.87793L248.479,328.93066l8.62378-17.24755,10.45972,6.97314a8.00044,8.00044,0,0,0,12.1001-4.35742L301.95227,240h23.141A31.929,31.929,0,0,1,353.37451,257.02734ZM247.42773,445.0293l-14.85546,5.9414L244.184,480H200V400h48a40.04559,40.04559,0,0,1,39.99988,39.99414L288,467.69141l-16.647-38.84278L256.647,435.15137,275.8678,480H261.416ZM224,289.61475l19.68628,13.124L235.05566,320H212.94434l-8.63062-17.26123ZM275.314,240h9.93384l-17.80444,59.34766-30.88623-20.59082Zm-61.06762,96h19.50732l12,48H202.24634ZM236,216a52.059,52.059,0,0,1-52-52V116.94409l27.57764-13.78882A7.99979,7.99979,0,0,0,216,96V80h72v84A52.059,52.059,0,0,1,236,216ZM184,71.15137A39.19572,39.19572,0,0,1,223.15137,32H296a16,16,0,0,1,0,32H208a8.00008,8.00008,0,0,0-8,8V91.05566l-16,8ZM236,232a67.57541,67.57541,0,0,0,28-6.05713V228.686l-40,40-40-40V207.75171A67.86948,67.86948,0,0,0,236,232Zm-63.314,8,38.75683,38.75684-30.88623,20.59082L162.7522,240ZM184,480H97.40723A65.48161,65.48161,0,0,1,32,414.59277a62.74161,62.74161,0,0,1,5.10156-24.85449L92.96289,259.39453A31.96569,31.96569,0,0,1,122.376,240h23.67175l22.28967,74.29883a7.99969,7.99969,0,0,0,12.1001,4.35742l10.45972-6.97314,8.62378,17.24755L185.75366,384H132.94434l18.21093-36.42188-14.31054-7.15624-24,48A8,8,0,0,0,120,400h64Zm296,0H304V440l-.00012-.00537L303.99951,336H480Z"/><path d="M392,440a32,32,0,1,0-32-32A32.03635,32.03635,0,0,0,392,440Zm0-48a16,16,0,1,1-16,16A16.01833,16.01833,0,0,1,392,392Z"/></svg>
