<svg xmlns="http://www.w3.org/2000/svg" width="67.054" height="66.264" viewBox="0 0 67.054 66.264">
    <defs>
        <style>
            .cls-1{fill:none}.cls-2{fill:#ffc4bb}.cls-5{fill:#10928e;stroke:#10928e;stroke-width:.8px}
        </style>
    </defs>
    <g id="Garaunty" transform="translate(-1053.146 -579.445)">
        <path id="Rectangle_117" d="M0 0H64V64H0z" class="cls-1" transform="translate(1056 581)"/>
        <g id="fast_delivery" transform="translate(0 .642)">
            <path id="Rectangle_117-2" d="M0 0H64V64H0z" class="cls-1" transform="translate(1056 581)"/>
            <g id="Group_347" transform="translate(256.871 3.263)">
                <g id="_008-box-2" transform="translate(809.841 580.351)">
                    <path id="Path_1033" d="M72.587 48.38l23.879-13.786-2.513-1.451-23.94 13.821z" class="cls-2" transform="translate(-67.308 -31.202)"/>
                    <path id="Path_1034" d="M65.574 179.126v-24.993L63 152.638v27.647l23.941 13.822v-2.645z" class="cls-2" transform="translate(-61.198 -135.316)"/>
                    <path id="Path_1035" fill="#ff4d31" d="M135.015 83.5a.9.9 0 0 0-.451.78v15.211l-1.822-2.07a.938.938 0 0 0-1.045-.237l-1.9.773V80.98l25.315-14.6-.889-1.561-25.754 14.861a.919.919 0 0 0-.469.78V99.3a.934.934 0 0 0 1.281.833l2.528-1.041 2.977 3.378a.9.9 0 0 0 1.58-.6V84.8L161.7 70.167l-.9-1.561z" transform="translate(-117.832 -58.8)"/>
                    <g id="Path_1036" fill="#10928e" stroke="none">
                        <path d="M75.644 79.414c-.175 0-.349-.046-.5-.134L49.4 64.418c-.308-.178-.5-.51-.5-.867V33.826c0-.357.192-.689.5-.867l25.743-14.863c.152-.087.326-.134.501-.134s.349.047.5.134l25.743 14.863c.31.178.501.51.501.867V63.55c0 .356-.192.688-.5.867L76.143 79.28c-.152.088-.325.134-.5.134zm1.001-30.15V76.68l23.74-13.707V35.557l-23.74 13.707zm-25.743 13.71L74.643 76.68V49.264L50.902 35.557v27.416zm1.003-29.15L75.644 47.53l23.74-13.705-23.74-13.706-23.74 13.706z" transform="translate(-49 -18.062)"/>
                        <path d="M75.644 18.062c-.156 0-.311.04-.45.12L49.45 33.046c-.28.161-.451.459-.451.78v29.726c0 .322.172.62.45.78l25.743 14.863c.14.08.295.12.451.12.156 0 .311-.04.45-.12l25.743-14.863c.28-.161.45-.458.45-.78V33.826c0-.322-.17-.62-.45-.78L76.094 18.182c-.139-.08-.294-.12-.45-.12m0 29.583l-23.94-13.821 23.94-13.822 23.94 13.822-23.94 13.82m-.901 29.208L50.802 63.031V35.384l23.941 13.823v27.646m1.802 0V49.207l23.94-13.823v27.647l-23.94 13.822m-.901-58.99c.193 0 .383.05.55.147l25.743 14.862c.34.196.551.562.551.954V63.55c0 .392-.211.757-.55.953L76.193 79.367c-.167.096-.357.147-.55.147-.193 0-.383-.05-.55-.147L49.35 64.505c-.34-.197-.55-.562-.55-.954V33.826c0-.392.21-.758.55-.954L75.094 18.01c.168-.097.358-.148.551-.148zm23.54 15.962l-23.54-13.59-23.54 13.59 23.54 13.59 23.54-13.59zM74.542 49.322L51.002 35.73v27.185l23.541 13.592V49.322zm25.743 13.593V35.73L76.745 49.322v27.185l23.54-13.592z" transform="translate(-49 -18.062)"/>
                    </g>
                </g>
            </g>
        </g>
        <g id="_035-delivery-8" transform="translate(1035.265 550.515)">
            <path id="Path_1250" d="M74.476 74.946l-9.893-4.856a.513.513 0 0 0-.449 0l-9.871 4.842a.492.492 0 0 0-.267.455v9.264A9 9 0 0 0 57.5 91.3l6.582 4.5a.493.493 0 0 0 .281.088.5.5 0 0 0 .283-.088l3.154-2.158a.507.507 0 0 0-.572-.837l-2.875 1.961-6.288-4.3a7.985 7.985 0 0 1-3.057-5.814V75.7l9.374-4.594 9.374 4.607v8.935a6.645 6.645 0 0 1-.538 2.424.5.5 0 0 0 .274.66.517.517 0 0 0 .669-.28 7.652 7.652 0 0 0 .609-2.8V75.4a.518.518 0 0 0-.294-.454z" class="cls-5" transform="translate(-35.715 -40.703)"/>
            <path id="Path_1251" d="M150.621 213.928l-4.019 3.681-1.976-2.143a.507.507 0 1 0-.745.687l2.319 2.514a.507.507 0 0 0 .715.03l4.391-4.022a.507.507 0 0 0-.685-.747z" class="cls-5" transform="translate(-118.97 -174.053)"/>
        </g>
    </g>
</svg>
