<svg xmlns="http://www.w3.org/2000/svg" xmlns:xlink="http://www.w3.org/1999/xlink" width="45" height="587" viewBox="0 0 45 587">
  <defs>
    <linearGradient id="linear-gradient" x2="1" y2="1" gradientUnits="objectBoundingBox">
      <stop offset="0" stop-color="#fd6e6a"/>
      <stop offset="1" stop-color="#ffc600"/>
    </linearGradient>
    <linearGradient id="linear-gradient-2" x2="1" y2="1" gradientUnits="objectBoundingBox">
      <stop offset="0" stop-color="#3b2667"/>
      <stop offset="1" stop-color="#bc78ec"/>
    </linearGradient>
    <linearGradient id="linear-gradient-3" x2="1" y2="1" gradientUnits="objectBoundingBox">
      <stop offset="0" stop-color="#ff96f9"/>
      <stop offset="1" stop-color="#c32bac"/>
    </linearGradient>
    <linearGradient id="linear-gradient-4" x2="1" y2="1" gradientUnits="objectBoundingBox">
      <stop offset="0" stop-color="#72edf2"/>
      <stop offset="1" stop-color="#5151e5"/>
    </linearGradient>
  </defs>
  <g id="nav_group" data-name="nav group" transform="translate(1 1)">
    <path id="Line_4" data-name="Line 4" d="M1.25.5V560" transform="translate(21 22)" fill="none" stroke="#dadada" stroke-linecap="square" stroke-miterlimit="10" stroke-width="2"/>
    <circle id="Oval_11" data-name="Oval 11" cx="4" cy="4" r="4" transform="translate(18 578)" fill="#cfd7df"/>
    <g id="_1" data-name="1">
      <g id="Group_2" data-name="Group 2">
        <circle id="Oval_18" data-name="Oval 18" cx="21" cy="21" r="21" stroke="#e6e6e6" stroke-miterlimit="10" stroke-width="2" fill="url(#linear-gradient)"/>
      </g>
      <text id="_1-2" data-name="1" transform="translate(14 29)" fill="#fff" font-size="21" font-family="SegoeUI, Segoe UI"><tspan x="0" y="0">1</tspan></text>
    </g>
    <g id="_2" data-name="2" transform="translate(0 110)">
      <g id="Group_2-2" data-name="Group 2">
        <circle id="Oval_18-2" data-name="Oval 18" cx="21" cy="21" r="21" stroke="#e6e6e6" stroke-miterlimit="10" stroke-width="2" fill="url(#linear-gradient-2)"/>
      </g>
      <text id="_2-2" data-name="2" transform="translate(14 29)" fill="#fff" font-size="21" font-family="SegoeUI, Segoe UI"><tspan x="0" y="0">2</tspan></text>
    </g>
    <g id="_3" data-name="3" transform="translate(0 240)">
      <g id="Group_2-3" data-name="Group 2">
        <circle id="Oval_18-3" data-name="Oval 18" cx="21" cy="21" r="21" stroke="#e6e6e6" stroke-miterlimit="10" stroke-width="2" fill="url(#linear-gradient-3)"/>
      </g>
      <text id="_3-2" data-name="3" transform="translate(14 29)" fill="#fff" font-size="21" font-family="SegoeUI, Segoe UI"><tspan x="0" y="0">3</tspan></text>
    </g>
    <g id="_4" data-name="4" transform="translate(0 353)">
      <g id="Group_2-4" data-name="Group 2">
        <circle id="Oval_18-4" data-name="Oval 18" cx="21" cy="21" r="21" stroke="#e6e6e6" stroke-miterlimit="10" stroke-width="2" fill="url(#linear-gradient-4)"/>
      </g>
      <text id="_4-2" data-name="4" transform="translate(14 29)" fill="#fff" font-size="21" font-family="SegoeUI, Segoe UI"><tspan x="0" y="0">4</tspan></text>
    </g>
    <g id="final" transform="translate(1 464)">
      <g id="Group_3" data-name="Group 3">
        <circle id="Oval_18-5" data-name="Oval 18" cx="21" cy="21" r="21" fill="#fff" stroke="#e6e6e6" stroke-miterlimit="10" stroke-width="2"/>
      </g>
      <g id="Group_4" data-name="Group 4" transform="translate(5 5)">
        <path id="Fill_1" data-name="Fill 1" d="M16,32a15.8,15.8,0,0,1-6.213-1.263,16.156,16.156,0,0,1-8.525-8.525,15.917,15.917,0,0,1,0-12.425A16.156,16.156,0,0,1,9.788,1.263a15.917,15.917,0,0,1,12.425,0,16.156,16.156,0,0,1,8.525,8.525,15.917,15.917,0,0,1,0,12.425,16.156,16.156,0,0,1-8.525,8.525A15.8,15.8,0,0,1,16,32ZM16,3.2A12.784,12.784,0,0,0,6.96,25.04,12.784,12.784,0,1,0,25.04,6.96,12.708,12.708,0,0,0,16,3.2Z" fill="url(#linear-gradient)"/>
        <path id="Fill_2" data-name="Fill 2" d="M9.519,19.038A9.507,9.507,0,0,1,2.8,2.8,9.508,9.508,0,1,1,16.242,16.242,9.451,9.451,0,0,1,9.519,19.038Zm0-15.864a6.346,6.346,0,1,0,6.346,6.346A6.353,6.353,0,0,0,9.519,3.173Z" transform="translate(6.481 6.481)" fill="url(#linear-gradient)"/>
        <path id="Fill_3" data-name="Fill 3" d="M2.3.145A1.615,1.615,0,0,0,0,1.611,1.638,1.638,0,0,0,1.639,3.241a1.486,1.486,0,0,0,1.475-.978A1.613,1.613,0,0,0,2.3.145Z" transform="translate(14.177 14.582)" fill="url(#linear-gradient)"/>
      </g>
    </g>
  </g>
</svg>
