<svg xmlns="http://www.w3.org/2000/svg" width="64.216" height="64" viewBox="0 0 64.216 64">
    <defs>
        <style>
            .cls-2{fill:#ffc4bb}
        </style>
    </defs>
    <g id="return" transform="translate(-1055.888 -581)">
        <path id="Rectangle_117" fill="none" d="M0 0H64V64H0z" transform="translate(1056 581)"/>
        <g id="_093-box-12" transform="translate(1024.015 543.453)">
            <path id="Path_1698" d="M143.33 128.689l15.185-8.767-1.6-.923-15.223 8.789z" class="cls-2" transform="translate(-89.6 -67.796)"/>
            <path id="Path_1699" d="M139.043 208.893V193l-1.637-.951v17.581l15.224 8.79v-1.682z" class="cls-2" transform="translate(-85.887 -131.064)"/>
            <path id="Path_1702" fill="#ff4d31" d="M124.469 135.4l16.737 9.663a.937.937 0 0 0 .937 0l16.737-9.663a.937.937 0 0 0 .469-.812v-19.325a.937.937 0 0 0-.469-.812l-16.737-9.663a.937.937 0 0 0-.937 0l-16.737 9.663a.937.937 0 0 0-.469.812v19.326a.937.937 0 0 0 .469.812zm1.406-18.516l14.862 8.581v17.163l-14.862-8.581zm15.8 6.957L135.016 120l14.861-8.58 6.658 3.844zm.937 18.786v-17.162l14.862-8.581v17.163zm-.937-35.947l6.325 3.656-14.861 8.58-6.329-3.654z" transform="translate(-74.276 -55.378)"/>
            <path id="Path_986" fill="#10928e" stroke="#10928e" stroke-width="0.2px" d="M49.84 37.112a.929.929 0 0 0 0 1.858 27.18 27.18 0 1 1-26.873 31.306h5.426a.9.9 0 0 0 .783-1.394l-6.285-9.861a.93.93 0 0 0-1.567 0l-6.286 9.867a.889.889 0 0 0-.031.924.909.909 0 0 0 .814.46h5.267a29.048 29.048 0 1 0 28.752-33.16zM22.107 61.21l4.593 7.208h-9.184z" transform="translate(17.092 3.386)"/>
        </g>
    </g>
</svg>
