<svg xmlns="http://www.w3.org/2000/svg" width="64" height="64" viewBox="0 0 64 64">
    <defs>
        <style>
            .cls-3{fill:#ff4d31;stroke:#ff4d31;stroke-width:.8px}.cls-4{fill:#ffc4bb}
        </style>
    </defs>
    <g id="Support" transform="translate(-1056 -581)">
        <path id="Rectangle_117" fill="none" d="M0 0H64V64H0z" transform="translate(1056 581)"/>
        <g id="_011-call-center-1" transform="translate(1062.969 596.717)">
            <g id="headphones" transform="translate(-.969 -13.717)">
                <g id="Group_1">
                    <path id="Path_15" fill="#10928e" d="M73.309 20.559a20.559 20.559 0 0 0-41.119 0c-2.935.365-5.711 2.284-5.711 6.739v10.737c0 5.026 3.518 6.853 6.853 6.853h3.312a1.142 1.142 0 0 0 1.142-1.142V21.633a1.142 1.142 0 0 0-1.142-1.142h-2.17a18.275 18.275 0 0 1 36.55 0h-2.17a1.142 1.142 0 0 0-1.142 1.142v22.078a1.142 1.142 0 0 0 1.142 1.142h2.17c-.32 7.847-4.089 9.686-11.616 10.017v-.765a2.284 2.284 0 0 0-2.284-2.284H49.94a2.284 2.284 0 0 0-2.284 2.284v3.712A2.284 2.284 0 0 0 49.94 60.1h7.207a2.284 2.284 0 0 0 2.284-2.284v-.662c7.241-.331 13.5-1.827 13.878-12.37 2.935-.365 5.711-2.284 5.711-6.739V27.31c0-4.478-2.764-6.385-5.711-6.751zM35.5 22.7v19.869h-2.224c-1.69 0-4.569-.594-4.569-4.569V27.264c0-3.941 2.844-4.569 4.569-4.569zm21.644 33.4v1.736H49.94v-3.719h7.207zm19.592-18.065c0 3.941-2.844 4.569-4.569 4.569H70V22.775h2.227c1.69 0 4.569.594 4.569 4.569z" transform="translate(-26.48)"/>
                </g>
            </g>
            <g id="_084-box-6" transform="translate(-34.202 -12.604)">
                <path id="Rectangle_68" d="M0 0H11.415V0.692H0z" class="cls-3" transform="rotate(-29.999 76.674 -87.497)"/>
                <path id="Path_1644" d="M69.292 23.816l-9.887-5.708a.346.346 0 0 0-.346 0l-9.887 5.708a.346.346 0 0 0-.173.3v11.416a.346.346 0 0 0 .173.3l9.888 5.708a.346.346 0 0 0 .346 0l9.887-5.708a.346.346 0 0 0 .173-.3V24.116a.346.346 0 0 0-.173-.3zm-10.06-5.009l9.194 5.308-9.194 5.308-9.194-5.308zm-9.541 5.907l9.195 5.309v10.618l-9.195-5.308zm9.887 15.926V30.023l9.195-5.309v10.619z" class="cls-3"/>
            </g>
            <path id="Path_1649" d="M64.78 162.992c-.089-2.365-.206-12.461-.206-12.461s-1.268-.03-1.761-.03c-.034 2.2-.1 8.068 0 12.187s4.257 3.742 6.8 3.742v-1.92s-4.744.848-4.833-1.518z" class="cls-4" transform="translate(-61.51 -137.457)"/>
            <path id="Path_12898" d="M63.438 152.724v-2.546h-1.211c-.016 1.043 0 3.719 0 3.719H69.4v-1.173z" class="cls-4" transform="translate(-39.711 -109.86)"/>
        </g>
    </g>
</svg>
