<svg id="Capa_1" enable-background="new 0 0 511.989 511.989" height="512" viewBox="0 0 511.989 511.989" width="512" xmlns="http://www.w3.org/2000/svg"><g><g><path d="m406.88 166.228h-142.316l132.477 204.072h33.829v-180.081c0-13.249-10.741-23.991-23.99-23.991z" fill="#fff"/><path d="m162.252 228.895-37.458-57.701-3.223-4.966h-16.461c-13.25 0-23.991 10.741-23.991 23.991v180.081h172.929z" fill="#fff"/><path d="m225.829 465.135h60.332l-13.116-47.086h-34.1z" fill="#9593e6"/><path d="m199.399 465.135c-8.824 0-15.978 7.154-15.978 15.978v20.877h145.146v-20.877c0-8.824-7.153-15.978-15.978-15.978-12.415 0-100.802 0-113.19 0z" fill="#cbcaf3"/><g fill="#fff398"><path d="m121.571 166.228 3.224 4.966z"/><path d="m203.03 219.852 97.666 150.448h.018l-97.672-150.456z"/><path d="m258.548 183.811-22.688 14.729 111.501 171.76h49.68l-132.477-204.072h-.356c2.48 6.329.264 13.738-5.66 17.583z"/><path d="m162.252 228.895 91.796 141.405h.001l-91.796-141.404z"/></g><path d="m182.474 233.196c-6.772 4.396-15.824 2.47-20.221-4.3l91.796 141.404h46.647l-97.666-150.448z" fill="#66e4d1"/><path d="m203.042 219.844 97.672 150.456h46.647l-111.501-171.76z" fill="#fff7ba"/><path d="m210.981 83.687c-4.974-7.662-13.922-11.766-22.974-10.536l-15.995 2.173c-8.706 1.183-17.313-2.764-22.096-10.134l-30.268-46.626c-5.66-8.719-17.316-11.198-26.034-5.538-8.719 5.66-11.198 17.316-5.538 26.034l30.269 46.627c4.784 7.369 4.886 16.837.262 24.308l-8.495 13.725c-4.808 7.767-4.702 17.611.272 25.273l10.911 16.808 100.598-65.305z" fill="#9bbecf"/><path d="m162.252 228.894c.001.001.001.001.001.002 4.397 6.771 13.449 8.696 20.221 4.3l20.555-13.344.013-.008c12.352-8.018 43.774-28.417 55.506-36.033 5.924-3.845 8.139-11.254 5.659-17.583-.355-.906-.806-1.791-1.357-2.64l-40.958-63.093-100.598 65.305.278.427 3.223 4.966z" fill="#a5dbff"/></g><path d="m81.119 370.3v23.758c0 13.167 10.659 23.991 23.991 23.991h133.834 34.101c140.829-.007 136.724.799 143.04-1.833 8.754-3.638 14.786-12.242 14.786-22.158v-23.758c-49.642 0-300.148 0-349.752 0z" fill="#cbcaf3"/><g><path d="m283.644 254.189c-3.262-3.263-8.561-3.952-12.619-1.24-5.079 3.318-6.103 10.798-1.521 15.38 3.925 3.925 10.255 3.886 14.14 0 3.92-3.919 3.881-10.259 0-14.14z"/><path d="m406.88 156.229h-136.885l-39.712-61.174c-.001-.001-.002-.003-.003-.005l-10.912-16.808c-7.046-10.855-19.885-16.741-32.708-15l-15.995 2.173c-4.845.658-9.699-1.567-12.362-5.669l-30.268-46.627c-8.653-13.329-26.537-17.133-39.868-8.48-13.329 8.653-17.133 26.538-8.48 39.867l30.269 46.626c2.663 4.103 2.721 9.441.146 13.6l-8.496 13.725c-12.31 19.888 1.484 37.499 1.588 37.829-17.855.997-32.076 15.834-32.076 33.934v203.839c0 18.743 15.248 33.991 33.991 33.991h120.668l-7.545 27.085h-18.832c-14.324 0-25.978 11.654-25.978 25.978v10.876h-22.789c-5.523 0-10 4.477-10 10s4.477 10 10 10h210.725c5.522 0 10-4.477 10-10s-4.478-10-10-10h-22.789v-10.876c0-14.324-11.653-25.978-25.978-25.978h-18.835l-7.544-27.085c130.463-.017 121.527.108 124.439-.215 16.823-1.851 30.22-16.159 30.22-33.776 0-10.466 0-193.861 0-203.839-.001-18.743-15.249-33.991-33.991-33.991zm0 20c7.714 0 13.99 6.276 13.99 13.991v170.08h-18.398l-119.494-184.071zm0 231.82c-61.61 0-240.02 0-301.77 0-7.714 0-13.991-6.276-13.991-13.991v-13.758h329.75c-.429 8.835 3.454 27.749-13.989 27.749zm-152.417-239.016c1.402 2.159.749 5.021-1.359 6.39-51.737 33.586-39.055 25.353-76.074 49.385-2.154 1.398-5.028.738-6.388-1.357l-35.515-54.708 15.563-10.103 17.407 26.814c3.008 4.633 9.202 5.95 13.833 2.943 4.632-3.007 5.95-9.2 2.943-13.833l-17.407-26.814 18.169-11.795 18.351 28.267c3.008 4.633 9.202 5.95 13.833 2.943 4.632-3.007 5.95-9.2 2.943-13.833l-18.351-28.268 16.541-10.738zm98.329 191.267-47.783-73.606c-3.008-4.632-9.2-5.952-13.833-2.943-4.632 3.007-5.949 9.2-2.942 13.833l40.714 62.717h-22.803l-89.269-137.513 16.042-10.414 15.944 24.56c3.006 4.631 9.198 5.951 13.833 2.943 4.632-3.007 5.949-9.2 2.942-13.833l-15.944-24.56c13.758-9.078 15.089-9.442 17.939-12.163l110.995 170.979zm-168.984-116.565c2.867-1.17 16.178-9.982 16.279-10.05l82.195 126.615h-22.803zm-87.345-210.12c-2.648-4.08-1.484-9.553 2.595-12.202 4.071-2.643 9.549-1.492 12.202 2.596l30.269 46.627c6.858 10.563 19.352 16.293 31.83 14.597l15.995-2.173c5.191-.709 10.388 1.678 13.239 6.071l5.467 8.42c-9.228 5.991-75.137 48.777-83.823 54.416l-5.467-8.421c-2.852-4.393-2.914-10.11-.157-14.564l8.496-13.725c6.628-10.708 6.48-24.453-.377-35.016zm8.647 142.614h11.031c14.382 22.155 106.016 163.31 119.494 184.072h-144.516v-170.082c0-7.714 6.277-13.99 13.991-13.99zm213.458 304.884v10.876h-125.146v-10.876c0-3.296 2.682-5.978 5.978-5.978h113.191c3.296 0 5.977 2.682 5.977 5.978zm-45.573-25.978h-34l7.545-27.085h18.91z"/></g></g></svg>