<svg id="Layer_1" height="512" viewBox="0 0 256 256" width="512" xmlns="http://www.w3.org/2000/svg"><g><g><g><g><g><g><g><g><path d="m241.602 204.327v-151.361h-227.205v151.361c0 5.523 4.477 10 10 10h207.206c5.522 0 9.999-4.477 9.999-10z" fill="#478cf7"/></g><g><path d="m231.602 52.966v141.361c0 5.523-4.477 10-10 10h-207.205c0 5.523 4.477 10 10 10h207.206c5.523 0 10-4.477 10-10v-151.361z" fill="#377de2"/></g><g><path d="m236.602 52.966v146.361c0 5.523-4.477 10-10 10h-207.205c-1.466 0-2.855-.323-4.11-.891 1.569 3.471 5.053 5.891 9.11 5.891h207.206c5.523 0 10-4.477 10-10v-151.361z" fill="#2266d3"/></g><g><path d="m241.603 22.675v30.292h-227.205v-30.292c0-5.523 4.477-10 10-10h207.206c5.522 0 9.999 4.477 9.999 10z" fill="#58595b"/></g><g><path d="m235.713 13.565c.567 1.255.89 2.643.89 4.109v26.292c0 2.209-1.791 4-4 4h-218.205v5h227.206v-30.291c-.001-4.057-2.42-7.542-5.891-9.11z" fill="#414042"/></g><g><g><circle cx="88.125" cy="32.821" fill="#91b56b" r="6.912"/></g><g><circle cx="63.017" cy="32.821" fill="#f79219" r="6.912"/></g><g><circle cx="37.91" cy="32.821" fill="#e63950" r="6.912"/></g></g><g><path d="m20.397 137.501c-1.104 0-2-.896-2-2v-68c0-1.104.896-2 2-2s2 .896 2 2v68c0 1.104-.896 2-2 2zm0-76c-1.104 0-2-.896-2-2v-.535c0-1.104.896-2 2-2s2 .896 2 2v.535c0 1.104-.896 2-2 2z" fill="#5e9cf7"/></g></g></g></g></g></g></g><g><g><g><g><g><path d="m38.383 127.979h108.755v104.361h-108.755z" fill="#e6e7e8"/></g><g><path d="m142.138 127.979v99.361h-103.755v5h108.755v-104.361z" fill="#d1d3d4"/></g><g><path d="m147.413 116.994h-109.304c-3.034 0-5.493 2.459-5.493 5.493 0 3.034 2.459 5.493 5.493 5.493h109.304c3.034 0 5.493-2.459 5.493-5.493 0-3.034-2.46-5.493-5.493-5.493z" fill="#939598"/></g><g><path d="m147.882 117.017c.013.155.024.311.024.469 0 3.033-2.459 5.493-5.493 5.493h-109.304c-.158 0-.314-.011-.469-.024.238 2.813 2.594 5.024 5.469 5.024h109.304c3.034 0 5.493-2.459 5.493-5.493 0-2.875-2.211-5.23-5.024-5.469z" fill="#808285"/></g><g><path d="m147.413 232.34h-109.304c-3.034 0-5.493 2.459-5.493 5.493 0 3.034 2.459 5.493 5.493 5.493h109.304c3.034 0 5.493-2.459 5.493-5.493 0-3.034-2.46-5.493-5.493-5.493z" fill="#939598"/></g><g><path d="m147.882 232.364c.013.155.024.311.024.469 0 3.034-2.459 5.493-5.493 5.493h-109.304c-.158 0-.314-.011-.469-.024.238 2.814 2.594 5.024 5.469 5.024h109.304c3.034 0 5.493-2.459 5.493-5.493 0-2.875-2.211-5.231-5.024-5.469z" fill="#808285"/></g></g><g><path d="m120.266 200.677h-55.011c-2.761 0-5-2.239-5-5v-31.035c0-2.761 2.239-5 5-5h55.011c2.761 0 5 2.239 5 5v31.035c0 2.761-2.238 5-5 5z" fill="#ef7816"/></g><g><g><path d="m99.924 157.47c-3.675 0-6.654-2.979-6.654-6.654v-4.612c0-2.505-2.031-4.536-4.536-4.536-2.505 0-4.536 2.031-4.536 4.536v8.082c0 5.271-4.273 9.545-9.545 9.545-5.271 0-9.545-4.273-9.545-9.545v-8.738c0-4.762-3.861-8.621-8.623-8.619-4.763.002-8.624 3.864-8.624 8.627l-.002 18.234c0 2.615-2.121 4.735-4.736 4.735h-.006c-2.612 0-4.73-2.116-4.731-4.729-.002-14.127-.002-46.802-.002-46.802h68.195v33.821c0 3.675-2.98 6.655-6.655 6.655z" fill="#ffc91d"/></g><g><g><path d="m85.074 141.668c-2.505 0-4.536 2.031-4.536 4.536v8.082c0 4.645-3.319 8.511-7.715 9.365.593.115 1.204.18 1.83.18 5.271 0 9.545-4.273 9.545-9.545v-8.082c0-1.853 1.113-3.445 2.706-4.148-.56-.248-1.178-.388-1.83-.388z" fill="#ffa91a"/></g><g><path d="m52.825 136.928c-4.763.002-8.624 3.864-8.624 8.627l-.002 18.234c0 1.968-1.201 3.654-2.909 4.369.562.235 1.179.366 1.827.366h.006c2.615 0 4.736-2.12 4.736-4.735l.002-18.234c.001-4.136 2.912-7.588 6.797-8.428-.591-.128-1.203-.199-1.833-.199z" fill="#ffa91a"/></g><g><path d="m102.919 116.994v33.821c0 3.04-2.04 5.598-4.824 6.394.582.166 1.194.261 1.83.261 3.675 0 6.655-2.979 6.655-6.654v-33.821h-3.661z" fill="#ffa91a"/></g></g><g><circle cx="43.116" cy="176.963" fill="#ffc91d" r="4.531"/></g><g><path d="m43.116 172.431c-.513 0-1.004.089-1.464.246 1.783.609 3.068 2.295 3.068 4.285s-1.284 3.676-3.068 4.285c.46.157.951.246 1.464.246 2.503 0 4.531-2.029 4.531-4.531.001-2.502-2.028-4.531-4.531-4.531z" fill="#ffa91a"/></g></g></g></g><g><g><g><path d="m220.103 206.25h-79.005l-3.443 34.879c-.116 1.177.808 2.196 1.99 2.196h81.911c1.182 0 2.106-1.02 1.99-2.196z" fill="#58595b"/></g><path d="m220.103 206.25h-4.506l2.95 29.879c.116 1.177-.808 2.197-1.99 2.197h-4.638l-1.323-20.672c-.071-1.103-1.021-1.947-2.124-1.868-1.102.07-1.938 1.021-1.868 2.124l1.307 20.416h-10.56l-.659-20.607c-.035-1.104-.952-2.011-2.063-1.936-1.104.035-1.97.959-1.935 2.063l.655 20.48h-10.686v-20.544c0-1.104-.896-2-2-2s-2 .896-2 2v20.544h-10.686l.655-20.48c.035-1.104-.831-2.027-1.935-2.063-1.112-.069-2.028.831-2.063 1.936l-.659 20.607h-10.682l1.306-20.416c.07-1.103-.766-2.054-1.868-2.124-1.103-.08-2.053.766-2.124 1.868l-1.323 20.672h-11.352l-.277 2.804c-.116 1.176.808 2.196 1.99 2.196h81.911c1.182 0 2.106-1.02 1.99-2.197z" fill="#414042"/><g><path d="m216.973 161.861-10.365-1.519c-10.468-1.534-17.515-11.61-15.239-21.943 1.884-8.554 3.139-18.283 3.139-27.751 0-18.05-6.664-32.161-10.766-39.137-1.407-2.393-4.876-2.393-6.283 0-4.102 6.976-10.766 21.087-10.766 39.137 0 9.467 1.255 19.196 3.139 27.749 2.275 10.332-4.77 20.408-15.237 21.942l-10.367 1.52c-1.797.264-3.129 1.805-3.129 3.621v16.149h79.005v-16.148c-.001-1.815-1.333-3.356-3.131-3.62zm-36.373-68.681c-2.021 0-3.66-1.639-3.66-3.66s1.639-3.66 3.66-3.66 3.66 1.639 3.66 3.66-1.639 3.66-3.66 3.66z" fill="#f2ad97"/></g><g><g><path d="m216.973 161.862-1.871-.274v13.044c0 1.105-.895 2-2 2h-72.005v5h79.005v-16.148c.001-1.817-1.331-3.359-3.129-3.622z" fill="#e59076"/></g></g><g><path d="m141.097 181.631h79.005v24.619h-79.005z" fill="#ffc91d"/></g><g><path d="m215.103 181.631v17.619c0 1.105-.895 2-2 2h-72.005v5h79.005v-24.619z" fill="#ffa91a"/></g></g></g></g></g></svg>