<svg xmlns="http://www.w3.org/2000/svg" width="1099" height="749.202" viewBox="0 0 1099 749.202">
  <g id="Coding" transform="translate(-145.229 -131.288)">
    <path id="Background" d="M171.8,547.652c115.507-185.581-2.577-483.069,292.436-402.964,153.673,41.726,455.534,145.74,634.647,105.848,271.991-60.577,80.943,293.441,69.718,375.957-26.3,193.354-145.694,201.163-367.767,201.163-170.578,0-93.479,38.029-334.262,52.4C293.932,890.357,67.112,715.85,171.8,547.652Z" transform="translate(0 0)" fill="#f2f5f8"/>
    <g id="Gear" transform="translate(781.817 231.624)">
      <path id="Shape" d="M1001.274,482.823,981.782,495.66c-2.945,1.939-3.952,5.655-2.237,8.259l9.061,11.938a99.854,99.854,0,0,0-24.776,36.555l-14.452-3.991c-3.053-.628-6.131,1.683-6.842,5.136l-4.706,22.859c-.712,3.454,1.2,6.794,4.257,7.422l14.853,2.027a99.843,99.843,0,0,0,8.326,43.392l-13.042,7.381c-2.6,1.714-3.146,5.526-1.207,8.47L963.853,664.6c1.939,2.945,5.655,3.952,8.258,2.237l11.942-9.056a99.857,99.857,0,0,0,36.565,24.777l-4,14.446c-.628,3.053,1.683,6.132,5.137,6.843l22.859,4.706c3.453.711,6.793-1.2,7.421-4.258l2.042-14.853a99.85,99.85,0,0,0,43.376-8.326l7.381,13.042c1.714,2.6,5.526,3.146,8.471,1.207l19.491-12.836c2.945-1.939,3.951-5.656,2.237-8.258l-9.056-11.943a99.829,99.829,0,0,0,24.774-36.557l14.449,4c3.053.628,6.132-1.683,6.843-5.136l4.706-22.859c.711-3.453-1.2-6.794-4.257-7.422l-14.854-2.019a99.831,99.831,0,0,0-8.329-43.406l13.046-7.374c2.6-1.714,3.146-5.526,1.207-8.471l-12.836-19.491c-1.939-2.945-5.656-3.952-8.259-2.237l-11.939,9.061a99.845,99.845,0,0,0-36.576-24.785l4.011-14.443c.629-3.053-1.683-6.131-5.136-6.843l-22.859-4.706c-3.453-.711-6.793,1.2-7.421,4.258l-2.036,14.853a99.849,99.849,0,0,0-43.39,8.329l-7.374-13.046C1008.03,481.427,1004.219,480.884,1001.274,482.823Zm22.648,55.608a60.664,60.664,0,1,1-17.3,84.029A60.664,60.664,0,0,1,1023.922,538.431Z" transform="translate(-901.385 -282.653)" fill="#eceff1"/>
      <path id="Shape-2" data-name="Shape" d="M1011.366,493.5l-19.491,12.837c-2.945,1.939-3.951,5.655-2.237,8.259l9.061,11.938a99.853,99.853,0,0,0-24.776,36.555L959.47,559.1c-3.053-.628-6.132,1.683-6.843,5.136l-4.706,22.859c-.712,3.454,1.2,6.794,4.257,7.422l14.854,2.027a99.84,99.84,0,0,0,8.326,43.392l-13.042,7.381c-2.6,1.714-3.146,5.526-1.207,8.471l12.836,19.491c1.939,2.945,5.656,3.952,8.259,2.237l11.943-9.056a99.851,99.851,0,0,0,36.565,24.777l-4.005,14.446c-.628,3.053,1.684,6.132,5.137,6.843l22.859,4.706c3.453.711,6.793-1.2,7.421-4.257l2.042-14.853a99.85,99.85,0,0,0,43.376-8.326l7.381,13.042c1.714,2.6,5.526,3.146,8.471,1.207l19.492-12.836c2.945-1.939,3.951-5.656,2.237-8.258L1136.066,673a99.845,99.845,0,0,0,24.775-36.557l14.449,4c3.053.628,6.132-1.683,6.843-5.136l4.706-22.859c.712-3.453-1.2-6.794-4.257-7.422l-14.854-2.019A99.833,99.833,0,0,0,1159.4,559.6l13.046-7.374c2.6-1.714,3.146-5.526,1.207-8.471l-12.836-19.491c-1.939-2.945-5.656-3.952-8.259-2.237l-11.938,9.061a99.841,99.841,0,0,0-36.576-24.785l4.012-14.443c.628-3.053-1.683-6.131-5.137-6.843l-22.859-4.706c-3.453-.711-6.793,1.206-7.421,4.258l-2.035,14.853a99.865,99.865,0,0,0-43.391,8.329l-7.374-13.046C1018.122,492.1,1014.311,491.559,1011.366,493.5Zm22.649,55.608a60.664,60.664,0,1,1-17.3,84.029A60.663,60.663,0,0,1,1034.014,549.106Z" transform="translate(-902.908 -284.263)" fill="#8f97b9"/>
      <path id="Shape-3" data-name="Shape" d="M1051.5,304.706l-10.525,14.922c-1.59,2.254-1.26,5.248.733,6.655l10.012,6.1a78.126,78.126,0,0,0-7.591,33.707l-11.666,1.226c-2.4.415-3.984,2.98-3.515,5.7l3.109,17.994c.47,2.718,2.82,4.6,5.223,4.188l11.4-2.771a78.126,78.126,0,0,0,18.472,29.221l-7.388,9.105c-1.405,1.992-.711,4.924,1.544,6.514l14.922,10.525c2.255,1.59,5.248,1.261,6.654-.732l6.108-10.01a78.126,78.126,0,0,0,33.715,7.589l1.214,11.666c.415,2.4,2.979,3.985,5.7,3.514l17.994-3.109c2.718-.47,4.6-2.82,4.187-5.223l-2.76-11.4a78.134,78.134,0,0,0,29.21-18.468l9.1,7.388c1.993,1.405,4.924.711,6.514-1.544l10.525-14.922c1.59-2.254,1.26-5.249-.732-6.655l-10.01-6.108a78.135,78.135,0,0,0,7.589-33.707l11.666-1.222c2.4-.415,3.984-2.979,3.515-5.7l-3.109-17.994c-.47-2.719-2.82-4.6-5.223-4.188l-11.4,2.777a78.12,78.12,0,0,0-18.478-29.23l7.392-9.1c1.405-1.993.711-4.924-1.544-6.514l-14.922-10.524c-2.254-1.59-5.249-1.261-6.655.732l-6.1,10.012a78.132,78.132,0,0,0-33.725-7.591l-1.208-11.665c-.415-2.4-2.979-3.985-5.7-3.515l-17.994,3.109c-2.718.47-4.6,2.821-4.187,5.223l2.765,11.4a78.132,78.132,0,0,0-29.218,18.473l-9.1-7.392C1056.018,301.757,1053.086,302.451,1051.5,304.706Zm32.4,34.022a47.464,47.464,0,1,1,11.43,66.143A47.464,47.464,0,0,1,1083.891,338.727Z" transform="translate(-915.143 -252.895)" fill="#8f97b9"/>
      <path id="Shape-4" data-name="Shape" d="M913.545,285.365l-5.269,10.026a2.955,2.955,0,0,0,.987,4.033l6.649,2.946a48.451,48.451,0,0,0-1.95,21.342l-7.076,1.695a2.955,2.955,0,0,0-1.7,3.787l3.363,10.815a2.956,2.956,0,0,0,3.55,2.153l6.785-2.623A48.461,48.461,0,0,0,932.6,356.02l-3.809,6.2a2.957,2.957,0,0,0,1.475,3.881l10.026,5.269a2.955,2.955,0,0,0,4.033-.987l2.949-6.649a48.456,48.456,0,0,0,21.346,1.948l1.687,7.076a2.957,2.957,0,0,0,3.788,1.7l10.814-3.363a2.957,2.957,0,0,0,2.154-3.55l-2.617-6.789a48.45,48.45,0,0,0,16.474-13.713l6.2,3.809a2.956,2.956,0,0,0,3.882-1.474l5.269-10.026a2.956,2.956,0,0,0-.987-4.033l-6.649-2.949a48.451,48.451,0,0,0,1.949-21.342l7.076-1.692a2.956,2.956,0,0,0,1.7-3.787l-3.364-10.815a2.955,2.955,0,0,0-3.549-2.153l-6.784,2.626a48.467,48.467,0,0,0-13.721-16.486l3.812-6.193a2.956,2.956,0,0,0-1.475-3.881l-10.026-5.269a2.956,2.956,0,0,0-4.033.987l-2.946,6.649a48.461,48.461,0,0,0-21.353-1.948l-1.684-7.077a2.956,2.956,0,0,0-3.787-1.7l-10.815,3.363a2.957,2.957,0,0,0-2.154,3.55l2.62,6.787A48.454,48.454,0,0,0,923.619,287.7l-6.193-3.812A2.955,2.955,0,0,0,913.545,285.365Zm22.666,18.309a29.439,29.439,0,1,1,12.364,39.756A29.439,29.439,0,0,1,936.211,303.675Z" transform="translate(-896.458 -251.064)" fill="#8f97b9"/>
    </g>
    <g id="Browser" transform="translate(189.026 297.836)">
      <path id="Shape-5" data-name="Shape" d="M18,0H690.6a18,18,0,0,1,18,18V397.281a18,18,0,0,1-18,18H18a18,18,0,0,1-18-18V18A18,18,0,0,1,18,0Z" transform="translate(0)" fill="#bbc0d6" opacity="0.8"/>
      <path id="Shape-6" data-name="Shape" d="M196.958,371.774l-.149-26.976c0-9.552,8.121-17.367,18.047-17.367h672.5c9.926,0,18.047,7.815,18.047,17.367l-.255,26.976Z" transform="translate(-196.809 -327.431)" fill="#56557e"/>
      <circle id="Shape-7" data-name="Shape" cx="8.163" cy="8.163" r="8.163" transform="translate(22.624 14.009)" fill="#fa538d"/>
      <circle id="Shape-8" data-name="Shape" cx="8.163" cy="8.163" r="8.163" transform="translate(54.733 14.009)" fill="#fab353"/>
      <circle id="Shape-9" data-name="Shape" cx="8.163" cy="8.163" r="8.163" transform="translate(86.841 14.009)" fill="#9dc925"/>
      <g id="Content">
        <path id="Shape-10" data-name="Shape" d="M0,0H682.4V343.317H0Z" transform="translate(12.999 54.596)" fill="#8f97b9"/>
        <g id="Shape-11" data-name="Shape" transform="translate(32.997 69)">
          <path id="Path_3380" data-name="Path 3380" d="M235.67,433.021l23.385-12.194v5.2a2.046,2.046,0,0,1-.3,1.078,2.387,2.387,0,0,1-.975.841l-10.718,5.491a9.683,9.683,0,0,1-1.432.605q-.754.251-1.609.459.856.206,1.609.457a9.769,9.769,0,0,1,1.432.605l10.718,5.521a2.4,2.4,0,0,1,.975.841,2.048,2.048,0,0,1,.3,1.078v5.2L235.67,435.974Z" transform="translate(-235.67 -410.522)" fill="#f9b25f"/>
          <path id="Path_3381" data-name="Path 3381" d="M277.514,452.654a4.341,4.341,0,0,1-.679,1.182,4.031,4.031,0,0,1-.945.841,4.44,4.44,0,0,1-1.122.517,4,4,0,0,1-1.151.177h-3.071l17.243-44.111a4.159,4.159,0,0,1,1.447-1.9,3.85,3.85,0,0,1,2.273-.665h3.1Z" transform="translate(-240.932 -408.691)" fill="#f9b25f"/>
          <path id="Path_3382" data-name="Path 3382" d="M306.047,448.2V443a2.039,2.039,0,0,1,.295-1.078,2.4,2.4,0,0,1,.975-.841l10.718-5.521a14.047,14.047,0,0,1,3.041-1.062q-.857-.206-1.61-.459a9.673,9.673,0,0,1-1.431-.605l-10.718-5.491a2.387,2.387,0,0,1-.975-.841,2.037,2.037,0,0,1-.295-1.078v-5.2l23.384,12.194v2.952Z" transform="translate(-246.289 -410.522)" fill="#f9b25f"/>
        </g>
        <path id="Shape-12" data-name="Shape" d="M4.636,0H147.45a4.636,4.636,0,0,1,0,9.271H4.636A4.636,4.636,0,0,1,4.636,0Z" transform="translate(114.667 128.427)" fill="#bbc0d6"/>
        <path id="Shape-13" data-name="Shape" d="M4.356,0A4.356,4.356,0,0,1,8.712,4.356v.559A4.356,4.356,0,0,1,0,4.915V4.356A4.356,4.356,0,0,1,4.356,0Z" transform="translate(38.236 128.427)" fill="#e5e8f5"/>
        <path id="Shape-14" data-name="Shape" d="M4.356,0A4.356,4.356,0,0,1,8.712,4.356v.559A4.356,4.356,0,0,1,0,4.915V4.356A4.356,4.356,0,0,1,4.356,0Z" transform="translate(38.236 141.117)" fill="#e5e8f5"/>
        <path id="Shape-15" data-name="Shape" d="M4.356,0A4.356,4.356,0,0,1,8.712,4.356v.559A4.356,4.356,0,0,1,0,4.915V4.356A4.356,4.356,0,0,1,4.356,0Z" transform="translate(38.236 176.77)" fill="#e5e8f5"/>
        <path id="Shape-16" data-name="Shape" d="M4.356,0A4.356,4.356,0,0,1,8.712,4.356v.559A4.356,4.356,0,0,1,0,4.915V4.356A4.356,4.356,0,0,1,4.356,0Z" transform="translate(38.236 195.791)" fill="#e5e8f5"/>
        <path id="Shape-17" data-name="Shape" d="M4.356,0A4.356,4.356,0,0,1,8.712,4.356v.559A4.356,4.356,0,0,1,0,4.915V4.356A4.356,4.356,0,0,1,4.356,0Z" transform="translate(38.236 214.651)" fill="#e5e8f5"/>
        <path id="Shape-18" data-name="Shape" d="M4.356,0A4.356,4.356,0,0,1,8.712,4.356v.559A4.356,4.356,0,0,1,0,4.915V4.356A4.356,4.356,0,0,1,4.356,0Z" transform="translate(38.236 229.158)" fill="#e5e8f5"/>
        <path id="Shape-19" data-name="Shape" d="M4.356,0A4.356,4.356,0,0,1,8.712,4.356v.559A4.356,4.356,0,0,1,0,4.915V4.356A4.356,4.356,0,0,1,4.356,0Z" transform="translate(38.236 260.107)" fill="#e5e8f5"/>
        <path id="Shape-20" data-name="Shape" d="M4.356,0A4.356,4.356,0,0,1,8.712,4.356v.559A4.356,4.356,0,0,1,0,4.915V4.356A4.356,4.356,0,0,1,4.356,0Z" transform="translate(38.236 278.806)" fill="#e5e8f5"/>
        <path id="Shape-21" data-name="Shape" d="M4.356,0A4.356,4.356,0,0,1,8.712,4.356v.559A4.356,4.356,0,0,1,0,4.915V4.356A4.356,4.356,0,0,1,4.356,0Z" transform="translate(38.236 297.35)" fill="#e5e8f5"/>
        <path id="Shape-22" data-name="Shape" d="M4.356,0A4.356,4.356,0,0,1,8.712,4.356v.559A4.356,4.356,0,0,1,0,4.915V4.356A4.356,4.356,0,0,1,4.356,0Z" transform="translate(38.236 311.724)" fill="#e5e8f5"/>
        <path id="Shape-23" data-name="Shape" d="M4.356,0A4.356,4.356,0,0,1,8.712,4.356v.559A4.356,4.356,0,0,1,0,4.915V4.356A4.356,4.356,0,0,1,4.356,0Z" transform="translate(38.236 344.423)" fill="#e5e8f5"/>
        <path id="Shape-24" data-name="Shape" d="M4.356,0A4.356,4.356,0,0,1,8.712,4.356v.559A4.356,4.356,0,0,1,0,4.915V4.356A4.356,4.356,0,0,1,4.356,0Z" transform="translate(38.236 359.237)" fill="#e5e8f5"/>
        <path id="Shape-25" data-name="Shape" d="M4.636,0H126.518a4.636,4.636,0,0,1,0,9.271H4.636A4.636,4.636,0,0,1,4.636,0Z" transform="translate(62.171 142.146)" fill="#bbc0d6"/>
        <path id="Shape-26" data-name="Shape" d="M4.636,0H216.906a4.636,4.636,0,0,1,0,9.271H4.636A4.636,4.636,0,0,1,4.636,0Z" transform="translate(200.578 142.146)" fill="#bbc0d6"/>
        <path id="Shape-27" data-name="Shape" d="M4.636,0H80.714a4.636,4.636,0,0,1,0,9.271H4.636A4.636,4.636,0,0,1,4.636,0Z" transform="translate(59.956 177.085)" fill="#f9b25f"/>
        <path id="Shape-28" data-name="Shape" d="M4.636,0H135.184a4.636,4.636,0,0,1,0,9.271H4.636A4.636,4.636,0,0,1,4.636,0Z" transform="translate(76.102 196.271)" fill="#bbc0d6"/>
        <path id="Shape-29" data-name="Shape" d="M4.636,0H222.183a4.636,4.636,0,0,1,0,9.271H4.636A4.636,4.636,0,0,1,4.636,0Z" transform="translate(103.501 214.711)" fill="#bbc0d6"/>
        <path id="Shape-30" data-name="Shape" d="M4.636,0H133.207a4.636,4.636,0,0,1,0,9.271H4.636A4.636,4.636,0,0,1,4.636,0Z" transform="translate(356.305 214.711)" fill="#bbc0d6"/>
        <path id="Shape-31" data-name="Shape" d="M4.636,0h267.18a4.636,4.636,0,0,1,0,9.271H4.636A4.636,4.636,0,0,1,4.636,0Z" transform="translate(84.576 230.55)" fill="#bbc0d6"/>
        <path id="Shape-32" data-name="Shape" d="M4.636,0H47.257a4.636,4.636,0,0,1,0,9.271H4.636A4.636,4.636,0,0,1,4.636,0Z" transform="translate(378.338 230.55)" fill="#bbc0d6"/>
        <path id="Shape-33" data-name="Shape" d="M4.636,0H147.45a4.636,4.636,0,0,1,0,9.271H4.636A4.636,4.636,0,0,1,4.636,0Z" transform="translate(298.361 128.427)" fill="#26c6da"/>
        <path id="Shape-34" data-name="Shape" d="M4.636,0H126.518a4.636,4.636,0,0,1,0,9.271H4.636A4.636,4.636,0,0,1,4.636,0Z" transform="translate(436.966 142.146)" fill="#bbc0d6"/>
        <path id="Shape-35" data-name="Shape" d="M4.636,0H80.714a4.636,4.636,0,0,1,0,9.271H4.636A4.636,4.636,0,0,1,4.636,0Z" transform="translate(467.342 177.085)" fill="#bbc0d6"/>
        <path id="Shape-36" data-name="Shape" d="M4.636,0H198.165a4.636,4.636,0,0,1,0,9.271H4.636A4.636,4.636,0,0,1,4.636,0Z" transform="translate(449.292 234.788)" fill="#bbc0d6"/>
        <path id="Shape-37" data-name="Shape" d="M4.636,0h267.18a4.636,4.636,0,0,1,0,9.271H4.636A4.636,4.636,0,0,1,4.636,0Z" transform="translate(161.609 175.738)" fill="#bbc0d6"/>
        <path id="Shape-38" data-name="Shape" d="M4.636,0H80.714a4.636,4.636,0,0,1,0,9.271H4.636A4.636,4.636,0,0,1,4.636,0Z" transform="translate(59.956 260.273)" fill="#f9b25f"/>
        <path id="Shape-39" data-name="Shape" d="M4.636,0H135.184a4.636,4.636,0,0,1,0,9.271H4.636A4.636,4.636,0,0,1,4.636,0Z" transform="translate(76.102 279.46)" fill="#bbc0d6"/>
        <path id="Shape-40" data-name="Shape" d="M4.636,0H222.183a4.636,4.636,0,0,1,0,9.271H4.636A4.636,4.636,0,0,1,4.636,0Z" transform="translate(103.501 297.899)" fill="#bbc0d6"/>
        <path id="Shape-41" data-name="Shape" d="M4.636,0h267.18a4.636,4.636,0,0,1,0,9.271H4.636A4.636,4.636,0,0,1,4.636,0Z" transform="translate(84.576 313.739)" fill="#bbc0d6"/>
        <path id="Shape-42" data-name="Shape" d="M4.636,0H147.45a4.636,4.636,0,0,1,0,9.271H4.636A4.636,4.636,0,0,1,4.636,0Z" transform="translate(114.667 344.878)" fill="#bbc0d6"/>
        <path id="Shape-43" data-name="Shape" d="M4.636,0H126.518a4.636,4.636,0,0,1,0,9.271H4.636A4.636,4.636,0,0,1,4.636,0Z" transform="translate(62.171 358.597)" fill="#bbc0d6"/>
      </g>
    </g>
    <g id="Browser-2" data-name="Browser" transform="translate(532.72 226.454)">
      <path id="Shape-44" data-name="Shape" d="M10,0H254.563a10,10,0,0,1,10,10V180.987a10,10,0,0,1-10,10H10a10,10,0,0,1-10-10V10A10,10,0,0,1,10,0Z" transform="translate(0 0.239)" fill="#bbc0d6" opacity="0.8"/>
      <path id="Shape-45" data-name="Shape" d="M601.576,263.138V252.929a9.593,9.593,0,0,1,9.565-9.564H856.574a9.593,9.593,0,0,1,9.565,9.564v10.208Z" transform="translate(-601.576 -243.365)" fill="#56557e"/>
      <circle id="Shape-46" data-name="Shape" cx="4.773" cy="4.773" r="4.773" transform="translate(16.167 4.817)" fill="#fa538d"/>
      <circle id="Shape-47" data-name="Shape" cx="4.773" cy="4.773" r="4.773" transform="translate(34.941 4.817)" fill="#fab353"/>
      <circle id="Shape-48" data-name="Shape" cx="4.773" cy="4.773" r="4.773" transform="translate(53.716 4.817)" fill="#9dc925"/>
      <path id="Shape-49" data-name="Shape" d="M0,0H238.361V140.622H0Z" transform="translate(12.999 33.236)" fill="#37474f" opacity="0.8"/>
      <g id="Content-2" data-name="Content" transform="translate(57.69 81.298)">
        <path id="Path_3384" data-name="Path 3384" d="M705.538,381.8h-8V363.143H677.518V381.8h-8V339.109h8v18.366h20.018V339.109h8Z" transform="translate(-669.517 -339.109)" fill="#fff"/>
        <path id="Path_3385" data-name="Path 3385" d="M751.538,339.109v6.525H738.694V381.8h-7.942V345.634h-12.9v-6.525Z" transform="translate(-676.81 -339.109)" fill="#fff"/>
        <path id="Path_3386" data-name="Path 3386" d="M785.835,366.051q.427,1.02.841,2.052.413-1.062.856-2.1t.945-1.979l12.636-23.649a3.3,3.3,0,0,1,.487-.709,1.509,1.509,0,0,1,.561-.384,2.491,2.491,0,0,1,.694-.148c.256-.02.561-.03.915-.03h5.994V381.8h-7V354.227q0-.768.044-1.684t.133-1.86l-12.9,24.211a3.412,3.412,0,0,1-1.151,1.285,2.982,2.982,0,0,1-1.653.457h-1.093a2.98,2.98,0,0,1-1.653-.457,3.422,3.422,0,0,1-1.152-1.285l-13.079-24.3q.117.976.162,1.905t.044,1.727V381.8h-7V339.109h5.994c.354,0,.66.01.915.03a2.493,2.493,0,0,1,.694.148,1.639,1.639,0,0,1,.576.384,2.993,2.993,0,0,1,.5.709L784.9,364.088Q785.406,365.033,785.835,366.051Z" transform="translate(-683.693 -339.109)" fill="#fff"/>
        <path id="Path_3387" data-name="Path 3387" d="M836.087,375.248h17.1V381.8H828.144V339.109h7.943Z" transform="translate(-693.451 -339.109)" fill="#fff"/>
      </g>
    </g>
    <g id="Browser-3" data-name="Browser" transform="translate(406.857 561.706)">
      <path id="Shape-50" data-name="Shape" d="M10,0H204.792a10,10,0,0,1,10,10V151.378a10,10,0,0,1-10,10H10a10,10,0,0,1-10-10V10A10,10,0,0,1,10,0Z" transform="translate(0 0.24)" fill="#bbc0d6" opacity="0.8"/>
      <path id="Shape-51" data-name="Shape" d="M453.347,657.961V647.753a9.593,9.593,0,0,1,9.565-9.564H658.575a9.593,9.593,0,0,1,9.564,9.564v10.208Z" transform="translate(-453.347 -638.189)" fill="#56557e"/>
      <circle id="Shape-52" data-name="Shape" cx="4.773" cy="4.773" r="4.773" transform="translate(16.167 4.817)" fill="#fa538d"/>
      <circle id="Shape-53" data-name="Shape" cx="4.773" cy="4.773" r="4.773" transform="translate(34.941 4.817)" fill="#fab353"/>
      <circle id="Shape-54" data-name="Shape" cx="4.773" cy="4.773" r="4.773" transform="translate(53.716 4.817)" fill="#9dc925"/>
      <path id="Shape-55" data-name="Shape" d="M0,0H188.591V111.013H0Z" transform="translate(13 33.236)" fill="#37474f" opacity="0.8"/>
      <g id="Content-3" data-name="Content" transform="translate(50.043 63.742)">
        <path id="Path_3389" data-name="Path 3389" d="M544.11,746.356a1.491,1.491,0,0,1,1.122.5l3.13,3.4a17.2,17.2,0,0,1-6.392,4.931,22.037,22.037,0,0,1-9.109,1.712,21.522,21.522,0,0,1-8.547-1.623,18.831,18.831,0,0,1-6.48-4.517,19.769,19.769,0,0,1-4.119-6.909,25.937,25.937,0,0,1-1.432-8.769,23.592,23.592,0,0,1,1.6-8.814,19.9,19.9,0,0,1,11.411-11.4,23.806,23.806,0,0,1,8.9-1.609,21.027,21.027,0,0,1,8.311,1.52,19.448,19.448,0,0,1,6.1,4.03l-2.657,3.691a2.427,2.427,0,0,1-.605.621,1.721,1.721,0,0,1-1.019.265,2.316,2.316,0,0,1-1.388-.531,17.267,17.267,0,0,0-1.8-1.151,14.667,14.667,0,0,0-2.761-1.151,15.964,15.964,0,0,0-9.772.516,12.311,12.311,0,0,0-4.34,3,13.779,13.779,0,0,0-2.834,4.739,18.178,18.178,0,0,0-1.019,6.274,18.674,18.674,0,0,0,1.019,6.407,14.059,14.059,0,0,0,2.76,4.724,11.778,11.778,0,0,0,4.1,2.938,12.681,12.681,0,0,0,5.078,1.019,22.278,22.278,0,0,0,2.938-.178,12.567,12.567,0,0,0,2.421-.561,10.76,10.76,0,0,0,2.1-.989,13.126,13.126,0,0,0,1.963-1.491,2.8,2.8,0,0,1,.62-.428A1.566,1.566,0,0,1,544.11,746.356Z" transform="translate(-512.282 -713.258)" fill="#fff"/>
        <path id="Path_3390" data-name="Path 3390" d="M584.136,721.5a2.2,2.2,0,0,1-.752.915,1.9,1.9,0,0,1-1.019.266,2.584,2.584,0,0,1-1.329-.458q-.738-.457-1.742-1.019a14.232,14.232,0,0,0-2.348-1.018,9.849,9.849,0,0,0-3.173-.458,9.33,9.33,0,0,0-2.879.4,6.089,6.089,0,0,0-2.067,1.107,4.427,4.427,0,0,0-1.255,1.7,5.572,5.572,0,0,0-.413,2.17,3.777,3.777,0,0,0,.841,2.51,7.029,7.029,0,0,0,2.229,1.712,20.62,20.62,0,0,0,3.16,1.27q1.77.56,3.616,1.2a35.052,35.052,0,0,1,3.616,1.476,12.558,12.558,0,0,1,3.16,2.126,9.654,9.654,0,0,1,2.229,3.144,10.914,10.914,0,0,1,.841,4.517,14.708,14.708,0,0,1-.989,5.418,12.5,12.5,0,0,1-2.894,4.4,13.615,13.615,0,0,1-4.65,2.952,17.116,17.116,0,0,1-6.289,1.078,20.279,20.279,0,0,1-4.016-.4,21.139,21.139,0,0,1-3.794-1.136,19.788,19.788,0,0,1-3.4-1.772,16.668,16.668,0,0,1-2.82-2.3l2.3-3.809a2.949,2.949,0,0,1,.783-.694,1.911,1.911,0,0,1,1.019-.28,2.813,2.813,0,0,1,1.594.605q.856.6,2.023,1.343a15.5,15.5,0,0,0,2.746,1.342,10.594,10.594,0,0,0,3.794.606,7.783,7.783,0,0,0,5.255-1.61,5.774,5.774,0,0,0,1.86-4.62,4.287,4.287,0,0,0-.841-2.746,6.8,6.8,0,0,0-2.229-1.787,16.768,16.768,0,0,0-3.16-1.225q-1.772-.5-3.6-1.092a30.78,30.78,0,0,1-3.6-1.418,11.64,11.64,0,0,1-3.16-2.155,9.8,9.8,0,0,1-2.229-3.321,12.657,12.657,0,0,1-.841-4.916,11.756,11.756,0,0,1,3.647-8.474,13.4,13.4,0,0,1,4.384-2.745,15.949,15.949,0,0,1,5.934-1.033,19.919,19.919,0,0,1,6.968,1.181,15.725,15.725,0,0,1,5.433,3.307Z" transform="translate(-519.181 -713.258)" fill="#fff"/>
        <path id="Path_3391" data-name="Path 3391" d="M621.446,721.5a2.2,2.2,0,0,1-.752.915,1.9,1.9,0,0,1-1.019.266,2.584,2.584,0,0,1-1.329-.458q-.737-.457-1.741-1.019a14.235,14.235,0,0,0-2.348-1.018,9.85,9.85,0,0,0-3.173-.458,9.329,9.329,0,0,0-2.879.4,6.09,6.09,0,0,0-2.067,1.107,4.424,4.424,0,0,0-1.254,1.7,5.557,5.557,0,0,0-.414,2.17,3.777,3.777,0,0,0,.841,2.51,7.031,7.031,0,0,0,2.229,1.712,20.623,20.623,0,0,0,3.16,1.27q1.77.56,3.616,1.2a35.056,35.056,0,0,1,3.616,1.476,12.558,12.558,0,0,1,3.16,2.126,9.653,9.653,0,0,1,2.229,3.144,10.914,10.914,0,0,1,.841,4.517,14.708,14.708,0,0,1-.989,5.418,12.5,12.5,0,0,1-2.894,4.4,13.615,13.615,0,0,1-4.65,2.952,17.117,17.117,0,0,1-6.289,1.078,20.279,20.279,0,0,1-4.015-.4,21.143,21.143,0,0,1-3.794-1.136,19.789,19.789,0,0,1-3.4-1.772,16.666,16.666,0,0,1-2.82-2.3l2.3-3.809a2.947,2.947,0,0,1,.783-.694,1.911,1.911,0,0,1,1.019-.28,2.813,2.813,0,0,1,1.594.605q.856.6,2.023,1.343a15.5,15.5,0,0,0,2.746,1.342,10.593,10.593,0,0,0,3.794.606,7.783,7.783,0,0,0,5.255-1.61,5.774,5.774,0,0,0,1.86-4.62,4.287,4.287,0,0,0-.842-2.746,6.8,6.8,0,0,0-2.229-1.787,16.766,16.766,0,0,0-3.16-1.225q-1.772-.5-3.6-1.092a30.772,30.772,0,0,1-3.6-1.418,11.639,11.639,0,0,1-3.16-2.155,9.8,9.8,0,0,1-2.229-3.321,12.657,12.657,0,0,1-.841-4.916,11.756,11.756,0,0,1,3.647-8.474,13.4,13.4,0,0,1,4.384-2.745,15.949,15.949,0,0,1,5.935-1.033,19.919,19.919,0,0,1,6.968,1.181,15.725,15.725,0,0,1,5.433,3.307Z" transform="translate(-524.81 -713.258)" fill="#fff"/>
      </g>
    </g>
    <g id="Browser-4" data-name="Browser" transform="translate(451.978 339.295)">
      <path id="Shape-56" data-name="Shape" d="M10,0H204.792a10,10,0,0,1,10,10V151.378a10,10,0,0,1-10,10H10a10,10,0,0,1-10-10V10A10,10,0,0,1,10,0Z" transform="translate(0 0.24)" fill="#bbc0d6" opacity="0.8"/>
      <path id="Shape-57" data-name="Shape" d="M506.486,396.03V385.822a9.593,9.593,0,0,1,9.564-9.565H711.713a9.593,9.593,0,0,1,9.564,9.565V396.03Z" transform="translate(-506.486 -376.257)" fill="#56557e" opacity="0.8"/>
      <circle id="Shape-58" data-name="Shape" cx="4.773" cy="4.773" r="4.773" transform="translate(16.167 4.818)" fill="#fa538d"/>
      <circle id="Shape-59" data-name="Shape" cx="4.773" cy="4.773" r="4.773" transform="translate(34.941 4.818)" fill="#fab353"/>
      <circle id="Shape-60" data-name="Shape" cx="4.773" cy="4.773" r="4.773" transform="translate(53.715 4.818)" fill="#9dc925"/>
      <path id="Shape-61" data-name="Shape" d="M0,0H188.591V111.013H0Z" transform="translate(12.999 33.237)" fill="#37474f" opacity="0.8"/>
      <g id="Content-4" data-name="Content" transform="translate(34.835 64.884)">
        <path id="Path_3393" data-name="Path 3393" d="M567.883,480.188a22.136,22.136,0,0,1-.887,6.5,13.477,13.477,0,0,1-2.642,4.931,11.523,11.523,0,0,1-4.384,3.13,15.848,15.848,0,0,1-6.112,1.092,25.161,25.161,0,0,1-3.13-.192,28,28,0,0,1-3.218-.605l.414-4.724a1.569,1.569,0,0,1,.487-1.048,1.777,1.777,0,0,1,1.255-.4,5.608,5.608,0,0,1,1.314.206,9.737,9.737,0,0,0,5.034-.28,5.059,5.059,0,0,0,2.169-1.55,7.138,7.138,0,0,0,1.314-2.761,16.513,16.513,0,0,0,.443-4.118V452.671h7.943Z" transform="translate(-547.51 -452.671)" fill="#fff"/>
        <path id="Path_3394" data-name="Path 3394" d="M616.64,495.365H610.5a2.679,2.679,0,0,1-1.7-.516,2.93,2.93,0,0,1-.96-1.285l-3.189-8.71H586.968l-3.189,8.71a2.789,2.789,0,0,1-.93,1.24,2.609,2.609,0,0,1-1.7.561h-6.171l16.77-42.694h8.119Zm-27.635-16.12h13.611l-5.2-14.2q-.354-.945-.782-2.23t-.841-2.79q-.414,1.505-.813,2.8T594.2,465.1Z" transform="translate(-551.655 -452.671)" fill="#fff"/>
        <path id="Path_3395" data-name="Path 3395" d="M618.411,452.671h6.407a2.675,2.675,0,0,1,1.683.5,3.069,3.069,0,0,1,.974,1.3l10.039,26.042q.5,1.27.96,2.79t.87,3.2a36.725,36.725,0,0,1,1.684-5.993l10.009-26.042a3.063,3.063,0,0,1,.944-1.24,2.557,2.557,0,0,1,1.683-.561h6.407l-17.243,42.694h-7.174Z" transform="translate(-558.208 -452.671)" fill="#fff"/>
        <path id="Path_3396" data-name="Path 3396" d="M703.64,495.365H697.5a2.683,2.683,0,0,1-1.7-.516,2.931,2.931,0,0,1-.959-1.285l-3.188-8.71H673.968l-3.189,8.71a2.789,2.789,0,0,1-.93,1.24,2.612,2.612,0,0,1-1.7.561H661.98l16.77-42.694h8.12ZM676,479.244h13.61l-5.2-14.2q-.354-.945-.782-2.23t-.841-2.79q-.414,1.505-.812,2.8T681.2,465.1Z" transform="translate(-564.782 -452.671)" fill="#fff"/>
      </g>
    </g>
    <g id="Browser-5" data-name="Browser" transform="translate(830.194 433.238)">
      <path id="Shape-62" data-name="Shape" d="M10,0H254.563a10,10,0,0,1,10,10V180.987a10,10,0,0,1-10,10H10a10,10,0,0,1-10-10V10A10,10,0,0,1,10,0Z" transform="translate(0 0.24)" fill="#bbc0d6" opacity="0.8"/>
      <path id="Shape-63" data-name="Shape" d="M951.91,506.666V496.458a9.593,9.593,0,0,1,9.564-9.565h245.433a9.593,9.593,0,0,1,9.565,9.565v10.208Z" transform="translate(-951.91 -486.893)" fill="#56557e"/>
      <circle id="Shape-64" data-name="Shape" cx="4.773" cy="4.773" r="4.773" transform="translate(16.167 4.818)" fill="#fa538d"/>
      <circle id="Shape-65" data-name="Shape" cx="4.773" cy="4.773" r="4.773" transform="translate(34.941 4.818)" fill="#fab353"/>
      <circle id="Shape-66" data-name="Shape" cx="4.773" cy="4.773" r="4.773" transform="translate(53.715 4.818)" fill="#9dc925"/>
      <path id="Shape-67" data-name="Shape" d="M0,0H238.361V140.622H0Z" transform="translate(12.999 33.237)" fill="#37474f" opacity="0.8"/>
      <g id="Shield" transform="translate(85.462 51.386)">
        <path id="Path_3398" data-name="Path 3398" d="M1101.217,657s-48.659-19.638-48.659-43.641v-60.23c28.118,7.651,48.635-5.715,48.635-5.715s17.767,13.6,48.635,5.715v60.23C1149.828,637.358,1101.217,657,1101.217,657Z" transform="translate(-1052.558 -547.41)" fill="#fff"/>
        <g id="Group_5020" data-name="Group 5020" transform="translate(3.945 5.53)">
          <path id="Path_3399" data-name="Path 3399" d="M1102.518,650.127S1061.2,633.6,1061.2,613.405V564.27c23.873,6.438,41.293-5.4,41.293-5.4s15.085,12.03,41.292,5.4v49.136C1143.79,633.6,1102.518,650.127,1102.518,650.127Z" transform="translate(-1057.807 -554.67)" fill="#fff"/>
          <path id="Path_3400" data-name="Path 3400" d="M1101.914,653.039l-1.262-.5c-1.775-.71-43.448-17.634-43.448-39.875V559.09l4.28,1.154a50.285,50.285,0,0,0,38.508-4.933l2.065-1.388,1.954,1.546c.558.436,14.247,10.858,38.342,4.762l4.23-1.071v53.5c0,22.239-41.635,39.165-43.408,39.875ZM1064,567.792V612.66c0,14.123,26.251,28.138,37.916,33.048,11.655-4.911,37.878-18.925,37.878-33.048v-44.9c-19.961,3.8-33.2-2.628-38.013-5.6A56.856,56.856,0,0,1,1064,567.792Z" transform="translate(-1057.204 -553.923)" fill="#f9b25f"/>
        </g>
      </g>
    </g>
    <g id="Person" transform="translate(541.13 525.227)">
      <path id="Shape-68" data-name="Shape" d="M961.494,644.32c0-5.348-3.131-9.75-7.165-10.365,2.074-1.362,2.236-5.769.28-10.256-1.838-4.218-4.933-7.1-7.341-7.034a10.217,10.217,0,0,0,.133-1.592c0-5.191-3.883-9.4-8.673-9.4a8.076,8.076,0,0,0-3.392.747c.751-2.82-2.181-6.278-6.765-7.864-3.928-1.359-7.827-.915-9.672.9-1.007-2.434-4.362-4.224-8.355-4.224a10.378,10.378,0,0,0-7.206,2.549,8.789,8.789,0,0,0-6.345-2.549,8.329,8.329,0,0,0-7.405,4,14.1,14.1,0,0,0-7.484.382c-5.015,1.548-8.355,5.09-7.752,8.084a8.477,8.477,0,0,0-3.919-.972c-5.388,0-9.756,5.144-9.756,11.49a12.651,12.651,0,0,0,2.462,7.611,6.412,6.412,0,0,0-1.92-.3c-5.089,0-9.214,6.079-9.214,13.578,0,5.289,2.056,9.86,5.051,12.1-2.31,1.439-3.967,5.293-3.967,9.833,0,5.769,2.67,10.445,5.962,10.445a3.6,3.6,0,0,0,1.4-.3,7.212,7.212,0,0,0-1.939,5c0,3.75,2.669,6.79,5.962,6.79a5.3,5.3,0,0,0,1.069-.115,5,5,0,0,0-.526,2.2c0,3.412,3.538,6.182,7.94,6.26a47.036,47.036,0,0,0,33.8,14.631c26.618,0,48.3-23,49.278-51.767C959.208,652.762,961.494,648.889,961.494,644.32Z" transform="translate(-647.771 -595.228)" fill="#814c74"/>
      <path id="Shape-69" data-name="Shape" d="M926.788,743.882H893.27l1.374-43.921H928.3Z" transform="translate(-653.997 -611.031)" fill="#ffdfae"/>
      <path id="Shape-70" data-name="Shape" d="M1025.884,554.046c-.128,2.943-1.736,20.5,7.877,27.219,14.649,7.382,30.274-8.509,29.068-17.238-.115-3.67-11.268,3.6-10.555,0,1.349-7.953-12.044-7.207-17.34-5.316S1028.418,546.692,1025.884,554.046Z" transform="translate(-785.196 -468.215)" fill="#f4ca92"/>
      <path id="Shape-71" data-name="Shape" d="M918.745,724.4s.261,21.719-9.934,21.621c-13.618-.13-23.822-17.568-23.822-17.568s-39.779,7.43-50.488,19.131c-3.762,4.109,9.645,142.556,9.645,142.556l122.271-.849s12.019-129.4-1.513-147.857C958.044,732.076,921.374,724.4,918.745,724.4Z" transform="translate(-645.029 -614.718)" fill="#37474f"/>
      <path id="Shape-72" data-name="Shape" d="M873.887,657.876c.564,7.423,7.832,9.841,9.164,16.447,3.57,17.695,19.011,35.511,33.452,35.511,12.239,0,30.087-23.211,30.087-49.4a120.8,120.8,0,0,0-1.266-18.729c-1.749-10.817-27.044,18.751-50.087-5.714-5.387-5.72-4.656,18.908-11.629,18.908C883.306,654.9,872.816,643.795,873.887,657.876Z" transform="translate(-651.061 -601.248)" fill="#ffdfae"/>
      <g id="Shape-73" data-name="Shape" transform="translate(240.76 55.047)" opacity="0.8">
        <path id="Path_3405" data-name="Path 3405" d="M943.545,660.551H925.491v-.025H915.1v.025H897.29a1.737,1.737,0,0,0-1.768,1.693v8.666a1.737,1.737,0,0,0,1.768,1.693h19.328a1.737,1.737,0,0,0,1.768-1.693V662.9h4.063v8.012a1.737,1.737,0,0,0,1.768,1.693h19.328a1.737,1.737,0,0,0,1.768-1.693v-8.666A1.737,1.737,0,0,0,943.545,660.551Z" transform="translate(-895.097 -660.127)" fill="#fafafa"/>
        <path id="Path_3406" data-name="Path 3406" d="M943.47,672.957H924.141a2.159,2.159,0,0,1-2.192-2.118v-7.589h-3.214v7.589a2.158,2.158,0,0,1-2.192,2.118H897.214a2.16,2.16,0,0,1-2.193-2.118v-8.666a2.16,2.16,0,0,1,2.193-2.118H943.47a2.158,2.158,0,0,1,2.192,2.118v8.666A2.158,2.158,0,0,1,943.47,672.957ZM917.886,662.4H922.8v8.438a1.309,1.309,0,0,0,1.343,1.269H943.47a1.309,1.309,0,0,0,1.343-1.269v-8.666a1.309,1.309,0,0,0-1.343-1.269H897.214a1.309,1.309,0,0,0-1.344,1.269v8.666a1.309,1.309,0,0,0,1.344,1.269h19.328a1.309,1.309,0,0,0,1.343-1.269Z" transform="translate(-895.021 -660.056)" fill="#37474f"/>
      </g>
      <path id="Shape-74" data-name="Shape" d="M943.01,661.259H925.833v-.023h-9.886v.023H899.005a1.616,1.616,0,0,0-1.682,1.531v7.838a1.617,1.617,0,0,0,1.682,1.531h18.388a1.617,1.617,0,0,0,1.682-1.531v-7.246h3.865v7.246a1.617,1.617,0,0,0,1.682,1.531H943.01a1.617,1.617,0,0,0,1.682-1.531V662.79A1.616,1.616,0,0,0,943.01,661.259Z" transform="translate(-654.609 -605.188)" fill="#fff"/>
      <path id="Shape-75" data-name="Shape" d="M952.332,622.025c-.542-2.131-3.34-3.287-6.434-2.76,1.421-.939,1.1-2.726-.829-4.14a8,8,0,0,0-6.229-1.4,2.307,2.307,0,0,0-.061-.66c-.526-2.068-3.87-3-7.469-2.088a11.109,11.109,0,0,0-2.473.946c.278-1.267-2.275-2.084-5.88-1.84-3.089.209-5.974,1.131-7.177,2.206-1-.778-3.706-.85-6.706-.087a12.936,12.936,0,0,0-5.156,2.393,10.606,10.606,0,0,0-5.026.2c-2.477.63-4.438,1.825-5.158,3.007a20.305,20.305,0,0,0-5.585,1.583c-3.611,1.575-5.762,3.625-5,4.7a11.5,11.5,0,0,0-3.043.362c-4.049,1.029-6.809,3.914-6.166,6.442a3.939,3.939,0,0,0,2.621,2.562,9.052,9.052,0,0,0-1.472.248c-3.824.972-6.307,4.183-5.547,7.171.536,2.108,2.544,3.536,5.021,3.857a4.325,4.325,0,0,0-1.984,4.675,4.467,4.467,0,0,0,5.538,3.023,4.98,4.98,0,0,0,1.02-.387,2.5,2.5,0,0,0-.95,2.363c.38,1.494,2.693,2.2,5.168,1.566a7.537,7.537,0,0,0,.791-.25,1.348,1.348,0,0,0-.172.979c.346,1.359,3.285,1.787,6.6.977,7.552,1.925,17.045,1.871,26.875-.629a58.708,58.708,0,0,0,20.589-9.521,6.139,6.139,0,1,0,8.291-8.583c2.533-3.917,3.632-8.021,2.9-11.939C951.47,625.826,952.8,623.845,952.332,622.025Z" transform="translate(-650.396 -597.463)" fill="#814c74"/>
      <path id="Shape-76" data-name="Shape" d="M866.387,883.72l-17.223,3.691-32.3-42.118s2.355-76.59,15.074-95.667c4.921-7.381,22.443-11.675,22.443-11.675l-10.67,85.3Z" transform="translate(-642.469 -616.763)" fill="#e5e8f5"/>
      <path id="Shape-77" data-name="Shape" d="M949,877.586l17.223,3.69,32.3-42.118s-2.355-76.59-15.073-95.667C978.52,736.11,961,731.817,961,731.817l10.67,85.3Z" transform="translate(-662.405 -615.837)" fill="#e5e8f5"/>
      <path id="Shape-78" data-name="Shape" d="M8,0H143.284a8,8,0,0,1,8,8V82.131a8,8,0,0,1-8,8H8a8,8,0,0,1-8-8V8A8,8,0,0,1,8,0Z" transform="translate(188.59 184.572)" fill="#d8d6dd"/>
      <circle id="Shape-79" data-name="Shape" cx="14.224" cy="14.224" r="14.224" transform="translate(250.008 215.413)" fill="#fff"/>
      <path id="Shape-80" data-name="Shape" d="M0,0H132.317V5.954H0Z" transform="translate(198.073 271.961)" fill="#bfbfbf"/>
      <path id="Shape-81" data-name="Shape" d="M0,0H439.138V14.457H0Z" transform="translate(0 277.788)" fill="#f9b25f"/>
      <path id="Shape-82" data-name="Shape" d="M0,0H439.138V20.094H0Z" transform="translate(0 291.051)" fill="#d8984d"/>
    </g>
  </g>
</svg>
