<svg xmlns="http://www.w3.org/2000/svg" xmlns:xlink="http://www.w3.org/1999/xlink" width="1142.527" height="704.773" viewBox="0 0 1142.527 704.773">
  <defs>
    <linearGradient id="linear-gradient" y1="0.5" x2="1" y2="0.5" gradientUnits="objectBoundingBox">
      <stop offset="0" stop-color="#f8bbd0"/>
      <stop offset="0.102" stop-color="#f8b0c4"/>
      <stop offset="0.286" stop-color="#f994a5"/>
      <stop offset="0.529" stop-color="#fb6772"/>
      <stop offset="0.82" stop-color="#fd292e"/>
      <stop offset="1" stop-color="red"/>
    </linearGradient>
    <linearGradient id="linear-gradient-2" y1="0.5" x2="1" y2="0.5" gradientUnits="objectBoundingBox">
      <stop offset="0" stop-color="#f8bbd0"/>
      <stop offset="0.133" stop-color="#f8bac4"/>
      <stop offset="0.372" stop-color="#f8b7a5"/>
      <stop offset="0.686" stop-color="#f9b473"/>
      <stop offset="1" stop-color="#fbb03b"/>
    </linearGradient>
    <linearGradient id="linear-gradient-3" y1="0.5" x2="1" y2="0.5" gradientUnits="objectBoundingBox">
      <stop offset="0" stop-color="#cce0f4"/>
      <stop offset="0.12" stop-color="#b7d9d4"/>
      <stop offset="0.262" stop-color="#a3d2b7"/>
      <stop offset="0.413" stop-color="#94cda0"/>
      <stop offset="0.576" stop-color="#89c990"/>
      <stop offset="0.758" stop-color="#83c787"/>
      <stop offset="1" stop-color="#81c784"/>
    </linearGradient>
    <linearGradient id="linear-gradient-4" x1="1.029" y1="0.541" x2="-0.25" y2="0.541" gradientUnits="objectBoundingBox">
      <stop offset="0" stop-color="#fff"/>
      <stop offset="0.271" stop-color="#fdf8e3" stop-opacity="0.267"/>
      <stop offset="0.483" stop-color="#fbebac" stop-opacity="0.102"/>
      <stop offset="0.712" stop-color="#fdf5d7" stop-opacity="0.047"/>
      <stop offset="1" stop-color="#fff" stop-opacity="0"/>
    </linearGradient>
  </defs>
  <g id="Responsive_web_design" data-name="Responsive web design" transform="translate(-129.395 -164.74)">
    <path id="Background" d="M1166.994,789.7c198.4,10.4,88.16-421.882-104.525-357.431C774.962,528.44,822.549,294.015,528.7,177.612c-62.352-24.7-209.135-28.252-264.771,124.45-30.7,84.255,76.943,157.437-80,295.741C-42.358,797.217,502.6,876.21,598.445,869.072,892.364,847.181,926.143,777.076,1166.994,789.7Z" transform="translate(0 0)" fill="#f2f5f8"/>
    <g id="Computer" transform="translate(369.872 231.972)">
      <circle id="Shape" cx="4.692" cy="4.692" r="4.692" transform="translate(209.349 56.442)" fill="url(#linear-gradient)"/>
      <circle id="Shape-2" data-name="Shape" cx="4.692" cy="4.692" r="4.692" transform="translate(227.802 56.442)" fill="url(#linear-gradient-2)"/>
      <circle id="Shape-3" data-name="Shape" cx="4.692" cy="4.692" r="4.692" transform="translate(246.255 56.442)" fill="url(#linear-gradient-3)"/>
      <path id="Shape-4" data-name="Shape" d="M0,0H109.607V117.79H0Z" transform="translate(309.965 440.002)" fill="#bfbfbf"/>
      <path id="Shape-5" data-name="Shape" d="M730.093,921.994V909.218c0-9.692,12.8-17.621,28.444-17.621H929.305c15.644,0,28.444,7.929,28.444,17.621v12.777Z" transform="translate(-479.152 -364.202)" fill="#d8d6dd"/>
      <path id="Shape-6" data-name="Shape" d="M12,0H717.538a12,12,0,0,1,12,12V451.56a12,12,0,0,1-12,12H12a12,12,0,0,1-12-12V12A12,12,0,0,1,12,0Z" transform="translate(0)" fill="#37474f"/>
      <path id="Shape-7" data-name="Shape" d="M0,0H686.624V348.81H0Z" transform="translate(21.457 23.558)" fill="#fff"/>
      <rect id="Shape-8" data-name="Shape" width="500.449" height="348.81" transform="translate(99.425 23.558)" fill="#fff" opacity="0.8"/>
      <g id="Content" transform="translate(21.45 23.515)">
        <path id="Shape-9" data-name="Shape" d="M449.614,322.255l-.043-46.589h686.854l0,46.589Z" transform="translate(-449.569 -275.666)" fill="#f2f5f8"/>
        <path id="Shape-10" data-name="Shape" d="M508.372,323.82l-.028-25.014,12.09-.016c1.519-.011,5.423-14.706,8.776-14.706H590.9c3.339,0,7.281,14.81,8.8,14.806l8.852-.018-.015,24.947Z" transform="translate(-460.261 -277.198)" fill="#56557e" opacity="0.5"/>
        <path id="Shape-11" data-name="Shape" d="M702,323.82l-.028-25.014,12.09-.016c1.519-.011,5.423-14.706,8.776-14.706h61.686c3.339,0,7.28,14.81,8.8,14.806l8.852-.018-.015,24.947Z" transform="translate(-495.486 -277.198)" fill="#56557e" opacity="0.5"/>
        <path id="Shape-12" data-name="Shape" d="M799.206,323.82l-.027-25.014,12.09-.016c1.519-.011,5.423-14.706,8.776-14.706H881.73c3.339,0,7.28,14.81,8.8,14.806l8.852-.018-.015,24.947Z" transform="translate(-513.17 -277.198)" fill="#56557e" opacity="0.5"/>
        <path id="Shape-13" data-name="Shape" d="M449.618,323.82l-.028-25.014,139.374-.016c1.519-.011,5.423-14.706,8.776-14.706h61.685c3.339,0,7.281,14.81,8.8,14.806l468.221-.018-.015,24.947Z" transform="translate(-449.573 -277.198)" fill="#56557e"/>
        <g id="Shape-14" data-name="Shape" transform="translate(131.226 159.809)">
          <path id="Path_4969" data-name="Path 4969" d="M0,0H184.054V94.651H0Z" transform="translate(0.409 0.409)" fill="#e5e8f5"/>
        </g>
        <path id="Shape-15" data-name="Shape" d="M5.286,0H335.179a5.286,5.286,0,0,1,0,10.573H5.286A5.286,5.286,0,0,1,0,5.286H0A5.286,5.286,0,0,1,5.286,0Z" transform="translate(194.016 116.614)" fill="#e5e8f5"/>
        <path id="Shape-16" data-name="Shape" d="M6.394,0H234.44a6.394,6.394,0,0,1,0,12.788H6.394A6.394,6.394,0,0,1,6.394,0Z" transform="translate(240.994 88.868)" fill="#e5e8f5"/>
        <path id="Shape-17" data-name="Shape" d="M5.286,0H401.223a5.286,5.286,0,0,1,0,10.573H5.286A5.286,5.286,0,0,1,5.286,0Z" transform="translate(127.972 137.642)" fill="#e5e8f5"/>
        <path id="Shape-18" data-name="Shape" d="M0,0H686.888V29.254H0Z" transform="translate(0 46.663)" fill="#e5e8f5"/>
        <path id="Shape-19" data-name="Shape" d="M5.286,0H144.522a5.286,5.286,0,0,1,0,10.573H5.286A5.286,5.286,0,0,1,5.286,0Z" transform="translate(388.972 160.452)" fill="#e5e8f5"/>
        <path id="Shape-20" data-name="Shape" d="M5.286,0H197.793a5.286,5.286,0,0,1,0,10.573H5.286A5.286,5.286,0,0,1,5.286,0Z" transform="translate(337.036 185.095)" fill="#e5e8f5"/>
        <path id="Shape-21" data-name="Shape" d="M5.286,0H197.733a5.286,5.286,0,0,1,5.286,5.286h0a5.286,5.286,0,0,1-5.286,5.286H5.286A5.286,5.286,0,0,1,5.286,0Z" transform="translate(337.036 206.123)" fill="#e5e8f5"/>
        <path id="Shape-22" data-name="Shape" d="M5.286,0H197.733a5.286,5.286,0,0,1,5.286,5.286h0a5.286,5.286,0,0,1-5.286,5.286H5.286A5.286,5.286,0,0,1,5.286,0Z" transform="translate(337.036 224.444)" fill="#e5e8f5"/>
        <path id="Shape-23" data-name="Shape" d="M5.286,0h153.4a5.286,5.286,0,0,1,0,10.573H5.286A5.286,5.286,0,0,1,0,5.286H0A5.286,5.286,0,0,1,5.286,0Z" transform="translate(337.036 242.508)" fill="#e5e8f5"/>
        <g id="Shape-24" data-name="Shape" transform="translate(5.663 28.063)">
          <path id="Path_2410" data-name="Path 2410" d="M474.5,318.774H462.8v3.81l-6.307-6.307,6.307-6.308v3.81h11.7Z" transform="translate(-456.491 -309.97)" fill="#fff"/>
        </g>
        <g id="Shape-25" data-name="Shape" transform="translate(31.85 28.063)">
          <path id="Path_2411" data-name="Path 2411" d="M488.5,318.774h11.7v3.81l6.307-6.307L500.2,309.97v3.81H488.5Z" transform="translate(-488.502 -309.97)" fill="#fff"/>
        </g>
        <g id="Shape-26" data-name="Shape" transform="translate(60.109 27.983)">
          <rect id="Rectangle_6578" data-name="Rectangle 6578" width="536.566" height="10.72" rx="5.36" transform="translate(0.409 2.409)" fill="#e5e8f5"/>
        </g>
        <g id="Shape-27" data-name="Shape" transform="translate(608.919 27.876)">
          <circle id="Ellipse_388" data-name="Ellipse 388" cx="7.059" cy="7.059" r="7.059" transform="translate(0.41 0.409)" fill="#e5e8f5"/>
        </g>
        <g id="Shape-28" data-name="Shape" transform="translate(631.62 27.876)">
          <circle id="Ellipse_389" data-name="Ellipse 389" cx="7.059" cy="7.059" r="7.059" transform="translate(0.408 0.409)" fill="#e5e8f5"/>
        </g>
        <g id="Shape-29" data-name="Shape" transform="translate(653.879 27.876)">
          <circle id="Ellipse_390" data-name="Ellipse 390" cx="7.059" cy="7.059" r="7.059" transform="translate(0.41 0.409)" fill="#e5e8f5"/>
        </g>
        <circle id="Shape-30" data-name="Shape" cx="4.064" cy="4.064" r="4.064" transform="translate(7.918 6.235)" fill="#fa538d"/>
        <circle id="Shape-31" data-name="Shape" cx="4.064" cy="4.064" r="4.064" transform="translate(23.904 6.235)" fill="#fab353"/>
        <circle id="Shape-32" data-name="Shape" cx="4.064" cy="4.064" r="4.064" transform="translate(39.889 6.235)" fill="#9dc926"/>
        <g id="Shape-33" data-name="Shape" transform="translate(380.096 9.614)">
          <rect id="Rectangle_6579" data-name="Rectangle 6579" width="8.13" height="2.454" transform="translate(0 2.837)" fill="#e0f5ff"/>
          <rect id="Rectangle_6580" data-name="Rectangle 6580" width="2.454" height="8.129" transform="translate(2.838)" fill="#e0f5ff"/>
        </g>
        <path id="Shape-34" data-name="Shape" d="M0,0H1.636V204.912H0Z" transform="translate(131.599 160.827) rotate(-62.749)" fill="#fff"/>
        <path id="Shape-35" data-name="Shape" d="M0,0H204.912V1.636H0Z" transform="matrix(0.889, -0.458, 0.458, 0.889, 131.6, 254.026)" fill="#fff"/>
        <g id="Shape-36" data-name="Shape" transform="translate(17.169 58.553)">
          <g id="Group_4773" data-name="Group 4773">
            <path id="Path_2416" data-name="Path 2416" d="M471.846,353.2h2.776v1.064h-4.066v-6.933h1.29Z" transform="translate(-470.556 -347.257)" fill="#56557e"/>
            <path id="Path_2417" data-name="Path 2417" d="M482.715,350.784a3.848,3.848,0,0,1-.254,1.412,3.338,3.338,0,0,1-.715,1.124,3.236,3.236,0,0,1-1.107.741,4.007,4.007,0,0,1-2.871,0,3.248,3.248,0,0,1-1.112-.741,3.319,3.319,0,0,1-.717-1.124,4.048,4.048,0,0,1,0-2.825,3.311,3.311,0,0,1,.717-1.124,3.248,3.248,0,0,1,1.112-.741,3.756,3.756,0,0,1,1.437-.266,3.708,3.708,0,0,1,1.434.268,3.244,3.244,0,0,1,1.822,1.863A3.849,3.849,0,0,1,482.715,350.784Zm-1.324,0a3.233,3.233,0,0,0-.151-1.024,2.174,2.174,0,0,0-.434-.77,1.874,1.874,0,0,0-.688-.484,2.58,2.58,0,0,0-1.83,0,1.892,1.892,0,0,0-.693.484,2.182,2.182,0,0,0-.438.77,3.484,3.484,0,0,0,0,2.048,2.157,2.157,0,0,0,.438.767,1.9,1.9,0,0,0,.693.482,2.58,2.58,0,0,0,1.83,0,1.886,1.886,0,0,0,.688-.482,2.148,2.148,0,0,0,.434-.767A3.228,3.228,0,0,0,481.391,350.784Z" transform="translate(-471.489 -347.24)" fill="#56557e"/>
            <path id="Path_2418" data-name="Path 2418" d="M488.614,353.3a3.245,3.245,0,0,0,.76-.079,3.127,3.127,0,0,0,.616-.218v-1.261h-.868a.274.274,0,0,1-.2-.07.227.227,0,0,1-.072-.17v-.729h2.306v2.805a3.741,3.741,0,0,1-.549.333,3.555,3.555,0,0,1-.609.233,4.79,4.79,0,0,1-.693.137,6.548,6.548,0,0,1-.8.045,3.616,3.616,0,0,1-1.4-.263,3.275,3.275,0,0,1-1.829-1.856,3.789,3.789,0,0,1-.261-1.423,3.918,3.918,0,0,1,.254-1.434,3.155,3.155,0,0,1,1.856-1.851,4.1,4.1,0,0,1,1.5-.259,3.888,3.888,0,0,1,1.47.252,3.4,3.4,0,0,1,1.053.654l-.375.586a.332.332,0,0,1-.292.177.43.43,0,0,1-.235-.077c-.1-.061-.208-.122-.314-.182a2.174,2.174,0,0,0-.355-.158,2.835,2.835,0,0,0-.437-.11,3.214,3.214,0,0,0-.558-.043,2.392,2.392,0,0,0-.929.173,1.961,1.961,0,0,0-.707.494,2.232,2.232,0,0,0-.451.771,3.029,3.029,0,0,0-.159,1.008,3.142,3.142,0,0,0,.169,1.067,2.23,2.23,0,0,0,.47.789,2.024,2.024,0,0,0,.719.492A2.385,2.385,0,0,0,488.614,353.3Z" transform="translate(-473.189 -347.24)" fill="#56557e"/>
            <path id="Path_2419" data-name="Path 2419" d="M500.563,350.784a3.847,3.847,0,0,1-.254,1.412,3.348,3.348,0,0,1-.714,1.124,3.239,3.239,0,0,1-1.108.741,4.007,4.007,0,0,1-2.871,0,3.256,3.256,0,0,1-1.112-.741,3.329,3.329,0,0,1-.717-1.124,4.048,4.048,0,0,1,0-2.825,3.321,3.321,0,0,1,.717-1.124,3.256,3.256,0,0,1,1.112-.741,3.756,3.756,0,0,1,1.437-.266,3.708,3.708,0,0,1,1.434.268,3.286,3.286,0,0,1,1.108.741,3.322,3.322,0,0,1,.714,1.122A3.848,3.848,0,0,1,500.563,350.784Zm-1.324,0a3.21,3.21,0,0,0-.151-1.024,2.173,2.173,0,0,0-.434-.77,1.874,1.874,0,0,0-.688-.484,2.578,2.578,0,0,0-1.829,0,1.879,1.879,0,0,0-.693.484,2.171,2.171,0,0,0-.439.77,3.5,3.5,0,0,0,0,2.048,2.145,2.145,0,0,0,.439.767,1.891,1.891,0,0,0,.693.482,2.578,2.578,0,0,0,1.829,0,1.886,1.886,0,0,0,.688-.482,2.148,2.148,0,0,0,.434-.767A3.2,3.2,0,0,0,499.239,350.784Z" transform="translate(-474.736 -347.24)" fill="#56557e"/>
          </g>
        </g>
        <g id="Shape-37" data-name="Shape" transform="translate(461.743 58.692)">
          <path id="Path_2420" data-name="Path 2420" d="M1020.584,354.281h-.935v-3.126h-3.7v3.126h-.935V347.41h.935v3.064h3.7V347.41h.935Z" transform="translate(-1014.178 -347.41)" fill="#56557e"/>
          <path id="Path_2421" data-name="Path 2421" d="M1025.6,349.778a2.492,2.492,0,0,1,.962.178,2.031,2.031,0,0,1,.729.5,2.219,2.219,0,0,1,.46.789,3.4,3.4,0,0,1,0,2.07,2.223,2.223,0,0,1-.46.786,2.008,2.008,0,0,1-.729.5,2.74,2.74,0,0,1-1.923,0,2.031,2.031,0,0,1-.731-.5,2.246,2.246,0,0,1-.465-.786,3.37,3.37,0,0,1,0-2.07,2.243,2.243,0,0,1,.465-.789,2.055,2.055,0,0,1,.731-.5A2.49,2.49,0,0,1,1025.6,349.778Zm0,4.335a1.25,1.25,0,0,0,1.075-.482,2.746,2.746,0,0,0,0-2.7,1.247,1.247,0,0,0-1.075-.483,1.5,1.5,0,0,0-.632.124,1.186,1.186,0,0,0-.448.359,1.6,1.6,0,0,0-.269.578,3.421,3.421,0,0,0,0,1.546,1.585,1.585,0,0,0,.269.573,1.2,1.2,0,0,0,.448.358A1.5,1.5,0,0,0,1025.6,354.113Z" transform="translate(-1015.681 -347.841)" fill="#56557e"/>
          <path id="Path_2422" data-name="Path 2422" d="M1030.229,354.712v-4.857h.508a.217.217,0,0,1,.23.177l.062.5a2.514,2.514,0,0,1,.6-.542,1.417,1.417,0,0,1,.775-.211,1.151,1.151,0,0,1,.8.273,1.539,1.539,0,0,1,.439.738,1.513,1.513,0,0,1,.266-.455,1.557,1.557,0,0,1,.371-.317,1.573,1.573,0,0,1,.439-.182,1.951,1.951,0,0,1,.472-.057,1.8,1.8,0,0,1,.683.122,1.358,1.358,0,0,1,.509.358,1.6,1.6,0,0,1,.319.578,2.587,2.587,0,0,1,.11.785v3.092h-.853v-3.092a1.31,1.31,0,0,0-.25-.866.893.893,0,0,0-.724-.3,1.076,1.076,0,0,0-.4.074.946.946,0,0,0-.333.218,1.006,1.006,0,0,0-.228.362,1.412,1.412,0,0,0-.084.506v3.092h-.853v-3.092a1.363,1.363,0,0,0-.235-.873.834.834,0,0,0-.686-.288,1.086,1.086,0,0,0-.587.17,1.922,1.922,0,0,0-.5.463v3.62Z" transform="translate(-1016.946 -347.841)" fill="#56557e"/>
          <path id="Path_2423" data-name="Path 2423" d="M1041.7,349.778a2.192,2.192,0,0,1,.806.146,1.813,1.813,0,0,1,.637.423,1.917,1.917,0,0,1,.42.681,2.632,2.632,0,0,1,.151.923.557.557,0,0,1-.043.268.179.179,0,0,1-.164.067h-3.232a2.7,2.7,0,0,0,.125.8,1.633,1.633,0,0,0,.317.569,1.26,1.26,0,0,0,.479.34,1.646,1.646,0,0,0,.623.113,1.839,1.839,0,0,0,.554-.074,2.688,2.688,0,0,0,.4-.16,3.056,3.056,0,0,0,.281-.161.373.373,0,0,1,.194-.074.188.188,0,0,1,.163.082l.24.312a1.617,1.617,0,0,1-.379.333,2.324,2.324,0,0,1-.472.233,3,3,0,0,1-.52.137,3.193,3.193,0,0,1-.532.045,2.466,2.466,0,0,1-.928-.17,2.021,2.021,0,0,1-.733-.5,2.281,2.281,0,0,1-.483-.813,3.311,3.311,0,0,1-.173-1.113,2.83,2.83,0,0,1,.156-.949,2.23,2.23,0,0,1,.448-.765,2.049,2.049,0,0,1,.714-.508A2.34,2.34,0,0,1,1041.7,349.778Zm.019.628a1.311,1.311,0,0,0-.974.358,1.677,1.677,0,0,0-.441.99h2.642a1.713,1.713,0,0,0-.082-.544,1.2,1.2,0,0,0-.24-.427,1.067,1.067,0,0,0-.386-.278A1.3,1.3,0,0,0,1041.718,350.406Z" transform="translate(-1018.62 -347.841)" fill="#56557e"/>
          <path id="Path_2424" data-name="Path 2424" d="M1013.992,359.784v-.575h25.482v.575Z" transform="translate(-1013.992 -349.556)" fill="#56557e"/>
        </g>
        <g id="Shape-38" data-name="Shape" transform="translate(507.008 58.5)">
          <path id="Path_2425" data-name="Path 2425" d="M1071.385,351.711v2.57h-.925V347.41h2.029a3.814,3.814,0,0,1,1.134.15,2.179,2.179,0,0,1,.8.43,1.742,1.742,0,0,1,.472.671,2.369,2.369,0,0,1,.155.878,2.235,2.235,0,0,1-.168.878,1.886,1.886,0,0,1-.491.686,2.268,2.268,0,0,1-.8.448,3.452,3.452,0,0,1-1.1.161Zm0-.739h1.1a2.139,2.139,0,0,0,.7-.106,1.445,1.445,0,0,0,.511-.3,1.208,1.208,0,0,0,.311-.452,1.553,1.553,0,0,0,.106-.581,1.319,1.319,0,0,0-.406-1.026,1.767,1.767,0,0,0-1.225-.37h-1.1Z" transform="translate(-1069.53 -347.218)" fill="#56557e"/>
          <path id="Path_2426" data-name="Path 2426" d="M1077.342,354.71v-4.857h.488a.27.27,0,0,1,.192.052.325.325,0,0,1,.072.182l.057.758a2.225,2.225,0,0,1,.617-.794,1.448,1.448,0,0,1,1.225-.24,1.272,1.272,0,0,1,.3.127l-.11.638a.144.144,0,0,1-.149.119.738.738,0,0,1-.206-.045,1.282,1.282,0,0,0-.389-.046,1.106,1.106,0,0,0-.746.259,1.943,1.943,0,0,0-.5.753v3.092Z" transform="translate(-1070.782 -347.646)" fill="#56557e"/>
          <path id="Path_2427" data-name="Path 2427" d="M1083.953,349.778a2.485,2.485,0,0,1,.961.178,2.025,2.025,0,0,1,.729.5,2.225,2.225,0,0,1,.461.789,3.421,3.421,0,0,1,0,2.07,2.228,2.228,0,0,1-.461.786,2,2,0,0,1-.729.5,2.739,2.739,0,0,1-1.923,0,2.025,2.025,0,0,1-.731-.5,2.235,2.235,0,0,1-.465-.786,3.353,3.353,0,0,1,0-2.07,2.231,2.231,0,0,1,.465-.789,2.049,2.049,0,0,1,.731-.5A2.485,2.485,0,0,1,1083.953,349.778Zm0,4.335a1.248,1.248,0,0,0,1.074-.482,2.741,2.741,0,0,0,0-2.7,1.245,1.245,0,0,0-1.074-.483,1.5,1.5,0,0,0-.633.124,1.192,1.192,0,0,0-.448.359,1.617,1.617,0,0,0-.268.578,3.43,3.43,0,0,0,0,1.546,1.6,1.6,0,0,0,.268.573,1.2,1.2,0,0,0,.448.358A1.5,1.5,0,0,0,1083.953,354.113Z" transform="translate(-1071.562 -347.648)" fill="#56557e"/>
          <path id="Path_2428" data-name="Path 2428" d="M1091.924,354.238a.217.217,0,0,1-.23-.178l-.077-.589a2.563,2.563,0,0,1-.713.606,1.819,1.819,0,0,1-.918.227,1.751,1.751,0,0,1-.758-.16,1.564,1.564,0,0,1-.58-.472,2.237,2.237,0,0,1-.369-.777,3.985,3.985,0,0,1-.13-1.069,3.359,3.359,0,0,1,.144-1,2.436,2.436,0,0,1,.415-.8,1.906,1.906,0,0,1,1.541-.729,1.764,1.764,0,0,1,.763.151,1.83,1.83,0,0,1,.565.425v-2.7h.853v7.063Zm-1.654-.623a1.378,1.378,0,0,0,.731-.192,2.118,2.118,0,0,0,.578-.542v-2.349a1.359,1.359,0,0,0-.515-.443,1.5,1.5,0,0,0-.621-.127,1.229,1.229,0,0,0-1.046.484,2.262,2.262,0,0,0-.364,1.381,3.535,3.535,0,0,0,.081.813,1.567,1.567,0,0,0,.24.555.949.949,0,0,0,.389.32A1.307,1.307,0,0,0,1090.27,353.616Z" transform="translate(-1072.748 -347.175)" fill="#56557e"/>
          <path id="Path_2429" data-name="Path 2429" d="M1095.849,349.872v3.1a1.293,1.293,0,0,0,.255.854.947.947,0,0,0,.767.3,1.477,1.477,0,0,0,.705-.178,2.212,2.212,0,0,0,.609-.494v-3.582h.854v4.857h-.509a.217.217,0,0,1-.23-.177l-.067-.522a2.671,2.671,0,0,1-.71.563,1.856,1.856,0,0,1-.9.214,1.759,1.759,0,0,1-.7-.132,1.4,1.4,0,0,1-.511-.371,1.6,1.6,0,0,1-.309-.58,2.6,2.6,0,0,1-.1-.753v-3.1Z" transform="translate(-1073.993 -347.666)" fill="#56557e"/>
          <path id="Path_2430" data-name="Path 2430" d="M1104.891,350.718a.352.352,0,0,1-.077.081.177.177,0,0,1-.11.029.276.276,0,0,1-.156-.061,2.408,2.408,0,0,0-.214-.132,1.777,1.777,0,0,0-.314-.132,1.669,1.669,0,0,0-1.081.067,1.211,1.211,0,0,0-.458.367,1.65,1.65,0,0,0-.278.581,2.879,2.879,0,0,0-.094.762,2.76,2.76,0,0,0,.1.784,1.717,1.717,0,0,0,.282.576,1.218,1.218,0,0,0,.444.354,1.362,1.362,0,0,0,.587.122,1.517,1.517,0,0,0,.513-.074,1.584,1.584,0,0,0,.335-.165,2.555,2.555,0,0,0,.221-.166.266.266,0,0,1,.172-.074.181.181,0,0,1,.163.082l.24.312a1.847,1.847,0,0,1-.791.569,2.815,2.815,0,0,1-1,.179,2.123,2.123,0,0,1-.847-.168,1.928,1.928,0,0,1-.678-.487,2.308,2.308,0,0,1-.453-.784,3.147,3.147,0,0,1-.165-1.059,3.2,3.2,0,0,1,.151-1,2.261,2.261,0,0,1,.442-.794,1.993,1.993,0,0,1,.717-.52,2.411,2.411,0,0,1,.978-.187,2.306,2.306,0,0,1,.9.165,2.173,2.173,0,0,1,.7.468Z" transform="translate(-1075.128 -347.648)" fill="#56557e"/>
          <path id="Path_2431" data-name="Path 2431" d="M1108.493,354.455a1.172,1.172,0,0,1-.885-.322,1.283,1.283,0,0,1-.308-.925v-2.973h-.585a.193.193,0,0,1-.13-.046.176.176,0,0,1-.052-.142v-.34l.8-.1.2-1.5a.182.182,0,0,1,.062-.117.2.2,0,0,1,.134-.046h.432v1.674h1.391v.618h-1.391v2.916a.618.618,0,0,0,.149.456.519.519,0,0,0,.383.149.664.664,0,0,0,.233-.037,1,1,0,0,0,.17-.079c.047-.029.088-.056.123-.079a.154.154,0,0,1,.088-.036.147.147,0,0,1,.12.082l.25.407a1.6,1.6,0,0,1-.533.324A1.818,1.818,0,0,1,1108.493,354.455Z" transform="translate(-1076.092 -347.315)" fill="#56557e"/>
          <path id="Path_2432" data-name="Path 2432" d="M1069.323,359.784v-.575h33.806v.575Z" transform="translate(-1069.323 -349.364)" fill="#56557e"/>
        </g>
        <g id="Shape-39" data-name="Shape" transform="translate(561.521 58.5)">
          <path id="Path_2433" data-name="Path 2433" d="M1142.457,354.281h-.72a.31.31,0,0,1-.2-.062.4.4,0,0,1-.115-.158l-.642-1.659h-3.083l-.642,1.659a.379.379,0,0,1-.115.153.3.3,0,0,1-.2.067h-.719l2.747-6.871h.945Zm-4.5-2.551h2.565l-1.079-2.8a5.2,5.2,0,0,1-.206-.648c-.035.132-.069.252-.1.362s-.066.207-.1.29Z" transform="translate(-1135.969 -347.218)" fill="#56557e"/>
          <path id="Path_2434" data-name="Path 2434" d="M1144.821,354.238v-7.063h.857v2.906a2.509,2.509,0,0,1,.694-.564,1.84,1.84,0,0,1,.894-.213,1.79,1.79,0,0,1,.762.158,1.541,1.541,0,0,1,.58.473,2.275,2.275,0,0,1,.369.776,3.952,3.952,0,0,1,.13,1.067,3.352,3.352,0,0,1-.144,1,2.409,2.409,0,0,1-.415.8,1.918,1.918,0,0,1-1.542.726,1.63,1.63,0,0,1-.8-.182,1.829,1.829,0,0,1-.573-.508l-.043.441a.2.2,0,0,1-.22.182Zm2.167-4.253a1.377,1.377,0,0,0-.731.192,2.118,2.118,0,0,0-.578.542v2.35a1.345,1.345,0,0,0,.511.447,1.482,1.482,0,0,0,.626.128,1.226,1.226,0,0,0,1.045-.484,2.255,2.255,0,0,0,.365-1.381,3.415,3.415,0,0,0-.084-.815,1.607,1.607,0,0,0-.241-.559.943.943,0,0,0-.389-.318A1.282,1.282,0,0,0,1146.988,349.985Z" transform="translate(-1137.57 -347.175)" fill="#56557e"/>
          <path id="Path_2435" data-name="Path 2435" d="M1153.226,349.778a2.49,2.49,0,0,1,.961.178,2.025,2.025,0,0,1,.729.5,2.223,2.223,0,0,1,.46.789,3.4,3.4,0,0,1,0,2.07,2.227,2.227,0,0,1-.46.786,2,2,0,0,1-.729.5,2.74,2.74,0,0,1-1.923,0,2.038,2.038,0,0,1-.731-.5,2.246,2.246,0,0,1-.465-.786,3.37,3.37,0,0,1,0-2.07,2.242,2.242,0,0,1,.465-.789,2.062,2.062,0,0,1,.731-.5A2.492,2.492,0,0,1,1153.226,349.778Zm0,4.335a1.249,1.249,0,0,0,1.074-.482,2.746,2.746,0,0,0,0-2.7,1.246,1.246,0,0,0-1.074-.483,1.5,1.5,0,0,0-.633.124,1.186,1.186,0,0,0-.448.359,1.586,1.586,0,0,0-.268.578,3.393,3.393,0,0,0,0,1.546,1.569,1.569,0,0,0,.268.573,1.2,1.2,0,0,0,.448.358A1.5,1.5,0,0,0,1153.226,354.113Z" transform="translate(-1138.677 -347.648)" fill="#56557e"/>
          <path id="Path_2436" data-name="Path 2436" d="M1158.569,349.872v3.1a1.288,1.288,0,0,0,.254.854.946.946,0,0,0,.767.3,1.474,1.474,0,0,0,.7-.178,2.2,2.2,0,0,0,.609-.494v-3.582h.853v4.857h-.509a.217.217,0,0,1-.23-.177l-.067-.522a2.684,2.684,0,0,1-.709.563,1.861,1.861,0,0,1-.9.214,1.76,1.76,0,0,1-.7-.132,1.4,1.4,0,0,1-.51-.371,1.572,1.572,0,0,1-.309-.58,2.6,2.6,0,0,1-.1-.753v-3.1Z" transform="translate(-1139.916 -347.666)" fill="#56557e"/>
          <path id="Path_2437" data-name="Path 2437" d="M1165.738,354.455a1.169,1.169,0,0,1-.884-.322,1.279,1.279,0,0,1-.309-.925v-2.973h-.585a.193.193,0,0,1-.13-.046.176.176,0,0,1-.052-.142v-.34l.8-.1.2-1.5a.182.182,0,0,1,.062-.117.2.2,0,0,1,.134-.046h.432v1.674h1.391v.618H1165.4v2.916a.62.62,0,0,0,.149.456.519.519,0,0,0,.384.149.663.663,0,0,0,.232-.037,1,1,0,0,0,.17-.079c.048-.029.089-.056.123-.079a.154.154,0,0,1,.088-.036.147.147,0,0,1,.12.082l.25.407a1.6,1.6,0,0,1-.532.324A1.826,1.826,0,0,1,1165.738,354.455Z" transform="translate(-1141.019 -347.315)" fill="#56557e"/>
          <path id="Path_2438" data-name="Path 2438" d="M1135.958,359.784v-.575h26.124v.575Z" transform="translate(-1135.958 -349.364)" fill="#56557e"/>
        </g>
        <g id="Shape-40" data-name="Shape" transform="translate(606.786 58.615)">
          <path id="Path_2439" data-name="Path 2439" d="M1197.063,352.845a.2.2,0,0,1,.139.062l.364.4a2.926,2.926,0,0,1-1.024.762,3.485,3.485,0,0,1-1.45.273,3.4,3.4,0,0,1-1.347-.257,2.936,2.936,0,0,1-1.031-.719,3.231,3.231,0,0,1-.662-1.11,4.148,4.148,0,0,1-.235-1.423,3.9,3.9,0,0,1,.251-1.424,3.254,3.254,0,0,1,.708-1.113,3.158,3.158,0,0,1,1.091-.721,3.714,3.714,0,0,1,1.4-.257,3.128,3.128,0,0,1,2.282.873l-.3.427a.334.334,0,0,1-.077.079.208.208,0,0,1-.125.031.244.244,0,0,1-.132-.045c-.047-.03-.1-.068-.165-.113s-.139-.093-.225-.144a1.97,1.97,0,0,0-.307-.144,2.577,2.577,0,0,0-.412-.112,2.817,2.817,0,0,0-.542-.046,2.626,2.626,0,0,0-1.01.189,2.268,2.268,0,0,0-.789.54,2.442,2.442,0,0,0-.515.853,3.266,3.266,0,0,0-.185,1.127,3.329,3.329,0,0,0,.185,1.146,2.52,2.52,0,0,0,.5.851,2.133,2.133,0,0,0,.756.53,2.418,2.418,0,0,0,.939.182,3.727,3.727,0,0,0,.551-.037,2.267,2.267,0,0,0,.453-.112,1.92,1.92,0,0,0,.389-.195,2.978,2.978,0,0,0,.362-.281A.249.249,0,0,1,1197.063,352.845Z" transform="translate(-1191.385 -347.316)" fill="#56557e"/>
          <path id="Path_2440" data-name="Path 2440" d="M1202.062,349.778a2.492,2.492,0,0,1,.962.178,2.032,2.032,0,0,1,.729.5,2.222,2.222,0,0,1,.46.789,3.4,3.4,0,0,1,0,2.07,2.225,2.225,0,0,1-.46.786,2.008,2.008,0,0,1-.729.5,2.741,2.741,0,0,1-1.923,0,2.03,2.03,0,0,1-.731-.5,2.246,2.246,0,0,1-.465-.786,3.37,3.37,0,0,1,0-2.07,2.242,2.242,0,0,1,.465-.789,2.054,2.054,0,0,1,.731-.5A2.491,2.491,0,0,1,1202.062,349.778Zm0,4.335a1.25,1.25,0,0,0,1.075-.482,2.746,2.746,0,0,0,0-2.7,1.247,1.247,0,0,0-1.075-.483,1.5,1.5,0,0,0-.632.124,1.185,1.185,0,0,0-.448.359,1.586,1.586,0,0,0-.268.578,3.389,3.389,0,0,0,0,1.546,1.569,1.569,0,0,0,.268.573,1.2,1.2,0,0,0,.448.358A1.5,1.5,0,0,0,1202.062,354.113Z" transform="translate(-1192.827 -347.764)" fill="#56557e"/>
          <path id="Path_2441" data-name="Path 2441" d="M1206.693,354.712v-4.857h.509a.217.217,0,0,1,.23.177l.067.528a2.7,2.7,0,0,1,.708-.566,1.838,1.838,0,0,1,.9-.216,1.744,1.744,0,0,1,.7.132,1.364,1.364,0,0,1,.508.374,1.661,1.661,0,0,1,.309.582,2.514,2.514,0,0,1,.106.753v3.092h-.854v-3.092a1.3,1.3,0,0,0-.252-.856.938.938,0,0,0-.769-.305,1.431,1.431,0,0,0-.708.182,2.337,2.337,0,0,0-.606.494v3.577Z" transform="translate(-1194.091 -347.764)" fill="#56557e"/>
          <path id="Path_2442" data-name="Path 2442" d="M1214.574,354.455a1.171,1.171,0,0,1-.885-.322,1.283,1.283,0,0,1-.308-.925v-2.973h-.586a.191.191,0,0,1-.129-.046.176.176,0,0,1-.052-.142v-.34l.8-.1.2-1.5a.187.187,0,0,1,.063-.117.2.2,0,0,1,.134-.046h.431v1.674h1.391v.618h-1.391v2.916a.618.618,0,0,0,.15.456.518.518,0,0,0,.383.149.659.659,0,0,0,.232-.037.982.982,0,0,0,.17-.079c.048-.029.089-.056.123-.079a.155.155,0,0,1,.089-.036.147.147,0,0,1,.12.082l.25.407a1.6,1.6,0,0,1-.533.324A1.822,1.822,0,0,1,1214.574,354.455Z" transform="translate(-1195.168 -347.43)" fill="#56557e"/>
          <path id="Path_2443" data-name="Path 2443" d="M1221.093,354.71h-.379a.453.453,0,0,1-.2-.038.211.211,0,0,1-.1-.164l-.1-.451c-.129.115-.253.218-.374.309a2.168,2.168,0,0,1-.384.231,2,2,0,0,1-.43.142,2.458,2.458,0,0,1-.505.047,1.717,1.717,0,0,1-.53-.079,1.21,1.21,0,0,1-.429-.238,1.134,1.134,0,0,1-.29-.4,1.4,1.4,0,0,1-.108-.575,1.074,1.074,0,0,1,.158-.555,1.4,1.4,0,0,1,.511-.474,3.34,3.34,0,0,1,.923-.339,6.274,6.274,0,0,1,1.4-.133v-.381a1.325,1.325,0,0,0-.242-.861.88.88,0,0,0-.718-.292,1.506,1.506,0,0,0-.524.079,1.939,1.939,0,0,0-.369.178c-.1.065-.194.124-.269.178a.39.39,0,0,1-.223.079.256.256,0,0,1-.151-.045.339.339,0,0,1-.1-.113l-.153-.273a2.751,2.751,0,0,1,.868-.58,2.663,2.663,0,0,1,1.031-.192,1.838,1.838,0,0,1,.723.134,1.481,1.481,0,0,1,.533.375,1.578,1.578,0,0,1,.327.58,2.437,2.437,0,0,1,.109.748Zm-2.214-.522a1.735,1.735,0,0,0,.411-.046,1.6,1.6,0,0,0,.353-.13,1.84,1.84,0,0,0,.316-.2,2.674,2.674,0,0,0,.3-.273v-1a5.7,5.7,0,0,0-1,.075,2.815,2.815,0,0,0-.672.195.933.933,0,0,0-.376.285.614.614,0,0,0-.118.367.808.808,0,0,0,.063.333.622.622,0,0,0,.168.229.667.667,0,0,0,.249.131A1.136,1.136,0,0,0,1218.879,354.188Z" transform="translate(-1196.015 -347.762)" fill="#56557e"/>
          <path id="Path_2444" data-name="Path 2444" d="M1226.764,350.718a.373.373,0,0,1-.078.081.174.174,0,0,1-.11.029.278.278,0,0,1-.156-.061,2.372,2.372,0,0,0-.214-.132,1.769,1.769,0,0,0-.313-.132,1.671,1.671,0,0,0-1.082.067,1.213,1.213,0,0,0-.458.367,1.671,1.671,0,0,0-.278.581,2.88,2.88,0,0,0-.093.762,2.788,2.788,0,0,0,.1.784,1.7,1.7,0,0,0,.283.576,1.21,1.21,0,0,0,.443.354,1.365,1.365,0,0,0,.588.122,1.514,1.514,0,0,0,.513-.074,1.58,1.58,0,0,0,.335-.165,2.374,2.374,0,0,0,.221-.166.269.269,0,0,1,.173-.074.18.18,0,0,1,.163.082l.24.312a1.84,1.84,0,0,1-.791.569,2.811,2.811,0,0,1-1,.179,2.116,2.116,0,0,1-.846-.168,1.934,1.934,0,0,1-.679-.487,2.313,2.313,0,0,1-.453-.784,3.444,3.444,0,0,1-.015-2.062,2.277,2.277,0,0,1,.442-.794,2,2,0,0,1,.717-.52,2.411,2.411,0,0,1,.979-.187,2.3,2.3,0,0,1,.9.165,2.177,2.177,0,0,1,.7.468Z" transform="translate(-1197.077 -347.764)" fill="#56557e"/>
          <path id="Path_2445" data-name="Path 2445" d="M1230.365,354.455a1.173,1.173,0,0,1-.885-.322,1.283,1.283,0,0,1-.308-.925v-2.973h-.585a.19.19,0,0,1-.129-.046.176.176,0,0,1-.053-.142v-.34l.8-.1.2-1.5a.183.183,0,0,1,.063-.117.2.2,0,0,1,.134-.046h.431v1.674h1.391v.618h-1.391v2.916a.618.618,0,0,0,.149.456.519.519,0,0,0,.384.149.663.663,0,0,0,.232-.037,1,1,0,0,0,.17-.079c.047-.029.089-.056.123-.079a.153.153,0,0,1,.088-.036.148.148,0,0,1,.12.082l.249.407a1.59,1.59,0,0,1-.532.324A1.813,1.813,0,0,1,1230.365,354.455Z" transform="translate(-1198.041 -347.43)" fill="#56557e"/>
          <path id="Path_2446" data-name="Path 2446" d="M1191.289,359.784v-.575h33.729v.575Z" transform="translate(-1191.289 -349.48)" fill="#56557e"/>
        </g>
        <path id="Shape-41" data-name="Shape" d="M3.6,0H301.21a3.6,3.6,0,0,1,3.6,3.6v6.526a3.6,3.6,0,0,1-3.6,3.6H3.6a3.6,3.6,0,0,1-3.6-3.6V3.6A3.6,3.6,0,0,1,3.6,0Z" transform="translate(87.336 55.918)" fill="#fff"/>
        <path id="Shape-42" data-name="Shape" d="M922.877,357.743H911.895V344.019h10.982a2.953,2.953,0,0,1,2.945,2.944V354.8A2.953,2.953,0,0,1,922.877,357.743Z" transform="translate(-533.675 -288.101)" fill="#56557e"/>
        <g id="Shape-43" data-name="Shape" transform="translate(380.355 58.31)">
          <path id="Path_2448" data-name="Path 2448" d="M917.382,352.7a2.878,2.878,0,1,1,2.879-2.878A2.881,2.881,0,0,1,917.382,352.7Zm0-4.938a2.06,2.06,0,1,0,2.061,2.06A2.062,2.062,0,0,0,917.382,347.761Z" transform="translate(-914.505 -346.943)" fill="#fff"/>
          <rect id="Rectangle_6584" data-name="Rectangle 6584" width="0.818" height="5.812" transform="translate(4.475 4.638) rotate(-42.833)" fill="#fff"/>
        </g>
        <path id="Shape-44" data-name="Shape" d="M8,0H71.3a8,8,0,0,1,8,8V58.734a8,8,0,0,1-8,8H8a8,8,0,0,1-8-8V8A8,8,0,0,1,8,0Z" transform="translate(128.634 272.123)" fill="#e5e8f5"/>
        <path id="Shape-45" data-name="Shape" d="M3.364,0h52.7a3.364,3.364,0,1,1,0,6.727H3.364A3.364,3.364,0,0,1,3.364,0Z" transform="translate(136.336 287.521)" fill="#fff"/>
        <path id="Shape-46" data-name="Shape" d="M3.364,0h52.7a3.364,3.364,0,1,1,0,6.727H3.364A3.364,3.364,0,0,1,3.364,0Z" transform="translate(136.336 302.136)" fill="#fff"/>
        <path id="Shape-47" data-name="Shape" d="M3.364,0H32.295a3.364,3.364,0,0,1,0,6.727H3.364A3.364,3.364,0,0,1,3.364,0Z" transform="translate(136.336 316.538)" fill="#fff"/>
        <path id="Shape-48" data-name="Shape" d="M8,0H71.3a8,8,0,0,1,8,8V58.734a8,8,0,0,1-8,8H8a8,8,0,0,1-8-8V8A8,8,0,0,1,8,0Z" transform="translate(238.752 272.123)" fill="#e5e8f5"/>
        <path id="Shape-49" data-name="Shape" d="M3.364,0h52.7a3.364,3.364,0,1,1,0,6.727H3.364A3.364,3.364,0,0,1,3.364,0Z" transform="translate(246.454 287.521)" fill="#fff"/>
        <path id="Shape-50" data-name="Shape" d="M3.364,0h52.7a3.364,3.364,0,1,1,0,6.727H3.364A3.364,3.364,0,0,1,3.364,0Z" transform="translate(246.454 302.136)" fill="#fff"/>
        <path id="Shape-51" data-name="Shape" d="M3.364,0H32.295a3.364,3.364,0,0,1,0,6.727H3.364A3.364,3.364,0,0,1,3.364,0Z" transform="translate(246.454 316.538)" fill="#fff"/>
        <path id="Shape-52" data-name="Shape" d="M8,0H71.3a8,8,0,0,1,8,8V58.734a8,8,0,0,1-8,8H8a8,8,0,0,1-8-8V8A8,8,0,0,1,8,0Z" transform="translate(348.967 272.123)" fill="#e5e8f5"/>
        <path id="Shape-53" data-name="Shape" d="M3.364,0h52.7a3.364,3.364,0,1,1,0,6.727H3.364A3.364,3.364,0,0,1,3.364,0Z" transform="translate(356.668 287.521)" fill="#fff"/>
        <path id="Shape-54" data-name="Shape" d="M3.364,0h52.7a3.364,3.364,0,1,1,0,6.727H3.364A3.364,3.364,0,0,1,3.364,0Z" transform="translate(356.668 302.136)" fill="#fff"/>
        <path id="Shape-55" data-name="Shape" d="M3.364,0H32.295a3.364,3.364,0,0,1,0,6.727H3.364A3.364,3.364,0,0,1,3.364,0Z" transform="translate(356.668 316.538)" fill="#fff"/>
        <path id="Shape-56" data-name="Shape" d="M8,0H71.3a8,8,0,0,1,8,8V58.734a8,8,0,0,1-8,8H8a8,8,0,0,1-8-8V8A8,8,0,0,1,8,0Z" transform="translate(459.085 272.123)" fill="#e5e8f5"/>
        <path id="Shape-57" data-name="Shape" d="M3.364,0h52.7a3.364,3.364,0,1,1,0,6.727H3.364A3.364,3.364,0,0,1,3.364,0Z" transform="translate(466.787 287.521)" fill="#fff"/>
        <path id="Shape-58" data-name="Shape" d="M3.364,0h52.7a3.364,3.364,0,1,1,0,6.727H3.364A3.364,3.364,0,0,1,3.364,0Z" transform="translate(466.787 302.136)" fill="#fff"/>
        <path id="Shape-59" data-name="Shape" d="M3.364,0H32.295a3.364,3.364,0,0,1,0,6.727H3.364A3.364,3.364,0,0,1,3.364,0Z" transform="translate(466.787 316.538)" fill="#fff"/>
      </g>
    </g>
    <g id="Phone" transform="translate(288.454 491.868)">
      <path id="Shape-60" data-name="Shape" d="M24,0H149.677a24,24,0,0,1,24,24V273.732a24,24,0,0,1-24,24H24a24,24,0,0,1-24-24V24A24,24,0,0,1,24,0Z" transform="translate(0 0)" fill="#56557e"/>
      <rect id="Shape-61" data-name="Shape" width="163.151" height="221.701" transform="translate(5.263 38.015)" fill="#fff"/>
      <path id="Shape-62" data-name="Shape" d="M3.979,0H85.115a3.979,3.979,0,1,1,0,7.958H3.979A3.979,3.979,0,0,1,3.979,0Z" transform="translate(55.596 17.833)" fill="#a1a8c5"/>
      <circle id="Shape-63" data-name="Shape" cx="3.911" cy="3.911" r="3.911" transform="translate(41.254 17.968)" fill="#a1a8c5"/>
      <g id="Shape-64" data-name="Shape" transform="translate(20.838 272.059)">
        <path id="Path_2449" data-name="Path 2449" d="M367.005,908.524h-6.526v-.818h6.526a2.531,2.531,0,0,0,0-5.062H350.75v-.818h16.255a3.349,3.349,0,0,1,0,6.7Z" transform="translate(-349.561 -898.019)" fill="#a1a8c5"/>
        <rect id="Rectangle_6604" data-name="Rectangle 6604" width="6.006" height="0.818" transform="translate(0 4.247) rotate(-45)" fill="#a1a8c5"/>
        <rect id="Rectangle_6605" data-name="Rectangle 6605" width="0.818" height="4.9" transform="translate(0.491 4.653) rotate(-45)" fill="#a1a8c5"/>
      </g>
      <path id="Shape-65" data-name="Shape" d="M438.071,907.6H417.248v-6.538l10.411-3.739,10.412,3.739Zm-20-.818h19.186v-5.145l-9.594-3.445-9.593,3.445Z" transform="translate(-340.82 -625.139)" fill="#a1a8c5"/>
      <g id="Shape-66" data-name="Shape" transform="translate(134.234 271.771)">
        <rect id="Rectangle_6606" data-name="Rectangle 6606" width="20.765" height="0.818" transform="translate(0 9.653)" fill="#a1a8c5"/>
        <rect id="Rectangle_6607" data-name="Rectangle 6607" width="20.765" height="0.818" transform="translate(0 4.695)" fill="#a1a8c5"/>
        <rect id="Rectangle_6608" data-name="Rectangle 6608" width="20.765" height="0.818" fill="#a1a8c5"/>
      </g>
      <g id="Content-2" data-name="Content" transform="translate(5.259 38)">
        <g id="Shape-67" data-name="Shape" transform="translate(7.016 87.982)">
          <path id="Path_4968" data-name="Path 4968" d="M0,0H148.866V76.555H0Z" transform="translate(0.409 0.409)" fill="#e5e8f5"/>
        </g>
        <path id="Shape-68" data-name="Shape" d="M0,0H1.636V163.956H0Z" transform="translate(8.951 89.867) rotate(-62.749)" fill="#fff"/>
        <path id="Shape-69" data-name="Shape" d="M0,0H163.956V1.636H0Z" transform="matrix(0.889, -0.458, 0.458, 0.889, 8.96, 164.164)" fill="#fff"/>
        <path id="Shape-70" data-name="Shape" d="M0,0H163.151V12.248H0Z" fill="#bbc0d6"/>
        <path id="Shape-71" data-name="Shape" d="M0,0H163.151V19.441H0Z" transform="translate(0 12.28)" fill="#e5e8f5"/>
        <g id="Shape-72" data-name="Shape" transform="translate(135.607 3.536)">
          <path id="Path_2452" data-name="Path 2452" d="M497.167,616.219h-.017l-.986.532-.148-.584,1.239-.663h.654v5.668h-.741Z" transform="translate(-496.016 -615.407)" fill="#fff"/>
          <path id="Path_2453" data-name="Path 2453" d="M500.853,621.151v-.47l.6-.585c1.448-1.378,2.1-2.111,2.111-2.966a1.011,1.011,0,0,0-1.125-1.107,1.931,1.931,0,0,0-1.2.479l-.245-.541a2.488,2.488,0,0,1,1.605-.576,1.6,1.6,0,0,1,1.735,1.648c0,1.047-.758,1.893-1.954,3.044l-.453.419v.017h2.546v.636Z" transform="translate(-496.896 -615.386)" fill="#fff"/>
          <path id="Path_2454" data-name="Path 2454" d="M506.392,621.757a.516.516,0,0,1,.524-.55.55.55,0,1,1-.524.55Z" transform="translate(-497.904 -616.445)" fill="#fff"/>
          <path id="Path_2455" data-name="Path 2455" d="M511.9,616.149h-2.162l-.218,1.456a3.064,3.064,0,0,1,.462-.035,2.392,2.392,0,0,1,1.221.305,1.615,1.615,0,0,1,.811,1.457,1.966,1.966,0,0,1-2.11,1.936,2.778,2.778,0,0,1-1.413-.349l.191-.584a2.545,2.545,0,0,0,1.212.313,1.251,1.251,0,0,0,1.343-1.23c-.009-.732-.5-1.256-1.63-1.256a5.845,5.845,0,0,0-.785.061l.366-2.721H511.9Z" transform="translate(-498.285 -615.407)" fill="#fff"/>
          <path id="Path_2456" data-name="Path 2456" d="M513.988,621.151v-.47l.6-.585c1.448-1.378,2.1-2.111,2.111-2.966a1.011,1.011,0,0,0-1.125-1.107,1.933,1.933,0,0,0-1.2.479l-.244-.541a2.485,2.485,0,0,1,1.6-.576,1.6,1.6,0,0,1,1.735,1.648c0,1.047-.758,1.893-1.954,3.044l-.453.419v.017h2.547v.636Z" transform="translate(-499.285 -615.386)" fill="#fff"/>
        </g>
        <rect id="Shape-73" data-name="Shape" width="1.351" height="0.824" rx="0.212" transform="translate(126.317 2.364)" fill="#fff"/>
        <rect id="Shape-74" data-name="Shape" width="5.147" height="7.234" rx="0.467" transform="translate(124.434 2.931)" fill="#fff"/>
        <path id="Shape-75" data-name="Shape" d="M487.124,622.847h-4.382a.382.382,0,0,1-.382-.382v-2.507h5.147v2.507A.382.382,0,0,1,487.124,622.847Z" transform="translate(-357.925 -612.681)" fill="#eceff1"/>
        <path id="Shape-76" data-name="Shape" d="M474.579,613.971v7.766h-7.766Z" transform="translate(-355.096 -611.592)" fill="#eceff1"/>
        <g id="Shape-77" data-name="Shape" transform="translate(107.723 2.349)">
          <path id="Path_2459" data-name="Path 2459" d="M463.465,617.428v-.9h-1.534v-.294l1.473-2.107h.482v2.051h.462v.35h-.462v.9Zm0-1.249v-1.1c0-.173,0-.345.016-.519h-.016c-.1.194-.182.335-.274.488l-.807,1.122v.01Z" transform="translate(-461.931 -613.97)" fill="#eceff1"/>
          <path id="Path_2460" data-name="Path 2460" d="M468.059,617.241a3.183,3.183,0,0,1-1.051.188,1.609,1.609,0,0,1-1.757-1.727,1.717,1.717,0,0,1,1.854-1.767,2.108,2.108,0,0,1,.852.158l-.106.361a1.759,1.759,0,0,0-.756-.148,1.281,1.281,0,0,0-1.377,1.376,1.255,1.255,0,0,0,1.32,1.382,1.441,1.441,0,0,0,.589-.092v-1.02h-.7V615.6h1.127Z" transform="translate(-462.535 -613.935)" fill="#eceff1"/>
        </g>
        <g id="Shape-78" data-name="Shape" transform="translate(4.821 16.032)">
          <path id="Path_4967" data-name="Path 4967" d="M2.749,0h133.5a2.749,2.749,0,0,1,2.749,2.749V8.779a2.749,2.749,0,0,1-2.749,2.749H2.749A2.749,2.749,0,0,1,0,8.779V2.749A2.749,2.749,0,0,1,2.749,0Z" transform="translate(0.204 0.205)" fill="#fff"/>
        </g>
        <g id="Shape-79" data-name="Shape" transform="translate(131.764 17.627)">
          <path id="Path_2475" data-name="Path 2475" d="M492.414,635.594h-.409V632.61h3.245v.409h-2.836Z" transform="translate(-491.443 -632.61)" fill="#8f97b9"/>
          <path id="Path_2476" data-name="Path 2476" d="M495.423,642.486h-3.417v-3.677h.409v3.268h3.008Z" transform="translate(-491.443 -633.738)" fill="#8f97b9"/>
          <path id="Path_2477" data-name="Path 2477" d="M501.929,635.556h-.409v-2.537h-3.049v-.409h3.458Z" transform="translate(-492.619 -632.61)" fill="#8f97b9"/>
          <path id="Path_2478" data-name="Path 2478" d="M501.976,642.477h-3.249v-.409h2.84v-3.307h.409Z" transform="translate(-492.666 -633.729)" fill="#8f97b9"/>
          <rect id="Rectangle_6617" data-name="Rectangle 6617" width="9.922" height="0.409" transform="translate(0 3.894)" fill="#8f97b9"/>
        </g>
        <g id="Shape-80" data-name="Shape" transform="translate(148.034 17.08)">
          <path id="Path_2479" data-name="Path 2479" d="M523.059,637.8l-.359-.2,1.649-3,.359.2Z" transform="translate(-513.297 -632.424)" fill="#8f97b9"/>
          <path id="Path_2480" data-name="Path 2480" d="M522.245,637.886l-2.449-1.345.2-.358,2.449,1.345Z" transform="translate(-512.769 -632.713)" fill="#8f97b9"/>
          <path id="Path_2481" data-name="Path 2481" d="M516.127,641.784a4.922,4.922,0,1,1,4.922-4.922h-.409a4.512,4.512,0,1,0-4.513,4.513Z" transform="translate(-511.206 -631.941)" fill="#8f97b9"/>
        </g>
        <path id="Shape-81" data-name="Shape" d="M5.284,0h82.81a5.284,5.284,0,0,1,0,10.568H5.284A5.284,5.284,0,0,1,5.284,0Z" transform="translate(4.846 39.978)" fill="#e5e8f5"/>
        <path id="Shape-82" data-name="Shape" d="M3.445,0H145.1a3.445,3.445,0,1,1,0,6.889H3.445A3.445,3.445,0,0,1,3.445,0Z" transform="translate(4.846 59.201)" fill="#e5e8f5"/>
        <path id="Shape-83" data-name="Shape" d="M3.445,0h125.5a3.445,3.445,0,1,1,0,6.889H3.445A3.445,3.445,0,0,1,3.445,0Z" transform="translate(4.846 72.804)" fill="#e5e8f5"/>
        <path id="Shape-84" data-name="Shape" d="M3.445,0H145.1a3.445,3.445,0,1,1,0,6.889H3.445A3.445,3.445,0,0,1,3.445,0Z" transform="translate(4.846 176.103)" fill="#e5e8f5"/>
        <path id="Shape-85" data-name="Shape" d="M3.445,0H145.1a3.445,3.445,0,1,1,0,6.889H3.445A3.445,3.445,0,0,1,3.445,0Z" transform="translate(4.846 190.766)" fill="#e5e8f5"/>
        <path id="Shape-86" data-name="Shape" d="M3.445,0h125.5a3.445,3.445,0,1,1,0,6.889H3.445A3.445,3.445,0,0,1,3.445,0Z" transform="translate(4.846 205.978)" fill="#e5e8f5"/>
      </g>
    </g>
    <g id="Lamp" transform="translate(728.317 374.504)">
      <path id="Shape-87" data-name="Shape" d="M1314.946,820.923l-8.05-1.456,45.4-251.1-94.99-92.112-38.152,4.239-.9-8.13,41.982-4.664,100.889,97.832Z" transform="translate(-921.402 -429.617)" fill="#4d4d4d"/>
      <path id="Shape-88" data-name="Shape" d="M1266.036,916A54.482,54.482,0,0,1,1375,916C1375,916.381,1266.036,916.863,1266.036,916Z" transform="translate(-930.096 -501.261)" fill="#f9b25f"/>
      <path id="Shape-89" data-name="Shape" d="M1057.181,855.911,1141.1,536.256l-43.824-25.317L855.391,769.627Z" transform="translate(-855.391 -437.485)" opacity="0.998" fill="url(#linear-gradient-4)"/>
      <circle id="Shape-90" data-name="Shape" cx="26.427" cy="26.427" r="26.427" transform="translate(234.976 62.558)" fill="#e5e8f5"/>
      <circle id="Shape-91" data-name="Shape" cx="23.527" cy="23.527" r="23.527" transform="translate(240.579 66.809)" fill="#fff"/>
      <path id="Shape-92" data-name="Shape" d="M1259.186,466c-6.725-4.158-8.132-15.109-9.376-24.771-.824-6.41-1.759-13.675-4.241-14.374-1.346-.379-4.929.65-13.884,11.781l-2.55-2.05c8.164-10.15,13.34-14,17.321-12.881,4.564,1.287,5.462,8.268,6.6,17.107,1.149,8.937,2.453,19.066,7.851,22.4Z" transform="translate(-923.383 -421.581)" fill="#4d4d4d"/>
      <rect id="Shape-93" data-name="Shape" width="29.724" height="70.473" rx="14.862" transform="matrix(-0.85, -0.527, 0.527, -0.85, 290.928, 75.55)" fill="#4d4d4d"/>
      <path id="Shape-94" data-name="Shape" d="M1107.883,487.892a63.252,63.252,0,1,1,111.778,59.238C1219.452,547.525,1107.411,488.783,1107.883,487.892Z" transform="translate(-901.324 -427.171)" fill="#f9b25f"/>
      <path id="Shape-95" data-name="Shape" d="M0,0H13.656V20.484H0Z" transform="translate(407.668 119.863) rotate(-45)" fill="#4d4d4d"/>
      <path id="Shape-96" data-name="Shape" d="M0,0H13.656V20.484H0Z" transform="translate(427.129 148.94) rotate(11.642)" fill="#4d4d4d"/>
      <circle id="Shape-97" data-name="Shape" cx="19.722" cy="19.722" r="19.722" transform="translate(412.828 119.789)" fill="#4d4d4d"/>
      <circle id="Shape-98" data-name="Shape" cx="14.155" cy="14.155" r="14.155" transform="translate(418.395 125.355)" fill="#f9b25f"/>
    </g>
  </g>
</svg>
