<svg xmlns="http://www.w3.org/2000/svg" width="1093.699" height="758.698" viewBox="0 0 1093.699 758.698">
  <g id="Saving_money" data-name="Saving money" transform="translate(-148.988 -152.045)">
    <path id="Background" d="M160.009,710.065c25.735-58.661,193.423-82.946,217.156-152.6,37.405-109.778-54.2-360.358,75.444-399.892,81.007-24.7,197.732,36.675,283.654,117.414,65.388,61.443,330.2-165.5,442.031,24.238,38,64.481-48.42,93.905,41.084,272.913,87.649,175.3-74.685,430.057-439.691,305.526C667.837,839.506,60.234,937.491,160.009,710.065Z" transform="translate(0 0)" fill="#f2f5f8"/>
    <g id="Jar" transform="translate(585.525 275.787)">
      <path id="Shape" d="M1105.45,423.061V395H731.638v28.171A57.271,57.271,0,0,0,678,480.148V909.422a18.708,18.708,0,0,0,18.653,18.653h447.083a18.708,18.708,0,0,0,18.653-18.653V480.148A57.257,57.257,0,0,0,1105.45,423.061Z" transform="translate(-678 -318.257)" fill="#6fafd8"/>
      <path id="Shape-2" data-name="Shape" d="M1101.389,449.874V395H769.607v54.973A50.83,50.83,0,0,0,722,500.543V881.55a16.6,16.6,0,0,0,16.556,16.556H1135.37a16.6,16.6,0,0,0,16.556-16.556V500.543A50.82,50.82,0,0,0,1101.389,449.874Z" transform="translate(-685.692 -318.257)" fill="#e0f7fa"/>
      <path id="Shape-3" data-name="Shape" d="M34.428,0H366.616a34.428,34.428,0,0,1,34.428,34.428V77.035a5.485,5.485,0,0,1-5.485,5.485H5.485A5.485,5.485,0,0,1,0,77.035V34.428A34.428,34.428,0,0,1,34.428,0Z" transform="translate(40.849 0)" fill="#a25d91"/>
      <path id="Shape-4" data-name="Shape" d="M760.985,317H1105.21c15.625,0-2.948,42.91-171.288,42.91C763.932,359.91,745.36,317,760.985,317Z" transform="translate(-691.732 -304.622)" fill="#7e406f"/>
      <path id="Shape-5" data-name="Shape" d="M4.539,0H154.724a4.539,4.539,0,0,1,0,9.077H4.539A4.539,4.539,0,0,1,4.539,0Z" transform="translate(161.739 27.231)" fill="#fff"/>
      <g id="Dollar" transform="translate(143.301 264.322)">
        <path id="Shape-6" data-name="Shape" d="M1158.857,776.914c-.041-4.3-31.389-154.6-31.389-154.6S913.41,719.479,851.94,677.343c-2.316-1.588,10.37,196.509,10.37,196.509S1159.592,854.841,1158.857,776.914Z" transform="translate(-851.658 -622.316)" fill="#b2dfdb"/>
        <path id="Shape-7" data-name="Shape" d="M869.939,867.015l-.267-4.054c-.026-.407-2.705-41.089-5.117-81.382-1.419-23.675-2.47-42.588-3.124-56.214-.389-8.113-.641-14.428-.748-18.771-.182-7.358-.237-9.579,2.2-11.005l2.2-1.288,2.181,1.394c21.561,14.048,71.19,8.369,143.524-16.42A1086,1086,0,0,0,1115.877,636.4l4.681-2.258,1.138,5.07c.077.343,7.787,34.713,15.27,69.116,15.345,70.557,14.855,72.37,14.421,73.967h0c-8.181,30.118-57.656,53.48-147.052,69.438C938.762,863.44,874.637,866.777,874,866.81ZM868.9,705.907c.521,21.967,5.182,98.2,8.737,152.425,15.052-.932,69.675-4.8,125.319-14.734,106.135-18.955,134.983-44.624,140.337-62.994-.567-7.833-16.865-82.495-28.522-134.558-13.674,6.372-55.415,25.306-101.306,41.034C943.5,711.056,894.947,717.368,868.9,705.907Zm274.406,75Zm.118-.777,0,.012,0-.012Z" transform="translate(-853.222 -624.384)" fill="#6da196"/>
        <g id="Shape-8" data-name="Shape" transform="translate(141.651 91.264)">
          <g id="Group_3191" data-name="Group 3191" transform="translate(0 6.336)">
            <path id="Path_1662" data-name="Path 1662" d="M1025.694,806.607a34.969,34.969,0,0,0,17.765,4.741c10.095-.143,15.917-5.558,15.808-13.27-.1-7.145-4.242-11.172-14.62-15-12.539-4.247-20.344-10.6-20.5-21.378-.168-11.909,9.575-20.9,24.433-21.107,7.826-.111,13.522,1.624,16.953,3.5l-2.607,8.092a30.458,30.458,0,0,0-14.57-3.424c-10.435.148-14.317,6.442-14.243,11.659.1,7.145,4.8,10.6,15.407,14.53,13,4.808,19.668,10.954,19.827,22.183.167,11.8-8.423,22.128-26.457,22.383-7.372.1-15.456-1.937-19.578-4.6Z" transform="translate(-1023.316 -740.592)" fill="#6da196"/>
          </g>
          <rect id="Rectangle_3996" data-name="Rectangle 3996" width="8.228" height="12.19" transform="matrix(1, -0.014, 0.014, 1, 17.889, 0.116)" fill="#6da196"/>
          <rect id="Rectangle_3997" data-name="Rectangle 3997" width="8.228" height="12.19" transform="matrix(1, -0.014, 0.014, 1, 19, 78.603)" fill="#6da196"/>
        </g>
        <path id="Shape-9" data-name="Shape" d="M1174.631,650.247a9.431,9.431,0,1,1-17.911-5.912c.105-.322,5.455-.4,10.054,1.132C1171.118,646.91,1174.732,649.944,1174.631,650.247Z" transform="translate(-904.902 -626.132)" fill="#6da196"/>
        <path id="Shape-10" data-name="Shape" d="M1197.316,823.8a11.283,11.283,0,1,1,4.075-22.184c.41.075,1.434,6.414.376,12.111C1200.767,819.1,1197.7,823.866,1197.316,823.8Z" transform="translate(-910.408 -653.623)" fill="#6da196"/>
        <path id="Shape-11" data-name="Shape" d="M877.077,716.127a9.429,9.429,0,1,1-14.8,11.693c-.21-.266,1.193-6.921,5-9.917C870.878,715.071,876.879,715.875,877.077,716.127Z" transform="translate(-853.511 -638.662)" fill="#6da196"/>
        <path id="Shape-12" data-name="Shape" d="M873.42,895.381a9.433,9.433,0,0,1,14.859,11.626c-.209.267-7,.473-10.815-2.522C873.864,901.656,873.224,895.632,873.42,895.381Z" transform="translate(-855.456 -669.416)" fill="#6da196"/>
        <circle id="Shape-13" data-name="Shape" cx="27.231" cy="27.231" r="27.231" transform="translate(49.794 125.169)" fill="#6da196"/>
        <circle id="Shape-14" data-name="Shape" cx="27.231" cy="27.231" r="27.231" transform="translate(209.881 82.259)" fill="#6da196"/>
      </g>
      <g id="Dollar-2" data-name="Dollar" transform="translate(42.067 236.83)">
        <path id="Shape-15" data-name="Shape" d="M910.572,600.75C906.421,599.622,753.257,589,753.257,589S786.235,823.49,729,871.216c-2.157,1.8,194.386,41.26,194.386,41.26S985.772,621.194,910.572,600.75Z" transform="translate(-728.979 -589)" fill="#b2dfdb"/>
        <path id="Shape-16" data-name="Shape" d="M920.679,906.512l-3.976-.843c-.4-.085-40.279-8.551-79.715-17.164-23.171-5.062-41.659-9.184-54.951-12.252-7.914-1.828-14.061-3.3-18.269-4.374-7.132-1.822-9.284-2.372-10-5.106l-.643-2.467,1.934-1.721c19.365-16.932,27.372-66.215,23.156-142.521a1086.187,1086.187,0,0,0-12.744-112.852l-.9-5.117,5.189.281c.351.019,35.523,1.927,70.665,4.062,72.078,4.382,73.686,5.346,75.1,6.2,26.766,16.047,35.823,70.007,26.918,160.379-6.531,66.289-20.725,128.913-20.867,129.538ZM765.337,863.783c21.283,5.46,95.915,21.666,149.074,32.962,3.189-14.74,14.295-68.362,19.833-124.614,10.563-107.3-6.313-142.027-22.54-152.166-7.692-1.581-83.975-6.159-137.248-9.07,2.421,14.891,9.317,60.2,12,108.64C790.542,793.376,783.438,841.824,765.337,863.783Z" transform="translate(-733.2 -591.289)" fill="#6da196"/>
        <g id="Shape-17" data-name="Shape" transform="translate(78.195 127.482)">
          <g id="Group_3197" data-name="Group 3197" transform="translate(6.841)">
            <path id="Path_1671" data-name="Path 1671" d="M890.5,798.8a34.987,34.987,0,0,0,9.384-15.812c2.6-9.755-1.029-16.828-8.481-18.816-6.905-1.843-11.9,1.05-18.4,10-7.49,10.916-15.727,16.7-26.139,13.924-11.508-3.07-17.513-14.886-13.682-29.245,2.018-7.562,5.233-12.574,7.974-15.365l7.08,4.706a30.439,30.439,0,0,0-7.25,13.093c-2.69,10.084,2.315,15.528,7.357,16.873,6.9,1.842,11.5-1.745,18.166-10.885,8.156-11.209,15.88-15.957,26.731-13.062,11.4,3.042,19.011,14.112,14.362,31.539-1.9,7.125-6.058,14.351-9.742,17.595Z" transform="translate(-832.029 -743.488)" fill="#6da196"/>
          </g>
          <rect id="Rectangle_4002" data-name="Rectangle 4002" width="8.228" height="12.19" transform="translate(0 20.778) rotate(-75.062)" fill="#6da196"/>
          <rect id="Rectangle_4003" data-name="Rectangle 4003" width="8.228" height="12.19" transform="translate(75.842 41.012) rotate(-75.062)" fill="#6da196"/>
        </g>
        <path id="Shape-18" data-name="Shape" d="M782.284,604.022a9.431,9.431,0,1,1-10.552,15.633c-.281-.189,1.1-5.358,3.818-9.369C778.119,606.5,782.019,603.843,782.284,604.022Z" transform="translate(-736.446 -591.625)" fill="#6da196"/>
        <path id="Shape-19" data-name="Shape" d="M955.981,629.9a11.283,11.283,0,1,1-20.245-9.943c.184-.374,6.564.36,11.759,2.925C952.4,625.308,956.154,629.549,955.981,629.9Z" transform="translate(-764.907 -594.396)" fill="#6da196"/>
        <path id="Shape-20" data-name="Shape" d="M765.447,908.53a9.43,9.43,0,1,1,7.239,17.416c-.313.13-6.337-3.028-8.188-7.506C762.749,914.21,765.152,908.653,765.447,908.53Z" transform="translate(-735.077 -644.73)" fill="#6da196"/>
        <path id="Shape-21" data-name="Shape" d="M936.756,960.883a9.433,9.433,0,0,1,15.222-11.145c.2.273-1.446,6.869-5.362,9.724C942.917,962.16,936.945,961.141,936.756,960.883Z" transform="translate(-764.981 -651.385)" fill="#6da196"/>
        <circle id="Shape-22" data-name="Shape" cx="27.231" cy="27.231" r="27.231" transform="translate(88.313 212.9)" fill="#6da196"/>
        <circle id="Shape-23" data-name="Shape" cx="27.231" cy="27.231" r="27.231" transform="translate(94.09 42.085)" fill="#6da196"/>
      </g>
      <g id="Coin" transform="translate(49.515 417.551)">
        <circle id="Shape-24" data-name="Shape" cx="80.878" cy="80.878" r="80.878" transform="translate(84.044 0.1)" fill="#ffc200"/>
        <circle id="Shape-25" data-name="Shape" cx="70.306" cy="70.306" r="70.306" transform="translate(94.615 11.889)" fill="#f57c00"/>
        <circle id="Shape-26" data-name="Shape" cx="68.008" cy="68.008" r="68.008" transform="translate(96.913 12.97)" fill="#ffa000"/>
        <g id="Shape-27" data-name="Shape" transform="translate(137.342 36.41)">
          <g id="Group_3193" data-name="Group 3193" transform="translate(0 4.424)">
            <path id="Path_1667" data-name="Path 1667" d="M919.316,929.163a34.965,34.965,0,0,0,18.382-.393c9.656-2.947,13.741-9.769,11.489-17.146-2.087-6.835-7.184-9.548-18.216-10.332-13.226-.588-22.491-4.52-25.638-14.827-3.477-11.392,3.378-22.737,17.592-27.075,7.486-2.285,13.441-2.2,17.258-1.354l-.252,8.5a30.452,30.452,0,0,0-14.948.767c-9.982,3.047-11.957,10.173-10.434,15.164,2.087,6.835,7.561,8.841,18.843,9.666,13.826,1,21.939,5.045,25.218,15.786,3.444,11.283-1.929,23.6-19.179,28.864-7.053,2.153-15.385,2.443-20.085,1.031Z" transform="translate(-904.441 -857.488)" fill="#ffe082"/>
          </g>
          <rect id="Rectangle_3998" data-name="Rectangle 3998" width="8.228" height="12.19" transform="matrix(0.956, -0.292, 0.292, 0.956, 9.663, 2.402)" fill="#ffe082"/>
          <rect id="Rectangle_3999" data-name="Rectangle 3999" width="8.228" height="12.19" transform="matrix(0.956, -0.292, 0.292, 0.956, 32.58, 77.477)" fill="#ffe082"/>
        </g>
      </g>
      <g id="Coin-2" data-name="Coin" transform="translate(49.515 417.551)">
        <circle id="Shape-28" data-name="Shape" cx="80.878" cy="80.878" r="80.878" fill="#ffc200"/>
        <circle id="Shape-29" data-name="Shape" cx="70.306" cy="70.306" r="70.306" transform="translate(10.572 11.788)" fill="#f57c00"/>
        <circle id="Shape-30" data-name="Shape" cx="68.008" cy="68.008" r="68.008" transform="translate(12.869 12.869)" fill="#ffa000"/>
        <g id="Shape-31" data-name="Shape" transform="translate(38.244 50.14)">
          <g id="Group_3195" data-name="Group 3195">
            <path id="Path_1668" data-name="Path 1668" d="M792.746,895.572a34.969,34.969,0,0,0,4.853,17.735c5.207,8.648,12.818,10.951,19.426,6.972,6.121-3.686,7.514-9.291,5.591-20.183-2.647-12.971-1.087-22.916,8.145-28.474,10.2-6.144,22.875-2.254,30.54,10.477,4.038,6.706,5.408,12.5,5.512,16.411l-8.3,1.822a30.447,30.447,0,0,0-4.38-14.311c-5.384-8.94-12.776-9.123-17.246-6.432-6.122,3.687-6.736,9.485-4.792,20.629,2.395,13.653.444,22.508-9.177,28.3-10.106,6.086-23.358,3.869-32.662-11.582-3.8-6.317-6.112-14.329-5.886-19.231Z" transform="translate(-784.35 -868.766)" fill="#ffe082"/>
          </g>
          <rect id="Rectangle_4000" data-name="Rectangle 4000" width="8.228" height="12.19" transform="matrix(0.516, 0.857, -0.857, 0.516, 78.612, 3.823)" fill="#ffe082"/>
          <rect id="Rectangle_4001" data-name="Rectangle 4001" width="8.228" height="12.19" transform="matrix(0.516, 0.857, -0.857, 0.516, 11.367, 44.315)" fill="#ffe082"/>
        </g>
      </g>
      <g id="Coin-3" data-name="Coin" transform="translate(194.749 417.551)">
        <circle id="Shape-32" data-name="Shape" cx="80.878" cy="80.878" r="80.878" transform="translate(84.044 0.1)" fill="#ffc200"/>
        <circle id="Shape-33" data-name="Shape" cx="70.306" cy="70.306" r="70.306" transform="translate(94.615 11.889)" fill="#f57c00"/>
        <circle id="Shape-34" data-name="Shape" cx="68.008" cy="68.008" r="68.008" transform="translate(96.913 12.97)" fill="#ffa000"/>
        <g id="Shape-35" data-name="Shape" transform="translate(118.752 58.666)">
          <g id="Group_3199" data-name="Group 3199" transform="translate(5.517)">
            <path id="Path_1676" data-name="Path 1676" d="M1077.363,881.4a34.972,34.972,0,0,0-4.573,17.808c.237,10.092,5.706,15.864,13.418,15.683,7.144-.168,11.131-4.346,14.858-14.76,4.128-12.578,10.411-20.442,21.184-20.7,11.907-.28,20.985,9.378,21.335,24.234.184,7.825-1.5,13.538-3.345,16.985l-8.116-2.532a30.451,30.451,0,0,0,3.287-14.6c-.245-10.434-6.576-14.255-11.793-14.133-7.144.168-10.551,4.9-14.385,15.543-4.685,13.045-10.768,19.769-22,20.033-11.794.278-22.206-8.214-22.63-26.245-.173-7.372,1.791-15.474,4.418-19.621Z" transform="translate(-1064.597 -879.097)" fill="#ffe082"/>
          </g>
          <rect id="Rectangle_4004" data-name="Rectangle 4004" width="8.228" height="12.19" transform="translate(90.66 17.133) rotate(88.652)" fill="#ffe082"/>
          <rect id="Rectangle_4005" data-name="Rectangle 4005" width="8.228" height="12.19" transform="translate(12.186 18.98) rotate(88.652)" fill="#ffe082"/>
        </g>
      </g>
      <g id="Coin-4" data-name="Coin" transform="translate(194.749 417.551)">
        <circle id="Shape-36" data-name="Shape" cx="80.878" cy="80.878" r="80.878" fill="#ffc200"/>
        <circle id="Shape-37" data-name="Shape" cx="70.306" cy="70.306" r="70.306" transform="translate(10.572 11.788)" fill="#f57c00"/>
        <circle id="Shape-38" data-name="Shape" cx="68.008" cy="68.008" r="68.008" transform="translate(12.869 12.869)" fill="#ffa000"/>
        <g id="Shape-39" data-name="Shape" transform="translate(54.819 35.366)">
          <g id="Group_3201" data-name="Group 3201" transform="translate(0 6.706)">
            <path id="Path_1677" data-name="Path 1677" d="M983.453,923.093A34.96,34.96,0,0,0,1000.8,929.2c10.075.642,16.3-4.3,16.791-12,.454-7.132-3.362-11.468-13.411-16.086-12.171-5.208-19.459-12.151-18.773-22.906.757-11.886,11.169-20.089,26-19.144,7.811.5,13.356,2.669,16.63,4.81l-3.229,7.865a30.455,30.455,0,0,0-14.26-4.546c-10.415-.663-14.773,5.311-15.105,10.518-.454,7.132,3.964,10.937,14.232,15.684,12.588,5.8,18.757,12.448,18.044,23.655-.75,11.773-10.117,21.407-28.116,20.26-7.359-.469-15.259-3.132-19.162-6.108Z" transform="translate(-980.435 -858.987)" fill="#ffe082"/>
          </g>
          <rect id="Rectangle_4006" data-name="Rectangle 4006" width="8.228" height="12.19" transform="translate(24.093 0) rotate(3.645)" fill="#ffe082"/>
          <rect id="Rectangle_4007" data-name="Rectangle 4007" width="8.228" height="12.19" transform="translate(19.103 78.336) rotate(3.645)" fill="#ffe082"/>
        </g>
      </g>
      <g id="Glass" transform="translate(36.309 82.519)">
        <path id="Shape-40" data-name="Shape" d="M1100.687,461.825V402H814.119v59.924c-22.85,1.6-41.119,23.73-41.119,50.57v370.28c0,9.106,6.435,16.556,14.3,16.556h342.737c7.865,0,14.3-7.45,14.3-16.556V512.494C1144.337,484.669,1124.705,461.9,1100.687,461.825Z" transform="translate(-730.915 -402)" fill="#6fafd8" opacity="0.2"/>
        <path id="Shape-41" data-name="Shape" d="M1101.389,451.1V402H769.607v49.2A50.83,50.83,0,0,0,722,501.767V882.774a16.6,16.6,0,0,0,16.556,16.556H1135.37a16.6,16.6,0,0,0,16.556-16.556V501.767A50.82,50.82,0,0,0,1101.389,451.1Z" transform="translate(-722 -402)" fill="#b0c9f1" opacity="0.2"/>
      </g>
    </g>
    <g id="Coins" transform="translate(155.225 745.341)">
      <g id="Coin-5" data-name="Coin" transform="translate(5.776 75.093)" opacity="0.5">
        <path id="Path_1548" data-name="Path 1548" d="M253.5,1028.443c-64.378,0-89.513-19.141-89.513-27.924h0s-2.654-15.968,5.015-15.968c0,0,49.749,16.4,82.789,16.4,50.129,0,85.753-16.4,85.753-16.4,7.669,0,5.058,7.186,5.058,15.968h0C342.605,1009.3,317.645,1028.443,253.5,1028.443Z" transform="translate(-163.546 -965.962)" fill="#ffd529"/>
        <path id="Path_1549" data-name="Path 1549" d="M343.279,985.839c0-13.153-40.118-23.815-89.607-23.815s-89.608,10.662-89.608,23.815,40.143,26.584,89.632,26.584S343.279,998.992,343.279,985.839Z" transform="translate(-163.637 -962.024)" fill="#ffc200"/>
        <path id="Path_1550" data-name="Path 1550" d="M338.081,985.81c0-10.7-35.682-19.376-79.7-19.376s-79.7,8.674-79.7,19.376,35.7,21.627,79.72,21.627S338.081,996.51,338.081,985.81Z" transform="translate(-166.192 -962.795)" fill="#f57c00"/>
        <path id="Path_1551" data-name="Path 1551" d="M337.023,987.058c0-10.26-34.422-18.578-76.883-18.578s-76.884,8.318-76.884,18.578,34.443,20.736,76.9,20.736S337.023,997.318,337.023,987.058Z" transform="translate(-166.991 -963.153)" fill="#ffa000"/>
        <path id="Path_1552" data-name="Path 1552" d="M290.244,996.009c3.225-1.485,6.307-3.75,7.276-6.266,1.436-3.731-2.806-6.206-10.16-6.631-6.812-.394-11.286.89-16.54,4.486-5.993,4.369-13.253,6.863-23.526,6.268-11.354-.657-18.384-4.793-16.27-10.286a11.922,11.922,0,0,1,5.974-6.04l7.291,1.451c-1.653.847-4.542,2.608-5.526,5.167-1.485,3.858,3.9,5.669,8.872,5.957,6.812.395,10.827-1.13,16.22-4.805,6.6-4.5,13.481-6.592,24.187-5.973,11.245.651,19.734,4.443,17.169,11.11-1.05,2.726-4.25,5.583-7.426,6.942Z" transform="translate(-175.276 -964.736)" fill="#ffe082"/>
        <path id="Path_1553" data-name="Path 1553" d="M235.326,984.689l-1.171,3.041-11.62-.672,1.171-3.041Z" transform="translate(-173.858 -965.868)" fill="#ffe082"/>
        <path id="Path_1554" data-name="Path 1554" d="M326,989.937l-1.171,3.041-11.62-.672,1.171-3.041Z" transform="translate(-189.709 -966.786)" fill="#ffe082"/>
      </g>
      <g id="Coin-6" data-name="Coin" transform="translate(28.057 56.938)">
        <path id="Path_1555" data-name="Path 1555" d="M280.5,1006.443c-64.378,0-89.513-19.141-89.513-27.924h0s-2.654-15.968,5.015-15.968c0,0,49.749,16.4,82.789,16.4,50.129,0,85.753-16.4,85.753-16.4,7.668,0,5.058,7.186,5.058,15.968h0C369.605,987.3,344.645,1006.443,280.5,1006.443Z" transform="translate(-190.546 -943.962)" fill="#ffd529"/>
        <path id="Path_1556" data-name="Path 1556" d="M370.279,963.839c0-13.153-40.118-23.815-89.607-23.815s-89.608,10.662-89.608,23.815,40.143,26.584,89.632,26.584S370.279,976.992,370.279,963.839Z" transform="translate(-190.637 -940.024)" fill="#ffc200"/>
        <path id="Path_1557" data-name="Path 1557" d="M365.081,963.81c0-10.7-35.682-19.375-79.7-19.375s-79.7,8.674-79.7,19.375,35.7,21.627,79.72,21.627S365.081,974.51,365.081,963.81Z" transform="translate(-193.192 -940.795)" fill="#f57c00"/>
        <path id="Path_1558" data-name="Path 1558" d="M364.023,965.058c0-10.26-34.422-18.578-76.883-18.578s-76.884,8.318-76.884,18.578,34.443,20.736,76.9,20.736S364.023,975.318,364.023,965.058Z" transform="translate(-193.991 -941.153)" fill="#ffa000"/>
        <path id="Path_1559" data-name="Path 1559" d="M317.244,974.009c3.225-1.485,6.307-3.75,7.276-6.266,1.436-3.732-2.806-6.206-10.16-6.631-6.812-.394-11.286.89-16.54,4.486-5.993,4.368-13.253,6.863-23.526,6.268-11.354-.657-18.385-4.793-16.27-10.286a11.922,11.922,0,0,1,5.974-6.04l7.291,1.451c-1.653.847-4.542,2.608-5.526,5.167-1.485,3.858,3.9,5.669,8.872,5.957,6.812.394,10.827-1.13,16.22-4.8,6.6-4.5,13.481-6.592,24.187-5.973,11.245.651,19.734,4.443,17.169,11.11-1.05,2.726-4.25,5.583-7.426,6.942Z" transform="translate(-202.276 -942.736)" fill="#ffe082"/>
        <path id="Path_1560" data-name="Path 1560" d="M262.326,962.689l-1.171,3.041-11.62-.672,1.171-3.041Z" transform="translate(-200.858 -943.868)" fill="#ffe082"/>
        <path id="Path_1561" data-name="Path 1561" d="M353,967.937l-1.171,3.042-11.62-.672,1.171-3.042Z" transform="translate(-216.709 -944.786)" fill="#ffe082"/>
      </g>
      <g id="Coin-7" data-name="Coin" transform="translate(0 43.735)">
        <path id="Path_1562" data-name="Path 1562" d="M246.5,990.443c-64.378,0-89.513-19.141-89.513-27.924h0s-2.654-15.968,5.015-15.968c0,0,49.749,16.4,82.789,16.4,50.129,0,85.753-16.4,85.753-16.4,7.668,0,5.058,7.186,5.058,15.968h0C335.605,971.3,310.645,990.443,246.5,990.443Z" transform="translate(-156.546 -927.962)" fill="#ffd529"/>
        <path id="Path_1563" data-name="Path 1563" d="M336.279,947.839c0-13.153-40.118-23.815-89.607-23.815s-89.608,10.662-89.608,23.815,40.143,26.584,89.632,26.584S336.279,960.992,336.279,947.839Z" transform="translate(-156.637 -924.024)" fill="#ffc200"/>
        <path id="Path_1564" data-name="Path 1564" d="M331.081,947.81c0-10.7-35.682-19.376-79.7-19.376s-79.7,8.674-79.7,19.376,35.7,21.627,79.72,21.627S331.081,958.51,331.081,947.81Z" transform="translate(-159.192 -924.795)" fill="#f57c00"/>
        <path id="Path_1565" data-name="Path 1565" d="M330.023,949.058c0-10.26-34.422-18.578-76.883-18.578s-76.884,8.318-76.884,18.578,34.443,20.736,76.9,20.736S330.023,959.318,330.023,949.058Z" transform="translate(-159.991 -925.153)" fill="#ffa000"/>
        <path id="Path_1566" data-name="Path 1566" d="M283.244,958.009c3.225-1.486,6.307-3.75,7.276-6.266,1.436-3.731-2.806-6.206-10.16-6.631-6.812-.394-11.286.89-16.54,4.486-5.993,4.369-13.253,6.863-23.526,6.268-11.354-.657-18.384-4.793-16.27-10.286a11.922,11.922,0,0,1,5.974-6.04l7.291,1.451c-1.653.848-4.542,2.608-5.526,5.167-1.485,3.858,3.9,5.669,8.872,5.957,6.812.394,10.827-1.131,16.22-4.805,6.6-4.5,13.481-6.592,24.187-5.973,11.245.651,19.734,4.443,17.169,11.11-1.05,2.726-4.25,5.583-7.426,6.942Z" transform="translate(-168.276 -926.736)" fill="#ffe082"/>
        <path id="Path_1567" data-name="Path 1567" d="M228.326,946.689l-1.171,3.041-11.62-.672,1.171-3.041Z" transform="translate(-166.858 -927.868)" fill="#ffe082"/>
        <path id="Path_1568" data-name="Path 1568" d="M319,951.937l-1.171,3.041-11.62-.672,1.171-3.041Z" transform="translate(-182.709 -928.786)" fill="#ffe082"/>
      </g>
      <g id="Coin-8" data-name="Coin" transform="translate(15.679 24.756)">
        <path id="Path_1569" data-name="Path 1569" d="M265.5,967.443c-64.378,0-89.513-19.141-89.513-27.924h0s-2.654-15.968,5.015-15.968c0,0,49.749,16.4,82.789,16.4,50.129,0,85.753-16.4,85.753-16.4,7.669,0,5.058,7.186,5.058,15.968h0C354.605,948.3,329.645,967.443,265.5,967.443Z" transform="translate(-175.546 -904.962)" fill="#ffd529"/>
        <path id="Path_1570" data-name="Path 1570" d="M355.279,924.839c0-13.153-40.118-23.815-89.607-23.815s-89.608,10.662-89.608,23.815,40.143,26.584,89.632,26.584S355.279,937.992,355.279,924.839Z" transform="translate(-175.637 -901.024)" fill="#ffc200"/>
        <path id="Path_1571" data-name="Path 1571" d="M350.081,924.81c0-10.7-35.682-19.375-79.7-19.375s-79.7,8.674-79.7,19.375,35.7,21.627,79.72,21.627S350.081,935.51,350.081,924.81Z" transform="translate(-178.192 -901.795)" fill="#f57c00"/>
        <path id="Path_1572" data-name="Path 1572" d="M349.023,926.058c0-10.26-34.422-18.578-76.883-18.578s-76.884,8.318-76.884,18.578,34.443,20.736,76.9,20.736S349.023,936.318,349.023,926.058Z" transform="translate(-178.991 -902.153)" fill="#ffa000"/>
        <path id="Path_1573" data-name="Path 1573" d="M302.244,935.008c3.225-1.485,6.307-3.75,7.276-6.266,1.436-3.732-2.806-6.206-10.16-6.631-6.812-.394-11.286.89-16.54,4.486-5.993,4.369-13.253,6.863-23.526,6.268-11.354-.657-18.384-4.793-16.27-10.286a11.922,11.922,0,0,1,5.974-6.04l7.291,1.451c-1.653.847-4.542,2.608-5.526,5.167-1.485,3.858,3.9,5.669,8.872,5.957,6.812.394,10.827-1.13,16.22-4.805,6.6-4.5,13.481-6.592,24.187-5.973,11.245.651,19.734,4.443,17.169,11.11-1.05,2.726-4.25,5.583-7.426,6.942Z" transform="translate(-187.276 -903.736)" fill="#ffe082"/>
        <path id="Path_1574" data-name="Path 1574" d="M247.326,923.689l-1.171,3.041-11.62-.672,1.171-3.041Z" transform="translate(-185.858 -904.868)" fill="#ffe082"/>
        <path id="Path_1575" data-name="Path 1575" d="M338,928.937l-1.171,3.041-11.62-.672,1.171-3.041Z" transform="translate(-201.709 -905.786)" fill="#ffe082"/>
      </g>
      <g id="Coin-9" data-name="Coin" transform="translate(18.154)">
        <path id="Path_1576" data-name="Path 1576" d="M268.5,937.443c-64.378,0-89.513-19.141-89.513-27.924h0s-2.654-15.968,5.015-15.968c0,0,49.749,16.4,82.789,16.4,50.129,0,85.753-16.4,85.753-16.4,7.669,0,5.058,7.186,5.058,15.968h0C357.605,918.3,332.645,937.443,268.5,937.443Z" transform="translate(-178.546 -874.962)" fill="#ffd529"/>
        <path id="Path_1577" data-name="Path 1577" d="M358.279,894.839c0-13.153-40.118-23.815-89.607-23.815s-89.608,10.662-89.608,23.815,40.143,26.584,89.632,26.584S358.279,907.992,358.279,894.839Z" transform="translate(-178.637 -871.024)" fill="#ffc200"/>
        <path id="Path_1578" data-name="Path 1578" d="M353.081,894.81c0-10.7-35.682-19.375-79.7-19.375s-79.7,8.674-79.7,19.375,35.7,21.627,79.72,21.627S353.081,905.51,353.081,894.81Z" transform="translate(-181.192 -871.795)" fill="#f57c00"/>
        <path id="Path_1579" data-name="Path 1579" d="M352.023,896.058c0-10.26-34.422-18.578-76.883-18.578s-76.884,8.318-76.884,18.578,34.443,20.736,76.9,20.736S352.023,906.318,352.023,896.058Z" transform="translate(-181.991 -872.153)" fill="#ffa000"/>
        <path id="Path_1580" data-name="Path 1580" d="M305.244,905.008c3.225-1.485,6.307-3.75,7.276-6.266,1.436-3.732-2.806-6.206-10.16-6.631-6.812-.394-11.286.89-16.54,4.486-5.993,4.368-13.253,6.863-23.526,6.268-11.354-.657-18.384-4.793-16.27-10.286a11.922,11.922,0,0,1,5.974-6.04l7.291,1.451c-1.653.848-4.542,2.608-5.526,5.167-1.485,3.858,3.9,5.669,8.872,5.957,6.812.394,10.827-1.13,16.22-4.805,6.6-4.5,13.481-6.592,24.187-5.973,11.245.651,19.734,4.443,17.169,11.11-1.05,2.726-4.25,5.583-7.426,6.942Z" transform="translate(-190.276 -873.736)" fill="#ffe082"/>
        <path id="Path_1581" data-name="Path 1581" d="M250.326,893.689l-1.171,3.041-11.62-.672,1.171-3.041Z" transform="translate(-188.858 -874.868)" fill="#ffe082"/>
        <path id="Path_1582" data-name="Path 1582" d="M341,898.937l-1.171,3.041-11.62-.672,1.171-3.041Z" transform="translate(-204.709 -875.786)" fill="#ffe082"/>
      </g>
    </g>
    <g id="Coins-2" data-name="Coins" transform="translate(322.739 633.94)">
      <g id="Coin-10" data-name="Coin" transform="translate(78.393 188.144)">
        <path id="Path_1583" data-name="Path 1583" d="M544.5,1030.443c-64.378,0-89.513-19.141-89.513-27.924h0s-2.654-15.968,5.015-15.968c0,0,49.749,16.4,82.789,16.4,50.129,0,85.753-16.4,85.753-16.4,7.669,0,5.058,7.186,5.058,15.968h0C633.605,1011.3,608.645,1030.443,544.5,1030.443Z" transform="translate(-454.546 -967.962)" fill="#ffd529"/>
        <path id="Path_1584" data-name="Path 1584" d="M634.279,987.839c0-13.153-40.118-23.815-89.607-23.815s-89.608,10.662-89.608,23.815,40.143,26.584,89.632,26.584S634.279,1000.992,634.279,987.839Z" transform="translate(-454.637 -964.024)" fill="#ffc200"/>
        <path id="Path_1585" data-name="Path 1585" d="M629.081,987.81c0-10.7-35.682-19.375-79.7-19.375s-79.7,8.674-79.7,19.375,35.7,21.627,79.72,21.627S629.081,998.51,629.081,987.81Z" transform="translate(-457.192 -964.795)" fill="#f57c00"/>
        <path id="Path_1586" data-name="Path 1586" d="M628.023,989.058c0-10.26-34.422-18.578-76.883-18.578s-76.884,8.318-76.884,18.578,34.443,20.736,76.9,20.736S628.023,999.318,628.023,989.058Z" transform="translate(-457.991 -965.153)" fill="#ffa000"/>
        <path id="Path_1587" data-name="Path 1587" d="M581.245,998.009c3.225-1.485,6.307-3.75,7.276-6.266,1.436-3.731-2.806-6.206-10.16-6.631-6.812-.395-11.286.89-16.54,4.486-5.993,4.369-13.253,6.863-23.526,6.268-11.354-.657-18.385-4.793-16.27-10.286a11.922,11.922,0,0,1,5.974-6.04l7.291,1.451c-1.653.847-4.542,2.608-5.526,5.167-1.485,3.858,3.9,5.669,8.872,5.957,6.812.395,10.827-1.13,16.22-4.805,6.6-4.5,13.481-6.593,24.187-5.973,11.245.651,19.734,4.443,17.169,11.11-1.05,2.726-4.25,5.583-7.426,6.942Z" transform="translate(-466.276 -966.736)" fill="#ffe082"/>
        <path id="Path_1588" data-name="Path 1588" d="M526.326,986.689l-1.171,3.041-11.62-.673,1.171-3.041Z" transform="translate(-464.858 -967.868)" fill="#ffe082"/>
        <path id="Path_1589" data-name="Path 1589" d="M617,991.937l-1.171,3.041-11.62-.672,1.171-3.041Z" transform="translate(-480.709 -968.786)" fill="#ffe082"/>
      </g>
      <g id="Coin-11" data-name="Coin" transform="translate(42.085 169.99)">
        <path id="Path_1590" data-name="Path 1590" d="M500.5,1008.443c-64.378,0-89.513-19.141-89.513-27.924h0s-2.654-15.968,5.015-15.968c0,0,49.749,16.4,82.789,16.4,50.129,0,85.753-16.4,85.753-16.4,7.669,0,5.058,7.186,5.058,15.968h0C589.605,989.3,564.645,1008.443,500.5,1008.443Z" transform="translate(-410.546 -945.962)" fill="#ffd529"/>
        <path id="Path_1591" data-name="Path 1591" d="M590.279,965.839c0-13.153-40.118-23.815-89.607-23.815s-89.608,10.662-89.608,23.815,40.143,26.583,89.632,26.583S590.279,978.992,590.279,965.839Z" transform="translate(-410.637 -942.024)" fill="#ffc200"/>
        <path id="Path_1592" data-name="Path 1592" d="M585.081,965.81c0-10.7-35.682-19.376-79.7-19.376s-79.7,8.674-79.7,19.376,35.7,21.627,79.72,21.627S585.081,976.51,585.081,965.81Z" transform="translate(-413.192 -942.795)" fill="#f57c00"/>
        <path id="Path_1593" data-name="Path 1593" d="M584.023,967.058c0-10.26-34.422-18.578-76.883-18.578s-76.884,8.318-76.884,18.578,34.443,20.736,76.9,20.736S584.023,977.318,584.023,967.058Z" transform="translate(-413.991 -943.152)" fill="#ffa000"/>
        <path id="Path_1594" data-name="Path 1594" d="M537.245,976.008c3.225-1.485,6.307-3.75,7.276-6.266,1.436-3.732-2.806-6.206-10.16-6.631-6.812-.394-11.286.89-16.54,4.486-5.993,4.369-13.253,6.863-23.526,6.268-11.354-.657-18.384-4.793-16.27-10.286a11.923,11.923,0,0,1,5.974-6.04l7.291,1.451c-1.653.847-4.542,2.608-5.526,5.166-1.485,3.858,3.9,5.669,8.872,5.957,6.812.394,10.827-1.13,16.22-4.805,6.6-4.5,13.481-6.592,24.187-5.973,11.245.651,19.734,4.443,17.169,11.11-1.05,2.726-4.25,5.583-7.426,6.942Z" transform="translate(-422.276 -944.736)" fill="#ffe082"/>
        <path id="Path_1595" data-name="Path 1595" d="M482.326,964.689l-1.171,3.041-11.62-.672,1.171-3.041Z" transform="translate(-420.858 -945.868)" fill="#ffe082"/>
        <path id="Path_1596" data-name="Path 1596" d="M573,969.937l-1.171,3.041-11.62-.672,1.171-3.041Z" transform="translate(-436.709 -946.786)" fill="#ffe082"/>
      </g>
      <g id="Coin-12" data-name="Coin" transform="translate(42.91 151.01)">
        <path id="Path_1597" data-name="Path 1597" d="M501.5,985.443c-64.378,0-89.513-19.141-89.513-27.924h0s-2.654-15.968,5.015-15.968c0,0,49.749,16.4,82.789,16.4,50.129,0,85.753-16.4,85.753-16.4,7.669,0,5.058,7.186,5.058,15.968h0C590.605,966.3,565.645,985.443,501.5,985.443Z" transform="translate(-411.546 -922.962)" fill="#ffd529"/>
        <path id="Path_1598" data-name="Path 1598" d="M591.279,942.839c0-13.153-40.119-23.815-89.607-23.815s-89.608,10.662-89.608,23.815,40.143,26.584,89.632,26.584S591.279,955.992,591.279,942.839Z" transform="translate(-411.637 -919.024)" fill="#ffc200"/>
        <path id="Path_1599" data-name="Path 1599" d="M586.081,942.81c0-10.7-35.682-19.375-79.7-19.375s-79.7,8.674-79.7,19.375,35.7,21.627,79.72,21.627S586.081,953.51,586.081,942.81Z" transform="translate(-414.192 -919.795)" fill="#f57c00"/>
        <path id="Path_1600" data-name="Path 1600" d="M585.023,944.058c0-10.26-34.422-18.578-76.883-18.578s-76.884,8.318-76.884,18.578,34.443,20.736,76.9,20.736S585.023,954.318,585.023,944.058Z" transform="translate(-414.991 -920.152)" fill="#ffa000"/>
        <path id="Path_1601" data-name="Path 1601" d="M538.245,953.008c3.225-1.485,6.307-3.75,7.276-6.266,1.436-3.732-2.807-6.206-10.16-6.631-6.812-.394-11.286.89-16.54,4.486-5.993,4.369-13.253,6.863-23.526,6.268-11.354-.657-18.384-4.793-16.27-10.286a11.923,11.923,0,0,1,5.974-6.04l7.291,1.451c-1.653.847-4.542,2.608-5.526,5.167-1.485,3.858,3.9,5.669,8.872,5.957,6.812.394,10.827-1.13,16.22-4.805,6.6-4.5,13.481-6.592,24.187-5.973,11.245.651,19.734,4.443,17.169,11.11-1.05,2.726-4.25,5.583-7.426,6.942Z" transform="translate(-423.276 -921.736)" fill="#ffe082"/>
        <path id="Path_1602" data-name="Path 1602" d="M483.326,941.689l-1.171,3.041-11.62-.672,1.171-3.041Z" transform="translate(-421.858 -922.868)" fill="#ffe082"/>
        <path id="Path_1603" data-name="Path 1603" d="M574,946.937l-1.171,3.041-11.62-.672,1.171-3.041Z" transform="translate(-437.709 -923.786)" fill="#ffe082"/>
      </g>
      <g id="Coin-13" data-name="Coin" transform="translate(45.386 132.856)">
        <path id="Path_1604" data-name="Path 1604" d="M504.5,963.443c-64.378,0-89.513-19.141-89.513-27.924h0s-2.654-15.968,5.015-15.968c0,0,49.749,16.4,82.789,16.4,50.129,0,85.753-16.4,85.753-16.4,7.669,0,5.058,7.186,5.058,15.968h0C593.605,944.3,568.645,963.443,504.5,963.443Z" transform="translate(-414.546 -900.962)" fill="#ffd529"/>
        <path id="Path_1605" data-name="Path 1605" d="M594.279,920.839c0-13.153-40.118-23.815-89.607-23.815s-89.608,10.662-89.608,23.815,40.143,26.584,89.632,26.584S594.279,933.992,594.279,920.839Z" transform="translate(-414.637 -897.024)" fill="#ffc200"/>
        <path id="Path_1606" data-name="Path 1606" d="M589.081,920.81c0-10.7-35.682-19.376-79.7-19.376s-79.7,8.674-79.7,19.376,35.7,21.627,79.72,21.627S589.081,931.51,589.081,920.81Z" transform="translate(-417.192 -897.795)" fill="#f57c00"/>
        <path id="Path_1607" data-name="Path 1607" d="M588.023,922.058c0-10.26-34.422-18.578-76.883-18.578s-76.884,8.318-76.884,18.578,34.443,20.736,76.9,20.736S588.023,932.318,588.023,922.058Z" transform="translate(-417.991 -898.153)" fill="#ffa000"/>
        <path id="Path_1609" data-name="Path 1609" d="M486.326,919.689l-1.171,3.041-11.62-.673,1.171-3.041Z" transform="translate(-424.858 -900.868)" fill="#ffe082"/>
        <path id="Path_1610" data-name="Path 1610" d="M577,924.937l-1.171,3.041-11.62-.672,1.171-3.041Z" transform="translate(-440.709 -901.786)" fill="#ffe082"/>
      </g>
      <g id="Coin-14" data-name="Coin" transform="translate(75.093 119.653)">
        <path id="Path_1611" data-name="Path 1611" d="M540.5,947.443c-64.378,0-89.513-19.141-89.513-27.924h0s-2.654-15.968,5.015-15.968c0,0,49.749,16.4,82.789,16.4,50.129,0,85.753-16.4,85.753-16.4,7.669,0,5.058,7.186,5.058,15.968h0C629.605,928.3,604.645,947.443,540.5,947.443Z" transform="translate(-450.546 -884.962)" fill="#ffd529"/>
        <path id="Path_1612" data-name="Path 1612" d="M630.279,904.839c0-13.153-40.118-23.815-89.607-23.815s-89.608,10.662-89.608,23.815,40.143,26.584,89.632,26.584S630.279,917.992,630.279,904.839Z" transform="translate(-450.637 -881.024)" fill="#ffc200"/>
        <path id="Path_1613" data-name="Path 1613" d="M625.081,904.81c0-10.7-35.682-19.375-79.7-19.375s-79.7,8.674-79.7,19.375,35.7,21.627,79.72,21.627S625.081,915.51,625.081,904.81Z" transform="translate(-453.192 -881.795)" fill="#f57c00"/>
        <path id="Path_1614" data-name="Path 1614" d="M624.023,906.058c0-10.26-34.422-18.578-76.883-18.578s-76.884,8.318-76.884,18.578,34.443,20.736,76.9,20.736S624.023,916.318,624.023,906.058Z" transform="translate(-453.991 -882.153)" fill="#ffa000"/>
        <path id="Path_1615" data-name="Path 1615" d="M577.245,915.008c3.225-1.485,6.307-3.75,7.276-6.266,1.436-3.732-2.807-6.206-10.16-6.631-6.812-.394-11.286.89-16.54,4.486-5.993,4.369-13.253,6.863-23.526,6.268-11.354-.657-18.384-4.793-16.27-10.286a11.923,11.923,0,0,1,5.973-6.04l7.291,1.451c-1.653.847-4.542,2.608-5.526,5.167-1.485,3.858,3.9,5.669,8.872,5.957,6.812.394,10.827-1.131,16.22-4.805,6.6-4.5,13.481-6.592,24.187-5.973,11.245.651,19.734,4.443,17.169,11.11-1.05,2.726-4.25,5.583-7.426,6.942Z" transform="translate(-462.276 -883.736)" fill="#ffe082"/>
        <path id="Path_1616" data-name="Path 1616" d="M522.326,903.689l-1.171,3.041-11.62-.672,1.171-3.041Z" transform="translate(-460.858 -884.868)" fill="#ffe082"/>
        <path id="Path_1617" data-name="Path 1617" d="M613,908.937l-1.171,3.041-11.62-.672,1.171-3.041Z" transform="translate(-476.709 -885.786)" fill="#ffe082"/>
      </g>
      <g id="Coin-15" data-name="Coin" transform="translate(31.357 94.072)">
        <path id="Path_1618" data-name="Path 1618" d="M487.5,916.443c-64.378,0-89.513-19.141-89.513-27.924h0s-2.654-15.968,5.015-15.968c0,0,49.749,16.4,82.789,16.4,50.129,0,85.753-16.4,85.753-16.4,7.669,0,5.058,7.186,5.058,15.968h0C576.605,897.3,551.645,916.443,487.5,916.443Z" transform="translate(-397.546 -853.962)" fill="#ffd529"/>
        <path id="Path_1619" data-name="Path 1619" d="M577.279,873.839c0-13.153-40.118-23.815-89.607-23.815s-89.608,10.662-89.608,23.815,40.143,26.584,89.632,26.584S577.279,886.992,577.279,873.839Z" transform="translate(-397.637 -850.024)" fill="#ffc200"/>
        <path id="Path_1620" data-name="Path 1620" d="M572.081,873.81c0-10.7-35.682-19.376-79.7-19.376s-79.7,8.674-79.7,19.376,35.7,21.627,79.72,21.627S572.081,884.51,572.081,873.81Z" transform="translate(-400.192 -850.795)" fill="#f57c00"/>
        <path id="Path_1621" data-name="Path 1621" d="M571.023,875.058c0-10.26-34.422-18.578-76.883-18.578s-76.884,8.318-76.884,18.578,34.443,20.736,76.9,20.736S571.023,885.318,571.023,875.058Z" transform="translate(-400.991 -851.153)" fill="#ffa000"/>
        <path id="Path_1622" data-name="Path 1622" d="M524.245,884.008c3.225-1.485,6.307-3.75,7.276-6.266,1.436-3.732-2.806-6.206-10.16-6.631-6.812-.394-11.286.89-16.54,4.486-5.993,4.369-13.253,6.863-23.526,6.268-11.354-.657-18.384-4.793-16.27-10.286a11.922,11.922,0,0,1,5.974-6.04l7.291,1.451c-1.653.847-4.542,2.608-5.526,5.167-1.485,3.858,3.9,5.669,8.872,5.957,6.812.394,10.827-1.13,16.22-4.805,6.6-4.5,13.481-6.592,24.187-5.973,11.245.651,19.735,4.443,17.169,11.11-1.05,2.726-4.25,5.583-7.426,6.942Z" transform="translate(-409.276 -852.736)" fill="#ffe082"/>
        <path id="Path_1623" data-name="Path 1623" d="M469.326,872.689l-1.171,3.041-11.62-.672,1.171-3.041Z" transform="translate(-407.858 -853.868)" fill="#ffe082"/>
        <path id="Path_1624" data-name="Path 1624" d="M560,877.937l-1.171,3.041-11.62-.673,1.171-3.041Z" transform="translate(-423.709 -854.786)" fill="#ffe082"/>
      </g>
      <g id="Coin-16" data-name="Coin" transform="translate(0 78.393)">
        <path id="Path_1625" data-name="Path 1625" d="M449.5,897.443c-64.378,0-89.513-19.141-89.513-27.924h0s-2.654-15.968,5.015-15.968c0,0,49.749,16.4,82.789,16.4,50.129,0,85.753-16.4,85.753-16.4,7.669,0,5.058,7.186,5.058,15.968h0C538.605,878.3,513.645,897.443,449.5,897.443Z" transform="translate(-359.546 -834.962)" fill="#ffd529"/>
        <path id="Path_1626" data-name="Path 1626" d="M539.279,854.839c0-13.153-40.118-23.815-89.607-23.815s-89.608,10.662-89.608,23.815,40.143,26.584,89.632,26.584S539.279,867.992,539.279,854.839Z" transform="translate(-359.637 -831.024)" fill="#ffc200"/>
        <path id="Path_1627" data-name="Path 1627" d="M534.081,854.81c0-10.7-35.682-19.376-79.7-19.376s-79.7,8.674-79.7,19.376,35.7,21.627,79.72,21.627S534.081,865.51,534.081,854.81Z" transform="translate(-362.192 -831.795)" fill="#f57c00"/>
        <path id="Path_1628" data-name="Path 1628" d="M533.023,856.058c0-10.26-34.422-18.578-76.883-18.578s-76.884,8.318-76.884,18.578,34.443,20.736,76.9,20.736S533.023,866.318,533.023,856.058Z" transform="translate(-362.991 -832.153)" fill="#ffa000"/>
        <path id="Path_1629" data-name="Path 1629" d="M486.244,865.008c3.225-1.485,6.307-3.75,7.276-6.266,1.436-3.731-2.807-6.206-10.16-6.631-6.812-.394-11.286.89-16.54,4.486-5.993,4.368-13.253,6.863-23.526,6.268-11.354-.657-18.384-4.793-16.27-10.286a11.922,11.922,0,0,1,5.974-6.04l7.291,1.451c-1.653.847-4.542,2.609-5.526,5.167-1.485,3.858,3.9,5.669,8.872,5.957,6.812.394,10.827-1.13,16.22-4.805,6.6-4.5,13.481-6.592,24.187-5.973,11.245.651,19.734,4.443,17.169,11.11-1.05,2.726-4.25,5.583-7.426,6.942Z" transform="translate(-371.276 -833.736)" fill="#ffe082"/>
        <path id="Path_1630" data-name="Path 1630" d="M431.326,853.689l-1.171,3.041-11.62-.672,1.171-3.041Z" transform="translate(-369.858 -834.868)" fill="#ffe082"/>
        <path id="Path_1631" data-name="Path 1631" d="M522,858.937l-1.171,3.041-11.62-.672,1.171-3.041Z" transform="translate(-385.709 -835.786)" fill="#ffe082"/>
      </g>
      <g id="Coin-17" data-name="Coin" transform="translate(56.938 61.889)">
        <path id="Path_1632" data-name="Path 1632" d="M518.5,877.443c-64.378,0-89.513-19.141-89.513-27.924h0s-2.654-15.968,5.015-15.968c0,0,49.749,16.4,82.789,16.4,50.129,0,85.753-16.4,85.753-16.4,7.669,0,5.058,7.186,5.058,15.968h0C607.605,858.3,582.645,877.443,518.5,877.443Z" transform="translate(-428.546 -814.962)" fill="#ffd529"/>
        <path id="Path_1633" data-name="Path 1633" d="M608.279,834.839c0-13.153-40.118-23.815-89.607-23.815s-89.608,10.662-89.608,23.815,40.143,26.584,89.632,26.584S608.279,847.992,608.279,834.839Z" transform="translate(-428.637 -811.024)" fill="#ffc200"/>
        <path id="Path_1634" data-name="Path 1634" d="M603.081,834.81c0-10.7-35.682-19.376-79.7-19.376s-79.7,8.674-79.7,19.376,35.7,21.627,79.72,21.627S603.081,845.51,603.081,834.81Z" transform="translate(-431.192 -811.795)" fill="#f57c00"/>
        <path id="Path_1635" data-name="Path 1635" d="M602.023,836.058c0-10.26-34.422-18.578-76.883-18.578s-76.884,8.318-76.884,18.578,34.443,20.736,76.9,20.736S602.023,846.318,602.023,836.058Z" transform="translate(-431.991 -812.153)" fill="#ffa000"/>
        <path id="Path_1636" data-name="Path 1636" d="M555.245,845.008c3.225-1.485,6.307-3.75,7.276-6.266,1.436-3.732-2.807-6.206-10.16-6.631-6.812-.394-11.286.89-16.54,4.486-5.993,4.369-13.253,6.863-23.526,6.268-11.354-.657-18.384-4.793-16.27-10.286a11.922,11.922,0,0,1,5.974-6.04l7.291,1.451c-1.653.848-4.542,2.608-5.526,5.167-1.485,3.858,3.9,5.669,8.872,5.957,6.812.394,10.827-1.131,16.22-4.805,6.6-4.5,13.481-6.592,24.187-5.973,11.245.651,19.734,4.443,17.169,11.11-1.05,2.726-4.25,5.583-7.426,6.942Z" transform="translate(-440.276 -813.736)" fill="#ffe082"/>
        <path id="Path_1637" data-name="Path 1637" d="M500.326,833.689l-1.171,3.041-11.62-.673,1.171-3.041Z" transform="translate(-438.858 -814.868)" fill="#ffe082"/>
        <path id="Path_1638" data-name="Path 1638" d="M591,838.937l-1.171,3.041-11.62-.672,1.171-3.041Z" transform="translate(-454.709 -815.786)" fill="#ffe082"/>
      </g>
      <g id="Coin-18" data-name="Coin" transform="translate(23.931 47.861)">
        <path id="Path_1639" data-name="Path 1639" d="M478.5,860.443c-64.378,0-89.513-19.141-89.513-27.924h0s-2.654-15.968,5.015-15.968c0,0,49.749,16.4,82.789,16.4,50.129,0,85.753-16.4,85.753-16.4,7.669,0,5.058,7.186,5.058,15.968h0C567.605,841.3,542.645,860.443,478.5,860.443Z" transform="translate(-388.546 -797.962)" fill="#ffd529"/>
        <path id="Path_1640" data-name="Path 1640" d="M568.279,817.839c0-13.153-40.118-23.815-89.607-23.815s-89.608,10.662-89.608,23.815,40.143,26.584,89.632,26.584S568.279,830.992,568.279,817.839Z" transform="translate(-388.637 -794.024)" fill="#ffc200"/>
        <path id="Path_1641" data-name="Path 1641" d="M563.081,817.81c0-10.7-35.682-19.375-79.7-19.375s-79.7,8.674-79.7,19.375,35.7,21.627,79.72,21.627S563.081,828.51,563.081,817.81Z" transform="translate(-391.192 -794.795)" fill="#f57c00"/>
        <path id="Path_1642" data-name="Path 1642" d="M562.023,819.058c0-10.26-34.422-18.578-76.883-18.578s-76.884,8.318-76.884,18.578,34.443,20.736,76.9,20.736S562.023,829.318,562.023,819.058Z" transform="translate(-391.991 -795.153)" fill="#ffa000"/>
        <path id="Path_1643" data-name="Path 1643" d="M515.245,828.008c3.225-1.485,6.307-3.75,7.276-6.266,1.436-3.732-2.807-6.206-10.16-6.631-6.812-.394-11.286.89-16.54,4.486-5.993,4.369-13.253,6.863-23.526,6.268-11.354-.657-18.384-4.793-16.27-10.286a11.922,11.922,0,0,1,5.974-6.04l7.291,1.451c-1.653.847-4.542,2.608-5.526,5.167-1.485,3.858,3.9,5.669,8.872,5.957,6.812.394,10.827-1.131,16.22-4.805,6.6-4.5,13.481-6.592,24.187-5.973,11.245.651,19.734,4.443,17.169,11.11-1.05,2.726-4.25,5.583-7.426,6.942Z" transform="translate(-400.276 -796.736)" fill="#ffe082"/>
        <path id="Path_1644" data-name="Path 1644" d="M460.326,816.689l-1.171,3.041-11.62-.672,1.171-3.041Z" transform="translate(-398.858 -797.868)" fill="#ffe082"/>
        <path id="Path_1645" data-name="Path 1645" d="M551,821.937l-1.171,3.041-11.62-.672,1.171-3.041Z" transform="translate(-414.709 -798.786)" fill="#ffe082"/>
      </g>
      <g id="Coin-19" data-name="Coin" transform="translate(56.113 29.707)">
        <path id="Path_1646" data-name="Path 1646" d="M517.5,838.443c-64.378,0-89.513-19.141-89.513-27.924h0s-2.654-15.968,5.015-15.968c0,0,49.749,16.4,82.789,16.4,50.129,0,85.753-16.4,85.753-16.4,7.669,0,5.058,7.186,5.058,15.968h0C606.605,819.3,581.645,838.443,517.5,838.443Z" transform="translate(-427.546 -775.962)" fill="#ffd529"/>
        <path id="Path_1647" data-name="Path 1647" d="M607.279,795.839c0-13.153-40.118-23.815-89.607-23.815s-89.608,10.662-89.608,23.815,40.143,26.584,89.632,26.584S607.279,808.992,607.279,795.839Z" transform="translate(-427.637 -772.024)" fill="#ffc200"/>
        <path id="Path_1648" data-name="Path 1648" d="M602.081,795.81c0-10.7-35.682-19.375-79.7-19.375s-79.7,8.674-79.7,19.375,35.7,21.627,79.72,21.627S602.081,806.51,602.081,795.81Z" transform="translate(-430.192 -772.795)" fill="#f57c00"/>
        <path id="Path_1649" data-name="Path 1649" d="M601.023,797.058c0-10.26-34.422-18.578-76.883-18.578s-76.884,8.318-76.884,18.578,34.443,20.736,76.9,20.736S601.023,807.318,601.023,797.058Z" transform="translate(-430.991 -773.153)" fill="#ffa000"/>
        <path id="Path_1650" data-name="Path 1650" d="M554.245,806.009c3.225-1.485,6.307-3.75,7.276-6.266,1.436-3.731-2.807-6.206-10.16-6.631-6.812-.394-11.286.89-16.54,4.486-5.993,4.368-13.253,6.863-23.526,6.268-11.354-.657-18.385-4.793-16.27-10.286a11.921,11.921,0,0,1,5.974-6.04l7.291,1.451c-1.653.848-4.542,2.609-5.526,5.167-1.485,3.858,3.9,5.669,8.872,5.957,6.812.394,10.827-1.131,16.22-4.805,6.6-4.5,13.481-6.592,24.187-5.973,11.245.651,19.734,4.443,17.169,11.11-1.05,2.726-4.25,5.583-7.426,6.942Z" transform="translate(-439.276 -774.736)" fill="#ffe082"/>
        <path id="Path_1651" data-name="Path 1651" d="M499.326,794.689l-1.171,3.041-11.62-.672,1.171-3.041Z" transform="translate(-437.858 -775.868)" fill="#ffe082"/>
        <path id="Path_1652" data-name="Path 1652" d="M590,799.937l-1.171,3.041-11.62-.672,1.171-3.041Z" transform="translate(-453.709 -776.786)" fill="#ffe082"/>
      </g>
      <g id="Coin-20" data-name="Coin" transform="translate(70.967)">
        <path id="Path_1653" data-name="Path 1653" d="M535.5,802.443c-64.378,0-89.513-19.141-89.513-27.924h0s-2.654-15.968,5.015-15.968c0,0,49.749,16.4,82.789,16.4,50.129,0,85.753-16.4,85.753-16.4,7.669,0,5.058,7.186,5.058,15.968h0C624.605,783.3,599.645,802.443,535.5,802.443Z" transform="translate(-445.546 -739.962)" fill="#ffd529"/>
        <path id="Path_1654" data-name="Path 1654" d="M625.279,759.839c0-13.153-40.118-23.815-89.607-23.815s-89.608,10.662-89.608,23.815,40.143,26.584,89.632,26.584S625.279,772.992,625.279,759.839Z" transform="translate(-445.637 -736.024)" fill="#ffc200"/>
        <path id="Path_1655" data-name="Path 1655" d="M620.08,759.81c0-10.7-35.682-19.375-79.7-19.375s-79.7,8.674-79.7,19.375,35.7,21.627,79.72,21.627S620.08,770.51,620.08,759.81Z" transform="translate(-448.192 -736.795)" fill="#f57c00"/>
        <path id="Path_1656" data-name="Path 1656" d="M619.023,761.058c0-10.26-34.422-18.578-76.883-18.578s-76.884,8.318-76.884,18.578,34.443,20.736,76.9,20.736S619.023,771.318,619.023,761.058Z" transform="translate(-448.991 -737.153)" fill="#ffa000"/>
        <path id="Path_1657" data-name="Path 1657" d="M572.245,770.008c3.225-1.485,6.307-3.75,7.276-6.266,1.436-3.732-2.807-6.206-10.16-6.631-6.812-.394-11.286.89-16.54,4.486-5.993,4.369-13.253,6.863-23.526,6.268-11.354-.657-18.385-4.793-16.27-10.286a11.922,11.922,0,0,1,5.973-6.04l7.291,1.451c-1.653.847-4.542,2.608-5.526,5.167-1.485,3.858,3.9,5.669,8.872,5.957,6.812.394,10.826-1.13,16.22-4.805,6.6-4.5,13.481-6.592,24.187-5.973,11.245.651,19.734,4.443,17.169,11.11-1.05,2.726-4.25,5.583-7.426,6.942Z" transform="translate(-457.276 -738.736)" fill="#ffe082"/>
        <path id="Path_1658" data-name="Path 1658" d="M517.326,758.689l-1.171,3.041-11.62-.672,1.171-3.041Z" transform="translate(-455.858 -739.868)" fill="#ffe082"/>
        <path id="Path_1659" data-name="Path 1659" d="M608,763.937l-1.171,3.041-11.62-.672,1.171-3.041Z" transform="translate(-471.709 -740.786)" fill="#ffe082"/>
      </g>
    </g>
    <g id="Person" transform="translate(325.661 200.59)">
      <path id="Shape-42" data-name="Shape" d="M530.577,301.552l6.871-31.438L553.6,271.48l2.574,30.783-.814,19.368Z" transform="translate(-392.366 -221.229)" fill="#f4ca92"/>
      <path id="Shape-43" data-name="Shape" d="M374.815,252.805c-17.991,7.46-19.811,52.75,27.366,50.4,6.791-.338-16.029,13.26-4.3,25.016,15.8,15.84,52.542,18.893,77.7.13,12.616-9.408,7.734-42.85,25.14-45.657,3.7-.6,8.986-6.151,9.907-11.22,2.149-11.816,15.2-23.138,23.264-26.971,18.211-8.66,9.018-29.458-4.181-31.758-12.688-2.212-22.667-4.593-31.38,6.391-7.6,9.585-5.152,17.4-10.955,18.671-4.007.876-9.361-3.579-20.322-3.216-23.2.767-25.261,14.86-30.483,20.727C423.315,270.213,405.849,239.937,374.815,252.805Z" transform="translate(-363.087 -210.874)" fill="#56557e"/>
      <path id="Shape-44" data-name="Shape" d="M573.124,731.272l-8.686-1.23L546.594,705.7S509.357,584.44,533.481,557.2c5.568-6.287,26.06-.57,26.06-.57l-3.523,144.716Z" transform="translate(-391.452 -270.898)" fill="#f4ca92"/>
      <path id="Shape-45" data-name="Shape" d="M550.561,746.092c.338.091,1.382,18.144,1.382,18.144l1.829.083s1.786-17.587,2.193-17.561c5.377.35,6.9,17.6,13.9,17.6.152,0,8.008.048,8.071-.009,1.636-1.447-2.271-4.555-2.271-4.555s-4.859-1.217-6.357-3.037c-4.912-5.963-12.014-18.9-13.623-20.584-2.229-2.34-5.959-2.134-5.959-2.134S547.462,745.26,550.561,746.092Z" transform="translate(-395.574 -302.327)" fill="#37474f"/>
      <path id="Shape-46" data-name="Shape" d="M532.643,707.17l16.582,25.093-7.113-1.538L522.7,707.754s-40.29-125.975-25.953-143.826c5.258-6.547,33.59,0,33.59,0Z" transform="translate(-385.912 -272.082)" fill="#ffdfae"/>
      <rect id="Shape-47" data-name="Shape" width="11.261" height="8.444" transform="matrix(0.909, 0.416, -0.416, 0.909, 258.578, 127.245)" fill="#ffdfae"/>
      <path id="Shape-48" data-name="Shape" d="M680.905,373.19c.654-3.58,1.764-5.852,9.161-4.129,4.613,1.074,3.83,2.395,3.174,5.974s-3.226,5.19-7.886,4.338S680.25,376.77,680.905,373.19Z" transform="translate(-418.602 -238.423)" fill="#ffdfae"/>
      <path id="Shape-49" data-name="Shape" d="M657.382,364.027s-46.411-11.1-61.1-17.218c-4.137-1.724-35.7-30.065-35.7-30.065s-3.654-16,.814-18.516c8.628-4.85,50.518,32.636,50.518,32.636l47.763,21.692Z" transform="translate(-397.365 -226.068)" fill="#9499ea"/>
      <path id="Shape-50" data-name="Shape" d="M559.844,403.057l-56.422-7.091s-6.689-52.468-1.4-77.618c.983-4.68,11.937-19.938,22.893-26.373,2.654-1.559,22.7,16.33,22.7,16.33l2.136-14.8c6.015,4.1,12.047,3.113,19.38,14.908,8.315,13.373,9.927,34.137,3.776,44.58C563.261,369.356,559.844,403.057,559.844,403.057Z" transform="translate(-387.018 -225.034)" fill="#7379db"/>
      <path id="Shape-51" data-name="Shape" d="M574.047,256.563c-.786.966-4.77-1.744-4.831,1.215-.3,14.847-7.228,22.369-13.2,20.359-5.876-1.977-8.778-6.7-12.406-8.934-.185-.114,2.584-6.956,3.241-12.512.355-3-4.093-11.072-2.9-12.817,3.279-4.79,4.674.156,7.953-.077,14.794-1.05,6.358-17.34,9.711-18.908.167-.078,8.379,11.8,8.35,21.788C569.957,249.985,575.733,254.488,574.047,256.563Z" transform="translate(-394.642 -213.324)" fill="#ffdfae"/>
      <path id="Shape-52" data-name="Shape" d="M553.784,556.1c-9.433,7.087-51.76,14.563-67.394,1.93-12.941-10.458-4.728-32.9-5.111-51.11-.411-19.494-4.984-73.721,18.447-89.243.314-.209,15.373,1.945,15.72,1.988l40.667,5.314C565.158,430.034,558.776,552.352,553.784,556.1Z" transform="translate(-383.36 -247.022)" fill="#37474f"/>
      <path id="Shape-53" data-name="Shape" d="M686.709,372.015c2.024-3.581,3.623-5.837,6.139-3.943,1.569,1.183,2.033,3.839.008,7.419s-4.705,4.9-6.4,3.94S684.684,375.6,686.709,372.015Z" transform="translate(-419.392 -238.233)" fill="#ffdfae"/>
      <path id="Shape-54" data-name="Shape" d="M528.062,746.092c.337.091,1.381,18.144,1.381,18.144l1.83.083s1.786-17.587,2.194-17.561c5.377.35,6.9,17.6,13.9,17.6.151,0,8.007.048,8.071-.009,1.636-1.447-2.271-4.555-2.271-4.555s-4.859-1.217-6.357-3.037c-4.912-5.963-12.015-18.9-13.624-20.584-2.229-2.34-5.958-2.134-5.958-2.134S524.963,745.26,528.062,746.092Z" transform="translate(-391.641 -302.327)" fill="#37474f"/>
      <g id="Dollar-3" data-name="Dollar" transform="translate(-20.004 66.776)">
        <path id="Shape-55" data-name="Shape" d="M643.373,461.732c.375-4.284-16.3-156.908-16.3-156.908s-224.941,73.991-282.051,26.111c-2.152-1.8-6.176,198.621-6.176,198.621S636.573,539.365,643.373,461.732Z" transform="translate(-338.846 -294.073)" fill="#b2dfdb"/>
        <path id="Shape-56" data-name="Shape" d="M395.32,524.154c-26.153,0-43.725-.789-44.059-.8l-4.059-.188.126-4.062c.012-.406,1.28-41.156,2.773-81.494.876-23.7,1.659-42.628,2.325-56.253.4-8.112.757-14.423,1.069-18.755.53-7.341.69-9.557,3.255-10.741l2.316-1.069,2.035,1.6c20.094,16.06,70.017,15.21,144.369-2.456A1086.014,1086.014,0,0,0,614.279,317.4l4.877-1.794.642,5.157c.044.348,4.4,35.3,8.519,70.268,8.455,71.714,7.792,73.468,7.206,75.014h0c-11.053,29.186-62.556,47.657-153.075,54.9C450.646,523.487,419.358,524.154,395.32,524.154Zm-39.616-8.89c15.072.528,69.812,1.961,126.156-2.553,107.471-8.608,138.664-31.368,145.768-49.135.193-7.85-8.812-83.738-15.382-136.685-14.227,5.02-57.6,19.832-104.8,31.05-71.952,17.1-120.891,18.693-145.708,4.767C360.135,384.622,357.406,460.945,355.7,515.264Z" transform="translate(-340.307 -295.958)" fill="#6da196"/>
        <g id="Shape-57" data-name="Shape" transform="translate(127.989 90.148)">
          <g id="Group_3203" data-name="Group 3203" transform="translate(0 5.887)">
            <path id="Path_1694" data-name="Path 1694" d="M501.673,477.153a34.985,34.985,0,0,0,18.238,2.337c9.986-1.484,15.037-7.624,13.9-15.254-1.051-7.069-5.69-10.509-16.483-12.919-12.993-2.542-21.573-7.8-23.157-18.464-1.749-11.781,6.712-21.984,21.411-24.167,7.742-1.15,13.619-.188,17.268,1.22l-1.509,8.367a30.445,30.445,0,0,0-14.9-1.457c-10.323,1.533-13.333,8.288-12.566,13.449,1.05,7.069,6.167,9.864,17.2,12.353,13.525,3.038,20.95,8.242,22.6,19.351,1.734,11.668-5.407,23.051-23.246,25.7-7.294,1.083-15.577.135-20.016-1.958Z" transform="translate(-493.947 -408.175)" fill="#6da196"/>
          </g>
          <path id="Path_4946" data-name="Path 4946" d="M0,0H8.228V12.19H0Z" transform="matrix(0.989, -0.147, 0.147, 0.989, 13.497, 1.209)" fill="#6da196"/>
          <path id="Path_4947" data-name="Path 4947" d="M0,0H8.228V12.19H0Z" transform="matrix(0.989, -0.147, 0.147, 0.989, 25.031, 78.852)" fill="#6da196"/>
        </g>
        <path id="Shape-58" data-name="Shape" d="M674.146,331.567a9.431,9.431,0,1,1-17.256-7.617c.136-.309,5.468.134,9.9,2.1C670.973,327.906,674.275,331.274,674.146,331.567Z" transform="translate(-394.302 -297.401)" fill="#6da196"/>
        <path id="Shape-59" data-name="Shape" d="M679.785,506.686a11.283,11.283,0,1,1,6.2-21.686c.4.116.808,6.523-.8,12.092C683.673,502.352,680.164,506.795,679.785,506.686Z" transform="translate(-396.959 -325.488)" fill="#6da196"/>
        <path id="Shape-60" data-name="Shape" d="M371.448,368.581a9.43,9.43,0,1,1-15.858,10.208c-.183-.285,1.857-6.773,5.936-9.387C365.38,366.933,371.275,368.312,371.448,368.581Z" transform="translate(-341.771 -305.109)" fill="#6da196"/>
        <path id="Shape-61" data-name="Shape" d="M350.644,546.553a9.433,9.433,0,0,1,13.665,13.008c-.234.245-7.017-.206-10.52-3.555C350.479,552.842,350.424,546.784,350.644,546.553Z" transform="translate(-340.895 -335.817)" fill="#6da196"/>
        <circle id="Shape-62" data-name="Shape" cx="27.231" cy="27.231" r="27.231" transform="translate(40.827 115.876)" fill="#6da196"/>
        <circle id="Shape-63" data-name="Shape" cx="27.231" cy="27.231" r="27.231" transform="translate(209.964 91.305)" fill="#6da196"/>
        <path id="Shape-64" data-name="Shape" d="M691.276,373.685c.367-5.495.989-9.146,5.124-8.318,2.58.517,4.68,3.453,4.313,8.948s-2.837,8.644-5.443,8.47S690.909,379.179,691.276,373.685Z" transform="translate(-400.445 -304.636)" fill="#ffdfae"/>
      </g>
      <path id="Shape-65" data-name="Shape" d="M357.666,348.093a34.323,34.323,0,0,0-6.962.347c-2.931.441-5.112.594-7.944,2.433-2.12,1.376-2.781,7.088-2.28,8.954,2.344,8.731,10.241-.292,10.241-.292l6.946-.2Z" transform="translate(-359.108 -234.852)" fill="#ffdfae"/>
      <path id="Shape-66" data-name="Shape" d="M354.2,349.837l.1-11.546,59.161-9.04s78.535-39.886,86.775-37.338c.45.139-25.366,39.238-25.366,39.238L423.289,349.2Z" transform="translate(-361.533 -225.02)" fill="#9499ea"/>
    </g>
  </g>
</svg>
